<svg version="1.1" viewBox="0.0 0.0 960.0 720.0" fill="none" stroke="none" stroke-linecap="square" stroke-miterlimit="10" xmlns:xlink="http://www.w3.org/1999/xlink" xmlns="http://www.w3.org/2000/svg"><clipPath id="p.0"><path d="m0 0l960.0 0l0 720.0l-960.0 0l0 -720.0z" clip-rule="nonzero"/></clipPath><g clip-path="url(#p.0)"><path fill="#ffffff" d="m0 0l960.0 0l0 720.0l-960.0 0z" fill-rule="evenodd"/><path fill="#000000" fill-opacity="0.0" d="m0 27.91601l960.0 0l0 48.125984l-960.0 0z" fill-rule="evenodd"/><path fill="#000000" d="m283.07855 62.51601l0 -15.859375l-5.65625 0l0 -3.21875l15.15625 0l0 3.21875l-5.640625 0l0 15.859375l-3.859375 0zm12.001465 0l0 -19.078125l8.109375 0q3.0625 0 4.4375 0.515625q1.390625 0.515625 2.21875 1.828125q0.84375 1.3125 0.84375 3.0q0 2.15625 -1.265625 3.5625q-1.265625 1.390625 -3.78125 1.75q1.25 0.734375 2.0625 1.609375q0.8125 0.859375 2.203125 3.09375l2.328125 3.71875l-4.609375 0l-2.78125 -4.15625q-1.484375 -2.21875 -2.03125 -2.796875q-0.546875 -0.578125 -1.171875 -0.796875q-0.609375 -0.21875 -1.921875 -0.21875l-0.78125 0l0 7.96875l-3.859375 0zm3.859375 -11.015625l2.84375 0q2.765625 0 3.453125 -0.234375q0.703125 -0.234375 1.09375 -0.796875q0.390625 -0.578125 0.390625 -1.4375q0 -0.96875 -0.515625 -1.546875q-0.515625 -0.59375 -1.453125 -0.75q-0.46875 -0.078125 -2.8125 -0.078125l-3.0 0l0 4.84375zm32.5784 11.015625l-4.1875 0l-1.65625 -4.328125l-7.640625 0l-1.5625 4.328125l-4.09375 0l7.4375 -19.078125l4.0625 0l7.640625 19.078125zm-7.09375 -7.546875l-2.625 -7.078125l-2.578125 7.078125l5.203125 0zm9.031525 7.546875l0 -19.078125l3.84375 0l0 19.078125l-3.84375 0zm7.5622253 0l0 -19.078125l3.75 0l7.796875 12.734375l0 -12.734375l3.578125 0l0 19.078125l-3.859375 0l-7.6875 -12.4375l0 12.4375l-3.578125 0zm19.094025 0l0 -19.078125l3.84375 0l0 19.078125l-3.84375 0zm7.5622253 0l0 -19.078125l3.75 0l7.796875 12.734375l0 -12.734375l3.578125 0l0 19.078125l-3.859375 0l-7.6875 -12.4375l0 12.4375l-3.578125 0zm28.0784 -7.015625l0 -3.21875l8.3125 0l0 7.609375q-1.21875 1.171875 -3.515625 2.0625q-2.296875 0.890625 -4.65625 0.890625q-2.984375 0 -5.21875 -1.25q-2.21875 -1.265625 -3.34375 -3.59375q-1.109375 -2.34375 -1.109375 -5.09375q0 -2.984375 1.25 -5.296875q1.25 -2.3125 3.65625 -3.546875q1.828125 -0.953125 4.5625 -0.953125q3.546875 0 5.546875 1.5q2.0 1.484375 2.578125 4.109375l-3.828125 0.71875q-0.40625 -1.40625 -1.515625 -2.21875q-1.109375 -0.8125 -2.78125 -0.8125q-2.53125 0 -4.015625 1.609375q-1.484375 1.59375 -1.484375 4.734375q0 3.40625 1.5 5.109375q1.515625 1.6875 3.96875 1.6875q1.203125 0 2.421875 -0.46875q1.21875 -0.484375 2.09375 -1.15625l0 -2.421875l-4.421875 0zm18.296326 0.8125l3.75 -0.375q0.328125 1.890625 1.359375 2.78125q1.046875 0.875 2.796875 0.875q1.859375 0 2.796875 -0.78125q0.953125 -0.78125 0.953125 -1.84375q0 -0.671875 -0.40625 -1.140625q-0.390625 -0.484375 -1.375 -0.828125q-0.671875 -0.234375 -3.09375 -0.84375q-3.09375 -0.765625 -4.34375 -1.890625q-1.75 -1.5625 -1.75 -3.828125q0 -1.46875 0.828125 -2.734375q0.828125 -1.265625 2.375 -1.921875q1.5625 -0.671875 3.75 -0.671875q3.59375 0 5.40625 1.578125q1.828125 1.578125 1.921875 4.203125l-3.859375 0.171875q-0.25 -1.46875 -1.0625 -2.109375q-0.8125 -0.65625 -2.4375 -0.65625q-1.6875 0 -2.625 0.6875q-0.609375 0.453125 -0.609375 1.1875q0 0.671875 0.5625 1.15625q0.734375 0.609375 3.546875 1.28125q2.8125 0.65625 4.15625 1.375q1.34375 0.703125 2.109375 1.9375q0.765625 1.234375 0.765625 3.03125q0 1.640625 -0.921875 3.078125q-0.90625 1.4375 -2.578125 2.140625q-1.65625 0.6875 -4.140625 0.6875q-3.625 0 -5.5625 -1.671875q-1.9375 -1.671875 -2.3125 -4.875zm23.045105 6.203125l0 -15.859375l-5.65625 0l0 -3.21875l15.15625 0l0 3.21875l-5.640625 0l0 15.859375l-3.859375 0zm11.98584 0l0 -19.078125l14.15625 0l0 3.21875l-10.296875 0l0 4.234375l9.578125 0l0 3.21875l-9.578125 0l0 5.1875l10.65625 0l0 3.21875l-14.515625 0zm17.77951 0l0 -19.078125l6.1875 0q3.515625 0 4.578125 0.28125q1.640625 0.4375 2.75 1.875q1.109375 1.4375 1.109375 3.703125q0 1.765625 -0.640625 2.96875q-0.640625 1.1875 -1.625 1.875q-0.984375 0.6875 -2.0 0.90625q-1.375 0.265625 -4.0 0.265625l-2.5 0l0 7.203125l-3.859375 0zm3.859375 -15.859375l0 5.421875l2.109375 0q2.265625 0 3.03125 -0.296875q0.78125 -0.296875 1.21875 -0.9375q0.4375 -0.640625 0.4375 -1.484375q0 -1.046875 -0.625 -1.71875q-0.609375 -0.671875 -1.546875 -0.84375q-0.6875 -0.140625 -2.765625 -0.140625l-1.859375 0zm32.391205 12.46875l0 3.390625l-12.828125 0q0.21875 -1.921875 1.25 -3.640625q1.046875 -1.734375 4.125 -4.578125q2.46875 -2.3125 3.03125 -3.125q0.75 -1.140625 0.75 -2.25q0 -1.21875 -0.65625 -1.875q-0.65625 -0.65625 -1.8125 -0.65625q-1.140625 0 -1.828125 0.6875q-0.671875 0.6875 -0.78125 2.296875l-3.640625 -0.375q0.328125 -3.015625 2.046875 -4.328125q1.71875 -1.3125 4.296875 -1.3125q2.8125 0 4.421875 1.53125q1.625 1.515625 1.625 3.78125q0 1.28125 -0.46875 2.453125q-0.453125 1.15625 -1.453125 2.4375q-0.671875 0.84375 -2.40625 2.4375q-1.71875 1.578125 -2.1875 2.109375q-0.453125 0.515625 -0.75 1.015625l7.265625 0zm10.246521 -1.703125l0 -3.65625l7.1875 0l0 3.65625l-7.1875 0zm16.73584 -13.984375l7.625 0q2.265625 0 3.375 0.1875q1.109375 0.1875 1.984375 0.796875q0.890625 0.59375 1.46875 1.59375q0.59375 0.984375 0.59375 2.21875q0 1.34375 -0.734375 2.46875q-0.71875 1.109375 -1.953125 1.671875q1.75 0.515625 2.6875 1.734375q0.9375 1.21875 0.9375 2.875q0 1.296875 -0.609375 2.53125q-0.609375 1.234375 -1.65625 1.96875q-1.046875 0.734375 -2.578125 0.90625q-0.96875 0.09375 -4.640625 0.125l-6.5 0l0 -19.078125zm3.859375 3.171875l0 4.40625l2.515625 0q2.25 0 2.796875 -0.0625q1.0 -0.109375 1.5625 -0.671875q0.5625 -0.578125 0.5625 -1.5q0 -0.875 -0.484375 -1.421875q-0.484375 -0.5625 -1.453125 -0.6875q-0.578125 -0.0625 -3.296875 -0.0625l-2.203125 0zm0 7.59375l0 5.09375l3.5625 0q2.078125 0 2.640625 -0.109375q0.859375 -0.15625 1.390625 -0.765625q0.546875 -0.609375 0.546875 -1.625q0 -0.859375 -0.421875 -1.453125q-0.40625 -0.59375 -1.203125 -0.859375q-0.78125 -0.28125 -3.40625 -0.28125l-3.109375 0zm32.57837 8.3125l-4.1875 0l-1.65625 -4.328125l-7.640625 0l-1.5625 4.328125l-4.09375 0l7.4375 -19.078125l4.0625 0l7.640625 19.078125zm-7.09375 -7.546875l-2.625 -7.078125l-2.578125 7.078125l5.203125 0zm21.344055 0.53125l3.75 1.1875q-0.859375 3.125 -2.859375 4.640625q-2.0 1.515625 -5.078125 1.515625q-3.796875 0 -6.25 -2.59375q-2.4375 -2.609375 -2.4375 -7.109375q0 -4.765625 2.453125 -7.390625q2.46875 -2.640625 6.46875 -2.640625q3.5 0 5.6875 2.0625q1.3125 1.234375 1.953125 3.515625l-3.8125 0.921875q-0.34375 -1.484375 -1.421875 -2.34375q-1.0625 -0.859375 -2.59375 -0.859375q-2.125 0 -3.453125 1.53125q-1.3125 1.515625 -1.3125 4.921875q0 3.609375 1.296875 5.15625q1.296875 1.53125 3.390625 1.53125q1.53125 0 2.640625 -0.96875q1.109375 -0.984375 1.578125 -3.078125zm7.094055 7.015625l0 -19.078125l3.859375 0l0 8.46875l7.78125 -8.46875l5.1875 0l-7.1875 7.421875l7.578125 11.65625l-4.984375 0l-5.25 -8.953125l-3.125 3.1875l0 5.765625l-3.859375 0zm26.609375 0l0 -19.078125l6.1875 0q3.515625 0 4.578125 0.28125q1.640625 0.4375 2.75 1.875q1.109375 1.4375 1.109375 3.703125q0 1.765625 -0.640625 2.96875q-0.640625 1.1875 -1.625 1.875q-0.984375 0.6875 -2.0 0.90625q-1.375 0.265625 -4.0 0.265625l-2.5 0l0 7.203125l-3.859375 0zm3.859375 -15.859375l0 5.421875l2.109375 0q2.265625 0 3.03125 -0.296875q0.78125 -0.296875 1.21875 -0.9375q0.4375 -0.640625 0.4375 -1.484375q0 -1.046875 -0.625 -1.71875q-0.609375 -0.671875 -1.546875 -0.84375q-0.6875 -0.140625 -2.765625 -0.140625l-1.859375 0zm29.144104 15.859375l-4.1875 0l-1.65625 -4.328125l-7.640625 0l-1.5625 4.328125l-4.09375 0l7.4375 -19.078125l4.0625 0l7.640625 19.078125zm-7.09375 -7.546875l-2.625 -7.078125l-2.578125 7.078125l5.203125 0zm8.17218 1.34375l3.75 -0.375q0.328125 1.890625 1.359375 2.78125q1.046875 0.875 2.796875 0.875q1.859375 0 2.796875 -0.78125q0.953125 -0.78125 0.953125 -1.84375q0 -0.671875 -0.40625 -1.140625q-0.390625 -0.484375 -1.375 -0.828125q-0.671875 -0.234375 -3.09375 -0.84375q-3.09375 -0.765625 -4.34375 -1.890625q-1.75 -1.5625 -1.75 -3.828125q0 -1.46875 0.828125 -2.734375q0.828125 -1.265625 2.375 -1.921875q1.5625 -0.671875 3.75 -0.671875q3.59375 0 5.40625 1.578125q1.828125 1.578125 1.921875 4.203125l-3.859375 0.171875q-0.25 -1.46875 -1.0625 -2.109375q-0.8125 -0.65625 -2.4375 -0.65625q-1.6875 0 -2.625 0.6875q-0.609375 0.453125 -0.609375 1.1875q0 0.671875 0.5625 1.15625q0.734375 0.609375 3.546875 1.28125q2.8125 0.65625 4.15625 1.375q1.34375 0.703125 2.109375 1.9375q0.765625 1.234375 0.765625 3.03125q0 1.640625 -0.921875 3.078125q-0.90625 1.4375 -2.578125 2.140625q-1.65625 0.6875 -4.140625 0.6875q-3.625 0 -5.5625 -1.671875q-1.9375 -1.671875 -2.3125 -4.875zm17.779541 0l3.75 -0.375q0.328125 1.890625 1.359375 2.78125q1.046875 0.875 2.796875 0.875q1.859375 0 2.796875 -0.78125q0.953125 -0.78125 0.953125 -1.84375q0 -0.671875 -0.40625 -1.140625q-0.390625 -0.484375 -1.375 -0.828125q-0.671875 -0.234375 -3.09375 -0.84375q-3.09375 -0.765625 -4.34375 -1.890625q-1.75 -1.5625 -1.75 -3.828125q0 -1.46875 0.828125 -2.734375q0.828125 -1.265625 2.375 -1.921875q1.5625 -0.671875 3.75 -0.671875q3.59375 0 5.40625 1.578125q1.828125 1.578125 1.921875 4.203125l-3.859375 0.171875q-0.25 -1.46875 -1.0625 -2.109375q-0.8125 -0.65625 -2.4375 -0.65625q-1.6875 0 -2.625 0.6875q-0.609375 0.453125 -0.609375 1.1875q0 0.671875 0.5625 1.15625q0.734375 0.609375 3.546875 1.28125q2.8125 0.65625 4.15625 1.375q1.34375 0.703125 2.109375 1.9375q0.765625 1.234375 0.765625 3.03125q0 1.640625 -0.921875 3.078125q-0.90625 1.4375 -2.578125 2.140625q-1.65625 0.6875 -4.140625 0.6875q-3.625 0 -5.5625 -1.671875q-1.9375 -1.671875 -2.3125 -4.875z" fill-rule="nonzero"/><path fill="#000000" d="m448.67215 84.03664l2.03125 0.515625q-0.640625 2.484375 -2.296875 3.796875q-1.640625 1.3125 -4.03125 1.3125q-2.46875 0 -4.015625 -1.0q-1.546875 -1.015625 -2.359375 -2.921875q-0.796875 -1.90625 -0.796875 -4.09375q0 -2.390625 0.90625 -4.15625q0.921875 -1.78125 2.59375 -2.703125q1.6875 -0.921875 3.703125 -0.921875q2.296875 0 3.859375 1.171875q1.5625 1.171875 2.171875 3.28125l-1.984375 0.46875q-0.53125 -1.671875 -1.546875 -2.421875q-1.0 -0.765625 -2.53125 -0.765625q-1.765625 0 -2.953125 0.84375q-1.171875 0.84375 -1.65625 2.265625q-0.484375 1.421875 -0.484375 2.921875q0 1.953125 0.5625 3.40625q0.578125 1.453125 1.765625 2.171875q1.203125 0.71875 2.609375 0.71875q1.6875 0 2.859375 -0.96875q1.1875 -0.984375 1.59375 -2.921875zm3.5743713 -0.171875q0 -3.078125 1.71875 -4.546875q1.421875 -1.234375 3.46875 -1.234375q2.28125 0 3.71875 1.5q1.453125 1.484375 1.453125 4.125q0 2.140625 -0.640625 3.359375q-0.625 1.21875 -1.859375 1.90625q-1.21875 0.671875 -2.671875 0.671875q-2.3125 0 -3.75 -1.484375q-1.4375 -1.5 -1.4375 -4.296875zm1.9375 0q0 2.125 0.921875 3.1875q0.921875 1.046875 2.328125 1.046875q1.40625 0 2.328125 -1.0625q0.921875 -1.0625 0.921875 -3.234375q0 -2.046875 -0.9375 -3.109375q-0.921875 -1.0625 -2.3125 -1.0625q-1.40625 0 -2.328125 1.0625q-0.921875 1.046875 -0.921875 3.171875zm10.627319 5.53125l0 -11.0625l1.671875 0l0 1.546875q0.53125 -0.8125 1.390625 -1.296875q0.859375 -0.5 1.96875 -0.5q1.234375 0 2.015625 0.515625q0.78125 0.5 1.109375 1.421875q1.3125 -1.9375 3.40625 -1.9375q1.65625 0 2.53125 0.921875q0.890625 0.90625 0.890625 2.796875l0 7.59375l-1.859375 0l0 -6.96875q0 -1.125 -0.1875 -1.609375q-0.1875 -0.5 -0.671875 -0.796875q-0.46875 -0.3125 -1.109375 -0.3125q-1.171875 0 -1.9375 0.78125q-0.765625 0.765625 -0.765625 2.484375l0 6.421875l-1.875 0l0 -7.1875q0 -1.25 -0.46875 -1.875q-0.453125 -0.625 -1.5 -0.625q-0.78125 0 -1.453125 0.421875q-0.671875 0.40625 -0.984375 1.21875q-0.296875 0.796875 -0.296875 2.3125l0 5.734375l-1.875 0zm17.76648 4.2343674l0 -15.296867l1.703125 0l0 1.4375q0.609375 -0.84375 1.359375 -1.265625q0.765625 -0.421875 1.859375 -0.421875q1.40625 0 2.484375 0.734375q1.09375 0.71875 1.640625 2.046875q0.546875 1.328125 0.546875 2.921875q0 1.6875 -0.609375 3.046875q-0.59375 1.359375 -1.765625 2.09375q-1.15625 0.71875 -2.4375 0.71875q-0.9375 0 -1.6875 -0.390625q-0.734375 -0.40625 -1.21875 -1.0l0 5.3749924l-1.875 0zm1.703125 -9.703117q0 2.140625 0.859375 3.15625q0.859375 1.015625 2.09375 1.015625q1.25 0 2.140625 -1.046875q0.890625 -1.0625 0.890625 -3.28125q0 -2.109375 -0.875 -3.15625q-0.859375 -1.0625 -2.078125 -1.0625q-1.1875 0 -2.109375 1.125q-0.921875 1.109375 -0.921875 3.25zm17.37732 4.109375q-1.046875 0.875 -2.015625 1.25q-0.953125 0.359375 -2.0625 0.359375q-1.8125 0 -2.796875 -0.890625q-0.984375 -0.890625 -0.984375 -2.28125q0 -0.8125 0.375 -1.484375q0.375 -0.671875 0.96875 -1.078125q0.59375 -0.40625 1.34375 -0.609375q0.5625 -0.140625 1.671875 -0.28125q2.265625 -0.265625 3.34375 -0.640625q0.015625 -0.390625 0.015625 -0.5q0 -1.140625 -0.53125 -1.609375q-0.71875 -0.640625 -2.140625 -0.640625q-1.328125 0 -1.953125 0.46875q-0.625 0.46875 -0.9375 1.640625l-1.828125 -0.25q0.25 -1.171875 0.8125 -1.890625q0.578125 -0.734375 1.65625 -1.125q1.09375 -0.390625 2.515625 -0.390625q1.421875 0 2.296875 0.34375q0.890625 0.328125 1.3125 0.828125q0.421875 0.5 0.578125 1.28125q0.09375 0.46875 0.09375 1.71875l0 2.5q0 2.625 0.125 3.3125q0.125 0.6875 0.46875 1.328125l-1.953125 0q-0.296875 -0.578125 -0.375 -1.359375zm-0.15625 -4.1875q-1.015625 0.40625 -3.0625 0.703125q-1.15625 0.171875 -1.640625 0.375q-0.46875 0.203125 -0.734375 0.609375q-0.265625 0.40625 -0.265625 0.890625q0 0.75 0.5625 1.25q0.578125 0.5 1.671875 0.5q1.078125 0 1.921875 -0.46875q0.84375 -0.484375 1.25 -1.296875q0.296875 -0.640625 0.296875 -1.875l0 -0.6875zm4.7835693 5.546875l0 -11.0625l1.6875 0l0 1.671875q0.640625 -1.171875 1.1875 -1.546875q0.546875 -0.375 1.203125 -0.375q0.953125 0 1.921875 0.609375l-0.640625 1.734375q-0.6875 -0.40625 -1.375 -0.40625q-0.609375 0 -1.109375 0.375q-0.484375 0.359375 -0.6875 1.015625q-0.3125 1.0 -0.3125 2.1875l0 5.796875l-1.875 0zm14.696228 -3.5625l1.921875 0.234375q-0.453125 1.703125 -1.6875 2.640625q-1.234375 0.9375 -3.171875 0.9375q-2.421875 0 -3.84375 -1.484375q-1.421875 -1.5 -1.421875 -4.203125q0 -2.796875 1.4375 -4.328125q1.4375 -1.546875 3.734375 -1.546875q2.21875 0 3.609375 1.515625q1.40625 1.5 1.40625 4.25q0 0.15625 0 0.5l-8.25 0q0.109375 1.8125 1.03125 2.78125q0.921875 0.96875 2.3125 0.96875q1.03125 0 1.75 -0.53125q0.734375 -0.546875 1.171875 -1.734375zm-6.15625 -3.03125l6.171875 0q-0.125 -1.390625 -0.703125 -2.09375q-0.90625 -1.078125 -2.328125 -1.078125q-1.296875 0 -2.171875 0.859375q-0.875 0.859375 -0.96875 2.3125z" fill-rule="nonzero"/><path fill="#000000" fill-opacity="0.0" d="m765.5696 259.6391l139.81097 0l0 42.834656l-139.81097 0z" fill-rule="evenodd"/><path fill="#ffffff" d="m784.5848 268.6391l103.11389 0l0 23.200012l-103.11389 0l0 -23.200012z" fill-rule="nonzero"/><path fill="#000000" fill-opacity="0.0" d="m784.5848 269.70187l10.739929 0l0 22.225464l-10.739929 0l0 -22.225464z" fill-rule="nonzero"/><path fill="#1f2328" d="m788.38165 273.37097l7.609375 0l-0.28125 1.421875l-5.625 0q1.0 1.171875 2.578125 2.5q1.5625 1.328125 1.9375 2.21875q0.390625 0.890625 0.390625 1.8125q0 2.296875 -1.4375 4.203125q-1.421875 1.890625 -3.984375 1.890625q-1.984375 0 -3.03125 -1.203125q-1.03125 -1.203125 -1.03125 -2.921875q0 -2.296875 1.40625 -4.125q1.421875 -1.828125 3.6875 -1.921875q-1.796875 -1.6875 -2.46875 -2.765625l0.25 -1.109375zm-1.140625 9.9375q0 1.328125 0.671875 2.0625q0.671875 0.734375 1.71875 0.734375q1.5625 0 2.578125 -1.5q1.03125 -1.515625 1.03125 -3.359375q0 -1.15625 -0.609375 -1.90625q-0.609375 -0.765625 -1.6875 -0.765625q-1.515625 0 -2.609375 1.375q-1.09375 1.359375 -1.09375 3.359375z" fill-rule="nonzero"/><path fill="#010000" fill-opacity="0.0" d="m795.3247 282.7937l14.320923 0l0 14.804993l-14.320923 0l0 -14.804993z" fill-rule="nonzero"/><path fill="#1f2328" d="m796.02783 292.02722l1.109375 -0.125q0.125 0.96875 0.546875 1.390625q0.4375 0.40625 1.140625 0.40625q0.84375 0 1.453125 -0.59375q0.609375 -0.609375 0.609375 -1.390625q0 -0.671875 -0.46875 -1.109375q-0.453125 -0.453125 -1.21875 -0.453125q-0.09375 0 -0.359375 0.015625l0.1875 -0.9375q0.15625 0.015625 0.3125 0.015625q0.96875 0 1.5 -0.46875q0.53125 -0.46875 0.53125 -1.171875q0 -0.625 -0.4375 -1.0625q-0.421875 -0.4375 -1.046875 -0.4375q-0.609375 0 -1.109375 0.453125q-0.484375 0.4375 -0.625 1.25l-1.109375 -0.234375q0.28125 -1.140625 1.0625 -1.75q0.78125 -0.625 1.859375 -0.625q1.125 0 1.828125 0.6875q0.703125 0.671875 0.703125 1.671875q0 0.734375 -0.390625 1.28125q-0.375 0.546875 -1.125 0.90625q0.53125 0.3125 0.796875 0.765625q0.28125 0.453125 0.28125 1.046875q0 1.234375 -0.9375 2.140625q-0.921875 0.90625 -2.21875 0.90625q-1.25 0 -2.015625 -0.703125q-0.765625 -0.703125 -0.859375 -1.875zm9.551086 2.421875l1.46875 -6.953125q-0.953125 0.734375 -2.65625 1.1875l0.21875 -1.03125q0.84375 -0.34375 1.671875 -0.890625q0.828125 -0.546875 1.234375 -0.953125q0.25 -0.25 0.484375 -0.609375l0.65625 0l-1.921875 9.25l-1.15625 0z" fill-rule="nonzero"/><path fill="#000000" fill-opacity="0.0" d="m809.6456 269.70187l11.2873535 0l0 22.225464l-11.2873535 0l0 -22.225464z" fill-rule="nonzero"/><path fill="#1f2328" d="m820.5206 279.05847l-9.140625 0l0 -1.578125l9.140625 0l0 1.578125zm0 4.203125l-9.140625 0l0 -1.578125l9.140625 0l0 1.578125z" fill-rule="nonzero"/><path fill="#010000" fill-opacity="0.0" d="m820.933 282.7937l3.5770874 0l0 14.804993l-3.5770874 0l0 -14.804993z" fill-rule="nonzero"/><path fill="#000000" fill-opacity="0.0" d="m824.5101 269.70187l10.739929 0l0 22.225464l-10.739929 0l0 -22.225464z" fill-rule="nonzero"/><path fill="#1f2328" d="m828.30695 273.37097l7.609375 0l-0.28125 1.421875l-5.625 0q1.0 1.171875 2.578125 2.5q1.5625 1.328125 1.9375 2.21875q0.390625 0.890625 0.390625 1.8125q0 2.296875 -1.4375 4.203125q-1.421875 1.890625 -3.984375 1.890625q-1.984375 0 -3.03125 -1.203125q-1.03125 -1.203125 -1.03125 -2.921875q0 -2.296875 1.40625 -4.125q1.421875 -1.828125 3.6875 -1.921875q-1.796875 -1.6875 -2.46875 -2.765625l0.25 -1.109375zm-1.140625 9.9375q0 1.328125 0.671875 2.0625q0.671875 0.734375 1.71875 0.734375q1.5625 0 2.578125 -1.5q1.03125 -1.515625 1.03125 -3.359375q0 -1.15625 -0.609375 -1.90625q-0.609375 -0.765625 -1.6875 -0.765625q-1.515625 0 -2.609375 1.375q-1.09375 1.359375 -1.09375 3.359375z" fill-rule="nonzero"/><path fill="#010000" fill-opacity="0.0" d="m835.25 282.7937l7.1604614 0l0 14.804993l-7.1604614 0l0 -14.804993z" fill-rule="nonzero"/><path fill="#1f2328" d="m838.34375 294.4491l1.46875 -6.953125q-0.953125 0.734375 -2.65625 1.1875l0.21875 -1.03125q0.84375 -0.34375 1.671875 -0.890625q0.828125 -0.546875 1.234375 -0.953125q0.25 -0.25 0.484375 -0.609375l0.65625 0l-1.921875 9.25l-1.15625 0z" fill-rule="nonzero"/><path fill="#000000" fill-opacity="0.0" d="m842.41046 269.70187l31.691345 0l0 22.225464l-31.691345 0l0 -22.225464z" fill-rule="nonzero"/><path fill="#1f2328" d="m858.65546 279.05847l-9.140625 0l0 -1.578125l9.140625 0l0 1.578125zm0 4.203125l-9.140625 0l0 -1.578125l9.140625 0l0 1.578125zm6.1572876 3.9375l0.28125 -1.328125l5.390625 -6.0625q0.5625 -0.640625 1.28125 -1.328125q-1.21875 0.125 -1.75 0.125l-3.734375 0l0.3125 -1.421875l7.75 0l-0.234375 1.0625l-5.4375 6.109375q-0.453125 0.515625 -1.375 1.421875q1.421875 -0.078125 1.953125 -0.078125l3.953125 0l-0.3125 1.5l-8.078125 0z" fill-rule="nonzero"/><path fill="#010000" fill-opacity="0.0" d="m874.1018 282.7937l7.1604614 0l0 14.804993l-7.1604614 0l0 -14.804993z" fill-rule="nonzero"/><path fill="#1f2328" d="m877.19556 294.4491l1.46875 -6.953125q-0.953125 0.734375 -2.65625 1.1875l0.21875 -1.03125q0.84375 -0.34375 1.671875 -0.890625q0.828125 -0.546875 1.234375 -0.953125q0.25 -0.25 0.484375 -0.609375l0.65625 0l-1.921875 9.25l-1.15625 0z" fill-rule="nonzero"/><path fill="#000000" fill-opacity="0.0" d="m881.26227 269.70187l6.4364014 0l0 22.225464l-6.4364014 0l0 -22.225464z" fill-rule="nonzero"/><path fill="#1f2328" d="m882.1529 283.04285l0.359375 -1.703125l5.21875 0l-0.359375 1.703125l-5.21875 0z" fill-rule="nonzero"/><path fill="#000000" fill-opacity="0.0" d="m887.69867 269.70187l5.369995 0l0 22.225464l-5.369995 0l0 -22.225464z" fill-rule="nonzero"/><path fill="#ffffff" d="m827.7295 295.3191l16.824524 0l0 23.200012l-16.824524 0l0 -23.200012z" fill-rule="nonzero"/><path fill="#000000" fill-opacity="0.0" d="m827.7295 296.38187l9.6640625 0l0 22.225464l-9.6640625 0l0 -22.225464z" fill-rule="nonzero"/><path fill="#1f2328" d="m827.7295 317.75412l0.109375 -1.609375q0.515625 0.15625 1.015625 0.15625q0.53125 0 0.84375 -0.234375q0.421875 -0.3125 0.90625 -1.171875l0.546875 -0.984375l-1.671875 -10.046875l1.6875 0l0.75 5.0625q0.234375 1.5 0.390625 3.0l4.484375 -8.0625l1.78125 0l-6.390625 11.34375q-0.921875 1.65625 -1.640625 2.1875q-0.71875 0.546875 -1.65625 0.546875q-0.59375 0 -1.15625 -0.1875z" fill-rule="nonzero"/><path fill="#010000" fill-opacity="0.0" d="m837.39355 309.47372l7.1604614 0l0 14.804993l-7.1604614 0l0 -14.804993z" fill-rule="nonzero"/><path fill="#1f2328" d="m840.4873 321.12912l1.46875 -6.953125q-0.953125 0.734375 -2.65625 1.1875l0.21875 -1.03125q0.84375 -0.34375 1.671875 -0.890625q0.828125 -0.546875 1.234375 -0.953125q0.25 -0.25 0.484375 -0.609375l0.65625 0l-1.921875 9.25l-1.15625 0z" fill-rule="nonzero"/><path fill="#000000" fill-opacity="0.0" d="m844.554 296.38187l5.369934 0l0 22.225464l-5.369934 0l0 -22.225464z" fill-rule="nonzero"/><path fill="#ffd966" d="m186.48816 262.71112l0 0c0 -20.586746 16.688858 -37.27559 37.275604 -37.27559l0 0c9.886093 0 19.367294 3.9272308 26.357819 10.917755c6.9905396 6.9905396 10.917755 16.471725 10.917755 26.357834l0 0c0 20.586731 -16.688843 37.275574 -37.275574 37.275574l0 0c-20.586746 0 -37.275604 -16.688843 -37.275604 -37.275574z" fill-rule="evenodd"/><path stroke="#000000" stroke-width="1.0" stroke-linejoin="round" stroke-linecap="butt" d="m186.48816 262.71112l0 0c0 -20.586746 16.688858 -37.27559 37.275604 -37.27559l0 0c9.886093 0 19.367294 3.9272308 26.357819 10.917755c6.9905396 6.9905396 10.917755 16.471725 10.917755 26.357834l0 0c0 20.586731 -16.688843 37.275574 -37.275574 37.275574l0 0c-20.586746 0 -37.275604 -16.688843 -37.275604 -37.275574z" fill-rule="evenodd"/><path fill="#000000" d="m222.69363 258.27173q0 -0.25 0.5 -0.5625q0.515625 -0.3125 0.84375 -0.3125q0.5 0 0.6875 0.265625q0.203125 0.265625 0.203125 0.796875q0 0.234375 -0.046875 0.40625q-0.046875 0.171875 -0.34375 0.5625q-0.296875 0.375 -0.859375 0.828125q-0.546875 0.4375 -1.65625 1.1875q-1.09375 0.75 -2.65625 1.671875l0.3125 3.375q0.1875 2.15625 1.1875 2.15625q1.203125 -0.875 1.5625 -0.875q0.15625 0 0.171875 0.0625q-0.171875 0.765625 -1.078125 1.28125q-0.90625 0.515625 -1.859375 0.515625q-0.78125 0 -1.109375 -0.609375q-0.3125 -0.609375 -0.421875 -1.734375l-0.296875 -3.265625q-2.359375 1.390625 -3.4375 2.125q-1.0625 0.71875 -1.28125 1.015625q-0.21875 0.296875 -0.21875 0.703125q0 0.78125 0.53125 0.78125q0.171875 0 0.171875 0.109375q0 0.234375 -0.53125 0.5625q-0.53125 0.3125 -0.828125 0.3125q-0.875 0 -0.875 -0.984375q0 -0.359375 0.15625 -0.65625q0.15625 -0.296875 0.734375 -0.875q0.578125 -0.578125 1.953125 -1.484375q1.375 -0.921875 3.578125 -2.21875l-0.28125 -2.859375q-0.203125 -2.171875 -1.171875 -2.171875l-0.75 0.5625q-0.484375 0.3125 -0.84375 0.3125q-0.15625 0 -0.15625 -0.140625q0 -0.515625 0.90625 -1.109375q0.90625 -0.609375 2.03125 -0.609375q0.546875 0 0.859375 0.34375q0.328125 0.34375 0.453125 0.796875q0.125 0.453125 0.203125 1.203125l0.28125 2.765625q1.484375 -0.890625 2.3125 -1.4375q0.828125 -0.546875 1.21875 -0.90625q0.390625 -0.359375 0.46875 -0.53125q0.078125 -0.171875 0.078125 -0.46875q0 -0.78125 -0.5625 -0.78125q-0.140625 0 -0.140625 -0.109375z" fill-rule="nonzero"/><path fill="#000000" d="m228.63501 276.6311l-1.09375 0l0 -6.96875q-0.40625 0.375 -1.046875 0.75q-0.640625 0.375 -1.140625 0.578125l0 -1.0625q0.90625 -0.4375 1.59375 -1.046875q0.6875 -0.609375 0.96875 -1.1875l0.71875 0l0 8.9375zm5.531723 0l-1.09375 0l0 -6.96875q-0.40625 0.375 -1.046875 0.75q-0.640625 0.375 -1.140625 0.578125l0 -1.0625q0.90625 -0.4375 1.59375 -1.046875q0.6875 -0.609375 0.96875 -1.1875l0.71875 0l0 8.9375z" fill-rule="nonzero"/><path fill="#ffd966" d="m186.48816 410.98904l0 0c0 -20.586761 16.688858 -37.275604 37.275604 -37.275604l0 0c9.886093 0 19.367294 3.927246 26.357819 10.917786c6.9905396 6.990509 10.917755 16.47171 10.917755 26.357819l0 0c0 20.586731 -16.688843 37.275574 -37.275574 37.275574l0 0c-20.586746 0 -37.275604 -16.688843 -37.275604 -37.275574z" fill-rule="evenodd"/><path stroke="#000000" stroke-width="1.0" stroke-linejoin="round" stroke-linecap="butt" d="m186.48816 410.98904l0 0c0 -20.586761 16.688858 -37.275604 37.275604 -37.275604l0 0c9.886093 0 19.367294 3.927246 26.357819 10.917786c6.9905396 6.990509 10.917755 16.47171 10.917755 26.357819l0 0c0 20.586731 -16.688843 37.275574 -37.275574 37.275574l0 0c-20.586746 0 -37.275604 -16.688843 -37.275604 -37.275574z" fill-rule="evenodd"/><path fill="#000000" d="m218.0153 407.88965q0 -0.25 0.5 -0.5625q0.515625 -0.3125 0.84375 -0.3125q0.5 0 0.6875 0.265625q0.203125 0.265625 0.203125 0.796875q0 0.234375 -0.046875 0.40625q-0.046875 0.171875 -0.34375 0.5625q-0.296875 0.375 -0.859375 0.828125q-0.546875 0.4375 -1.65625 1.1875q-1.09375 0.75 -2.65625 1.671875l0.3125 3.375q0.1875 2.15625 1.1875 2.15625q1.203125 -0.875 1.5625 -0.875q0.15625 0 0.171875 0.0625q-0.171875 0.765625 -1.078125 1.28125q-0.90625 0.515625 -1.859375 0.515625q-0.78125 0 -1.109375 -0.609375q-0.3125 -0.609375 -0.421875 -1.734375l-0.296875 -3.265625q-2.359375 1.390625 -3.4375 2.125q-1.0625 0.71875 -1.28125 1.015625q-0.21875 0.296875 -0.21875 0.703125q0 0.78125 0.53125 0.78125q0.171875 0 0.171875 0.109375q0 0.234375 -0.53125 0.5625q-0.53125 0.3125 -0.828125 0.3125q-0.875 0 -0.875 -0.984375q0 -0.359375 0.15625 -0.65625q0.15625 -0.296875 0.734375 -0.875q0.578125 -0.578125 1.953125 -1.484375q1.375 -0.921875 3.578125 -2.21875l-0.28125 -2.859375q-0.203125 -2.171875 -1.171875 -2.171875l-0.75 0.5625q-0.484375 0.3125 -0.84375 0.3125q-0.15625 0 -0.15625 -0.140625q0 -0.515625 0.90625 -1.109375q0.90625 -0.609375 2.03125 -0.609375q0.546875 0 0.859375 0.34375q0.328125 0.34375 0.453125 0.796875q0.125 0.453125 0.203125 1.203125l0.28125 2.765625q1.484375 -0.890625 2.3125 -1.4375q0.828125 -0.546875 1.21875 -0.90625q0.390625 -0.359375 0.46875 -0.53125q0.078125 -0.171875 0.078125 -0.46875q0 -0.78125 -0.5625 -0.78125q-0.140625 0 -0.140625 -0.109375z" fill-rule="nonzero"/><path fill="#000000" d="m224.94106 427.74902l-1.328125 0l0 -8.46875q-0.46875 0.46875 -1.25 0.921875q-0.78125 0.453125 -1.40625 0.6875l0 -1.28125q1.125 -0.53125 1.953125 -1.265625q0.828125 -0.75 1.171875 -1.453125l0.859375 0l0 10.859375zm10.387497 -1.28125l0 1.28125l-7.15625 0q-0.015625 -0.484375 0.15625 -0.921875q0.28125 -0.734375 0.875 -1.4375q0.609375 -0.703125 1.734375 -1.640625q1.765625 -1.4375 2.390625 -2.28125q0.625 -0.859375 0.625 -1.609375q0 -0.78125 -0.578125 -1.328125q-0.5625 -0.546875 -1.46875 -0.546875q-0.953125 0 -1.53125 0.578125q-0.578125 0.578125 -0.578125 1.59375l-1.375 -0.140625q0.140625 -1.53125 1.046875 -2.328125q0.921875 -0.796875 2.46875 -0.796875q1.5625 0 2.46875 0.859375q0.90625 0.859375 0.90625 2.140625q0 0.65625 -0.265625 1.28125q-0.265625 0.625 -0.890625 1.328125q-0.609375 0.6875 -2.046875 1.890625q-1.1875 1.0 -1.53125 1.359375q-0.34375 0.359375 -0.5625 0.71875l5.3125 0z" fill-rule="nonzero"/><path fill="#93c47d" d="m447.71133 185.67307l0 0c0 -20.586746 16.688843 -37.275604 37.275574 -37.275604l0 0c9.886108 0 19.36731 3.927246 26.357819 10.91777c6.9905396 6.9905396 10.917786 16.471725 10.917786 26.357834l0 0c0 20.586731 -16.688843 37.27559 -37.275604 37.27559l0 0c-20.586731 0 -37.275574 -16.688858 -37.275574 -37.27559z" fill-rule="evenodd"/><path stroke="#000000" stroke-width="1.0" stroke-linejoin="round" stroke-linecap="butt" d="m447.71133 185.67307l0 0c0 -20.586746 16.688843 -37.275604 37.275574 -37.275604l0 0c9.886108 0 19.36731 3.927246 26.357819 10.91777c6.9905396 6.9905396 10.917786 16.471725 10.917786 26.357834l0 0c0 20.586731 -16.688843 37.27559 -37.275604 37.27559l0 0c-20.586731 0 -37.275574 -16.688858 -37.275574 -37.27559z" fill-rule="evenodd"/><path fill="#000000" d="m468.8713 193.11368l0.234375 -1.015625q0.65625 0.140625 0.984375 0.140625q0.359375 0 0.546875 -0.1875q0.1875 -0.171875 0.28125 -0.796875l1.15625 -6.78125l-1.3125 0l0.15625 -0.90625l1.3125 0l0.15625 -0.875q0.140625 -0.78125 0.296875 -1.0625q0.203125 -0.40625 0.578125 -0.625q0.375 -0.234375 0.96875 -0.234375q0.53125 0 1.40625 0.234375l-0.234375 1.0q-0.671875 -0.15625 -1.0 -0.15625q-0.359375 0 -0.546875 0.1875q-0.171875 0.171875 -0.296875 0.859375l-0.125 0.671875l1.328125 0l-0.171875 0.90625l-1.328125 0l-1.234375 7.109375q-0.171875 0.953125 -0.578125 1.328125q-0.390625 0.375 -1.125 0.375q-0.609375 0 -1.453125 -0.171875z" fill-rule="nonzero"/><path fill="#000000" d="m480.45566 194.72305l0 0.75l-4.203125 0q0 -0.28125 0.09375 -0.546875q0.15625 -0.421875 0.5 -0.828125q0.359375 -0.421875 1.03125 -0.96875q1.03125 -0.859375 1.390625 -1.34375q0.375 -0.5 0.375 -0.9375q0 -0.46875 -0.328125 -0.78125q-0.328125 -0.328125 -0.859375 -0.328125q-0.578125 0 -0.921875 0.34375q-0.328125 0.328125 -0.328125 0.9375l-0.796875 -0.09375q0.078125 -0.890625 0.609375 -1.359375q0.546875 -0.46875 1.453125 -0.46875q0.90625 0 1.4375 0.515625q0.53125 0.5 0.53125 1.25q0 0.375 -0.15625 0.75q-0.15625 0.359375 -0.515625 0.765625q-0.359375 0.40625 -1.203125 1.125q-0.703125 0.59375 -0.90625 0.796875q-0.1875 0.203125 -0.3125 0.421875l3.109375 0zm3.779602 0.75l-0.78125 0l0 -4.96875q-0.28125 0.265625 -0.75 0.53125q-0.453125 0.265625 -0.8125 0.40625l0 -0.75q0.65625 -0.3125 1.140625 -0.75q0.484375 -0.4375 0.6875 -0.84375l0.515625 0l0 6.375z" fill-rule="nonzero"/><path fill="#000000" d="m488.9836 193.28555q-0.984375 -1.234375 -1.65625 -2.875q-0.65625 -1.640625 -0.65625 -3.390625q0 -1.546875 0.5 -2.96875q0.578125 -1.640625 1.8125 -3.28125l0.828125 0q-0.78125 1.359375 -1.03125 1.9375q-0.40625 0.890625 -0.625 1.875q-0.28125 1.21875 -0.28125 2.4375q0 3.140625 1.9375 6.265625l-0.828125 0z" fill-rule="nonzero"/><path fill="#000000" d="m490.84384 188.11368l1.1875 -0.078125q0 0.515625 0.15625 0.875q0.15625 0.359375 0.578125 0.59375q0.421875 0.21875 0.96875 0.21875q0.78125 0 1.171875 -0.3125q0.390625 -0.3125 0.390625 -0.734375q0 -0.3125 -0.234375 -0.578125q-0.234375 -0.28125 -1.171875 -0.671875q-0.9375 -0.40625 -1.1875 -0.578125q-0.4375 -0.265625 -0.671875 -0.625q-0.21875 -0.359375 -0.21875 -0.828125q0 -0.8125 0.65625 -1.390625q0.65625 -0.59375 1.828125 -0.59375q1.296875 0 1.96875 0.609375q0.6875 0.59375 0.71875 1.578125l-1.15625 0.078125q-0.03125 -0.625 -0.453125 -0.984375q-0.40625 -0.375 -1.171875 -0.375q-0.609375 0 -0.953125 0.28125q-0.328125 0.28125 -0.328125 0.609375q0 0.3125 0.296875 0.5625q0.1875 0.171875 1.0 0.53125q1.359375 0.578125 1.703125 0.921875q0.5625 0.53125 0.5625 1.3125q0 0.515625 -0.3125 1.015625q-0.3125 0.484375 -0.96875 0.78125q-0.640625 0.296875 -1.515625 0.296875q-1.203125 0 -2.046875 -0.59375q-0.84375 -0.59375 -0.796875 -1.921875z" fill-rule="nonzero"/><path fill="#000000" d="m498.60165 193.28555l-0.828125 0q1.9375 -3.125 1.9375 -6.265625q0 -1.21875 -0.28125 -2.421875q-0.21875 -0.984375 -0.609375 -1.875q-0.265625 -0.59375 -1.046875 -1.953125l0.828125 0q1.234375 1.640625 1.8125 3.28125q0.5 1.421875 0.5 2.96875q0 1.75 -0.671875 3.390625q-0.671875 1.640625 -1.640625 2.875z" fill-rule="nonzero"/><path fill="#93c47d" d="m449.23102 336.60754l0 0c0 -20.586731 16.688843 -37.275604 37.275574 -37.275604l0 0c9.886108 0 19.36731 3.927246 26.35785 10.917786c6.9905396 6.990509 10.917725 16.47171 10.917725 26.357819l0 0c0 20.586731 -16.688812 37.275574 -37.275574 37.275574l0 0c-20.586731 0 -37.275574 -16.688843 -37.275574 -37.275574z" fill-rule="evenodd"/><path stroke="#000000" stroke-width="1.0" stroke-linejoin="round" stroke-linecap="butt" d="m449.23102 336.60754l0 0c0 -20.586731 16.688843 -37.275604 37.275574 -37.275604l0 0c9.886108 0 19.36731 3.927246 26.35785 10.917786c6.9905396 6.990509 10.917725 16.47171 10.917725 26.357819l0 0c0 20.586731 -16.688812 37.275574 -37.275574 37.275574l0 0c-20.586731 0 -37.275574 -16.688843 -37.275574 -37.275574z" fill-rule="evenodd"/><path fill="#000000" d="m470.391 344.04816l0.234375 -1.015625q0.65625 0.140625 0.984375 0.140625q0.359375 0 0.546875 -0.1875q0.1875 -0.171875 0.28125 -0.796875l1.15625 -6.78125l-1.3125 0l0.15625 -0.90625l1.3125 0l0.15625 -0.875q0.140625 -0.78125 0.296875 -1.0625q0.203125 -0.40625 0.578125 -0.625q0.375 -0.234375 0.96875 -0.234375q0.53125 0 1.40625 0.234375l-0.234375 1.0q-0.671875 -0.15625 -1.0 -0.15625q-0.359375 0 -0.546875 0.1875q-0.171875 0.171875 -0.296875 0.859375l-0.125 0.671875l1.328125 0l-0.171875 0.90625l-1.328125 0l-1.234375 7.109375q-0.171875 0.953125 -0.578125 1.328125q-0.390625 0.375 -1.125 0.375q-0.609375 0 -1.453125 -0.171875z" fill-rule="nonzero"/><path fill="#000000" d="m481.97534 345.65753l0 0.75l-4.203125 0q0 -0.28125 0.09375 -0.546875q0.15625 -0.421875 0.5 -0.828125q0.359375 -0.421875 1.03125 -0.96875q1.03125 -0.859375 1.390625 -1.34375q0.375 -0.5 0.375 -0.9375q0 -0.46875 -0.328125 -0.78125q-0.328125 -0.328125 -0.859375 -0.328125q-0.578125 0 -0.921875 0.34375q-0.328125 0.328125 -0.328125 0.9375l-0.796875 -0.09375q0.078125 -0.890625 0.609375 -1.359375q0.546875 -0.46875 1.453125 -0.46875q0.90625 0 1.4375 0.515625q0.53125 0.5 0.53125 1.25q0 0.375 -0.15625 0.75q-0.15625 0.359375 -0.515625 0.765625q-0.359375 0.40625 -1.203125 1.125q-0.703125 0.59375 -0.90625 0.796875q-0.1875 0.203125 -0.3125 0.421875l3.109375 0zm4.935852 0l0 0.75l-4.203125 0q0 -0.28125 0.09375 -0.546875q0.15625 -0.421875 0.5 -0.828125q0.359375 -0.421875 1.03125 -0.96875q1.03125 -0.859375 1.390625 -1.34375q0.375 -0.5 0.375 -0.9375q0 -0.46875 -0.328125 -0.78125q-0.328125 -0.328125 -0.859375 -0.328125q-0.578125 0 -0.921875 0.34375q-0.328125 0.328125 -0.328125 0.9375l-0.796875 -0.09375q0.078125 -0.890625 0.609375 -1.359375q0.546875 -0.46875 1.453125 -0.46875q0.90625 0 1.4375 0.515625q0.53125 0.5 0.53125 1.25q0 0.375 -0.15625 0.75q-0.15625 0.359375 -0.515625 0.765625q-0.359375 0.40625 -1.203125 1.125q-0.703125 0.59375 -0.90625 0.796875q-0.1875 0.203125 -0.3125 0.421875l3.109375 0z" fill-rule="nonzero"/><path fill="#000000" d="m490.5033 344.22003q-0.984375 -1.234375 -1.65625 -2.875q-0.65625 -1.640625 -0.65625 -3.390625q0 -1.546875 0.5 -2.96875q0.578125 -1.640625 1.8125 -3.28125l0.828125 0q-0.78125 1.359375 -1.03125 1.9375q-0.40625 0.890625 -0.625 1.875q-0.28125 1.21875 -0.28125 2.4375q0 3.140625 1.9375 6.265625l-0.828125 0z" fill-rule="nonzero"/><path fill="#000000" d="m492.36353 339.04816l1.1875 -0.078125q0 0.515625 0.15625 0.875q0.15625 0.359375 0.578125 0.59375q0.421875 0.21875 0.96875 0.21875q0.78125 0 1.171875 -0.3125q0.390625 -0.3125 0.390625 -0.734375q0 -0.3125 -0.234375 -0.578125q-0.234375 -0.28125 -1.171875 -0.671875q-0.9375 -0.40625 -1.1875 -0.578125q-0.4375 -0.265625 -0.671875 -0.625q-0.21875 -0.359375 -0.21875 -0.828125q0 -0.8125 0.65625 -1.390625q0.65625 -0.59375 1.828125 -0.59375q1.296875 0 1.96875 0.609375q0.6875 0.59375 0.71875 1.578125l-1.15625 0.078125q-0.03125 -0.625 -0.453125 -0.984375q-0.40625 -0.375 -1.171875 -0.375q-0.609375 0 -0.953125 0.28125q-0.328125 0.28125 -0.328125 0.609375q0 0.3125 0.296875 0.5625q0.1875 0.171875 1.0 0.53125q1.359375 0.578125 1.703125 0.921875q0.5625 0.53125 0.5625 1.3125q0 0.515625 -0.3125 1.015625q-0.3125 0.484375 -0.96875 0.78125q-0.640625 0.296875 -1.515625 0.296875q-1.203125 0 -2.046875 -0.59375q-0.84375 -0.59375 -0.796875 -1.921875z" fill-rule="nonzero"/><path fill="#000000" d="m500.12134 344.22003l-0.828125 0q1.9375 -3.125 1.9375 -6.265625q0 -1.21875 -0.28125 -2.421875q-0.21875 -0.984375 -0.609375 -1.875q-0.265625 -0.59375 -1.046875 -1.953125l0.828125 0q1.234375 1.640625 1.8125 3.28125q0.5 1.421875 0.5 2.96875q0 1.75 -0.671875 3.390625q-0.671875 1.640625 -1.640625 2.875z" fill-rule="nonzero"/><path fill="#e06666" d="m717.26245 337.26202l0 0c0 -20.586731 16.688843 -37.275574 37.275574 -37.275574l0 0c9.886108 0 19.36731 3.9272156 26.35785 10.917755c6.9905396 6.9905396 10.917786 16.47171 10.917786 26.357819l0 0c0 20.586731 -16.688843 37.275604 -37.275635 37.275604l0 0c-20.586731 0 -37.275574 -16.688873 -37.275574 -37.275604z" fill-rule="evenodd"/><path stroke="#000000" stroke-width="1.0" stroke-linejoin="round" stroke-linecap="butt" d="m717.26245 337.26202l0 0c0 -20.586731 16.688843 -37.275574 37.275574 -37.275574l0 0c9.886108 0 19.36731 3.9272156 26.35785 10.917755c6.9905396 6.9905396 10.917786 16.47171 10.917786 26.357819l0 0c0 20.586731 -16.688843 37.275604 -37.275635 37.275604l0 0c-20.586731 0 -37.275574 -16.688873 -37.275574 -37.275604z" fill-rule="evenodd"/><path fill="#000000" d="m738.4224 344.70267l0.234375 -1.015625q0.65625 0.140625 0.984375 0.140625q0.359375 0 0.546875 -0.1875q0.1875 -0.171875 0.28125 -0.796875l1.15625 -6.78125l-1.3125 0l0.15625 -0.90625l1.3125 0l0.15625 -0.875q0.140625 -0.78125 0.296875 -1.0625q0.203125 -0.40625 0.578125 -0.625q0.375 -0.234375 0.96875 -0.234375q0.53125 0 1.40625 0.234375l-0.234375 1.0q-0.671875 -0.15625 -1.0 -0.15625q-0.359375 0 -0.546875 0.1875q-0.171875 0.171875 -0.296875 0.859375l-0.125 0.671875l1.328125 0l-0.171875 0.90625l-1.328125 0l-1.234375 7.109375q-0.171875 0.953125 -0.578125 1.328125q-0.390625 0.375 -1.125 0.375q-0.609375 0 -1.453125 -0.171875z" fill-rule="nonzero"/><path fill="#000000" d="m745.913 345.39017l0.78125 -0.109375q0.125 0.65625 0.453125 0.953125q0.328125 0.296875 0.78125 0.296875q0.5625 0 0.9375 -0.375q0.375 -0.390625 0.375 -0.953125q0 -0.53125 -0.359375 -0.875q-0.34375 -0.359375 -0.875 -0.359375q-0.234375 0 -0.5625 0.09375l0.09375 -0.6875q0.078125 0 0.125 0q0.5 0 0.890625 -0.25q0.40625 -0.265625 0.40625 -0.8125q0 -0.421875 -0.296875 -0.703125q-0.28125 -0.28125 -0.75 -0.28125q-0.453125 0 -0.765625 0.28125q-0.296875 0.28125 -0.375 0.859375l-0.78125 -0.140625q0.140625 -0.78125 0.640625 -1.203125q0.515625 -0.4375 1.265625 -0.4375q0.515625 0 0.953125 0.21875q0.4375 0.21875 0.671875 0.609375q0.234375 0.390625 0.234375 0.8125q0 0.421875 -0.21875 0.765625q-0.21875 0.328125 -0.65625 0.53125q0.5625 0.125 0.875 0.546875q0.3125 0.40625 0.3125 1.015625q0 0.828125 -0.609375 1.40625q-0.609375 0.578125 -1.53125 0.578125q-0.828125 0 -1.390625 -0.5q-0.546875 -0.5 -0.625 -1.28125zm7.873352 1.671875l-0.78125 0l0 -4.96875q-0.28125 0.265625 -0.75 0.53125q-0.453125 0.265625 -0.8125 0.40625l0 -0.75q0.65625 -0.3125 1.140625 -0.75q0.484375 -0.4375 0.6875 -0.84375l0.515625 0l0 6.375z" fill-rule="nonzero"/><path fill="#000000" d="m758.5347 344.87454q-0.984375 -1.234375 -1.65625 -2.875q-0.65625 -1.640625 -0.65625 -3.390625q0 -1.546875 0.5 -2.96875q0.578125 -1.640625 1.8125 -3.28125l0.828125 0q-0.78125 1.359375 -1.03125 1.9375q-0.40625 0.890625 -0.625 1.875q-0.28125 1.21875 -0.28125 2.4375q0 3.140625 1.9375 6.265625l-0.828125 0z" fill-rule="nonzero"/><path fill="#000000" d="m760.39496 339.70267l1.1875 -0.078125q0 0.515625 0.15625 0.875q0.15625 0.359375 0.578125 0.59375q0.421875 0.21875 0.96875 0.21875q0.78125 0 1.171875 -0.3125q0.390625 -0.3125 0.390625 -0.734375q0 -0.3125 -0.234375 -0.578125q-0.234375 -0.28125 -1.171875 -0.671875q-0.9375 -0.40625 -1.1875 -0.578125q-0.4375 -0.265625 -0.671875 -0.625q-0.21875 -0.359375 -0.21875 -0.828125q0 -0.8125 0.65625 -1.390625q0.65625 -0.59375 1.828125 -0.59375q1.296875 0 1.96875 0.609375q0.6875 0.59375 0.71875 1.578125l-1.15625 0.078125q-0.03125 -0.625 -0.453125 -0.984375q-0.40625 -0.375 -1.171875 -0.375q-0.609375 0 -0.953125 0.28125q-0.328125 0.28125 -0.328125 0.609375q0 0.3125 0.296875 0.5625q0.1875 0.171875 1.0 0.53125q1.359375 0.578125 1.703125 0.921875q0.5625 0.53125 0.5625 1.3125q0 0.515625 -0.3125 1.015625q-0.3125 0.484375 -0.96875 0.78125q-0.640625 0.296875 -1.515625 0.296875q-1.203125 0 -2.046875 -0.59375q-0.84375 -0.59375 -0.796875 -1.921875z" fill-rule="nonzero"/><path fill="#000000" d="m768.1528 344.87454l-0.828125 0q1.9375 -3.125 1.9375 -6.265625q0 -1.21875 -0.28125 -2.421875q-0.21875 -0.984375 -0.609375 -1.875q-0.265625 -0.59375 -1.046875 -1.953125l0.828125 0q1.234375 1.640625 1.8125 3.28125q0.5 1.421875 0.5 2.96875q0 1.75 -0.671875 3.390625q-0.671875 1.640625 -1.640625 2.875z" fill-rule="nonzero"/><path fill="#e06666" d="m717.26306 486.07257l0 0c0 -20.586731 16.688843 -37.275604 37.275574 -37.275604l0 0c9.886108 0 19.36731 3.927246 26.35785 10.917786c6.9904785 6.990509 10.917725 16.47171 10.917725 26.357819l0 0c0 20.586731 -16.688843 37.275574 -37.275574 37.275574l0 0c-20.586731 0 -37.275574 -16.688843 -37.275574 -37.275574z" fill-rule="evenodd"/><path stroke="#000000" stroke-width="1.0" stroke-linejoin="round" stroke-linecap="butt" d="m717.26306 486.07257l0 0c0 -20.586731 16.688843 -37.275604 37.275574 -37.275604l0 0c9.886108 0 19.36731 3.927246 26.35785 10.917786c6.9904785 6.990509 10.917725 16.47171 10.917725 26.357819l0 0c0 20.586731 -16.688843 37.275574 -37.275574 37.275574l0 0c-20.586731 0 -37.275574 -16.688843 -37.275574 -37.275574z" fill-rule="evenodd"/><path fill="#000000" d="m738.42303 493.51318l0.234375 -1.015625q0.65625 0.140625 0.984375 0.140625q0.359375 0 0.546875 -0.1875q0.1875 -0.171875 0.28125 -0.796875l1.15625 -6.78125l-1.3125 0l0.15625 -0.90625l1.3125 0l0.15625 -0.875q0.140625 -0.78125 0.296875 -1.0625q0.203125 -0.40625 0.578125 -0.625q0.375 -0.234375 0.96875 -0.234375q0.53125 0 1.40625 0.234375l-0.234375 1.0q-0.671875 -0.15625 -1.0 -0.15625q-0.359375 0 -0.546875 0.1875q-0.171875 0.171875 -0.296875 0.859375l-0.125 0.671875l1.328125 0l-0.171875 0.90625l-1.328125 0l-1.234375 7.109375q-0.171875 0.953125 -0.578125 1.328125q-0.390625 0.375 -1.125 0.375q-0.609375 0 -1.453125 -0.171875z" fill-rule="nonzero"/><path fill="#000000" d="m745.91364 494.20068l0.78125 -0.109375q0.125 0.65625 0.453125 0.953125q0.328125 0.296875 0.78125 0.296875q0.5625 0 0.9375 -0.375q0.375 -0.390625 0.375 -0.953125q0 -0.53125 -0.359375 -0.875q-0.34375 -0.359375 -0.875 -0.359375q-0.234375 0 -0.5625 0.09375l0.09375 -0.6875q0.078125 0 0.125 0q0.5 0 0.890625 -0.25q0.40625 -0.265625 0.40625 -0.8125q0 -0.421875 -0.296875 -0.703125q-0.28125 -0.28125 -0.75 -0.28125q-0.453125 0 -0.765625 0.28125q-0.296875 0.28125 -0.375 0.859375l-0.78125 -0.140625q0.140625 -0.78125 0.640625 -1.203125q0.515625 -0.4375 1.265625 -0.4375q0.515625 0 0.953125 0.21875q0.4375 0.21875 0.671875 0.609375q0.234375 0.390625 0.234375 0.8125q0 0.421875 -0.21875 0.765625q-0.21875 0.328125 -0.65625 0.53125q0.5625 0.125 0.875 0.546875q0.3125 0.40625 0.3125 1.015625q0 0.828125 -0.609375 1.40625q-0.609375 0.578125 -1.53125 0.578125q-0.828125 0 -1.390625 -0.5q-0.546875 -0.5 -0.625 -1.28125zm9.029602 0.921875l0 0.75l-4.203125 0q0 -0.28125 0.09375 -0.546875q0.15625 -0.421875 0.5 -0.828125q0.359375 -0.421875 1.03125 -0.96875q1.03125 -0.859375 1.390625 -1.34375q0.375 -0.5 0.375 -0.9375q0 -0.46875 -0.328125 -0.78125q-0.328125 -0.328125 -0.859375 -0.328125q-0.578125 0 -0.921875 0.34375q-0.328125 0.328125 -0.328125 0.9375l-0.796875 -0.09375q0.078125 -0.890625 0.609375 -1.359375q0.546875 -0.46875 1.453125 -0.46875q0.90625 0 1.4375 0.515625q0.53125 0.5 0.53125 1.25q0 0.375 -0.15625 0.75q-0.15625 0.359375 -0.515625 0.765625q-0.359375 0.40625 -1.203125 1.125q-0.703125 0.59375 -0.90625 0.796875q-0.1875 0.203125 -0.3125 0.421875l3.109375 0z" fill-rule="nonzero"/><path fill="#000000" d="m758.53534 493.68506q-0.984375 -1.234375 -1.65625 -2.875q-0.65625 -1.640625 -0.65625 -3.390625q0 -1.546875 0.5 -2.96875q0.578125 -1.640625 1.8125 -3.28125l0.828125 0q-0.78125 1.359375 -1.03125 1.9375q-0.40625 0.890625 -0.625 1.875q-0.28125 1.21875 -0.28125 2.4375q0 3.140625 1.9375 6.265625l-0.828125 0z" fill-rule="nonzero"/><path fill="#000000" d="m760.39557 488.51318l1.1875 -0.078125q0 0.515625 0.15625 0.875q0.15625 0.359375 0.578125 0.59375q0.421875 0.21875 0.96875 0.21875q0.78125 0 1.171875 -0.3125q0.390625 -0.3125 0.390625 -0.734375q0 -0.3125 -0.234375 -0.578125q-0.234375 -0.28125 -1.171875 -0.671875q-0.9375 -0.40625 -1.1875 -0.578125q-0.4375 -0.265625 -0.671875 -0.625q-0.21875 -0.359375 -0.21875 -0.828125q0 -0.8125 0.65625 -1.390625q0.65625 -0.59375 1.828125 -0.59375q1.296875 0 1.96875 0.609375q0.6875 0.59375 0.71875 1.578125l-1.15625 0.078125q-0.03125 -0.625 -0.453125 -0.984375q-0.40625 -0.375 -1.171875 -0.375q-0.609375 0 -0.953125 0.28125q-0.328125 0.28125 -0.328125 0.609375q0 0.3125 0.296875 0.5625q0.1875 0.171875 1.0 0.53125q1.359375 0.578125 1.703125 0.921875q0.5625 0.53125 0.5625 1.3125q0 0.515625 -0.3125 1.015625q-0.3125 0.484375 -0.96875 0.78125q-0.640625 0.296875 -1.515625 0.296875q-1.203125 0 -2.046875 -0.59375q-0.84375 -0.59375 -0.796875 -1.921875z" fill-rule="nonzero"/><path fill="#000000" d="m768.1534 493.68506l-0.828125 0q1.9375 -3.125 1.9375 -6.265625q0 -1.21875 -0.28125 -2.421875q-0.21875 -0.984375 -0.609375 -1.875q-0.265625 -0.59375 -1.046875 -1.953125l0.828125 0q1.234375 1.640625 1.8125 3.28125q0.5 1.421875 0.5 2.96875q0 1.75 -0.671875 3.390625q-0.671875 1.640625 -1.640625 2.875z" fill-rule="nonzero"/><path fill="#93c47d" d="m447.71213 487.5425l0 0c0 -20.586761 16.688873 -37.275604 37.275604 -37.275604l0 0c9.886108 0 19.36728 3.927246 26.357819 10.917755c6.990509 6.9905396 10.917755 16.47174 10.917755 26.35785l0 0c0 20.586731 -16.688843 37.275604 -37.275574 37.275604l0 0c-20.586731 0 -37.275604 -16.688873 -37.275604 -37.275604z" fill-rule="evenodd"/><path stroke="#000000" stroke-width="1.0" stroke-linejoin="round" stroke-linecap="butt" d="m447.71213 487.5425l0 0c0 -20.586761 16.688873 -37.275604 37.275604 -37.275604l0 0c9.886108 0 19.36728 3.927246 26.357819 10.917755c6.990509 6.9905396 10.917755 16.47174 10.917755 26.35785l0 0c0 20.586731 -16.688843 37.275604 -37.275574 37.275604l0 0c-20.586731 0 -37.275604 -16.688873 -37.275604 -37.275604z" fill-rule="evenodd"/><path fill="#000000" d="m468.8721 494.98312l0.234375 -1.015625q0.65625 0.140625 0.984375 0.140625q0.359375 0 0.546875 -0.1875q0.1875 -0.171875 0.28125 -0.796875l1.15625 -6.78125l-1.3125 0l0.15625 -0.90625l1.3125 0l0.15625 -0.875q0.140625 -0.78125 0.296875 -1.0625q0.203125 -0.40625 0.578125 -0.625q0.375 -0.234375 0.96875 -0.234375q0.53125 0 1.40625 0.234375l-0.234375 1.0q-0.671875 -0.15625 -1.0 -0.15625q-0.359375 0 -0.546875 0.1875q-0.171875 0.171875 -0.296875 0.859375l-0.125 0.671875l1.328125 0l-0.171875 0.90625l-1.328125 0l-1.234375 7.109375q-0.171875 0.953125 -0.578125 1.328125q-0.390625 0.375 -1.125 0.375q-0.609375 0 -1.453125 -0.171875z" fill-rule="nonzero"/><path fill="#000000" d="m480.45645 496.5925l0 0.75l-4.203125 0q0 -0.28125 0.09375 -0.546875q0.15625 -0.421875 0.5 -0.828125q0.359375 -0.421875 1.03125 -0.96875q1.03125 -0.859375 1.390625 -1.34375q0.375 -0.5 0.375 -0.9375q0 -0.46875 -0.328125 -0.78125q-0.328125 -0.328125 -0.859375 -0.328125q-0.578125 0 -0.921875 0.34375q-0.328125 0.328125 -0.328125 0.9375l-0.796875 -0.09375q0.078125 -0.890625 0.609375 -1.359375q0.546875 -0.46875 1.453125 -0.46875q0.90625 0 1.4375 0.515625q0.53125 0.5 0.53125 1.25q0 0.375 -0.15625 0.75q-0.15625 0.359375 -0.515625 0.765625q-0.359375 0.40625 -1.203125 1.125q-0.703125 0.59375 -0.90625 0.796875q-0.1875 0.203125 -0.3125 0.421875l3.109375 0zm0.84210205 -0.921875l0.78125 -0.109375q0.125 0.65625 0.453125 0.953125q0.328125 0.296875 0.78125 0.296875q0.5625 0 0.9375 -0.375q0.375 -0.390625 0.375 -0.953125q0 -0.53125 -0.359375 -0.875q-0.34375 -0.359375 -0.875 -0.359375q-0.234375 0 -0.5625 0.09375l0.09375 -0.6875q0.078125 0 0.125 0q0.5 0 0.890625 -0.25q0.40625 -0.265625 0.40625 -0.8125q0 -0.421875 -0.296875 -0.703125q-0.28125 -0.28125 -0.75 -0.28125q-0.453125 0 -0.765625 0.28125q-0.296875 0.28125 -0.375 0.859375l-0.78125 -0.140625q0.140625 -0.78125 0.640625 -1.203125q0.515625 -0.4375 1.265625 -0.4375q0.515625 0 0.953125 0.21875q0.4375 0.21875 0.671875 0.609375q0.234375 0.390625 0.234375 0.8125q0 0.421875 -0.21875 0.765625q-0.21875 0.328125 -0.65625 0.53125q0.5625 0.125 0.875 0.546875q0.3125 0.40625 0.3125 1.015625q0 0.828125 -0.609375 1.40625q-0.609375 0.578125 -1.53125 0.578125q-0.828125 0 -1.390625 -0.5q-0.546875 -0.5 -0.625 -1.28125z" fill-rule="nonzero"/><path fill="#000000" d="m488.9844 495.155q-0.984375 -1.234375 -1.65625 -2.875q-0.65625 -1.640625 -0.65625 -3.390625q0 -1.546875 0.5 -2.96875q0.578125 -1.640625 1.8125 -3.28125l0.828125 0q-0.78125 1.359375 -1.03125 1.9375q-0.40625 0.890625 -0.625 1.875q-0.28125 1.21875 -0.28125 2.4375q0 3.140625 1.9375 6.265625l-0.828125 0z" fill-rule="nonzero"/><path fill="#000000" d="m490.84467 489.98312l1.1875 -0.078125q0 0.515625 0.15625 0.875q0.15625 0.359375 0.578125 0.59375q0.421875 0.21875 0.96875 0.21875q0.78125 0 1.171875 -0.3125q0.390625 -0.3125 0.390625 -0.734375q0 -0.3125 -0.234375 -0.578125q-0.234375 -0.28125 -1.171875 -0.671875q-0.9375 -0.40625 -1.1875 -0.578125q-0.4375 -0.265625 -0.671875 -0.625q-0.21875 -0.359375 -0.21875 -0.828125q0 -0.8125 0.65625 -1.390625q0.65625 -0.59375 1.828125 -0.59375q1.296875 0 1.96875 0.609375q0.6875 0.59375 0.71875 1.578125l-1.15625 0.078125q-0.03125 -0.625 -0.453125 -0.984375q-0.40625 -0.375 -1.171875 -0.375q-0.609375 0 -0.953125 0.28125q-0.328125 0.28125 -0.328125 0.609375q0 0.3125 0.296875 0.5625q0.1875 0.171875 1.0 0.53125q1.359375 0.578125 1.703125 0.921875q0.5625 0.53125 0.5625 1.3125q0 0.515625 -0.3125 1.015625q-0.3125 0.484375 -0.96875 0.78125q-0.640625 0.296875 -1.515625 0.296875q-1.203125 0 -2.046875 -0.59375q-0.84375 -0.59375 -0.796875 -1.921875z" fill-rule="nonzero"/><path fill="#000000" d="m498.60248 495.155l-0.828125 0q1.9375 -3.125 1.9375 -6.265625q0 -1.21875 -0.28125 -2.421875q-0.21875 -0.984375 -0.609375 -1.875q-0.265625 -0.59375 -1.046875 -1.953125l0.828125 0q1.234375 1.640625 1.8125 3.28125q0.5 1.421875 0.5 2.96875q0 1.75 -0.671875 3.390625q-0.671875 1.640625 -1.640625 2.875z" fill-rule="nonzero"/><path fill="#ffd966" d="m186.48872 559.26764l0 0c0 -20.586731 16.688843 -37.275574 37.27559 -37.275574l0 0c9.886093 0 19.367294 3.927185 26.357819 10.917725c6.9905396 6.9905396 10.917755 16.47174 10.917755 26.35785l0 0c0 20.586731 -16.688843 37.275574 -37.275574 37.275574l0 0c-20.586746 0 -37.27559 -16.688843 -37.27559 -37.275574z" fill-rule="evenodd"/><path stroke="#000000" stroke-width="1.0" stroke-linejoin="round" stroke-linecap="butt" d="m186.48872 559.26764l0 0c0 -20.586731 16.688843 -37.275574 37.27559 -37.275574l0 0c9.886093 0 19.367294 3.927185 26.357819 10.917725c6.9905396 6.9905396 10.917755 16.47174 10.917755 26.35785l0 0c0 20.586731 -16.688843 37.275574 -37.275574 37.275574l0 0c-20.586746 0 -37.27559 -16.688843 -37.27559 -37.275574z" fill-rule="evenodd"/><path fill="#000000" d="m218.01587 556.1683q0 -0.25 0.5 -0.5625q0.515625 -0.3125 0.84375 -0.3125q0.5 0 0.6875 0.265625q0.203125 0.265625 0.203125 0.796875q0 0.234375 -0.046875 0.40625q-0.046875 0.171875 -0.34375 0.5625q-0.296875 0.375 -0.859375 0.828125q-0.546875 0.4375 -1.65625 1.1875q-1.09375 0.75 -2.65625 1.671875l0.3125 3.375q0.1875 2.15625 1.1875 2.15625q1.203125 -0.875 1.5625 -0.875q0.15625 0 0.171875 0.0625q-0.171875 0.765625 -1.078125 1.28125q-0.90625 0.515625 -1.859375 0.515625q-0.78125 0 -1.109375 -0.609375q-0.3125 -0.609375 -0.421875 -1.734375l-0.296875 -3.265625q-2.359375 1.390625 -3.4375 2.125q-1.0625 0.71875 -1.28125 1.015625q-0.21875 0.296875 -0.21875 0.703125q0 0.78125 0.53125 0.78125q0.171875 0 0.171875 0.109375q0 0.234375 -0.53125 0.5625q-0.53125 0.3125 -0.828125 0.3125q-0.875 0 -0.875 -0.984375q0 -0.359375 0.15625 -0.65625q0.15625 -0.296875 0.734375 -0.875q0.578125 -0.578125 1.953125 -1.484375q1.375 -0.921875 3.578125 -2.21875l-0.28125 -2.859375q-0.203125 -2.171875 -1.171875 -2.171875l-0.75 0.5625q-0.484375 0.3125 -0.84375 0.3125q-0.15625 0 -0.15625 -0.140625q0 -0.515625 0.90625 -1.109375q0.90625 -0.609375 2.03125 -0.609375q0.546875 0 0.859375 0.34375q0.328125 0.34375 0.453125 0.796875q0.125 0.453125 0.203125 1.203125l0.28125 2.765625q1.484375 -0.890625 2.3125 -1.4375q0.828125 -0.546875 1.21875 -0.90625q0.390625 -0.359375 0.46875 -0.53125q0.078125 -0.171875 0.078125 -0.46875q0 -0.78125 -0.5625 -0.78125q-0.140625 0 -0.140625 -0.109375z" fill-rule="nonzero"/><path fill="#000000" d="m224.94162 576.02765l-1.328125 0l0 -8.46875q-0.46875 0.46875 -1.25 0.921875q-0.78125 0.453125 -1.40625 0.6875l0 -1.28125q1.125 -0.53125 1.953125 -1.265625q0.828125 -0.75 1.171875 -1.453125l0.859375 0l0 10.859375zm3.418747 -2.859375l1.328125 -0.171875q0.21875 1.125 0.765625 1.625q0.5625 0.5 1.34375 0.5q0.9375 0 1.578125 -0.640625q0.65625 -0.65625 0.65625 -1.625q0 -0.90625 -0.609375 -1.5q-0.59375 -0.59375 -1.515625 -0.59375q-0.375 0 -0.9375 0.140625l0.15625 -1.15625q0.125 0.015625 0.203125 0.015625q0.859375 0 1.53125 -0.4375q0.6875 -0.453125 0.6875 -1.375q0 -0.734375 -0.5 -1.203125q-0.5 -0.484375 -1.28125 -0.484375q-0.765625 0 -1.28125 0.484375q-0.515625 0.484375 -0.671875 1.46875l-1.328125 -0.25q0.25 -1.328125 1.109375 -2.0625q0.859375 -0.734375 2.140625 -0.734375q0.890625 0 1.625 0.390625q0.75 0.375 1.140625 1.03125q0.40625 0.65625 0.40625 1.390625q0 0.703125 -0.375 1.28125q-0.375 0.5625 -1.109375 0.90625q0.953125 0.21875 1.484375 0.921875q0.53125 0.703125 0.53125 1.75q0 1.40625 -1.03125 2.390625q-1.03125 0.984375 -2.609375 0.984375q-1.421875 0 -2.375 -0.84375q-0.9375 -0.84375 -1.0625 -2.203125z" fill-rule="nonzero"/><path fill="#000000" fill-opacity="0.0" d="m846.00104 486.7034l-54.173218 -0.62991333" fill-rule="evenodd"/><path stroke="#000000" stroke-width="1.0" stroke-linejoin="round" stroke-linecap="butt" d="m840.0014 486.63367l-48.173645 -0.56018066" fill-rule="evenodd"/><path fill="#000000" stroke="#000000" stroke-width="1.0" stroke-linecap="butt" d="m839.9822 488.28528l4.557007 -1.598877l-4.5186157 -1.7043762z" fill-rule="evenodd"/><path fill="#93c47d" d="m447.71213 638.4756l0 0c0 -20.586731 16.688873 -37.275635 37.275604 -37.275635l0 0c9.886108 0 19.36728 3.927246 26.357819 10.917786c6.990509 6.9905396 10.917755 16.47174 10.917755 26.35785l0 0c0 20.586731 -16.688843 37.275574 -37.275574 37.275574l0 0c-20.586731 0 -37.275604 -16.688843 -37.275604 -37.275574z" fill-rule="evenodd"/><path stroke="#000000" stroke-width="1.0" stroke-linejoin="round" stroke-linecap="butt" d="m447.71213 638.4756l0 0c0 -20.586731 16.688873 -37.275635 37.275604 -37.275635l0 0c9.886108 0 19.36728 3.927246 26.357819 10.917786c6.990509 6.9905396 10.917755 16.47174 10.917755 26.35785l0 0c0 20.586731 -16.688843 37.275574 -37.275574 37.275574l0 0c-20.586731 0 -37.275604 -16.688843 -37.275604 -37.275574z" fill-rule="evenodd"/><path fill="#000000" d="m468.8721 645.9162l0.234375 -1.015625q0.65625 0.140625 0.984375 0.140625q0.359375 0 0.546875 -0.1875q0.1875 -0.171875 0.28125 -0.796875l1.15625 -6.78125l-1.3125 0l0.15625 -0.90625l1.3125 0l0.15625 -0.875q0.140625 -0.78125 0.296875 -1.0625q0.203125 -0.40625 0.578125 -0.625q0.375 -0.234375 0.96875 -0.234375q0.53125 0 1.40625 0.234375l-0.234375 1.0q-0.671875 -0.15625 -1.0 -0.15625q-0.359375 0 -0.546875 0.1875q-0.171875 0.171875 -0.296875 0.859375l-0.125 0.671875l1.328125 0l-0.171875 0.90625l-1.328125 0l-1.234375 7.109375q-0.171875 0.953125 -0.578125 1.328125q-0.390625 0.375 -1.125 0.375q-0.609375 0 -1.453125 -0.171875z" fill-rule="nonzero"/><path fill="#000000" d="m480.45645 647.5256l0 0.75l-4.203125 0q0 -0.28125 0.09375 -0.546875q0.15625 -0.421875 0.5 -0.828125q0.359375 -0.421875 1.03125 -0.96875q1.03125 -0.859375 1.390625 -1.34375q0.375 -0.5 0.375 -0.9375q0 -0.46875 -0.328125 -0.78125q-0.328125 -0.328125 -0.859375 -0.328125q-0.578125 0 -0.921875 0.34375q-0.328125 0.328125 -0.328125 0.9375l-0.796875 -0.09375q0.078125 -0.890625 0.609375 -1.359375q0.546875 -0.46875 1.453125 -0.46875q0.90625 0 1.4375 0.515625q0.53125 0.5 0.53125 1.25q0 0.375 -0.15625 0.75q-0.15625 0.359375 -0.515625 0.765625q-0.359375 0.40625 -1.203125 1.125q-0.703125 0.59375 -0.90625 0.796875q-0.1875 0.203125 -0.3125 0.421875l3.109375 0zm3.342102 0.75l0 -1.515625l-2.765625 0l0 -0.71875l2.90625 -4.125l0.640625 0l0 4.125l0.84375 0l0 0.71875l-0.84375 0l0 1.515625l-0.78125 0zm0 -2.234375l0 -2.859375l-2.0 2.859375l2.0 0z" fill-rule="nonzero"/><path fill="#000000" d="m488.9844 646.0881q-0.984375 -1.234375 -1.65625 -2.875q-0.65625 -1.640625 -0.65625 -3.390625q0 -1.546875 0.5 -2.96875q0.578125 -1.640625 1.8125 -3.28125l0.828125 0q-0.78125 1.359375 -1.03125 1.9375q-0.40625 0.890625 -0.625 1.875q-0.28125 1.21875 -0.28125 2.4375q0 3.140625 1.9375 6.265625l-0.828125 0z" fill-rule="nonzero"/><path fill="#000000" d="m490.84467 640.9162l1.1875 -0.078125q0 0.515625 0.15625 0.875q0.15625 0.359375 0.578125 0.59375q0.421875 0.21875 0.96875 0.21875q0.78125 0 1.171875 -0.3125q0.390625 -0.3125 0.390625 -0.734375q0 -0.3125 -0.234375 -0.578125q-0.234375 -0.28125 -1.171875 -0.671875q-0.9375 -0.40625 -1.1875 -0.578125q-0.4375 -0.265625 -0.671875 -0.625q-0.21875 -0.359375 -0.21875 -0.828125q0 -0.8125 0.65625 -1.390625q0.65625 -0.59375 1.828125 -0.59375q1.296875 0 1.96875 0.609375q0.6875 0.59375 0.71875 1.578125l-1.15625 0.078125q-0.03125 -0.625 -0.453125 -0.984375q-0.40625 -0.375 -1.171875 -0.375q-0.609375 0 -0.953125 0.28125q-0.328125 0.28125 -0.328125 0.609375q0 0.3125 0.296875 0.5625q0.1875 0.171875 1.0 0.53125q1.359375 0.578125 1.703125 0.921875q0.5625 0.53125 0.5625 1.3125q0 0.515625 -0.3125 1.015625q-0.3125 0.484375 -0.96875 0.78125q-0.640625 0.296875 -1.515625 0.296875q-1.203125 0 -2.046875 -0.59375q-0.84375 -0.59375 -0.796875 -1.921875z" fill-rule="nonzero"/><path fill="#000000" d="m498.60248 646.0881l-0.828125 0q1.9375 -3.125 1.9375 -6.265625q0 -1.21875 -0.28125 -2.421875q-0.21875 -0.984375 -0.609375 -1.875q-0.265625 -0.59375 -1.046875 -1.953125l0.828125 0q1.234375 1.640625 1.8125 3.28125q0.5 1.421875 0.5 2.96875q0 1.75 -0.671875 3.390625q-0.671875 1.640625 -1.640625 2.875z" fill-rule="nonzero"/><path fill="#000000" fill-opacity="0.0" d="m261.03415 262.71243l186.67719 -77.03937" fill-rule="evenodd"/><path stroke="#000000" stroke-width="1.0" stroke-linejoin="round" stroke-linecap="butt" d="m261.03415 262.71243l181.13092 -74.75049" fill-rule="evenodd"/><path fill="#000000" stroke="#000000" stroke-width="1.0" stroke-linecap="butt" d="m442.79517 189.48877l3.5648193 -3.2580261l-4.825012 0.20437622z" fill-rule="evenodd"/><path fill="#000000" fill-opacity="0.0" d="m261.03934 262.71112l188.189 73.88977" fill-rule="evenodd"/><path stroke="#000000" stroke-width="1.0" stroke-linejoin="round" stroke-linecap="butt" d="m261.03934 262.71112l182.60403 71.6969" fill-rule="evenodd"/><path fill="#000000" stroke="#000000" stroke-width="1.0" stroke-linecap="butt" d="m443.0397 335.9455l4.82782 0.12109375l-3.6204834 -3.1960144z" fill-rule="evenodd"/><path fill="#000000" fill-opacity="0.0" d="m261.03934 262.71112l197.60632 198.48819" fill-rule="evenodd"/><path stroke="#000000" stroke-width="1.0" stroke-linejoin="round" stroke-linecap="butt" d="m261.03934 262.71112l193.37311 194.23608" fill-rule="evenodd"/><path fill="#000000" stroke="#000000" stroke-width="1.0" stroke-linecap="butt" d="m453.24188 458.11258l4.3723145 2.0507202l-2.031189 -4.3814087z" fill-rule="evenodd"/><path fill="#000000" fill-opacity="0.0" d="m261.03934 262.71112l197.60632 349.4173" fill-rule="evenodd"/><path stroke="#000000" stroke-width="1.0" stroke-linejoin="round" stroke-linecap="butt" d="m261.03934 262.71112l194.65271 344.19464" fill-rule="evenodd"/><path fill="#000000" stroke="#000000" stroke-width="1.0" stroke-linecap="butt" d="m454.2543 607.7189l3.671692 3.137085l-0.7962036 -4.7633057z" fill-rule="evenodd"/><path fill="#000000" fill-opacity="0.0" d="m522.2625 185.67307l205.92126 125.22833" fill-rule="evenodd"/><path stroke="#000000" stroke-width="1.0" stroke-linejoin="round" stroke-linecap="butt" d="m522.2625 185.67307l200.7948 122.11075" fill-rule="evenodd"/><path fill="#000000" stroke="#000000" stroke-width="1.0" stroke-linecap="butt" d="m722.1991 309.19507l4.7356567 0.9467468l-3.019165 -3.7692566z" fill-rule="evenodd"/><path fill="#000000" fill-opacity="0.0" d="m523.78217 336.60754l193.48035 0.6614075" fill-rule="evenodd"/><path stroke="#000000" stroke-width="1.0" stroke-linejoin="round" stroke-linecap="butt" d="m523.78217 336.60754l187.48041 0.6409302" fill-rule="evenodd"/><path fill="#000000" stroke="#000000" stroke-width="1.0" stroke-linecap="butt" d="m711.25696 338.90018l4.543701 -1.6362l-4.5324097 -1.6672363z" fill-rule="evenodd"/><path fill="#000000" fill-opacity="0.0" d="m522.2633 487.5425l194.99213 -1.4803162" fill-rule="evenodd"/><path stroke="#000000" stroke-width="1.0" stroke-linejoin="round" stroke-linecap="butt" d="m522.2633 487.54248l188.99225 -1.4347534" fill-rule="evenodd"/><path fill="#000000" stroke="#000000" stroke-width="1.0" stroke-linecap="butt" d="m711.2681 487.7594l4.5254517 -1.6861267l-4.550537 -1.6172485z" fill-rule="evenodd"/><path fill="#000000" fill-opacity="0.0" d="m512.86444 362.96536l204.40942 123.1181" fill-rule="evenodd"/><path stroke="#000000" stroke-width="1.0" stroke-linejoin="round" stroke-linecap="butt" d="m512.86444 362.96533l199.26978 120.0224" fill-rule="evenodd"/><path fill="#000000" stroke="#000000" stroke-width="1.0" stroke-linecap="butt" d="m711.2819 484.40265l4.739685 0.9265442l-3.0352173 -3.7563477z" fill-rule="evenodd"/><path fill="#000000" fill-opacity="0.0" d="m511.34555 461.18466l205.92123 -123.93698" fill-rule="evenodd"/><path stroke="#000000" stroke-width="1.0" stroke-linejoin="round" stroke-linecap="butt" d="m511.34555 461.18466l200.78049 -120.84299" fill-rule="evenodd"/><path fill="#000000" stroke="#000000" stroke-width="1.0" stroke-linecap="butt" d="m712.97784 341.75687l3.036438 -3.7553406l-4.739929 0.9249878z" fill-rule="evenodd"/><path fill="#000000" fill-opacity="0.0" d="m522.2633 638.4756l205.92126 -126.04724" fill-rule="evenodd"/><path stroke="#000000" stroke-width="1.0" stroke-linejoin="round" stroke-linecap="butt" d="m522.2633 638.4756l200.8039 -122.914856" fill-rule="evenodd"/><path fill="#000000" stroke="#000000" stroke-width="1.0" stroke-linecap="butt" d="m723.92944 516.96954l3.0082397 -3.7780151l-4.732849 0.9604492z" fill-rule="evenodd"/><path fill="#000000" fill-opacity="0.0" d="m511.34473 212.03088l216.8504 247.68503" fill-rule="evenodd"/><path stroke="#000000" stroke-width="1.0" stroke-linejoin="round" stroke-linecap="butt" d="m511.34473 212.03088l212.89807 243.17072" fill-rule="evenodd"/><path fill="#000000" stroke="#000000" stroke-width="1.0" stroke-linecap="butt" d="m723.00006 456.28964l4.2320557 2.326355l-1.746582 -4.5024414z" fill-rule="evenodd"/><path fill="#000000" fill-opacity="0.0" d="m511.34555 612.11774l216.85037 -248.50394" fill-rule="evenodd"/><path stroke="#000000" stroke-width="1.0" stroke-linejoin="round" stroke-linecap="butt" d="m511.34555 612.11774l212.90543 -243.98315" fill-rule="evenodd"/><path fill="#000000" stroke="#000000" stroke-width="1.0" stroke-linecap="butt" d="m725.49554 369.22058l1.7391968 -4.5052795l-4.2282715 2.3332825z" fill-rule="evenodd"/><path fill="#000000" fill-opacity="0.0" d="m261.03934 410.98904l186.67719 -225.32285" fill-rule="evenodd"/><path stroke="#000000" stroke-width="1.0" stroke-linejoin="round" stroke-linecap="butt" d="m261.03934 410.98904l182.84927 -220.70253" fill-rule="evenodd"/><path fill="#000000" stroke="#000000" stroke-width="1.0" stroke-linecap="butt" d="m445.16055 191.34029l1.623291 -4.548355l-4.167145 2.4408112z" fill-rule="evenodd"/><path fill="#000000" fill-opacity="0.0" d="m261.0399 559.26764l197.57483 -347.24408" fill-rule="evenodd"/><path stroke="#000000" stroke-width="1.0" stroke-linejoin="round" stroke-linecap="butt" d="m261.03992 559.26764l194.6076 -342.02914" fill-rule="evenodd"/><path fill="#000000" stroke="#000000" stroke-width="1.0" stroke-linecap="butt" d="m457.08313 218.05533l0.80862427 -4.7611694l-3.6798706 3.1275024z" fill-rule="evenodd"/><path fill="#000000" fill-opacity="0.0" d="m261.03934 410.98904l188.189 -74.39371" fill-rule="evenodd"/><path stroke="#000000" stroke-width="1.0" stroke-linejoin="round" stroke-linecap="butt" d="m261.03934 410.98904l182.60913 -72.18793" fill-rule="evenodd"/><path fill="#000000" stroke="#000000" stroke-width="1.0" stroke-linecap="butt" d="m444.2557 340.3372l3.6130676 -3.2044067l-4.8275146 0.13226318z" fill-rule="evenodd"/><path fill="#000000" fill-opacity="0.0" d="m261.03934 410.98904l186.67719 76.566925" fill-rule="evenodd"/><path stroke="#000000" stroke-width="1.0" stroke-linejoin="round" stroke-linecap="butt" d="m261.03934 410.98904l181.12595 74.29007" fill-rule="evenodd"/><path fill="#000000" stroke="#000000" stroke-width="1.0" stroke-linecap="butt" d="m441.53848 486.8073l4.82547 0.19390869l-3.571869 -3.2503052z" fill-rule="evenodd"/><path fill="#000000" fill-opacity="0.0" d="m261.03934 410.98904l186.67719 227.49606" fill-rule="evenodd"/><path stroke="#000000" stroke-width="1.0" stroke-linejoin="round" stroke-linecap="butt" d="m261.03934 410.98904l182.8711 222.85776" fill-rule="evenodd"/><path fill="#000000" stroke="#000000" stroke-width="1.0" stroke-linecap="butt" d="m442.63354 634.8946l4.155609 2.4603882l-1.6018677 -4.555908z" fill-rule="evenodd"/><path fill="#000000" fill-opacity="0.0" d="m261.0399 559.26764l199.11813 -196.31497" fill-rule="evenodd"/><path stroke="#000000" stroke-width="1.0" stroke-linejoin="round" stroke-linecap="butt" d="m261.03992 559.26764l194.84549 -192.10248" fill-rule="evenodd"/><path fill="#000000" stroke="#000000" stroke-width="1.0" stroke-linecap="butt" d="m457.04504 368.34134l2.0719604 -4.3623047l-4.3912354 2.0098877z" fill-rule="evenodd"/><path fill="#000000" fill-opacity="0.0" d="m261.0399 559.26764l186.67719 -71.71655" fill-rule="evenodd"/><path stroke="#000000" stroke-width="1.0" stroke-linejoin="round" stroke-linecap="butt" d="m261.03992 559.26764l181.07626 -69.56479" fill-rule="evenodd"/><path fill="#000000" stroke="#000000" stroke-width="1.0" stroke-linecap="butt" d="m442.70853 491.2447l3.6438904 -3.1693115l-4.828583 0.08557129z" fill-rule="evenodd"/><path fill="#000000" fill-opacity="0.0" d="m261.0399 559.26764l186.67719 79.212585" fill-rule="evenodd"/><path stroke="#000000" stroke-width="1.0" stroke-linejoin="round" stroke-linecap="butt" d="m261.03992 559.26764l181.15381 76.8689" fill-rule="evenodd"/><path fill="#000000" stroke="#000000" stroke-width="1.0" stroke-linecap="butt" d="m441.54855 637.65704l4.822754 0.25213623l-3.5323486 -3.2931519z" fill-rule="evenodd"/><path fill="#000000" fill-opacity="0.0" d="m186.48816 262.71112l-52.53543 0" fill-rule="evenodd"/><path stroke="#000000" stroke-width="1.0" stroke-linejoin="round" stroke-linecap="butt" d="m180.48817 262.71112l-46.535446 0" fill-rule="evenodd"/><path fill="#000000" stroke="#000000" stroke-width="1.0" stroke-linecap="butt" d="m180.48817 264.36285l4.538086 -1.6517334l-4.538086 -1.6517334z" fill-rule="evenodd"/><path fill="#000000" fill-opacity="0.0" d="m78.419945 241.70459l55.527565 0l0 42.015747l-55.527565 0z" fill-rule="evenodd"/><path fill="#000000" d="m116.72961 257.26523q0 -0.25 0.5 -0.5625q0.515625 -0.3125 0.84375 -0.3125q0.5 0 0.6875 0.265625q0.203125 0.265625 0.203125 0.796875q0 0.234375 -0.046875 0.40625q-0.046875 0.171875 -0.34375 0.5625q-0.296875 0.375 -0.859375 0.828125q-0.546875 0.4375 -1.65625 1.1875q-1.09375 0.75 -2.65625 1.671875l0.3125 3.375q0.1875 2.15625 1.1875 2.15625q1.203125 -0.875 1.5625 -0.875q0.15625 0 0.171875 0.0625q-0.171875 0.765625 -1.078125 1.28125q-0.90625 0.515625 -1.859375 0.515625q-0.78125 0 -1.109375 -0.609375q-0.3125 -0.609375 -0.421875 -1.734375l-0.296875 -3.265625q-2.359375 1.390625 -3.4375 2.125q-1.0625 0.71875 -1.28125 1.015625q-0.21875 0.296875 -0.21875 0.703125q0 0.78125 0.53125 0.78125q0.171875 0 0.171875 0.109375q0 0.234375 -0.53125 0.5625q-0.53125 0.3125 -0.828125 0.3125q-0.875 0 -0.875 -0.984375q0 -0.359375 0.15625 -0.65625q0.15625 -0.296875 0.734375 -0.875q0.578125 -0.578125 1.953125 -1.484375q1.375 -0.921875 3.578125 -2.21875l-0.28125 -2.859375q-0.203125 -2.171875 -1.171875 -2.171875l-0.75 0.5625q-0.484375 0.3125 -0.84375 0.3125q-0.15625 0 -0.15625 -0.140625q0 -0.515625 0.90625 -1.109375q0.90625 -0.609375 2.03125 -0.609375q0.546875 0 0.859375 0.34375q0.328125 0.34375 0.453125 0.796875q0.125 0.453125 0.203125 1.203125l0.28125 2.765625q1.484375 -0.890625 2.3125 -1.4375q0.828125 -0.546875 1.21875 -0.90625q0.390625 -0.359375 0.46875 -0.53125q0.078125 -0.171875 0.078125 -0.46875q0 -0.78125 -0.5625 -0.78125q-0.140625 0 -0.140625 -0.109375z" fill-rule="nonzero"/><path fill="#000000" d="m122.92098 275.6246l-1.703125 0l0 -6.4375q-0.9375 0.875 -2.203125 1.296875l0 -1.546875q0.671875 -0.21875 1.453125 -0.828125q0.78125 -0.609375 1.078125 -1.421875l1.375 0l0 8.9375z" fill-rule="nonzero"/><path fill="#000000" fill-opacity="0.0" d="m186.48816 410.98904l-52.53543 -0.5354309" fill-rule="evenodd"/><path stroke="#000000" stroke-width="1.0" stroke-linejoin="round" stroke-linecap="butt" d="m180.48848 410.92792l-46.53575 -0.4743042" fill-rule="evenodd"/><path fill="#000000" stroke="#000000" stroke-width="1.0" stroke-linecap="butt" d="m180.47165 412.57956l4.5546875 -1.6054077l-4.5210266 -1.6979065z" fill-rule="evenodd"/><path fill="#000000" fill-opacity="0.0" d="m78.419945 389.4395l55.527565 0l0 42.015747l-55.527565 0z" fill-rule="evenodd"/><path fill="#000000" d="m116.72961 405.00012q0 -0.25 0.5 -0.5625q0.515625 -0.3125 0.84375 -0.3125q0.5 0 0.6875 0.265625q0.203125 0.265625 0.203125 0.796875q0 0.234375 -0.046875 0.40625q-0.046875 0.171875 -0.34375 0.5625q-0.296875 0.375 -0.859375 0.828125q-0.546875 0.4375 -1.65625 1.1875q-1.09375 0.75 -2.65625 1.671875l0.3125 3.375q0.1875 2.15625 1.1875 2.15625q1.203125 -0.875 1.5625 -0.875q0.15625 0 0.171875 0.0625q-0.171875 0.765625 -1.078125 1.28125q-0.90625 0.515625 -1.859375 0.515625q-0.78125 0 -1.109375 -0.609375q-0.3125 -0.609375 -0.421875 -1.734375l-0.296875 -3.265625q-2.359375 1.390625 -3.4375 2.125q-1.0625 0.71875 -1.28125 1.015625q-0.21875 0.296875 -0.21875 0.703125q0 0.78125 0.53125 0.78125q0.171875 0 0.171875 0.109375q0 0.234375 -0.53125 0.5625q-0.53125 0.3125 -0.828125 0.3125q-0.875 0 -0.875 -0.984375q0 -0.359375 0.15625 -0.65625q0.15625 -0.296875 0.734375 -0.875q0.578125 -0.578125 1.953125 -1.484375q1.375 -0.921875 3.578125 -2.21875l-0.28125 -2.859375q-0.203125 -2.171875 -1.171875 -2.171875l-0.75 0.5625q-0.484375 0.3125 -0.84375 0.3125q-0.15625 0 -0.15625 -0.140625q0 -0.515625 0.90625 -1.109375q0.90625 -0.609375 2.03125 -0.609375q0.546875 0 0.859375 0.34375q0.328125 0.34375 0.453125 0.796875q0.125 0.453125 0.203125 1.203125l0.28125 2.765625q1.484375 -0.890625 2.3125 -1.4375q0.828125 -0.546875 1.21875 -0.90625q0.390625 -0.359375 0.46875 -0.53125q0.078125 -0.171875 0.078125 -0.46875q0 -0.78125 -0.5625 -0.78125q-0.140625 0 -0.140625 -0.109375z" fill-rule="nonzero"/><path fill="#000000" d="m124.32723 421.78137l0 1.578125l-5.984375 0q0.09375 -0.90625 0.578125 -1.703125q0.484375 -0.8125 1.921875 -2.140625q1.15625 -1.0625 1.421875 -1.453125q0.34375 -0.53125 0.34375 -1.046875q0 -0.5625 -0.3125 -0.875q-0.296875 -0.3125 -0.84375 -0.3125q-0.53125 0 -0.84375 0.328125q-0.3125 0.328125 -0.375 1.0625l-1.6875 -0.15625q0.140625 -1.421875 0.9375 -2.03125q0.8125 -0.609375 2.015625 -0.609375q1.3125 0 2.0625 0.71875q0.765625 0.703125 0.765625 1.75q0 0.609375 -0.21875 1.15625q-0.21875 0.546875 -0.6875 1.140625q-0.3125 0.390625 -1.125 1.140625q-0.796875 0.734375 -1.015625 0.984375q-0.21875 0.234375 -0.34375 0.46875l3.390625 0z" fill-rule="nonzero"/><path fill="#000000" fill-opacity="0.0" d="m186.48872 559.26764l-52.53543 0" fill-rule="evenodd"/><path stroke="#000000" stroke-width="1.0" stroke-linejoin="round" stroke-linecap="butt" d="m180.48872 559.26764l-46.53543 0" fill-rule="evenodd"/><path fill="#000000" stroke="#000000" stroke-width="1.0" stroke-linecap="butt" d="m180.48872 560.9194l4.538101 -1.6517334l-4.538101 -1.6517334z" fill-rule="evenodd"/><path fill="#000000" fill-opacity="0.0" d="m78.419945 538.26105l55.527565 0l0 42.015747l-55.527565 0z" fill-rule="evenodd"/><path fill="#000000" d="m116.72961 553.82166q0 -0.25 0.5 -0.5625q0.515625 -0.3125 0.84375 -0.3125q0.5 0 0.6875 0.265625q0.203125 0.265625 0.203125 0.796875q0 0.234375 -0.046875 0.40625q-0.046875 0.171875 -0.34375 0.5625q-0.296875 0.375 -0.859375 0.828125q-0.546875 0.4375 -1.65625 1.1875q-1.09375 0.75 -2.65625 1.671875l0.3125 3.375q0.1875 2.15625 1.1875 2.15625q1.203125 -0.875 1.5625 -0.875q0.15625 0 0.171875 0.0625q-0.171875 0.765625 -1.078125 1.28125q-0.90625 0.515625 -1.859375 0.515625q-0.78125 0 -1.109375 -0.609375q-0.3125 -0.609375 -0.421875 -1.734375l-0.296875 -3.265625q-2.359375 1.390625 -3.4375 2.125q-1.0625 0.71875 -1.28125 1.015625q-0.21875 0.296875 -0.21875 0.703125q0 0.78125 0.53125 0.78125q0.171875 0 0.171875 0.109375q0 0.234375 -0.53125 0.5625q-0.53125 0.3125 -0.828125 0.3125q-0.875 0 -0.875 -0.984375q0 -0.359375 0.15625 -0.65625q0.15625 -0.296875 0.734375 -0.875q0.578125 -0.578125 1.953125 -1.484375q1.375 -0.921875 3.578125 -2.21875l-0.28125 -2.859375q-0.203125 -2.171875 -1.171875 -2.171875l-0.75 0.5625q-0.484375 0.3125 -0.84375 0.3125q-0.15625 0 -0.15625 -0.140625q0 -0.515625 0.90625 -1.109375q0.90625 -0.609375 2.03125 -0.609375q0.546875 0 0.859375 0.34375q0.328125 0.34375 0.453125 0.796875q0.125 0.453125 0.203125 1.203125l0.28125 2.765625q1.484375 -0.890625 2.3125 -1.4375q0.828125 -0.546875 1.21875 -0.90625q0.390625 -0.359375 0.46875 -0.53125q0.078125 -0.171875 0.078125 -0.46875q0 -0.78125 -0.5625 -0.78125q-0.140625 0 -0.140625 -0.109375z" fill-rule="nonzero"/><path fill="#000000" d="m118.49911 569.82166l1.65625 -0.203125q0.078125 0.625 0.421875 0.96875q0.34375 0.328125 0.828125 0.328125q0.53125 0 0.890625 -0.390625q0.375 -0.40625 0.375 -1.09375q0 -0.640625 -0.359375 -1.015625q-0.34375 -0.375 -0.84375 -0.375q-0.328125 0 -0.78125 0.125l0.1875 -1.390625q0.703125 0.015625 1.0625 -0.296875q0.359375 -0.328125 0.359375 -0.84375q0 -0.453125 -0.265625 -0.71875q-0.265625 -0.265625 -0.703125 -0.265625q-0.4375 0 -0.75 0.3125q-0.3125 0.296875 -0.375 0.875l-1.578125 -0.265625q0.171875 -0.8125 0.5 -1.296875q0.328125 -0.484375 0.921875 -0.75q0.59375 -0.28125 1.328125 -0.28125q1.25 0 2.015625 0.796875q0.625 0.65625 0.625 1.484375q0 1.171875 -1.28125 1.875q0.765625 0.15625 1.21875 0.734375q0.453125 0.5625 0.453125 1.375q0 1.171875 -0.859375 2.0q-0.84375 0.828125 -2.125 0.828125q-1.203125 0 -2.0 -0.6875q-0.796875 -0.703125 -0.921875 -1.828125z" fill-rule="nonzero"/><path fill="#000000" fill-opacity="0.0" d="m847.3412 337.57742l-55.527527 -0.3149414" fill-rule="evenodd"/><path stroke="#000000" stroke-width="1.0" stroke-linejoin="round" stroke-linecap="butt" d="m841.3413 337.5434l-49.52765 -0.2809143" fill-rule="evenodd"/><path fill="#000000" stroke="#000000" stroke-width="1.0" stroke-linecap="butt" d="m841.3319 339.1951l4.5474243 -1.6259766l-4.5286865 -1.6774292z" fill-rule="evenodd"/><path fill="#000000" fill-opacity="0.0" d="m846.0 316.41208l42.48816 0l0 42.015747l-42.48816 0z" fill-rule="evenodd"/><path fill="#000000" d="m855.125 333.6602l2.71875 0l2.328125 6.859375l2.25 -6.859375l2.65625 0l-3.421875 9.3125l-0.609375 1.6875q-0.328125 0.84375 -0.640625 1.28125q-0.3125 0.453125 -0.703125 0.71875q-0.390625 0.28125 -0.96875 0.4375q-0.578125 0.15625 -1.3125 0.15625q-0.734375 0 -1.453125 -0.15625l-0.21875 -2.0q0.59375 0.125 1.078125 0.125q0.890625 0 1.3125 -0.53125q0.4375 -0.515625 0.671875 -1.328125l-3.6875 -9.703125z" fill-rule="nonzero"/><path fill="#000000" d="m870.26636 350.33206l-1.703125 0l0 -6.4375q-0.9375 0.875 -2.203125 1.296875l0 -1.546875q0.671875 -0.21875 1.453125 -0.828125q0.78125 -0.609375 1.078125 -1.421875l1.375 0l0 8.9375z" fill-rule="nonzero"/><path fill="#000000" fill-opacity="0.0" d="m846.0 465.0656l42.48816 0l0 42.015747l-42.48816 0z" fill-rule="evenodd"/><path fill="#000000" d="m855.125 482.31375l2.71875 0l2.328125 6.859375l2.25 -6.859375l2.65625 0l-3.421875 9.3125l-0.609375 1.6875q-0.328125 0.84375 -0.640625 1.28125q-0.3125 0.453125 -0.703125 0.71875q-0.390625 0.28125 -0.96875 0.4375q-0.578125 0.15625 -1.3125 0.15625q-0.734375 0 -1.453125 -0.15625l-0.21875 -2.0q0.59375 0.125 1.078125 0.125q0.890625 0 1.3125 -0.53125q0.4375 -0.515625 0.671875 -1.328125l-3.6875 -9.703125z" fill-rule="nonzero"/><path fill="#000000" d="m871.6726 497.4075l0 1.578125l-5.984375 0q0.09375 -0.90625 0.578125 -1.703125q0.484375 -0.8125 1.921875 -2.140625q1.15625 -1.0625 1.421875 -1.453125q0.34375 -0.53125 0.34375 -1.046875q0 -0.5625 -0.3125 -0.875q-0.296875 -0.3125 -0.84375 -0.3125q-0.53125 0 -0.84375 0.328125q-0.3125 0.328125 -0.375 1.0625l-1.6875 -0.15625q0.140625 -1.421875 0.9375 -2.03125q0.8125 -0.609375 2.015625 -0.609375q1.3125 0 2.0625 0.71875q0.765625 0.703125 0.765625 1.75q0 0.609375 -0.21875 1.15625q-0.21875 0.546875 -0.6875 1.140625q-0.3125 0.390625 -1.125 1.140625q-0.796875 0.734375 -1.015625 0.984375q-0.21875 0.234375 -0.34375 0.46875l3.390625 0z" fill-rule="nonzero"/><path fill="#000000" fill-opacity="0.0" d="m771.1942 518.5971l139.81104 0l0 42.834656l-139.81104 0z" fill-rule="evenodd"/><path fill="#ffffff" d="m790.2095 527.5971l103.11389 0l0 23.200012l-103.11389 0l0 -23.200012z" fill-rule="nonzero"/><path fill="#000000" fill-opacity="0.0" d="m790.2095 528.65985l10.739929 0l0 22.225464l-10.739929 0l0 -22.225464z" fill-rule="nonzero"/><path fill="#1f2328" d="m794.00635 532.329l7.609375 0l-0.28125 1.421875l-5.625 0q1.0 1.171875 2.578125 2.5q1.5625 1.328125 1.9375 2.21875q0.390625 0.890625 0.390625 1.8125q0 2.296875 -1.4375 4.203125q-1.421875 1.890625 -3.984375 1.890625q-1.984375 0 -3.03125 -1.203125q-1.03125 -1.203125 -1.03125 -2.921875q0 -2.296875 1.40625 -4.125q1.421875 -1.828125 3.6875 -1.921875q-1.796875 -1.6875 -2.46875 -2.765625l0.25 -1.109375zm-1.140625 9.9375q0 1.328125 0.671875 2.0625q0.671875 0.734375 1.71875 0.734375q1.5625 0 2.578125 -1.5q1.03125 -1.515625 1.03125 -3.359375q0 -1.15625 -0.609375 -1.90625q-0.609375 -0.765625 -1.6875 -0.765625q-1.515625 0 -2.609375 1.375q-1.09375 1.359375 -1.09375 3.359375z" fill-rule="nonzero"/><path fill="#010000" fill-opacity="0.0" d="m800.9494 541.7517l14.320923 0l0 14.804993l-14.320923 0l0 -14.804993z" fill-rule="nonzero"/><path fill="#1f2328" d="m801.6525 550.9852l1.109375 -0.125q0.125 0.96875 0.546875 1.390625q0.4375 0.40625 1.140625 0.40625q0.84375 0 1.453125 -0.59375q0.609375 -0.609375 0.609375 -1.390625q0 -0.671875 -0.46875 -1.109375q-0.453125 -0.453125 -1.21875 -0.453125q-0.09375 0 -0.359375 0.015625l0.1875 -0.9375q0.15625 0.015625 0.3125 0.015625q0.96875 0 1.5 -0.46875q0.53125 -0.46875 0.53125 -1.171875q0 -0.625 -0.4375 -1.0625q-0.421875 -0.4375 -1.046875 -0.4375q-0.609375 0 -1.109375 0.453125q-0.484375 0.4375 -0.625 1.25l-1.109375 -0.234375q0.28125 -1.140625 1.0625 -1.75q0.78125 -0.625 1.859375 -0.625q1.125 0 1.828125 0.6875q0.703125 0.671875 0.703125 1.671875q0 0.734375 -0.390625 1.28125q-0.375 0.546875 -1.125 0.90625q0.53125 0.3125 0.796875 0.765625q0.28125 0.453125 0.28125 1.046875q0 1.234375 -0.9375 2.140625q-0.921875 0.90625 -2.21875 0.90625q-1.25 0 -2.015625 -0.703125q-0.765625 -0.703125 -0.859375 -1.875zm9.551086 2.421875l1.46875 -6.953125q-0.953125 0.734375 -2.65625 1.1875l0.21875 -1.03125q0.84375 -0.34375 1.671875 -0.890625q0.828125 -0.546875 1.234375 -0.953125q0.25 -0.25 0.484375 -0.609375l0.65625 0l-1.921875 9.25l-1.15625 0z" fill-rule="nonzero"/><path fill="#000000" fill-opacity="0.0" d="m815.2703 528.65985l11.2872925 0l0 22.225464l-11.2872925 0l0 -22.225464z" fill-rule="nonzero"/><path fill="#1f2328" d="m826.1453 538.0165l-9.140625 0l0 -1.578125l9.140625 0l0 1.578125zm0 4.203125l-9.140625 0l0 -1.578125l9.140625 0l0 1.578125z" fill-rule="nonzero"/><path fill="#010000" fill-opacity="0.0" d="m826.5576 541.7517l3.5770874 0l0 14.804993l-3.5770874 0l0 -14.804993z" fill-rule="nonzero"/><path fill="#000000" fill-opacity="0.0" d="m830.1347 528.65985l10.73999 0l0 22.225464l-10.73999 0l0 -22.225464z" fill-rule="nonzero"/><path fill="#1f2328" d="m833.9316 532.329l7.609375 0l-0.28125 1.421875l-5.625 0q1.0 1.171875 2.578125 2.5q1.5625 1.328125 1.9375 2.21875q0.390625 0.890625 0.390625 1.8125q0 2.296875 -1.4375 4.203125q-1.421875 1.890625 -3.984375 1.890625q-1.984375 0 -3.03125 -1.203125q-1.03125 -1.203125 -1.03125 -2.921875q0 -2.296875 1.40625 -4.125q1.421875 -1.828125 3.6875 -1.921875q-1.796875 -1.6875 -2.46875 -2.765625l0.25 -1.109375zm-1.140625 9.9375q0 1.328125 0.671875 2.0625q0.671875 0.734375 1.71875 0.734375q1.5625 0 2.578125 -1.5q1.03125 -1.515625 1.03125 -3.359375q0 -1.15625 -0.609375 -1.90625q-0.609375 -0.765625 -1.6875 -0.765625q-1.515625 0 -2.609375 1.375q-1.09375 1.359375 -1.09375 3.359375z" fill-rule="nonzero"/><path fill="#010000" fill-opacity="0.0" d="m840.8747 541.7517l7.1604614 0l0 14.804993l-7.1604614 0l0 -14.804993z" fill-rule="nonzero"/><path fill="#1f2328" d="m843.96844 553.4071l1.46875 -6.953125q-0.953125 0.734375 -2.65625 1.1875l0.21875 -1.03125q0.84375 -0.34375 1.671875 -0.890625q0.828125 -0.546875 1.234375 -0.953125q0.25 -0.25 0.484375 -0.609375l0.65625 0l-1.921875 9.25l-1.15625 0z" fill-rule="nonzero"/><path fill="#000000" fill-opacity="0.0" d="m848.03516 528.65985l31.691345 0l0 22.225464l-31.691345 0l0 -22.225464z" fill-rule="nonzero"/><path fill="#1f2328" d="m864.2801 538.0165l-9.140625 0l0 -1.578125l9.140625 0l0 1.578125zm0 4.203125l-9.140625 0l0 -1.578125l9.140625 0l0 1.578125zm6.1573486 3.9375l0.28125 -1.328125l5.390625 -6.0625q0.5625 -0.640625 1.28125 -1.328125q-1.21875 0.125 -1.75 0.125l-3.734375 0l0.3125 -1.421875l7.75 0l-0.234375 1.0625l-5.4375 6.109375q-0.453125 0.515625 -1.375 1.421875q1.421875 -0.078125 1.953125 -0.078125l3.953125 0l-0.3125 1.5l-8.078125 0z" fill-rule="nonzero"/><path fill="#010000" fill-opacity="0.0" d="m879.7265 541.7517l7.1604614 0l0 14.804993l-7.1604614 0l0 -14.804993z" fill-rule="nonzero"/><path fill="#1f2328" d="m882.82025 553.4071l1.46875 -6.953125q-0.953125 0.734375 -2.65625 1.1875l0.21875 -1.03125q0.84375 -0.34375 1.671875 -0.890625q0.828125 -0.546875 1.234375 -0.953125q0.25 -0.25 0.484375 -0.609375l0.65625 0l-1.921875 9.25l-1.15625 0z" fill-rule="nonzero"/><path fill="#000000" fill-opacity="0.0" d="m886.88696 528.65985l6.4364014 0l0 22.225464l-6.4364014 0l0 -22.225464z" fill-rule="nonzero"/><path fill="#1f2328" d="m887.7776 542.00085l0.359375 -1.703125l5.21875 0l-0.359375 1.703125l-5.21875 0z" fill-rule="nonzero"/><path fill="#000000" fill-opacity="0.0" d="m893.32336 528.65985l5.369995 0l0 22.225464l-5.369995 0l0 -22.225464z" fill-rule="nonzero"/><path fill="#ffffff" d="m833.3541 554.2771l16.824524 0l0 23.200012l-16.824524 0l0 -23.200012z" fill-rule="nonzero"/><path fill="#000000" fill-opacity="0.0" d="m833.3541 555.33984l9.6640625 0l0 22.225464l-9.6640625 0l0 -22.225464z" fill-rule="nonzero"/><path fill="#1f2328" d="m833.3541 576.7121l0.109375 -1.609375q0.515625 0.15625 1.015625 0.15625q0.53125 0 0.84375 -0.234375q0.421875 -0.3125 0.90625 -1.171875l0.546875 -0.984375l-1.671875 -10.046875l1.6875 0l0.75 5.0625q0.234375 1.5 0.390625 3.0l4.484375 -8.0625l1.78125 0l-6.390625 11.34375q-0.921875 1.65625 -1.640625 2.1875q-0.71875 0.546875 -1.65625 0.546875q-0.59375 0 -1.15625 -0.1875z" fill-rule="nonzero"/><path fill="#010000" fill-opacity="0.0" d="m843.0182 568.4317l7.1604614 0l0 14.804993l-7.1604614 0l0 -14.804993z" fill-rule="nonzero"/><path fill="#1f2328" d="m846.11194 580.0871l1.46875 -6.953125q-0.953125 0.734375 -2.65625 1.1875l0.21875 -1.03125q0.84375 -0.34375 1.671875 -0.890625q0.828125 -0.546875 1.234375 -0.953125q0.25 -0.25 0.484375 -0.609375l0.65625 0l-1.921875 9.25l-1.15625 0z" fill-rule="nonzero"/><path fill="#000000" fill-opacity="0.0" d="m850.17865 555.33984l5.369995 0l0 22.225464l-5.369995 0l0 -22.225464z" fill-rule="nonzero"/><path fill="#000000" fill-opacity="0.0" d="m462.23096 105.561676l45.51181 0l0 42.834656l-45.51181 0z" fill-rule="evenodd"/><path fill="#ffffff" d="m473.1231 114.561676l25.060883 0l0 23.199997l-25.060883 0l0 -23.199997z" fill-rule="nonzero"/><path fill="#000000" fill-opacity="0.0" d="m473.1231 115.62444l10.73996 0l0 22.225456l-10.73996 0l0 -22.225456z" fill-rule="nonzero"/><path fill="#1f2328" d="m476.91998 119.29356l7.609375 0l-0.28125 1.421875l-5.625 0q1.0 1.171875 2.578125 2.5q1.5625 1.328125 1.9375 2.21875q0.390625 0.890625 0.390625 1.8125q0 2.2968674 -1.4375 4.2031174q-1.421875 1.890625 -3.984375 1.890625q-1.984375 0 -3.03125 -1.203125q-1.03125 -1.203125 -1.03125 -2.921875q0 -2.2968674 1.40625 -4.1249924q1.421875 -1.828125 3.6875 -1.921875q-1.796875 -1.6875 -2.46875 -2.765625l0.25 -1.109375zm-1.140625 9.937492q0 1.328125 0.671875 2.0625q0.671875 0.734375 1.71875 0.734375q1.5625 0 2.578125 -1.5q1.03125 -1.515625 1.03125 -3.3593674q0 -1.15625 -0.609375 -1.90625q-0.609375 -0.765625 -1.6875 -0.765625q-1.515625 0 -2.609375 1.375q-1.09375 1.359375 -1.09375 3.3593674z" fill-rule="nonzero"/><path fill="#010000" fill-opacity="0.0" d="m483.86307 128.71628l14.320923 0l0 14.804993l-14.320923 0l0 -14.804993z" fill-rule="nonzero"/><path fill="#1f2328" d="m484.61307 140.37167q0.1875 -0.828125 0.484375 -1.375q0.3125 -0.5625 0.828125 -1.0625q0.515625 -0.5 2.0 -1.671875q0.890625 -0.71875 1.21875 -1.046875q0.46875 -0.5 0.671875 -0.96875q0.15625 -0.3125 0.15625 -0.703125q0 -0.625 -0.453125 -1.0625q-0.453125 -0.453125 -1.109375 -0.453125q-0.640625 0 -1.125 0.453125q-0.484375 0.453125 -0.6875 1.4375l-1.125 -0.15625q0.171875 -1.234375 0.953125 -1.9375q0.796875 -0.703125 1.96875 -0.703125q0.78125 0 1.421875 0.328125q0.640625 0.328125 0.953125 0.921875q0.328125 0.578125 0.328125 1.203125q0 0.921875 -0.65625 1.78125q-0.390625 0.515625 -2.359375 2.078125q-0.84375 0.65625 -1.265625 1.09375q-0.40625 0.421875 -0.609375 0.796875l4.125 0l-0.21875 1.046875l-5.5 0zm9.504211 0l1.46875 -6.953125q-0.953125 0.734375 -2.65625 1.1875l0.21875 -1.03125q0.84375 -0.34375 1.671875 -0.890625q0.828125 -0.546875 1.234375 -0.953125q0.25 -0.25 0.484375 -0.609375l0.65625 0l-1.921875 9.25l-1.15625 0z" fill-rule="nonzero"/><path fill="#000000" fill-opacity="0.0" d="m462.23883 256.49606l45.51184 0l0 42.834656l-45.51184 0z" fill-rule="evenodd"/><path fill="#ffffff" d="m473.13098 265.49606l25.060883 0l0 23.200012l-25.060883 0l0 -23.200012z" fill-rule="nonzero"/><path fill="#000000" fill-opacity="0.0" d="m473.13098 266.55884l10.73996 0l0 22.225433l-10.73996 0l0 -22.225433z" fill-rule="nonzero"/><path fill="#1f2328" d="m476.92786 270.22794l7.609375 0l-0.28125 1.421875l-5.625 0q1.0 1.171875 2.578125 2.5q1.5625 1.328125 1.9375 2.21875q0.390625 0.890625 0.390625 1.8125q0 2.296875 -1.4375 4.203125q-1.421875 1.890625 -3.984375 1.890625q-1.984375 0 -3.03125 -1.203125q-1.03125 -1.203125 -1.03125 -2.921875q0 -2.296875 1.40625 -4.125q1.421875 -1.828125 3.6875 -1.921875q-1.796875 -1.6875 -2.46875 -2.765625l0.25 -1.109375zm-1.140625 9.9375q0 1.328125 0.671875 2.0625q0.671875 0.734375 1.71875 0.734375q1.5625 0 2.578125 -1.5q1.03125 -1.515625 1.03125 -3.359375q0 -1.15625 -0.609375 -1.90625q-0.609375 -0.765625 -1.6875 -0.765625q-1.515625 0 -2.609375 1.375q-1.09375 1.359375 -1.09375 3.359375z" fill-rule="nonzero"/><path fill="#010000" fill-opacity="0.0" d="m483.87094 279.65067l14.320923 0l0 14.804993l-14.320923 0l0 -14.804993z" fill-rule="nonzero"/><path fill="#1f2328" d="m484.62094 291.30606q0.1875 -0.828125 0.484375 -1.375q0.3125 -0.5625 0.828125 -1.0625q0.515625 -0.5 2.0 -1.671875q0.890625 -0.71875 1.21875 -1.046875q0.46875 -0.5 0.671875 -0.96875q0.15625 -0.3125 0.15625 -0.703125q0 -0.625 -0.453125 -1.0625q-0.453125 -0.453125 -1.109375 -0.453125q-0.640625 0 -1.125 0.453125q-0.484375 0.453125 -0.6875 1.4375l-1.125 -0.15625q0.171875 -1.234375 0.953125 -1.9375q0.796875 -0.703125 1.96875 -0.703125q0.78125 0 1.421875 0.328125q0.640625 0.328125 0.953125 0.921875q0.328125 0.578125 0.328125 1.203125q0 0.921875 -0.65625 1.78125q-0.390625 0.515625 -2.359375 2.078125q-0.84375 0.65625 -1.265625 1.09375q-0.40625 0.421875 -0.609375 0.796875l4.125 0l-0.21875 1.046875l-5.5 0zm7.1604614 0q0.1875 -0.828125 0.484375 -1.375q0.3125 -0.5625 0.828125 -1.0625q0.515625 -0.5 2.0 -1.671875q0.890625 -0.71875 1.21875 -1.046875q0.46875 -0.5 0.671875 -0.96875q0.15625 -0.3125 0.15625 -0.703125q0 -0.625 -0.453125 -1.0625q-0.453125 -0.453125 -1.109375 -0.453125q-0.640625 0 -1.125 0.453125q-0.484375 0.453125 -0.6875 1.4375l-1.125 -0.15625q0.171875 -1.234375 0.953125 -1.9375q0.796875 -0.703125 1.96875 -0.703125q0.78125 0 1.421875 0.328125q0.640625 0.328125 0.953125 0.921875q0.328125 0.578125 0.328125 1.203125q0 0.921875 -0.65625 1.78125q-0.390625 0.515625 -2.359375 2.078125q-0.84375 0.65625 -1.265625 1.09375q-0.40625 0.421875 -0.609375 0.796875l4.125 0l-0.21875 1.046875l-5.5 0z" fill-rule="nonzero"/><path fill="#000000" fill-opacity="0.0" d="m462.99475 407.43045l45.51181 0l0 42.834656l-45.51181 0z" fill-rule="evenodd"/><path fill="#ffffff" d="m473.8869 416.43045l25.060852 0l0 23.199982l-25.060852 0l0 -23.199982z" fill-rule="nonzero"/><path fill="#000000" fill-opacity="0.0" d="m473.8869 417.4932l10.739929 0l0 22.225464l-10.739929 0l0 -22.225464z" fill-rule="nonzero"/><path fill="#1f2328" d="m477.68378 421.16232l7.609375 0l-0.28125 1.421875l-5.625 0q1.0 1.171875 2.578125 2.5q1.5625 1.328125 1.9375 2.21875q0.390625 0.890625 0.390625 1.8125q0 2.296875 -1.4375 4.203125q-1.421875 1.890625 -3.984375 1.890625q-1.984375 0 -3.03125 -1.203125q-1.03125 -1.203125 -1.03125 -2.921875q0 -2.296875 1.40625 -4.125q1.421875 -1.828125 3.6875 -1.921875q-1.796875 -1.6875 -2.46875 -2.765625l0.25 -1.109375zm-1.140625 9.9375q0 1.328125 0.671875 2.0625q0.671875 0.734375 1.71875 0.734375q1.5625 0 2.578125 -1.5q1.03125 -1.515625 1.03125 -3.359375q0 -1.15625 -0.609375 -1.90625q-0.609375 -0.765625 -1.6875 -0.765625q-1.515625 0 -2.609375 1.375q-1.09375 1.359375 -1.09375 3.359375z" fill-rule="nonzero"/><path fill="#010000" fill-opacity="0.0" d="m484.62683 430.58505l14.320923 0l0 14.804993l-14.320923 0l0 -14.804993z" fill-rule="nonzero"/><path fill="#1f2328" d="m485.37683 442.24045q0.1875 -0.828125 0.484375 -1.375q0.3125 -0.5625 0.828125 -1.0625q0.515625 -0.5 2.0 -1.671875q0.890625 -0.71875 1.21875 -1.046875q0.46875 -0.5 0.671875 -0.96875q0.15625 -0.3125 0.15625 -0.703125q0 -0.625 -0.453125 -1.0625q-0.453125 -0.453125 -1.109375 -0.453125q-0.640625 0 -1.125 0.453125q-0.484375 0.453125 -0.6875 1.4375l-1.125 -0.15625q0.171875 -1.234375 0.953125 -1.9375q0.796875 -0.703125 1.96875 -0.703125q0.78125 0 1.421875 0.328125q0.640625 0.328125 0.953125 0.921875q0.328125 0.578125 0.328125 1.203125q0 0.921875 -0.65625 1.78125q-0.390625 0.515625 -2.359375 2.078125q-0.84375 0.65625 -1.265625 1.09375q-0.40625 0.421875 -0.609375 0.796875l4.125 0l-0.21875 1.046875l-5.5 0zm7.1135864 -2.421875l1.109375 -0.125q0.125 0.96875 0.546875 1.390625q0.4375 0.40625 1.140625 0.40625q0.84375 0 1.453125 -0.59375q0.609375 -0.609375 0.609375 -1.390625q0 -0.671875 -0.46875 -1.109375q-0.453125 -0.453125 -1.21875 -0.453125q-0.09375 0 -0.359375 0.015625l0.1875 -0.9375q0.15625 0.015625 0.3125 0.015625q0.96875 0 1.5 -0.46875q0.53125 -0.46875 0.53125 -1.171875q0 -0.625 -0.4375 -1.0625q-0.421875 -0.4375 -1.046875 -0.4375q-0.609375 0 -1.109375 0.453125q-0.484375 0.4375 -0.625 1.25l-1.109375 -0.234375q0.28125 -1.140625 1.0625 -1.75q0.78125 -0.625 1.859375 -0.625q1.125 0 1.828125 0.6875q0.703125 0.671875 0.703125 1.671875q0 0.734375 -0.390625 1.28125q-0.375 0.546875 -1.125 0.90625q0.53125 0.3125 0.796875 0.765625q0.28125 0.453125 0.28125 1.046875q0 1.234375 -0.9375 2.140625q-0.921875 0.90625 -2.21875 0.90625q-1.25 0 -2.015625 -0.703125q-0.765625 -0.703125 -0.859375 -1.875z" fill-rule="nonzero"/><path fill="#000000" fill-opacity="0.0" d="m462.24014 558.3648l45.51184 0l0 42.834656l-45.51184 0z" fill-rule="evenodd"/><path fill="#ffffff" d="m473.1323 567.3648l25.060883 0l0 23.200012l-25.060883 0l0 -23.200012z" fill-rule="nonzero"/><path fill="#000000" fill-opacity="0.0" d="m473.1323 568.4276l10.73996 0l0 22.225403l-10.73996 0l0 -22.225403z" fill-rule="nonzero"/><path fill="#1f2328" d="m476.92917 572.0967l7.609375 0l-0.28125 1.421875l-5.625 0q1.0 1.171875 2.578125 2.5q1.5625 1.328125 1.9375 2.21875q0.390625 0.890625 0.390625 1.8125q0 2.296875 -1.4375 4.203125q-1.421875 1.890625 -3.984375 1.890625q-1.984375 0 -3.03125 -1.203125q-1.03125 -1.203125 -1.03125 -2.921875q0 -2.296875 1.40625 -4.125q1.421875 -1.828125 3.6875 -1.921875q-1.796875 -1.6875 -2.46875 -2.765625l0.25 -1.109375zm-1.140625 9.9375q0 1.328125 0.671875 2.0625q0.671875 0.734375 1.71875 0.734375q1.5625 0 2.578125 -1.5q1.03125 -1.515625 1.03125 -3.359375q0 -1.15625 -0.609375 -1.90625q-0.609375 -0.765625 -1.6875 -0.765625q-1.515625 0 -2.609375 1.375q-1.09375 1.359375 -1.09375 3.359375z" fill-rule="nonzero"/><path fill="#010000" fill-opacity="0.0" d="m483.87225 581.5194l14.320923 0l0 14.804993l-14.320923 0l0 -14.804993z" fill-rule="nonzero"/><path fill="#1f2328" d="m484.62225 593.1748q0.1875 -0.828125 0.484375 -1.375q0.3125 -0.5625 0.828125 -1.0625q0.515625 -0.5 2.0 -1.671875q0.890625 -0.71875 1.21875 -1.046875q0.46875 -0.5 0.671875 -0.96875q0.15625 -0.3125 0.15625 -0.703125q0 -0.625 -0.453125 -1.0625q-0.453125 -0.453125 -1.109375 -0.453125q-0.640625 0 -1.125 0.453125q-0.484375 0.453125 -0.6875 1.4375l-1.125 -0.15625q0.171875 -1.234375 0.953125 -1.9375q0.796875 -0.703125 1.96875 -0.703125q0.78125 0 1.421875 0.328125q0.640625 0.328125 0.953125 0.921875q0.328125 0.578125 0.328125 1.203125q0 0.921875 -0.65625 1.78125q-0.390625 0.515625 -2.359375 2.078125q-0.84375 0.65625 -1.265625 1.09375q-0.40625 0.421875 -0.609375 0.796875l4.125 0l-0.21875 1.046875l-5.5 0zm10.254211 0l0.5 -2.34375l-3.765625 0l0.25 -1.125l5.15625 -5.75l0.9375 0l-1.234375 5.859375l1.296875 0l-0.203125 1.015625l-1.296875 0l-0.5 2.34375l-1.140625 0zm0.703125 -3.359375l0.8125 -3.84375l-3.4375 3.84375l2.625 0z" fill-rule="nonzero"/></g></svg>