<svg version="1.1" viewBox="0.0 0.0 837.3202099737533 366.0577427821522" fill="none" stroke="none" stroke-linecap="square" stroke-miterlimit="10" xmlns:xlink="http://www.w3.org/1999/xlink" xmlns="http://www.w3.org/2000/svg"><clipPath id="p.0"><path d="m0 0l837.3202 0l0 366.05774l-837.3202 0l0 -366.05774z" clip-rule="nonzero"/></clipPath><g clip-path="url(#p.0)"><path fill="#ffffff" d="m0 0l837.3202 0l0 366.05774l-837.3202 0z" fill-rule="evenodd"/><path fill="#ffd966" d="m197.49063 93.850395l0 0c0 -10.97612 8.897903 -19.874016 19.874023 -19.874016l0 0c5.27092 0 10.325943 2.0938644 14.053055 5.820961c3.7270966 3.7271042 5.8209534 8.782135 5.8209534 14.053055l0 0c0 10.976112 -8.897888 19.874016 -19.874008 19.874016l0 0c-10.97612 0 -19.874023 -8.897903 -19.874023 -19.874016z" fill-rule="evenodd"/><path stroke="#000000" stroke-width="1.0" stroke-linejoin="round" stroke-linecap="butt" d="m197.49063 93.850395l0 0c0 -10.97612 8.897903 -19.874016 19.874023 -19.874016l0 0c5.27092 0 10.325943 2.0938644 14.053055 5.820961c3.7270966 3.7271042 5.8209534 8.782135 5.8209534 14.053055l0 0c0 10.976112 -8.897888 19.874016 -19.874008 19.874016l0 0c-10.97612 0 -19.874023 -8.897903 -19.874023 -19.874016z" fill-rule="evenodd"/><path fill="#c27ba0" d="m256.34518 153.06229l0 0c0 -10.97612 8.897888 -19.874023 19.874023 -19.874023l0 0c5.2709045 0 10.325958 2.093872 14.05304 5.8209686c3.7271118 3.7270966 5.820984 8.782135 5.820984 14.053055l0 0c0 10.976105 -8.897919 19.874008 -19.874023 19.874008l0 0c-10.976135 0 -19.874023 -8.897903 -19.874023 -19.874008z" fill-rule="evenodd"/><path stroke="#000000" stroke-width="1.0" stroke-linejoin="round" stroke-linecap="butt" d="m256.34518 153.06229l0 0c0 -10.97612 8.897888 -19.874023 19.874023 -19.874023l0 0c5.2709045 0 10.325958 2.093872 14.05304 5.8209686c3.7271118 3.7270966 5.820984 8.782135 5.820984 14.053055l0 0c0 10.976105 -8.897919 19.874008 -19.874023 19.874008l0 0c-10.976135 0 -19.874023 -8.897903 -19.874023 -19.874008z" fill-rule="evenodd"/><path fill="#000000" fill-opacity="0.0" d="m231.41771 107.90344l30.740158 31.118118" fill-rule="evenodd"/><path stroke="#000000" stroke-width="1.0" stroke-linejoin="round" stroke-linecap="butt" d="m231.41771 107.90344l30.740158 31.118118" fill-rule="evenodd"/><path fill="#000000" fill-opacity="0.0" d="m231.41771 198.22112l30.740158 -31.118103" fill-rule="evenodd"/><path stroke="#000000" stroke-width="1.0" stroke-linejoin="round" stroke-linecap="butt" d="m231.41771 198.22112l30.740158 -31.118103" fill-rule="evenodd"/><path fill="#ffd966" d="m197.49063 212.27417l0 0c0 -10.97612 8.897903 -19.874023 19.874023 -19.874023l0 0c5.27092 0 10.325943 2.093872 14.053055 5.8209686c3.7270966 3.7270966 5.8209534 8.782135 5.8209534 14.053055l0 0c0 10.97612 -8.897888 19.874008 -19.874008 19.874008l0 0c-10.97612 0 -19.874023 -8.897888 -19.874023 -19.874008z" fill-rule="evenodd"/><path stroke="#000000" stroke-width="1.0" stroke-linejoin="round" stroke-linecap="butt" d="m197.49063 212.27417l0 0c0 -10.97612 8.897903 -19.874023 19.874023 -19.874023l0 0c5.27092 0 10.325943 2.093872 14.053055 5.8209686c3.7270966 3.7270966 5.8209534 8.782135 5.8209534 14.053055l0 0c0 10.97612 -8.897888 19.874008 -19.874008 19.874008l0 0c-10.97612 0 -19.874023 -8.897888 -19.874023 -19.874008z" fill-rule="evenodd"/><path fill="#ffd966" d="m197.49063 153.06229l0 0c0 -10.97612 8.897903 -19.874023 19.874023 -19.874023l0 0c5.27092 0 10.325943 2.093872 14.053055 5.8209686c3.7270966 3.7270966 5.8209534 8.782135 5.8209534 14.053055l0 0c0 10.976105 -8.897888 19.874008 -19.874008 19.874008l0 0c-10.97612 0 -19.874023 -8.897903 -19.874023 -19.874008z" fill-rule="evenodd"/><path stroke="#000000" stroke-width="1.0" stroke-linejoin="round" stroke-linecap="butt" d="m197.49063 153.06229l0 0c0 -10.97612 8.897903 -19.874023 19.874023 -19.874023l0 0c5.27092 0 10.325943 2.093872 14.053055 5.8209686c3.7270966 3.7270966 5.8209534 8.782135 5.8209534 14.053055l0 0c0 10.976105 -8.897888 19.874008 -19.874008 19.874008l0 0c-10.97612 0 -19.874023 -8.897903 -19.874023 -19.874008z" fill-rule="evenodd"/><path fill="#c27ba0" d="m315.20294 180.28932l0 0c0 -10.97612 8.897888 -19.874023 19.874023 -19.874023l0 0c5.2709045 0 10.325958 2.093872 14.05304 5.8209686c3.7271118 3.7270966 5.820984 8.782135 5.820984 14.053055l0 0c0 10.976105 -8.897919 19.874008 -19.874023 19.874008l0 0c-10.976135 0 -19.874023 -8.897903 -19.874023 -19.874008z" fill-rule="evenodd"/><path stroke="#000000" stroke-width="1.0" stroke-linejoin="round" stroke-linecap="butt" d="m315.20294 180.28932l0 0c0 -10.97612 8.897888 -19.874023 19.874023 -19.874023l0 0c5.2709045 0 10.325958 2.093872 14.05304 5.8209686c3.7271118 3.7270966 5.820984 8.782135 5.820984 14.053055l0 0c0 10.976105 -8.897919 19.874008 -19.874023 19.874008l0 0c-10.976135 0 -19.874023 -8.897903 -19.874023 -19.874008z" fill-rule="evenodd"/><path fill="#c27ba0" d="m256.3468 93.850395l0 0c0 -10.97612 8.897888 -19.874016 19.873993 -19.874016l0 0c5.270935 0 10.325958 2.0938644 14.05307 5.820961c3.7270813 3.7271042 5.8209534 8.782135 5.8209534 14.053055l0 0c0 10.976112 -8.897888 19.874016 -19.874023 19.874016l0 0c-10.976105 0 -19.873993 -8.897903 -19.873993 -19.874016z" fill-rule="evenodd"/><path stroke="#000000" stroke-width="1.0" stroke-linejoin="round" stroke-linecap="butt" d="m256.3468 93.850395l0 0c0 -10.97612 8.897888 -19.874016 19.873993 -19.874016l0 0c5.270935 0 10.325958 2.0938644 14.05307 5.820961c3.7270813 3.7271042 5.8209534 8.782135 5.8209534 14.053055l0 0c0 10.976112 -8.897888 19.874016 -19.874023 19.874016l0 0c-10.976105 0 -19.873993 -8.897903 -19.873993 -19.874016z" fill-rule="evenodd"/><path fill="#c27ba0" d="m315.20294 121.88189l0 0c0 -10.976112 8.897888 -19.874016 19.874023 -19.874016l0 0c5.2709045 0 10.325958 2.0938644 14.05304 5.8209686c3.7271118 3.7270966 5.820984 8.782127 5.820984 14.053047l0 0c0 10.976112 -8.897919 19.874016 -19.874023 19.874016l0 0c-10.976135 0 -19.874023 -8.897903 -19.874023 -19.874016z" fill-rule="evenodd"/><path stroke="#000000" stroke-width="1.0" stroke-linejoin="round" stroke-linecap="butt" d="m315.20294 121.88189l0 0c0 -10.976112 8.897888 -19.874016 19.874023 -19.874016l0 0c5.2709045 0 10.325958 2.0938644 14.05304 5.8209686c3.7271118 3.7270966 5.820984 8.782127 5.820984 14.053047l0 0c0 10.976112 -8.897919 19.874016 -19.874023 19.874016l0 0c-10.976135 0 -19.874023 -8.897903 -19.874023 -19.874016z" fill-rule="evenodd"/><path fill="#c27ba0" d="m256.3468 212.27417l0 0c0 -10.97612 8.897888 -19.874023 19.873993 -19.874023l0 0c5.270935 0 10.325958 2.093872 14.05307 5.8209686c3.7270813 3.7270966 5.8209534 8.782135 5.8209534 14.053055l0 0c0 10.97612 -8.897888 19.874008 -19.874023 19.874008l0 0c-10.976105 0 -19.873993 -8.897888 -19.873993 -19.874008z" fill-rule="evenodd"/><path stroke="#000000" stroke-width="1.0" stroke-linejoin="round" stroke-linecap="butt" d="m256.3468 212.27417l0 0c0 -10.97612 8.897888 -19.874023 19.873993 -19.874023l0 0c5.270935 0 10.325958 2.093872 14.05307 5.8209686c3.7270813 3.7270966 5.8209534 8.782135 5.8209534 14.053055l0 0c0 10.97612 -8.897888 19.874008 -19.874023 19.874008l0 0c-10.976105 0 -19.873993 -8.897888 -19.873993 -19.874008z" fill-rule="evenodd"/><path fill="#c27ba0" d="m315.20294 238.69937l0 0c0 -10.97612 8.897888 -19.874023 19.874023 -19.874023l0 0c5.2709045 0 10.325958 2.093872 14.05304 5.8209686c3.7271118 3.7270966 5.820984 8.782135 5.820984 14.053055l0 0c0 10.976105 -8.897919 19.874023 -19.874023 19.874023l0 0c-10.976135 0 -19.874023 -8.897919 -19.874023 -19.874023z" fill-rule="evenodd"/><path stroke="#000000" stroke-width="1.0" stroke-linejoin="round" stroke-linecap="butt" d="m315.20294 238.69937l0 0c0 -10.97612 8.897888 -19.874023 19.874023 -19.874023l0 0c5.2709045 0 10.325958 2.093872 14.05304 5.8209686c3.7271118 3.7270966 5.820984 8.782135 5.820984 14.053055l0 0c0 10.976105 -8.897919 19.874023 -19.874023 19.874023l0 0c-10.976135 0 -19.874023 -8.897919 -19.874023 -19.874023z" fill-rule="evenodd"/><path fill="#000000" fill-opacity="0.0" d="m276.2208 192.40015l0 -19.464554" fill-rule="evenodd"/><path stroke="#000000" stroke-width="1.0" stroke-linejoin="round" stroke-linecap="butt" d="m276.2208 192.40015l0 -19.464554" fill-rule="evenodd"/><path fill="#000000" fill-opacity="0.0" d="m321.0239 166.23627l-24.944855 -13.1653595" fill-rule="evenodd"/><path stroke="#000000" stroke-width="1.0" stroke-linejoin="round" stroke-linecap="butt" d="m321.0239 166.23627l-24.944855 -13.1653595" fill-rule="evenodd"/><path fill="#000000" fill-opacity="0.0" d="m256.3468 212.27417l-19.118118 0" fill-rule="evenodd"/><path stroke="#000000" stroke-width="1.0" stroke-linejoin="round" stroke-linecap="butt" d="m256.3468 212.27417l-19.118118 0" fill-rule="evenodd"/><path fill="#000000" fill-opacity="0.0" d="m237.23866 268.27417l24.251968 0" fill-rule="evenodd"/><path stroke="#000000" stroke-width="1.0" stroke-linejoin="round" stroke-linecap="butt" d="m237.23866 268.27417l24.251968 0" fill-rule="evenodd"/><path fill="#000000" fill-opacity="0.0" d="m237.23866 93.850395l19.118118 0" fill-rule="evenodd"/><path stroke="#000000" stroke-width="1.0" stroke-linejoin="round" stroke-linecap="butt" d="m237.23866 93.850395l19.118118 0" fill-rule="evenodd"/><path fill="#000000" fill-opacity="0.0" d="m276.2208 113.72441l0 19.46457" fill-rule="evenodd"/><path stroke="#000000" stroke-width="1.0" stroke-linejoin="round" stroke-linecap="butt" d="m276.2208 113.72441l0 19.46457" fill-rule="evenodd"/><path fill="#000000" fill-opacity="0.0" d="m237.23866 153.06229l19.118118 0" fill-rule="evenodd"/><path stroke="#000000" stroke-width="1.0" stroke-linejoin="round" stroke-linecap="butt" d="m237.23866 153.06229l19.118118 0" fill-rule="evenodd"/><path fill="#000000" fill-opacity="0.0" d="m321.0239 135.93494l-24.944855 17.133865" fill-rule="evenodd"/><path stroke="#000000" stroke-width="1.0" stroke-linejoin="round" stroke-linecap="butt" d="m321.0239 135.93494l-24.944855 17.133865" fill-rule="evenodd"/><path fill="#000000" fill-opacity="0.0" d="m-1.1049869 7.406824l840.4409 0l0 42.015747l-840.4409 0z" fill-rule="evenodd"/><path fill="#000000" d="m266.8089 29.420572l2.609375 0.828125q-0.59375 2.187502 -2.0 3.250002q-1.390625 1.0625 -3.546875 1.0625q-2.65625 0 -4.375 -1.8125q-1.703125 -1.8281269 -1.703125 -4.984377q0 -3.328125 1.71875 -5.171875q1.71875 -1.84375 4.515625 -1.84375q2.453125 0 3.984375 1.4375q0.921875 0.859375 1.375 2.46875l-2.671875 0.640625q-0.234375 -1.046875 -0.984375 -1.640625q-0.75 -0.609375 -1.828125 -0.609375q-1.484375 0 -2.421875 1.078125q-0.921875 1.0625 -0.921875 3.4375q0 2.53125 0.90625 3.609375q0.921875 1.0781269 2.375 1.0781269q1.078125 0 1.84375 -0.6718769q0.78125 -0.6875 1.125 -2.15625zm4.3167114 -0.0625q0 -1.28125 0.625 -2.46875q0.625 -1.203125 1.78125 -1.828125q1.15625 -0.625 2.578125 -0.625q2.1875 0 3.59375 1.421875q1.40625 1.421875 1.40625 3.609375q0 2.1875 -1.421875 3.640627q-1.421875 1.4375 -3.5625 1.4375q-1.328125 0 -2.546875 -0.59375q-1.203125 -0.609375 -1.828125 -1.765625q-0.625 -1.1718769 -0.625 -2.828127zm2.625 0.125q0 1.453125 0.671875 2.21875q0.6875 0.7500019 1.6875 0.7500019q1.0 0 1.671875 -0.7500019q0.6875 -0.765625 0.6875 -2.234375q0 -1.421875 -0.6875 -2.1875q-0.671875 -0.765625 -1.671875 -0.765625q-1.0 0 -1.6875 0.765625q-0.671875 0.765625 -0.671875 2.203125zm18.16159 4.843752l-2.5625 0l0 -4.937502q0 -1.5625 -0.171875 -2.015625q-0.15625 -0.46875 -0.53125 -0.71875q-0.359375 -0.265625 -0.875 -0.265625q-0.671875 0 -1.203125 0.375q-0.53125 0.359375 -0.734375 0.96875q-0.1875 0.59375 -0.1875 2.21875l0 4.375002l-2.546875 0l0 -9.671877l2.375 0l0 1.421875q1.265625 -1.640625 3.1875 -1.640625q0.84375 0 1.546875 0.3125q0.703125 0.296875 1.0625 0.78125q0.359375 0.46875 0.5 1.078125q0.140625 0.59375 0.140625 1.703125l0 6.015627zm5.2553406 0l-3.90625 -9.671877l2.6875 0l1.828125 4.9375l0.53125 1.640625q0.203125 -0.625 0.265625 -0.828125q0.125 -0.40625 0.265625 -0.8125l1.84375 -4.9375l2.625 0l-3.84375 9.671877l-2.296875 0zm7.1257324 -4.968752q0 -1.28125 0.625 -2.46875q0.625 -1.203125 1.78125 -1.828125q1.15625 -0.625 2.578125 -0.625q2.1875 0 3.59375 1.421875q1.40625 1.421875 1.40625 3.609375q0 2.1875 -1.421875 3.640627q-1.421875 1.4375 -3.5625 1.4375q-1.328125 0 -2.546875 -0.59375q-1.203125 -0.609375 -1.828125 -1.765625q-0.625 -1.1718769 -0.625 -2.828127zm2.625 0.125q0 1.453125 0.671875 2.21875q0.6875 0.7500019 1.6875 0.7500019q1.0 0 1.671875 -0.7500019q0.6875 -0.765625 0.6875 -2.234375q0 -1.421875 -0.6875 -2.1875q-0.671875 -0.765625 -1.671875 -0.765625q-1.0 0 -1.6875 0.765625q-0.671875 0.765625 -0.671875 2.203125zm9.364746 4.843752l0 -13.359377l2.5625 0l0 13.359377l-2.5625 0zm11.542664 0l0 -1.453125q-0.53125 0.78125 -1.390625 1.234375q-0.859375 0.4375 -1.8125 0.4375q-0.96875 0 -1.75 -0.421875q-0.765625 -0.4375 -1.125 -1.203125q-0.34375 -0.78125 -0.34375 -2.140627l0 -6.125l2.5625 0l0 4.4375q0 2.046875 0.140625 2.515625q0.140625 0.4531269 0.515625 0.7187519q0.375 0.265625 0.953125 0.265625q0.65625 0 1.171875 -0.359375q0.515625 -0.3593769 0.703125 -0.8906269q0.203125 -0.53125 0.203125 -2.609375l0 -4.078125l2.546875 0l0 9.671877l-2.375 0zm9.474121 -9.671877l0 2.03125l-1.75 0l0 3.90625q0 1.1875 0.046875 1.390625q0.046875 0.1875019 0.21875 0.3125019q0.1875 0.125 0.4375 0.125q0.359375 0 1.03125 -0.25l0.21875 2.0q-0.890625 0.375 -2.015625 0.375q-0.703125 0 -1.265625 -0.234375q-0.546875 -0.234375 -0.8125 -0.59375q-0.25 -0.375 -0.34375 -1.0q-0.09375 -0.453125 -0.09375 -1.8125019l0 -4.21875l-1.171875 0l0 -2.03125l1.171875 0l0 -1.921875l2.578125 -1.5l0 3.421875l1.75 0zm1.7751465 -1.3125l0 -2.375l2.5625 0l0 2.375l-2.5625 0zm0 10.984377l0 -9.671877l2.5625 0l0 9.671877l-2.5625 0zm4.589569 -4.968752q0 -1.28125 0.625 -2.46875q0.625 -1.203125 1.78125 -1.828125q1.15625 -0.625 2.578125 -0.625q2.1875 0 3.59375 1.421875q1.40625 1.421875 1.40625 3.609375q0 2.1875 -1.421875 3.640627q-1.421875 1.4375 -3.5625 1.4375q-1.328125 0 -2.546875 -0.59375q-1.203125 -0.609375 -1.828125 -1.765625q-0.625 -1.1718769 -0.625 -2.828127zm2.625 0.125q0 1.453125 0.671875 2.21875q0.6875 0.7500019 1.6875 0.7500019q1.0 0 1.671875 -0.7500019q0.6875 -0.765625 0.6875 -2.234375q0 -1.421875 -0.6875 -2.1875q-0.671875 -0.765625 -1.671875 -0.765625q-1.0 0 -1.6875 0.765625q-0.671875 0.765625 -0.671875 2.203125zm18.16159 4.843752l-2.5625 0l0 -4.937502q0 -1.5625 -0.171875 -2.015625q-0.15625 -0.46875 -0.53125 -0.71875q-0.359375 -0.265625 -0.875 -0.265625q-0.671875 0 -1.203125 0.375q-0.53125 0.359375 -0.734375 0.96875q-0.1875 0.59375 -0.1875 2.21875l0 4.375002l-2.546875 0l0 -9.671877l2.375 0l0 1.421875q1.265625 -1.640625 3.1875 -1.640625q0.84375 0 1.546875 0.3125q0.703125 0.296875 1.0625 0.78125q0.359375 0.46875 0.5 1.078125q0.140625 0.59375 0.140625 1.703125l0 6.015627zm4.505371 -6.718752l-2.328125 -0.421875q0.40625 -1.40625 1.359375 -2.078125q0.953125 -0.671875 2.84375 -0.671875q1.703125 0 2.546875 0.40625q0.84375 0.40625 1.171875 1.03125q0.34375 0.625 0.34375 2.28125l-0.015625 3.0q0 1.2656269 0.109375 1.8750019q0.125 0.609375 0.46875 1.296875l-2.53125 0q-0.109375 -0.25 -0.25 -0.75q-0.0625 -0.234375 -0.09375 -0.3125q-0.65625 0.640625 -1.40625 0.96875q-0.734375 0.3125 -1.59375 0.3125q-1.484375 0 -2.34375 -0.8125q-0.859375 -0.8125 -0.859375 -2.046877q0 -0.828125 0.390625 -1.46875q0.390625 -0.640625 1.09375 -0.96875q0.703125 -0.34375 2.03125 -0.609375q1.796875 -0.328125 2.484375 -0.625l0 -0.25q0 -0.75 -0.359375 -1.0625q-0.359375 -0.3125 -1.375 -0.3125q-0.6875 0 -1.078125 0.28125q-0.375 0.265625 -0.609375 0.9375zm3.421875 2.078125q-0.484375 0.15625 -1.5625 0.390625q-1.0625 0.21875 -1.390625 0.4375q-0.5 0.359375 -0.5 0.90625q0 0.53125 0.40625 0.9375019q0.40625 0.390625 1.015625 0.390625q0.703125 0 1.328125 -0.46875q0.46875 -0.3437519 0.609375 -0.8437519q0.09375 -0.328125 0.09375 -1.25l0 -0.5zm5.0476074 4.640627l0 -13.359377l2.5625 0l0 13.359377l-2.5625 0zm10.413452 0l0 -13.359377l2.625 0l5.453125 8.921875l0 -8.921875l2.515625 0l0 13.359377l-2.703125 0l-5.390625 -8.703127l0 8.703127l-2.5 0zm19.019836 -3.078127l2.546875 0.421875q-0.484375 1.4062519 -1.546875 2.140627q-1.0625 0.734375 -2.65625 0.734375q-2.515625 0 -3.734375 -1.65625q-0.953125 -1.3125019 -0.953125 -3.328127q0 -2.40625 1.25 -3.765625q1.265625 -1.359375 3.1875 -1.359375q2.15625 0 3.40625 1.421875q1.25 1.421875 1.1875 4.375l-6.40625 0q0.03125 1.140625 0.609375 1.7812519q0.59375 0.625 1.484375 0.625q0.59375 0 1.0 -0.328125q0.421875 -0.3281269 0.625 -1.0625019zm0.15625 -2.59375q-0.03125 -1.109375 -0.578125 -1.6875q-0.546875 -0.578125 -1.328125 -0.578125q-0.84375 0 -1.390625 0.609375q-0.546875 0.609375 -0.53125 1.65625l3.828125 0zm10.985107 5.671877l0 -1.453125q-0.53125 0.78125 -1.390625 1.234375q-0.859375 0.4375 -1.8125 0.4375q-0.96875 0 -1.75 -0.421875q-0.765625 -0.4375 -1.125 -1.203125q-0.34375 -0.78125 -0.34375 -2.140627l0 -6.125l2.5625 0l0 4.4375q0 2.046875 0.140625 2.515625q0.140625 0.4531269 0.515625 0.7187519q0.375 0.265625 0.953125 0.265625q0.65625 0 1.171875 -0.359375q0.515625 -0.3593769 0.703125 -0.8906269q0.203125 -0.53125 0.203125 -2.609375l0 -4.078125l2.546875 0l0 9.671877l-2.375 0zm7.4897156 0l-2.5625 0l0 -9.671877l2.375 0l0 1.375q0.609375 -0.984375 1.09375 -1.28125q0.484375 -0.3125 1.109375 -0.3125q0.875 0 1.6875 0.484375l-0.796875 2.234375q-0.640625 -0.421875 -1.203125 -0.421875q-0.53125 0 -0.90625 0.296875q-0.375 0.296875 -0.59375 1.078125q-0.203125 0.765625 -0.203125 3.234375l0 2.984377zm6.7134094 -6.718752l-2.328125 -0.421875q0.40625 -1.40625 1.359375 -2.078125q0.953125 -0.671875 2.84375 -0.671875q1.703125 0 2.546875 0.40625q0.84375 0.40625 1.171875 1.03125q0.34375 0.625 0.34375 2.28125l-0.015625 3.0q0 1.2656269 0.109375 1.8750019q0.125 0.609375 0.46875 1.296875l-2.53125 0q-0.109375 -0.25 -0.25 -0.75q-0.0625 -0.234375 -0.09375 -0.3125q-0.65625 0.640625 -1.40625 0.96875q-0.734375 0.3125 -1.59375 0.3125q-1.484375 0 -2.34375 -0.8125q-0.859375 -0.8125 -0.859375 -2.046877q0 -0.828125 0.390625 -1.46875q0.390625 -0.640625 1.09375 -0.96875q0.703125 -0.34375 2.03125 -0.609375q1.796875 -0.328125 2.484375 -0.625l0 -0.25q0 -0.75 -0.359375 -1.0625q-0.359375 -0.3125 -1.375 -0.3125q-0.6875 0 -1.078125 0.28125q-0.375 0.265625 -0.609375 0.9375zm3.421875 2.078125q-0.484375 0.15625 -1.5625 0.390625q-1.0625 0.21875 -1.390625 0.4375q-0.5 0.359375 -0.5 0.90625q0 0.53125 0.40625 0.9375019q0.40625 0.390625 1.015625 0.390625q0.703125 0 1.328125 -0.46875q0.46875 -0.3437519 0.609375 -0.8437519q0.09375 -0.328125 0.09375 -1.25l0 -0.5zm5.047577 4.640627l0 -13.359377l2.5625 0l0 13.359377l-2.5625 0zm10.413483 0l0 -13.359377l2.625 0l5.453125 8.921875l0 -8.921875l2.515625 0l0 13.359377l-2.703125 0l-5.390625 -8.703127l0 8.703127l-2.5 0zm19.019836 -3.078127l2.546875 0.421875q-0.484375 1.4062519 -1.546875 2.140627q-1.0625 0.734375 -2.65625 0.734375q-2.515625 0 -3.734375 -1.65625q-0.953125 -1.3125019 -0.953125 -3.328127q0 -2.40625 1.25 -3.765625q1.265625 -1.359375 3.1875 -1.359375q2.15625 0 3.40625 1.421875q1.25 1.421875 1.1875 4.375l-6.40625 0q0.03125 1.140625 0.609375 1.7812519q0.59375 0.625 1.484375 0.625q0.59375 0 1.0 -0.328125q0.421875 -0.3281269 0.625 -1.0625019zm0.15625 -2.59375q-0.03125 -1.109375 -0.578125 -1.6875q-0.546875 -0.578125 -1.328125 -0.578125q-0.84375 0 -1.390625 0.609375q-0.546875 0.609375 -0.53125 1.65625l3.828125 0zm9.063202 -4.0l0 2.03125l-1.75 0l0 3.90625q0 1.1875 0.046875 1.390625q0.046875 0.1875019 0.21875 0.3125019q0.1875 0.125 0.4375 0.125q0.359375 0 1.03125 -0.25l0.21875 2.0q-0.890625 0.375 -2.015625 0.375q-0.703125 0 -1.265625 -0.234375q-0.546875 -0.234375 -0.8125 -0.59375q-0.25 -0.375 -0.34375 -1.0q-0.09375 -0.453125 -0.09375 -1.8125019l0 -4.21875l-1.171875 0l0 -2.03125l1.171875 0l0 -1.921875l2.578125 -1.5l0 3.421875l1.75 0zm3.572052 9.671877l-3.0625 -9.671877l2.484375 0l1.8125 6.34375l1.671875 -6.34375l2.46875 0l1.609375 6.34375l1.859375 -6.34375l2.515625 0l-3.109375 9.671877l-2.453125 0l-1.671875 -6.218752l-1.640625 6.218752l-2.484375 0zm12.120789 -4.968752q0 -1.28125 0.625 -2.46875q0.625 -1.203125 1.78125 -1.828125q1.15625 -0.625 2.578125 -0.625q2.1875 0 3.59375 1.421875q1.40625 1.421875 1.40625 3.609375q0 2.1875 -1.421875 3.640627q-1.421875 1.4375 -3.5625 1.4375q-1.328125 0 -2.546875 -0.59375q-1.203125 -0.609375 -1.828125 -1.765625q-0.625 -1.1718769 -0.625 -2.828127zm2.625 0.125q0 1.453125 0.671875 2.21875q0.6875 0.7500019 1.6875 0.7500019q1.0 0 1.671875 -0.7500019q0.6875 -0.765625 0.6875 -2.234375q0 -1.421875 -0.6875 -2.1875q-0.671875 -0.765625 -1.671875 -0.765625q-1.0 0 -1.6875 0.765625q-0.671875 0.765625 -0.671875 2.203125zm11.817871 4.843752l-2.5625 0l0 -9.671877l2.375 0l0 1.375q0.609375 -0.984375 1.09375 -1.28125q0.484375 -0.3125 1.109375 -0.3125q0.875 0 1.6875 0.484375l-0.796875 2.234375q-0.640625 -0.421875 -1.203125 -0.421875q-0.53125 0 -0.90625 0.296875q-0.375 0.296875 -0.59375 1.078125q-0.203125 0.765625 -0.203125 3.234375l0 2.984377zm4.713379 0l0 -13.359377l2.5625 0l0 7.09375l3.0 -3.40625l3.140625 0l-3.296875 3.53125l3.53125 6.140627l-2.75 0l-2.4375 -4.343752l-1.1875 1.25l0 3.093752l-2.5625 0zm19.887146 3.921875l-1.75 0q-1.390625 -2.09375 -2.125 -4.359375q-0.734375 -2.281252 -0.734375 -4.406252q0 -2.625 0.90625 -4.96875q0.78125 -2.046875 1.984375 -3.765625l1.75 0q-1.25 2.75 -1.71875 4.6875q-0.46875 1.9375 -0.46875 4.109375q0 1.5 0.28125 3.062502q0.28125 1.5625 0.765625 2.96875q0.3125 0.9375 1.109375 2.671875zm10.5408325 -8.828127l2.609375 0.828125q-0.59375 2.187502 -2.0 3.250002q-1.390625 1.0625 -3.546875 1.0625q-2.65625 0 -4.375 -1.8125q-1.703125 -1.8281269 -1.703125 -4.984377q0 -3.328125 1.71875 -5.171875q1.71875 -1.84375 4.515625 -1.84375q2.453125 0 3.984375 1.4375q0.921875 0.859375 1.375 2.46875l-2.671875 0.640625q-0.234375 -1.046875 -0.984375 -1.640625q-0.75 -0.609375 -1.828125 -0.609375q-1.484375 0 -2.421875 1.078125q-0.921875 1.0625 -0.921875 3.4375q0 2.53125 0.90625 3.609375q0.921875 1.0781269 2.375 1.0781269q1.078125 0 1.84375 -0.6718769q0.78125 -0.6875 1.125 -2.15625zm4.9572754 4.906252l0 -13.359377l2.625 0l5.453125 8.921875l0 -8.921875l2.515625 0l0 13.359377l-2.703125 0l-5.390625 -8.703127l0 8.703127l-2.5 0zm13.472961 0l0 -13.359377l2.625 0l5.453125 8.921875l0 -8.921875l2.515625 0l0 13.359377l-2.703125 0l-5.390625 -8.703127l0 8.703127l-2.5 0zm12.707336 3.921875q0.765625 -1.609375 1.0625 -2.484375q0.3125 -0.859375 0.578125 -1.984375q0.265625 -1.140625 0.390625 -2.156252q0.125 -1.015625 0.125 -2.078125q0 -2.171875 -0.46875 -4.109375q-0.453125 -1.9375 -1.703125 -4.6875l1.734375 0q1.375 1.953125 2.140625 4.15625q0.765625 2.1875 0.765625 4.453125q0 1.90625 -0.609375 4.078127q-0.671875 2.4375 -2.25 4.8125l-1.765625 0z" fill-rule="nonzero"/><path fill="#ffd966" d="m197.49063 268.27417l0 0c0 -10.976105 8.897903 -19.874023 19.874023 -19.874023l0 0c5.27092 0 10.325943 2.093872 14.053055 5.8209686c3.7270966 3.7270966 5.8209534 8.78215 5.8209534 14.053055l0 0c0 10.976105 -8.897888 19.874023 -19.874008 19.874023l0 0c-10.97612 0 -19.874023 -8.897919 -19.874023 -19.874023z" fill-rule="evenodd"/><path stroke="#000000" stroke-width="1.0" stroke-linejoin="round" stroke-linecap="butt" d="m197.49063 268.27417l0 0c0 -10.976105 8.897903 -19.874023 19.874023 -19.874023l0 0c5.27092 0 10.325943 2.093872 14.053055 5.8209686c3.7270966 3.7270966 5.8209534 8.78215 5.8209534 14.053055l0 0c0 10.976105 -8.897888 19.874023 -19.874008 19.874023l0 0c-10.97612 0 -19.874023 -8.897919 -19.874023 -19.874023z" fill-rule="evenodd"/><path fill="#ffd966" d="m197.49063 324.27417l0 0c0 -10.976105 8.897903 -19.874023 19.874023 -19.874023l0 0c5.27092 0 10.325943 2.093872 14.053055 5.820984c3.7270966 3.7270813 5.8209534 8.782135 5.8209534 14.05304l0 0c0 10.976105 -8.897888 19.874023 -19.874008 19.874023l0 0c-10.97612 0 -19.874023 -8.897919 -19.874023 -19.874023z" fill-rule="evenodd"/><path stroke="#000000" stroke-width="1.0" stroke-linejoin="round" stroke-linecap="butt" d="m197.49063 324.27417l0 0c0 -10.976105 8.897903 -19.874023 19.874023 -19.874023l0 0c5.27092 0 10.325943 2.093872 14.053055 5.820984c3.7270966 3.7270813 5.8209534 8.782135 5.8209534 14.05304l0 0c0 10.976105 -8.897888 19.874023 -19.874008 19.874023l0 0c-10.97612 0 -19.874023 -8.897919 -19.874023 -19.874023z" fill-rule="evenodd"/><path fill="#c27ba0" d="m261.49063 268.27417l0 0c0 -10.976105 8.897919 -19.874023 19.874023 -19.874023l0 0c5.2709045 0 10.325958 2.093872 14.05304 5.8209686c3.7271118 3.7270966 5.820984 8.78215 5.820984 14.053055l0 0c0 10.976105 -8.897919 19.874023 -19.874023 19.874023l0 0c-10.976105 0 -19.874023 -8.897919 -19.874023 -19.874023z" fill-rule="evenodd"/><path stroke="#000000" stroke-width="1.0" stroke-linejoin="round" stroke-linecap="butt" d="m261.49063 268.27417l0 0c0 -10.976105 8.897919 -19.874023 19.874023 -19.874023l0 0c5.2709045 0 10.325958 2.093872 14.05304 5.8209686c3.7271118 3.7270966 5.820984 8.78215 5.820984 14.053055l0 0c0 10.976105 -8.897919 19.874023 -19.874023 19.874023l0 0c-10.976105 0 -19.874023 -8.897919 -19.874023 -19.874023z" fill-rule="evenodd"/><path fill="#c27ba0" d="m261.49063 324.27417l0 0c0 -10.976105 8.897919 -19.874023 19.874023 -19.874023l0 0c5.2709045 0 10.325958 2.093872 14.05304 5.820984c3.7271118 3.7270813 5.820984 8.782135 5.820984 14.05304l0 0c0 10.976105 -8.897919 19.874023 -19.874023 19.874023l0 0c-10.976105 0 -19.874023 -8.897919 -19.874023 -19.874023z" fill-rule="evenodd"/><path stroke="#000000" stroke-width="1.0" stroke-linejoin="round" stroke-linecap="butt" d="m261.49063 324.27417l0 0c0 -10.976105 8.897919 -19.874023 19.874023 -19.874023l0 0c5.2709045 0 10.325958 2.093872 14.05304 5.820984c3.7271118 3.7270813 5.820984 8.782135 5.820984 14.05304l0 0c0 10.976105 -8.897919 19.874023 -19.874023 19.874023l0 0c-10.976105 0 -19.874023 -8.897919 -19.874023 -19.874023z" fill-rule="evenodd"/><path fill="#c27ba0" d="m317.49063 296.30566l0 0c0 -10.976105 8.897919 -19.874023 19.874023 -19.874023l0 0c5.2709045 0 10.325958 2.093872 14.05304 5.820984c3.7271118 3.7270813 5.820984 8.782135 5.820984 14.05304l0 0c0 10.976105 -8.897919 19.874023 -19.874023 19.874023l0 0c-10.976105 0 -19.874023 -8.897919 -19.874023 -19.874023z" fill-rule="evenodd"/><path stroke="#000000" stroke-width="1.0" stroke-linejoin="round" stroke-linecap="butt" d="m317.49063 296.30566l0 0c0 -10.976105 8.897919 -19.874023 19.874023 -19.874023l0 0c5.2709045 0 10.325958 2.093872 14.05304 5.820984c3.7271118 3.7270813 5.820984 8.782135 5.820984 14.05304l0 0c0 10.976105 -8.897919 19.874023 -19.874023 19.874023l0 0c-10.976105 0 -19.874023 -8.897919 -19.874023 -19.874023z" fill-rule="evenodd"/><path fill="#000000" fill-opacity="0.0" d="m231.41771 254.22112l30.740158 -27.905502" fill-rule="evenodd"/><path stroke="#000000" stroke-width="1.0" stroke-linejoin="round" stroke-linecap="butt" d="m231.41771 254.22112l30.740158 -27.905502" fill-rule="evenodd"/><path fill="#000000" fill-opacity="0.0" d="m231.41771 282.3272l35.905502 27.905518" fill-rule="evenodd"/><path stroke="#000000" stroke-width="1.0" stroke-linejoin="round" stroke-linecap="butt" d="m231.41771 282.3272l35.905502 27.905518" fill-rule="evenodd"/><path fill="#000000" fill-opacity="0.0" d="m231.41771 310.22113l35.905502 -27.905518" fill-rule="evenodd"/><path stroke="#000000" stroke-width="1.0" stroke-linejoin="round" stroke-linecap="butt" d="m231.41771 310.22113l35.905502 -27.905518" fill-rule="evenodd"/><path fill="#000000" fill-opacity="0.0" d="m237.23866 324.27417l24.251968 0" fill-rule="evenodd"/><path stroke="#000000" stroke-width="1.0" stroke-linejoin="round" stroke-linecap="butt" d="m237.23866 324.27417l24.251968 0" fill-rule="evenodd"/><path fill="#000000" fill-opacity="0.0" d="m267.3116 254.22112l-35.905518 -27.905502" fill-rule="evenodd"/><path stroke="#000000" stroke-width="1.0" stroke-linejoin="round" stroke-linecap="butt" d="m267.3116 254.22112l-35.905518 -27.905502" fill-rule="evenodd"/><path fill="#000000" fill-opacity="0.0" d="m231.41771 167.11533l30.740158 31.118118" fill-rule="evenodd"/><path stroke="#000000" stroke-width="1.0" stroke-linejoin="round" stroke-linecap="butt" d="m231.41771 167.11533l30.740158 31.118118" fill-rule="evenodd"/><path fill="#000000" fill-opacity="0.0" d="m321.0239 107.82884l-24.91336 -13.984253" fill-rule="evenodd"/><path stroke="#000000" stroke-width="1.0" stroke-linejoin="round" stroke-linecap="butt" d="m321.0239 107.82884l-24.91336 -13.984253" fill-rule="evenodd"/><path fill="#c27ba0" d="m376.34518 153.06229l0 0c0 -10.97612 8.897888 -19.874023 19.874023 -19.874023l0 0c5.2709045 0 10.325958 2.093872 14.05304 5.8209686c3.7271118 3.7270966 5.820984 8.782135 5.820984 14.053055l0 0c0 10.976105 -8.897919 19.874008 -19.874023 19.874008l0 0c-10.976135 0 -19.874023 -8.897903 -19.874023 -19.874008z" fill-rule="evenodd"/><path stroke="#000000" stroke-width="1.0" stroke-linejoin="round" stroke-linecap="butt" d="m376.34518 153.06229l0 0c0 -10.97612 8.897888 -19.874023 19.874023 -19.874023l0 0c5.2709045 0 10.325958 2.093872 14.05304 5.8209686c3.7271118 3.7270966 5.820984 8.782135 5.820984 14.053055l0 0c0 10.976105 -8.897919 19.874008 -19.874023 19.874008l0 0c-10.976135 0 -19.874023 -8.897903 -19.874023 -19.874008z" fill-rule="evenodd"/><path fill="#c27ba0" d="m376.3468 212.27417l0 0c0 -10.97612 8.897888 -19.874023 19.873993 -19.874023l0 0c5.270935 0 10.325958 2.093872 14.05307 5.8209686c3.7270813 3.7270966 5.8209534 8.782135 5.8209534 14.053055l0 0c0 10.97612 -8.897888 19.874008 -19.874023 19.874008l0 0c-10.976105 0 -19.873993 -8.897888 -19.873993 -19.874008z" fill-rule="evenodd"/><path stroke="#000000" stroke-width="1.0" stroke-linejoin="round" stroke-linecap="butt" d="m376.3468 212.27417l0 0c0 -10.97612 8.897888 -19.874023 19.873993 -19.874023l0 0c5.270935 0 10.325958 2.093872 14.05307 5.8209686c3.7270813 3.7270966 5.8209534 8.782135 5.8209534 14.053055l0 0c0 10.97612 -8.897888 19.874008 -19.874023 19.874008l0 0c-10.976105 0 -19.873993 -8.897888 -19.873993 -19.874008z" fill-rule="evenodd"/><path fill="#c27ba0" d="m376.34628 268.27417l0 0c0 -10.976105 8.897888 -19.874023 19.874023 -19.874023l0 0c5.2709045 0 10.325928 2.093872 14.05304 5.8209686c3.7271118 3.7270966 5.8209534 8.78215 5.8209534 14.053055l0 0c0 10.976105 -8.897888 19.874023 -19.873993 19.874023l0 0c-10.976135 0 -19.874023 -8.897919 -19.874023 -19.874023z" fill-rule="evenodd"/><path stroke="#000000" stroke-width="1.0" stroke-linejoin="round" stroke-linecap="butt" d="m376.34628 268.27417l0 0c0 -10.976105 8.897888 -19.874023 19.874023 -19.874023l0 0c5.2709045 0 10.325928 2.093872 14.05304 5.8209686c3.7271118 3.7270966 5.8209534 8.78215 5.8209534 14.053055l0 0c0 10.976105 -8.897888 19.874023 -19.873993 19.874023l0 0c-10.976135 0 -19.874023 -8.897919 -19.874023 -19.874023z" fill-rule="evenodd"/><path fill="#000000" fill-opacity="0.0" d="m382.16614 139.00923l-27.212585 -17.133858" fill-rule="evenodd"/><path stroke="#000000" stroke-width="1.0" stroke-linejoin="round" stroke-linecap="butt" d="m382.16614 139.00923l-27.212585 -17.133858" fill-rule="evenodd"/><path fill="#000000" fill-opacity="0.0" d="m382.16724 282.3272l-24.913391 13.984253" fill-rule="evenodd"/><path stroke="#000000" stroke-width="1.0" stroke-linejoin="round" stroke-linecap="butt" d="m382.16724 282.3272l-24.913391 13.984253" fill-rule="evenodd"/><path fill="#000000" fill-opacity="0.0" d="m323.3116 310.3587l-22.078766 13.921265" fill-rule="evenodd"/><path stroke="#000000" stroke-width="1.0" stroke-linejoin="round" stroke-linecap="butt" d="m323.3116 310.3587l-22.078766 13.921265" fill-rule="evenodd"/><path fill="#000000" fill-opacity="0.0" d="m321.0239 194.34236l-24.91336 17.921265" fill-rule="evenodd"/><path stroke="#000000" stroke-width="1.0" stroke-linejoin="round" stroke-linecap="butt" d="m321.0239 194.34236l-24.91336 17.921265" fill-rule="evenodd"/><path fill="#000000" fill-opacity="0.0" d="m321.0239 224.64632l-24.91336 -12.37796" fill-rule="evenodd"/><path stroke="#000000" stroke-width="1.0" stroke-linejoin="round" stroke-linecap="butt" d="m321.0239 224.64632l-24.91336 -12.37796" fill-rule="evenodd"/><path fill="#000000" fill-opacity="0.0" d="m323.3116 282.25262l-22.078766 -13.984253" fill-rule="evenodd"/><path stroke="#000000" stroke-width="1.0" stroke-linejoin="round" stroke-linecap="butt" d="m323.3116 282.25262l-22.078766 -13.984253" fill-rule="evenodd"/><path fill="#000000" fill-opacity="0.0" d="m321.0239 252.75241l-19.77951 15.527557" fill-rule="evenodd"/><path stroke="#000000" stroke-width="1.0" stroke-linejoin="round" stroke-linecap="butt" d="m321.0239 252.75241l-19.77951 15.527557" fill-rule="evenodd"/><path fill="#000000" fill-opacity="0.0" d="m382.16724 254.22112l-27.212585 -15.527557" fill-rule="evenodd"/><path stroke="#000000" stroke-width="1.0" stroke-linejoin="round" stroke-linecap="butt" d="m382.16724 254.22112l-27.212585 -15.527557" fill-rule="evenodd"/><path fill="#000000" fill-opacity="0.0" d="m382.16776 226.32722l-27.212585 12.377945" fill-rule="evenodd"/><path stroke="#000000" stroke-width="1.0" stroke-linejoin="round" stroke-linecap="butt" d="m382.16776 226.32722l-27.212585 12.377945" fill-rule="evenodd"/><path fill="#000000" fill-opacity="0.0" d="m382.16776 198.22112l-27.212585 -17.921265" fill-rule="evenodd"/><path stroke="#000000" stroke-width="1.0" stroke-linejoin="round" stroke-linecap="butt" d="m382.16776 198.22112l-27.212585 -17.921265" fill-rule="evenodd"/><path fill="#000000" fill-opacity="0.0" d="m382.16614 167.11533l-27.212585 13.1653595" fill-rule="evenodd"/><path stroke="#000000" stroke-width="1.0" stroke-linejoin="round" stroke-linecap="butt" d="m382.16614 167.11533l-27.212585 13.1653595" fill-rule="evenodd"/><path fill="#c27ba0" d="m435.20294 180.28932l0 0c0 -10.97612 8.897888 -19.874023 19.874023 -19.874023l0 0c5.2709045 0 10.325958 2.093872 14.05304 5.8209686c3.7271118 3.7270966 5.820984 8.782135 5.820984 14.053055l0 0c0 10.976105 -8.897919 19.874008 -19.874023 19.874008l0 0c-10.976135 0 -19.874023 -8.897903 -19.874023 -19.874008z" fill-rule="evenodd"/><path stroke="#000000" stroke-width="1.0" stroke-linejoin="round" stroke-linecap="butt" d="m435.20294 180.28932l0 0c0 -10.97612 8.897888 -19.874023 19.874023 -19.874023l0 0c5.2709045 0 10.325958 2.093872 14.05304 5.8209686c3.7271118 3.7270966 5.820984 8.782135 5.820984 14.053055l0 0c0 10.976105 -8.897919 19.874008 -19.874023 19.874008l0 0c-10.976135 0 -19.874023 -8.897903 -19.874023 -19.874008z" fill-rule="evenodd"/><path fill="#c27ba0" d="m435.20294 238.69937l0 0c0 -10.97612 8.897888 -19.874023 19.874023 -19.874023l0 0c5.2709045 0 10.325958 2.093872 14.05304 5.8209686c3.7271118 3.7270966 5.820984 8.782135 5.820984 14.053055l0 0c0 10.976105 -8.897919 19.874023 -19.874023 19.874023l0 0c-10.976135 0 -19.874023 -8.897919 -19.874023 -19.874023z" fill-rule="evenodd"/><path stroke="#000000" stroke-width="1.0" stroke-linejoin="round" stroke-linecap="butt" d="m435.20294 238.69937l0 0c0 -10.97612 8.897888 -19.874023 19.874023 -19.874023l0 0c5.2709045 0 10.325958 2.093872 14.05304 5.8209686c3.7271118 3.7270966 5.820984 8.782135 5.820984 14.053055l0 0c0 10.976105 -8.897919 19.874023 -19.874023 19.874023l0 0c-10.976135 0 -19.874023 -8.897919 -19.874023 -19.874023z" fill-rule="evenodd"/><path fill="#93c47d" d="m499.20294 180.28932l0 0c0 -10.97612 8.897888 -19.874023 19.874023 -19.874023l0 0c5.270935 0 10.325928 2.093872 14.05304 5.8209686c3.7271118 3.7270966 5.820984 8.782135 5.820984 14.053055l0 0c0 10.976105 -8.897888 19.874008 -19.874023 19.874008l0 0c-10.976135 0 -19.874023 -8.897903 -19.874023 -19.874008z" fill-rule="evenodd"/><path stroke="#000000" stroke-width="1.0" stroke-linejoin="round" stroke-linecap="butt" d="m499.20294 180.28932l0 0c0 -10.97612 8.897888 -19.874023 19.874023 -19.874023l0 0c5.270935 0 10.325928 2.093872 14.05304 5.8209686c3.7271118 3.7270966 5.820984 8.782135 5.820984 14.053055l0 0c0 10.976105 -8.897888 19.874008 -19.874023 19.874008l0 0c-10.976135 0 -19.874023 -8.897903 -19.874023 -19.874008z" fill-rule="evenodd"/><path fill="#93c47d" d="m499.20294 121.88189l0 0c0 -10.976112 8.897888 -19.874016 19.874023 -19.874016l0 0c5.270935 0 10.325928 2.0938644 14.05304 5.8209686c3.7271118 3.7270966 5.820984 8.782127 5.820984 14.053047l0 0c0 10.976112 -8.897888 19.874016 -19.874023 19.874016l0 0c-10.976135 0 -19.874023 -8.897903 -19.874023 -19.874016z" fill-rule="evenodd"/><path stroke="#000000" stroke-width="1.0" stroke-linejoin="round" stroke-linecap="butt" d="m499.20294 121.88189l0 0c0 -10.976112 8.897888 -19.874016 19.874023 -19.874016l0 0c5.270935 0 10.325928 2.0938644 14.05304 5.8209686c3.7271118 3.7270966 5.820984 8.782127 5.820984 14.053047l0 0c0 10.976112 -8.897888 19.874016 -19.874023 19.874016l0 0c-10.976135 0 -19.874023 -8.897903 -19.874023 -19.874016z" fill-rule="evenodd"/><path fill="#93c47d" d="m499.20294 238.69937l0 0c0 -10.97612 8.897888 -19.874023 19.874023 -19.874023l0 0c5.270935 0 10.325928 2.093872 14.05304 5.8209686c3.7271118 3.7270966 5.820984 8.782135 5.820984 14.053055l0 0c0 10.976105 -8.897888 19.874023 -19.874023 19.874023l0 0c-10.976135 0 -19.874023 -8.897919 -19.874023 -19.874023z" fill-rule="evenodd"/><path stroke="#000000" stroke-width="1.0" stroke-linejoin="round" stroke-linecap="butt" d="m499.20294 238.69937l0 0c0 -10.97612 8.897888 -19.874023 19.874023 -19.874023l0 0c5.270935 0 10.325928 2.093872 14.05304 5.8209686c3.7271118 3.7270966 5.820984 8.782135 5.820984 14.053055l0 0c0 10.976105 -8.897888 19.874023 -19.874023 19.874023l0 0c-10.976135 0 -19.874023 -8.897919 -19.874023 -19.874023z" fill-rule="evenodd"/><path fill="#93c47d" d="m501.49063 296.30566l0 0c0 -10.976105 8.897919 -19.874023 19.873993 -19.874023l0 0c5.270935 0 10.325989 2.093872 14.053101 5.820984c3.7271118 3.7270813 5.820923 8.782135 5.820923 14.05304l0 0c0 10.976105 -8.897888 19.874023 -19.874023 19.874023l0 0c-10.976074 0 -19.873993 -8.897919 -19.873993 -19.874023z" fill-rule="evenodd"/><path stroke="#000000" stroke-width="1.0" stroke-linejoin="round" stroke-linecap="butt" d="m501.49063 296.30566l0 0c0 -10.976105 8.897919 -19.874023 19.873993 -19.874023l0 0c5.270935 0 10.325989 2.093872 14.053101 5.820984c3.7271118 3.7270813 5.820923 8.782135 5.820923 14.05304l0 0c0 10.976105 -8.897888 19.874023 -19.874023 19.874023l0 0c-10.976074 0 -19.873993 -8.897919 -19.873993 -19.874023z" fill-rule="evenodd"/><path fill="#000000" fill-opacity="0.0" d="m441.0239 166.23627l-24.944855 -13.1653595" fill-rule="evenodd"/><path stroke="#000000" stroke-width="1.0" stroke-linejoin="round" stroke-linecap="butt" d="m441.0239 166.23627l-24.944855 -13.1653595" fill-rule="evenodd"/><path fill="#000000" fill-opacity="0.0" d="m441.0239 252.75241l-24.944855 15.527557" fill-rule="evenodd"/><path stroke="#000000" stroke-width="1.0" stroke-linejoin="round" stroke-linecap="butt" d="m441.0239 252.75241l-24.944855 15.527557" fill-rule="evenodd"/><path fill="#000000" fill-opacity="0.0" d="m441.0239 224.64632l-24.91336 -12.37796" fill-rule="evenodd"/><path stroke="#000000" stroke-width="1.0" stroke-linejoin="round" stroke-linecap="butt" d="m441.0239 224.64632l-24.91336 -12.37796" fill-rule="evenodd"/><path fill="#000000" fill-opacity="0.0" d="m441.0239 194.34236l-24.91336 17.921265" fill-rule="evenodd"/><path stroke="#000000" stroke-width="1.0" stroke-linejoin="round" stroke-linecap="butt" d="m441.0239 194.34236l-24.91336 17.921265" fill-rule="evenodd"/><path fill="#000000" fill-opacity="0.0" d="m505.0239 135.93494l-35.905487 30.29921" fill-rule="evenodd"/><path stroke="#000000" stroke-width="1.0" stroke-linejoin="round" stroke-linecap="butt" d="m505.0239 135.93494l-35.905487 30.29921" fill-rule="evenodd"/><path fill="#000000" fill-opacity="0.0" d="m499.20294 180.28932l-24.251953 0" fill-rule="evenodd"/><path stroke="#000000" stroke-width="1.0" stroke-linejoin="round" stroke-linecap="butt" d="m499.20294 180.28932l-24.251953 0" fill-rule="evenodd"/><path fill="#000000" fill-opacity="0.0" d="m499.20294 238.69937l-24.251953 0" fill-rule="evenodd"/><path stroke="#000000" stroke-width="1.0" stroke-linejoin="round" stroke-linecap="butt" d="m499.20294 238.69937l-24.251953 0" fill-rule="evenodd"/><path fill="#000000" fill-opacity="0.0" d="m505.0239 224.64632l-35.905487 -30.29921" fill-rule="evenodd"/><path stroke="#000000" stroke-width="1.0" stroke-linejoin="round" stroke-linecap="butt" d="m505.0239 224.64632l-35.905487 -30.29921" fill-rule="evenodd"/><path fill="#000000" fill-opacity="0.0" d="m507.3116 282.25262l-38.17325 -29.511826" fill-rule="evenodd"/><path stroke="#000000" stroke-width="1.0" stroke-linejoin="round" stroke-linecap="butt" d="m507.3116 282.25262l-38.17325 -29.511826" fill-rule="evenodd"/><path fill="#000000" fill-opacity="0.0" d="m505.0239 194.34236l-35.905487 30.299225" fill-rule="evenodd"/><path stroke="#000000" stroke-width="1.0" stroke-linejoin="round" stroke-linecap="butt" d="m505.0239 194.34236l-35.905487 30.299225" fill-rule="evenodd"/><path fill="#93c47d" d="m563.20294 180.28932l0 0c0 -10.97612 8.897888 -19.874023 19.874023 -19.874023l0 0c5.270935 0 10.325928 2.093872 14.05304 5.8209686c3.7271118 3.7270966 5.820984 8.782135 5.820984 14.053055l0 0c0 10.976105 -8.897888 19.874008 -19.874023 19.874008l0 0c-10.976135 0 -19.874023 -8.897903 -19.874023 -19.874008z" fill-rule="evenodd"/><path stroke="#000000" stroke-width="1.0" stroke-linejoin="round" stroke-linecap="butt" d="m563.20294 180.28932l0 0c0 -10.97612 8.897888 -19.874023 19.874023 -19.874023l0 0c5.270935 0 10.325928 2.093872 14.05304 5.8209686c3.7271118 3.7270966 5.820984 8.782135 5.820984 14.053055l0 0c0 10.976105 -8.897888 19.874008 -19.874023 19.874008l0 0c-10.976135 0 -19.874023 -8.897903 -19.874023 -19.874008z" fill-rule="evenodd"/><path fill="#93c47d" d="m563.20294 121.88189l0 0c0 -10.976112 8.897888 -19.874016 19.874023 -19.874016l0 0c5.270935 0 10.325928 2.0938644 14.05304 5.8209686c3.7271118 3.7270966 5.820984 8.782127 5.820984 14.053047l0 0c0 10.976112 -8.897888 19.874016 -19.874023 19.874016l0 0c-10.976135 0 -19.874023 -8.897903 -19.874023 -19.874016z" fill-rule="evenodd"/><path stroke="#000000" stroke-width="1.0" stroke-linejoin="round" stroke-linecap="butt" d="m563.20294 121.88189l0 0c0 -10.976112 8.897888 -19.874016 19.874023 -19.874016l0 0c5.270935 0 10.325928 2.0938644 14.05304 5.8209686c3.7271118 3.7270966 5.820984 8.782127 5.820984 14.053047l0 0c0 10.976112 -8.897888 19.874016 -19.874023 19.874016l0 0c-10.976135 0 -19.874023 -8.897903 -19.874023 -19.874016z" fill-rule="evenodd"/><path fill="#93c47d" d="m563.20294 238.69937l0 0c0 -10.97612 8.897888 -19.874023 19.874023 -19.874023l0 0c5.270935 0 10.325928 2.093872 14.05304 5.8209686c3.7271118 3.7270966 5.820984 8.782135 5.820984 14.053055l0 0c0 10.976105 -8.897888 19.874023 -19.874023 19.874023l0 0c-10.976135 0 -19.874023 -8.897919 -19.874023 -19.874023z" fill-rule="evenodd"/><path stroke="#000000" stroke-width="1.0" stroke-linejoin="round" stroke-linecap="butt" d="m563.20294 238.69937l0 0c0 -10.97612 8.897888 -19.874023 19.874023 -19.874023l0 0c5.270935 0 10.325928 2.093872 14.05304 5.8209686c3.7271118 3.7270966 5.820984 8.782135 5.820984 14.053055l0 0c0 10.976105 -8.897888 19.874023 -19.874023 19.874023l0 0c-10.976135 0 -19.874023 -8.897919 -19.874023 -19.874023z" fill-rule="evenodd"/><path fill="#93c47d" d="m565.49066 296.30566l0 0c0 -10.976105 8.897888 -19.874023 19.873962 -19.874023l0 0c5.270935 0 10.325989 2.093872 14.053101 5.820984c3.7271118 3.7270813 5.820923 8.782135 5.820923 14.05304l0 0c0 10.976105 -8.897888 19.874023 -19.874023 19.874023l0 0c-10.976074 0 -19.873962 -8.897919 -19.873962 -19.874023z" fill-rule="evenodd"/><path stroke="#000000" stroke-width="1.0" stroke-linejoin="round" stroke-linecap="butt" d="m565.49066 296.30566l0 0c0 -10.976105 8.897888 -19.874023 19.873962 -19.874023l0 0c5.270935 0 10.325989 2.093872 14.053101 5.820984c3.7271118 3.7270813 5.820923 8.782135 5.820923 14.05304l0 0c0 10.976105 -8.897888 19.874023 -19.874023 19.874023l0 0c-10.976074 0 -19.873962 -8.897919 -19.873962 -19.874023z" fill-rule="evenodd"/><path fill="#000000" fill-opacity="0.0" d="m563.20294 121.88189l-24.251953 0" fill-rule="evenodd"/><path stroke="#000000" stroke-width="1.0" stroke-linejoin="round" stroke-linecap="butt" d="m563.20294 121.88189l-24.251953 0" fill-rule="evenodd"/><path fill="#000000" fill-opacity="0.0" d="m569.0239 166.23627l-35.905518 -30.29921" fill-rule="evenodd"/><path stroke="#000000" stroke-width="1.0" stroke-linejoin="round" stroke-linecap="butt" d="m569.0239 166.23627l-35.905518 -30.29921" fill-rule="evenodd"/><path fill="#000000" fill-opacity="0.0" d="m565.49066 296.30566l-24.252014 0" fill-rule="evenodd"/><path stroke="#000000" stroke-width="1.0" stroke-linejoin="round" stroke-linecap="butt" d="m565.49066 296.30566l-24.252014 0" fill-rule="evenodd"/><path fill="#000000" fill-opacity="0.0" d="m563.20294 238.69937l-24.251953 0" fill-rule="evenodd"/><path stroke="#000000" stroke-width="1.0" stroke-linejoin="round" stroke-linecap="butt" d="m563.20294 238.69937l-24.251953 0" fill-rule="evenodd"/><path fill="#000000" fill-opacity="0.0" d="m563.20294 180.28932l-24.251953 0" fill-rule="evenodd"/><path stroke="#000000" stroke-width="1.0" stroke-linejoin="round" stroke-linecap="butt" d="m563.20294 180.28932l-24.251953 0" fill-rule="evenodd"/><path fill="#e06666" d="m624.3452 153.06229l0 0c0 -10.97612 8.897888 -19.874023 19.873962 -19.874023l0 0c5.270935 0 10.325989 2.093872 14.053101 5.8209686c3.7270508 3.7270966 5.820923 8.782135 5.820923 14.053055l0 0c0 10.976105 -8.897888 19.874008 -19.874023 19.874008l0 0c-10.976074 0 -19.873962 -8.897903 -19.873962 -19.874008z" fill-rule="evenodd"/><path stroke="#000000" stroke-width="1.0" stroke-linejoin="round" stroke-linecap="butt" d="m624.3452 153.06229l0 0c0 -10.97612 8.897888 -19.874023 19.873962 -19.874023l0 0c5.270935 0 10.325989 2.093872 14.053101 5.8209686c3.7270508 3.7270966 5.820923 8.782135 5.820923 14.053055l0 0c0 10.976105 -8.897888 19.874008 -19.874023 19.874008l0 0c-10.976074 0 -19.873962 -8.897903 -19.873962 -19.874008z" fill-rule="evenodd"/><path fill="#e06666" d="m624.3468 212.27417l0 0c0 -10.97612 8.897888 -19.874023 19.874023 -19.874023l0 0c5.270874 0 10.325928 2.093872 14.05304 5.8209686c3.7271118 3.7270966 5.820984 8.782135 5.820984 14.053055l0 0c0 10.97612 -8.897949 19.874008 -19.874023 19.874008l0 0c-10.976135 0 -19.874023 -8.897888 -19.874023 -19.874008z" fill-rule="evenodd"/><path stroke="#000000" stroke-width="1.0" stroke-linejoin="round" stroke-linecap="butt" d="m624.3468 212.27417l0 0c0 -10.97612 8.897888 -19.874023 19.874023 -19.874023l0 0c5.270874 0 10.325928 2.093872 14.05304 5.8209686c3.7271118 3.7270966 5.820984 8.782135 5.820984 14.053055l0 0c0 10.97612 -8.897949 19.874008 -19.874023 19.874008l0 0c-10.976135 0 -19.874023 -8.897888 -19.874023 -19.874008z" fill-rule="evenodd"/><path fill="#e06666" d="m624.34625 268.27417l0 0c0 -10.976105 8.897949 -19.874023 19.874023 -19.874023l0 0c5.270935 0 10.325989 2.093872 14.053101 5.8209686c3.7270508 3.7270966 5.820923 8.78215 5.820923 14.053055l0 0c0 10.976105 -8.897888 19.874023 -19.874023 19.874023l0 0c-10.976074 0 -19.874023 -8.897919 -19.874023 -19.874023z" fill-rule="evenodd"/><path stroke="#000000" stroke-width="1.0" stroke-linejoin="round" stroke-linecap="butt" d="m624.34625 268.27417l0 0c0 -10.976105 8.897949 -19.874023 19.874023 -19.874023l0 0c5.270935 0 10.325989 2.093872 14.053101 5.8209686c3.7270508 3.7270966 5.820923 8.78215 5.820923 14.053055l0 0c0 10.976105 -8.897888 19.874023 -19.874023 19.874023l0 0c-10.976074 0 -19.874023 -8.897919 -19.874023 -19.874023z" fill-rule="evenodd"/><path fill="#000000" fill-opacity="0.0" d="m569.0239 224.64632l-35.905518 -88.72441" fill-rule="evenodd"/><path stroke="#000000" stroke-width="1.0" stroke-linejoin="round" stroke-linecap="butt" d="m569.0239 224.64632l-35.905518 -88.72441" fill-rule="evenodd"/><path fill="#000000" fill-opacity="0.0" d="m571.3116 282.25262l-38.173218 -146.33072" fill-rule="evenodd"/><path stroke="#000000" stroke-width="1.0" stroke-linejoin="round" stroke-linecap="butt" d="m571.3116 282.25262l-38.173218 -146.33072" fill-rule="evenodd"/><path fill="#000000" fill-opacity="0.0" d="m535.4177 282.25262l33.606262 -146.33072" fill-rule="evenodd"/><path stroke="#000000" stroke-width="1.0" stroke-linejoin="round" stroke-linecap="butt" d="m535.4177 282.25262l33.606262 -146.33072" fill-rule="evenodd"/><path fill="#000000" fill-opacity="0.0" d="m535.4177 282.25262l33.606262 -87.90552" fill-rule="evenodd"/><path stroke="#000000" stroke-width="1.0" stroke-linejoin="round" stroke-linecap="butt" d="m535.4177 282.25262l33.606262 -87.90552" fill-rule="evenodd"/><path fill="#000000" fill-opacity="0.0" d="m535.4177 282.25262l33.606262 -29.511826" fill-rule="evenodd"/><path stroke="#000000" stroke-width="1.0" stroke-linejoin="round" stroke-linecap="butt" d="m535.4177 282.25262l33.606262 -29.511826" fill-rule="evenodd"/><path fill="#000000" fill-opacity="0.0" d="m569.0239 135.93494l-35.905518 30.29921" fill-rule="evenodd"/><path stroke="#000000" stroke-width="1.0" stroke-linejoin="round" stroke-linecap="butt" d="m569.0239 135.93494l-35.905518 30.29921" fill-rule="evenodd"/><path fill="#000000" fill-opacity="0.0" d="m571.3116 282.25262l-38.173218 -29.511826" fill-rule="evenodd"/><path stroke="#000000" stroke-width="1.0" stroke-linejoin="round" stroke-linecap="butt" d="m571.3116 282.25262l-38.173218 -29.511826" fill-rule="evenodd"/><path fill="#000000" fill-opacity="0.0" d="m569.0239 194.34236l-35.905518 30.299225" fill-rule="evenodd"/><path stroke="#000000" stroke-width="1.0" stroke-linejoin="round" stroke-linecap="butt" d="m569.0239 194.34236l-35.905518 30.299225" fill-rule="evenodd"/><path fill="#000000" fill-opacity="0.0" d="m569.0239 135.93494l-35.905518 88.72441" fill-rule="evenodd"/><path stroke="#000000" stroke-width="1.0" stroke-linejoin="round" stroke-linecap="butt" d="m569.0239 135.93494l-35.905518 88.72441" fill-rule="evenodd"/><path fill="#000000" fill-opacity="0.0" d="m569.0239 224.64632l-35.905518 -30.29921" fill-rule="evenodd"/><path stroke="#000000" stroke-width="1.0" stroke-linejoin="round" stroke-linecap="butt" d="m569.0239 224.64632l-35.905518 -30.29921" fill-rule="evenodd"/><path fill="#000000" fill-opacity="0.0" d="m571.3116 282.25262l-38.173218 -87.90552" fill-rule="evenodd"/><path stroke="#000000" stroke-width="1.0" stroke-linejoin="round" stroke-linecap="butt" d="m571.3116 282.25262l-38.173218 -87.90552" fill-rule="evenodd"/><path fill="#000000" fill-opacity="0.0" d="m630.16614 139.00923l-27.212585 -17.133858" fill-rule="evenodd"/><path stroke="#000000" stroke-width="1.0" stroke-linejoin="round" stroke-linecap="butt" d="m630.16614 139.00923l-27.212585 -17.133858" fill-rule="evenodd"/><path fill="#000000" fill-opacity="0.0" d="m630.16724 282.3272l-24.913391 13.984253" fill-rule="evenodd"/><path stroke="#000000" stroke-width="1.0" stroke-linejoin="round" stroke-linecap="butt" d="m630.16724 282.3272l-24.913391 13.984253" fill-rule="evenodd"/><path fill="#000000" fill-opacity="0.0" d="m630.1678 226.32722l-30.740173 55.936996" fill-rule="evenodd"/><path stroke="#000000" stroke-width="1.0" stroke-linejoin="round" stroke-linecap="butt" d="m630.1678 226.32722l-30.740173 55.936996" fill-rule="evenodd"/><path fill="#000000" fill-opacity="0.0" d="m630.16614 167.11533l-30.740173 115.14963" fill-rule="evenodd"/><path stroke="#000000" stroke-width="1.0" stroke-linejoin="round" stroke-linecap="butt" d="m630.16614 167.11533l-30.740173 115.14963" fill-rule="evenodd"/><path fill="#000000" fill-opacity="0.0" d="m630.1678 198.22112l-33.03943 -62.29921" fill-rule="evenodd"/><path stroke="#000000" stroke-width="1.0" stroke-linejoin="round" stroke-linecap="butt" d="m630.1678 198.22112l-33.03943 -62.29921" fill-rule="evenodd"/><path fill="#000000" fill-opacity="0.0" d="m630.16724 254.22112l-33.039368 -118.29921" fill-rule="evenodd"/><path stroke="#000000" stroke-width="1.0" stroke-linejoin="round" stroke-linecap="butt" d="m630.16724 254.22112l-33.039368 -118.29921" fill-rule="evenodd"/><path fill="#000000" fill-opacity="0.0" d="m630.1678 226.32722l-27.212646 12.377945" fill-rule="evenodd"/><path stroke="#000000" stroke-width="1.0" stroke-linejoin="round" stroke-linecap="butt" d="m630.1678 226.32722l-27.212646 12.377945" fill-rule="evenodd"/><path fill="#000000" fill-opacity="0.0" d="m624.34625 268.27417l-27.212585 -15.527557" fill-rule="evenodd"/><path stroke="#000000" stroke-width="1.0" stroke-linejoin="round" stroke-linecap="butt" d="m624.34625 268.27417l-27.212585 -15.527557" fill-rule="evenodd"/><path fill="#000000" fill-opacity="0.0" d="m630.16614 167.11533l-33.039368 57.54332" fill-rule="evenodd"/><path stroke="#000000" stroke-width="1.0" stroke-linejoin="round" stroke-linecap="butt" d="m630.16614 167.11533l-33.039368 57.54332" fill-rule="evenodd"/><path fill="#000000" fill-opacity="0.0" d="m630.16724 254.22112l-33.039368 -59.87401" fill-rule="evenodd"/><path stroke="#000000" stroke-width="1.0" stroke-linejoin="round" stroke-linecap="butt" d="m630.16724 254.22112l-33.039368 -59.87401" fill-rule="evenodd"/><path fill="#000000" fill-opacity="0.0" d="m630.1678 198.22112l-27.212646 -17.921265" fill-rule="evenodd"/><path stroke="#000000" stroke-width="1.0" stroke-linejoin="round" stroke-linecap="butt" d="m630.1678 198.22112l-27.212646 -17.921265" fill-rule="evenodd"/><path fill="#000000" fill-opacity="0.0" d="m597.13 166.23627l27.212585 -13.1653595" fill-rule="evenodd"/><path stroke="#000000" stroke-width="1.0" stroke-linejoin="round" stroke-linecap="butt" d="m597.13 166.23627l27.212585 -13.1653595" fill-rule="evenodd"/><path fill="#000000" fill-opacity="0.0" d="m266.67453 93.850395l0 0c0 -5.27932 4.2797546 -9.559059 9.5590515 -9.559059l0 0c2.5352478 0 4.966614 1.0071106 6.7592773 2.7997818c1.7926941 1.7926712 2.7998047 4.22406 2.7998047 6.7592773l0 0c0 5.27932 -4.2797546 9.5590515 -9.559082 9.5590515l0 0c-5.279297 0 -9.5590515 -4.2797318 -9.5590515 -9.5590515z" fill-rule="evenodd"/><path stroke="#000000" stroke-width="2.0" stroke-linejoin="round" stroke-linecap="butt" d="m266.67453 93.850395l0 0c0 -5.27932 4.2797546 -9.559059 9.5590515 -9.559059l0 0c2.5352478 0 4.966614 1.0071106 6.7592773 2.7997818c1.7926941 1.7926712 2.7998047 4.22406 2.7998047 6.7592773l0 0c0 5.27932 -4.2797546 9.5590515 -9.559082 9.5590515l0 0c-5.279297 0 -9.5590515 -4.2797318 -9.5590515 -9.5590515z" fill-rule="evenodd"/><path fill="#000000" fill-opacity="0.0" d="m327.8058 296.2244l0 0c0 -5.279297 4.279724 -9.5590515 9.5590515 -9.5590515l0 0c2.5352173 0 4.9665833 1.0071106 6.7592773 2.7998047c1.7926636 1.7926636 2.7997742 4.2240295 2.7997742 6.759247l0 0c0 5.2793274 -4.2797546 9.559082 -9.5590515 9.559082l0 0c-5.2793274 0 -9.5590515 -4.2797546 -9.5590515 -9.559082z" fill-rule="evenodd"/><path stroke="#000000" stroke-width="2.0" stroke-linejoin="round" stroke-linecap="butt" d="m327.8058 296.2244l0 0c0 -5.279297 4.279724 -9.5590515 9.5590515 -9.5590515l0 0c2.5352173 0 4.9665833 1.0071106 6.7592773 2.7998047c1.7926636 1.7926636 2.7997742 4.2240295 2.7997742 6.759247l0 0c0 5.2793274 -4.2797546 9.559082 -9.5590515 9.559082l0 0c-5.2793274 0 -9.5590515 -4.2797546 -9.5590515 -9.559082z" fill-rule="evenodd"/><path fill="#000000" fill-opacity="0.0" d="m325.27036 238.29659l0 0c0 -5.279312 4.279724 -9.5590515 9.5590515 -9.5590515l0 0c2.5352173 0 4.9665833 1.0071106 6.7592773 2.7997742c1.7926636 1.7926788 2.7997742 4.22406 2.7997742 6.7592773l0 0c0 5.2793274 -4.2797546 9.5590515 -9.5590515 9.5590515l0 0c-5.2793274 0 -9.5590515 -4.279724 -9.5590515 -9.5590515z" fill-rule="evenodd"/><path stroke="#000000" stroke-width="2.0" stroke-linejoin="round" stroke-linecap="butt" d="m325.27036 238.29659l0 0c0 -5.279312 4.279724 -9.5590515 9.5590515 -9.5590515l0 0c2.5352173 0 4.9665833 1.0071106 6.7592773 2.7997742c1.7926636 1.7926788 2.7997742 4.22406 2.7997742 6.7592773l0 0c0 5.2793274 -4.2797546 9.5590515 -9.5590515 9.5590515l0 0c-5.2793274 0 -9.5590515 -4.279724 -9.5590515 -9.5590515z" fill-rule="evenodd"/><path fill="#000000" fill-opacity="0.0" d="m325.51706 180.29002l0 0c0 -5.279312 4.279724 -9.5590515 9.5590515 -9.5590515l0 0c2.5352173 0 4.966614 1.0071106 6.7592773 2.7997742c1.7926636 1.7926788 2.7997742 4.22406 2.7997742 6.7592773l0 0c0 5.2793274 -4.279724 9.5590515 -9.5590515 9.5590515l0 0c-5.2793274 0 -9.5590515 -4.279724 -9.5590515 -9.5590515z" fill-rule="evenodd"/><path stroke="#000000" stroke-width="2.0" stroke-linejoin="round" stroke-linecap="butt" d="m325.51706 180.29002l0 0c0 -5.279312 4.279724 -9.5590515 9.5590515 -9.5590515l0 0c2.5352173 0 4.966614 1.0071106 6.7592773 2.7997742c1.7926636 1.7926788 2.7997742 4.22406 2.7997742 6.7592773l0 0c0 5.2793274 -4.279724 9.5590515 -9.5590515 9.5590515l0 0c-5.2793274 0 -9.5590515 -4.279724 -9.5590515 -9.5590515z" fill-rule="evenodd"/><path fill="#000000" fill-opacity="0.0" d="m325.27036 122.55118l0 0c0 -5.27932 4.279724 -9.5590515 9.5590515 -9.5590515l0 0c2.5352173 0 4.9665833 1.0071106 6.7592773 2.7997818c1.7926636 1.7926712 2.7997742 4.2240524 2.7997742 6.7592697l0 0c0 5.27932 -4.2797546 9.5590515 -9.5590515 9.5590515l0 0c-5.2793274 0 -9.5590515 -4.2797318 -9.5590515 -9.5590515z" fill-rule="evenodd"/><path stroke="#000000" stroke-width="2.0" stroke-linejoin="round" stroke-linecap="butt" d="m325.27036 122.55118l0 0c0 -5.27932 4.279724 -9.5590515 9.5590515 -9.5590515l0 0c2.5352173 0 4.9665833 1.0071106 6.7592773 2.7997818c1.7926636 1.7926712 2.7997742 4.2240524 2.7997742 6.7592697l0 0c0 5.27932 -4.2797546 9.5590515 -9.5590515 9.5590515l0 0c-5.2793274 0 -9.5590515 -4.2797318 -9.5590515 -9.5590515z" fill-rule="evenodd"/><path fill="#000000" fill-opacity="0.0" d="m386.66666 269.23227l0 0c0 -5.279297 4.2797546 -9.5590515 9.5590515 -9.5590515l0 0c2.5352478 0 4.966614 1.0071106 6.7592773 2.7998047c1.7926941 1.7926636 2.7998047 4.2240295 2.7998047 6.759247l0 0c0 5.2793274 -4.2797546 9.559082 -9.559082 9.559082l0 0c-5.279297 0 -9.5590515 -4.2797546 -9.5590515 -9.559082z" fill-rule="evenodd"/><path stroke="#000000" stroke-width="2.0" stroke-linejoin="round" stroke-linecap="butt" d="m386.66666 269.23227l0 0c0 -5.279297 4.2797546 -9.5590515 9.5590515 -9.5590515l0 0c2.5352478 0 4.966614 1.0071106 6.7592773 2.7998047c1.7926941 1.7926636 2.7998047 4.2240295 2.7998047 6.759247l0 0c0 5.2793274 -4.2797546 9.559082 -9.559082 9.559082l0 0c-5.279297 0 -9.5590515 -4.2797546 -9.5590515 -9.559082z" fill-rule="evenodd"/><path fill="#000000" fill-opacity="0.0" d="m386.3281 153.69554l0 0c0 -5.2793274 4.279724 -9.5590515 9.5590515 -9.5590515l0 0c2.5352173 0 4.9665833 1.0071106 6.7592773 2.7997742c1.7926636 1.7926788 2.7997742 4.22406 2.7997742 6.7592773l0 0c0 5.279312 -4.279724 9.5590515 -9.5590515 9.5590515l0 0c-5.2793274 0 -9.5590515 -4.2797394 -9.5590515 -9.5590515z" fill-rule="evenodd"/><path stroke="#000000" stroke-width="2.0" stroke-linejoin="round" stroke-linecap="butt" d="m386.3281 153.69554l0 0c0 -5.2793274 4.279724 -9.5590515 9.5590515 -9.5590515l0 0c2.5352173 0 4.9665833 1.0071106 6.7592773 2.7997742c1.7926636 1.7926788 2.7997742 4.22406 2.7997742 6.7592773l0 0c0 5.279312 -4.279724 9.5590515 -9.5590515 9.5590515l0 0c-5.2793274 0 -9.5590515 -4.2797394 -9.5590515 -9.5590515z" fill-rule="evenodd"/><path fill="#000000" fill-opacity="0.0" d="m386.32285 213.54068l0 0c0 -5.279312 4.279724 -9.5590515 9.5590515 -9.5590515l0 0c2.5352173 0 4.9665833 1.0071106 6.7592773 2.7997742c1.7926636 1.7926788 2.7997742 4.22406 2.7997742 6.7592773l0 0c0 5.2793274 -4.279724 9.5590515 -9.5590515 9.5590515l0 0c-5.2793274 0 -9.5590515 -4.279724 -9.5590515 -9.5590515z" fill-rule="evenodd"/><path stroke="#000000" stroke-width="2.0" stroke-linejoin="round" stroke-linecap="butt" d="m386.32285 213.54068l0 0c0 -5.279312 4.279724 -9.5590515 9.5590515 -9.5590515l0 0c2.5352173 0 4.9665833 1.0071106 6.7592773 2.7997742c1.7926636 1.7926788 2.7997742 4.22406 2.7997742 6.7592773l0 0c0 5.2793274 -4.279724 9.5590515 -9.5590515 9.5590515l0 0c-5.2793274 0 -9.5590515 -4.279724 -9.5590515 -9.5590515z" fill-rule="evenodd"/><path fill="#000000" fill-opacity="0.0" d="m271.8084 268.27298l0 0c0 -5.2793274 4.279724 -9.559082 9.5590515 -9.559082l0 0c2.5352173 0 4.9665833 1.0071106 6.7592773 2.7998047c1.7926636 1.7926636 2.7997742 4.2240295 2.7997742 6.7592773l0 0c0 5.279297 -4.279724 9.5590515 -9.5590515 9.5590515l0 0c-5.2793274 0 -9.5590515 -4.2797546 -9.5590515 -9.5590515z" fill-rule="evenodd"/><path stroke="#000000" stroke-width="2.0" stroke-linejoin="round" stroke-linecap="butt" d="m271.8084 268.27298l0 0c0 -5.2793274 4.279724 -9.559082 9.5590515 -9.559082l0 0c2.5352173 0 4.9665833 1.0071106 6.7592773 2.7998047c1.7926636 1.7926636 2.7997742 4.2240295 2.7997742 6.7592773l0 0c0 5.279297 -4.279724 9.5590515 -9.5590515 9.5590515l0 0c-5.2793274 0 -9.5590515 -4.2797546 -9.5590515 -9.5590515z" fill-rule="evenodd"/><path fill="#000000" fill-opacity="0.0" d="m445.51706 237.09186l0 0c0 -5.279312 4.279724 -9.5590515 9.5590515 -9.5590515l0 0c2.5352173 0 4.966614 1.0071106 6.7592773 2.7997894c1.7926636 1.7926636 2.7997742 4.224045 2.7997742 6.759262l0 0c0 5.2793274 -4.279724 9.559067 -9.5590515 9.559067l0 0c-5.2793274 0 -9.5590515 -4.2797394 -9.5590515 -9.559067z" fill-rule="evenodd"/><path stroke="#000000" stroke-width="2.0" stroke-linejoin="round" stroke-linecap="butt" d="m445.51706 237.09186l0 0c0 -5.279312 4.279724 -9.5590515 9.5590515 -9.5590515l0 0c2.5352173 0 4.966614 1.0071106 6.7592773 2.7997894c1.7926636 1.7926636 2.7997742 4.224045 2.7997742 6.759262l0 0c0 5.2793274 -4.279724 9.559067 -9.5590515 9.559067l0 0c-5.2793274 0 -9.5590515 -4.2797394 -9.5590515 -9.559067z" fill-rule="evenodd"/><path fill="#000000" fill-opacity="0.0" d="m445.51706 180.57742l0 0c0 -5.279312 4.279724 -9.5590515 9.5590515 -9.5590515l0 0c2.5352173 0 4.966614 1.0071106 6.7592773 2.7997894c1.7926636 1.7926636 2.7997742 4.224045 2.7997742 6.759262l0 0c0 5.2793274 -4.279724 9.559067 -9.5590515 9.559067l0 0c-5.2793274 0 -9.5590515 -4.2797394 -9.5590515 -9.559067z" fill-rule="evenodd"/><path stroke="#000000" stroke-width="2.0" stroke-linejoin="round" stroke-linecap="butt" d="m445.51706 180.57742l0 0c0 -5.279312 4.279724 -9.5590515 9.5590515 -9.5590515l0 0c2.5352173 0 4.966614 1.0071106 6.7592773 2.7997894c1.7926636 1.7926636 2.7997742 4.224045 2.7997742 6.759262l0 0c0 5.2793274 -4.279724 9.559067 -9.5590515 9.559067l0 0c-5.2793274 0 -9.5590515 -4.2797394 -9.5590515 -9.559067z" fill-rule="evenodd"/><path fill="#000000" fill-opacity="0.0" d="m266.66928 211.9042l0 0c0 -5.2793274 4.2797546 -9.559067 9.5590515 -9.559067l0 0c2.5352478 0 4.966614 1.0071106 6.7592773 2.7997894c1.7926941 1.7926636 2.7998047 4.22406 2.7998047 6.7592773l0 0c0 5.279312 -4.2797546 9.5590515 -9.559082 9.5590515l0 0c-5.279297 0 -9.5590515 -4.2797394 -9.5590515 -9.5590515z" fill-rule="evenodd"/><path stroke="#000000" stroke-width="2.0" stroke-linejoin="round" stroke-linecap="butt" d="m266.66928 211.9042l0 0c0 -5.2793274 4.2797546 -9.559067 9.5590515 -9.559067l0 0c2.5352478 0 4.966614 1.0071106 6.7592773 2.7997894c1.7926941 1.7926636 2.7998047 4.22406 2.7998047 6.7592773l0 0c0 5.279312 -4.2797546 9.5590515 -9.559082 9.5590515l0 0c-5.279297 0 -9.5590515 -4.2797394 -9.5590515 -9.5590515z" fill-rule="evenodd"/><path fill="#000000" fill-opacity="0.0" d="m266.65878 153.06168l0 0c0 -5.279312 4.2797546 -9.5590515 9.5590515 -9.5590515l0 0c2.5352173 0 4.966614 1.0071106 6.7592773 2.7997894c1.7926941 1.7926636 2.7998047 4.224045 2.7998047 6.759262l0 0c0 5.2793274 -4.2797546 9.5590515 -9.559082 9.5590515l0 0c-5.279297 0 -9.5590515 -4.279724 -9.5590515 -9.5590515z" fill-rule="evenodd"/><path stroke="#000000" stroke-width="2.0" stroke-linejoin="round" stroke-linecap="butt" d="m266.65878 153.06168l0 0c0 -5.279312 4.2797546 -9.5590515 9.5590515 -9.5590515l0 0c2.5352173 0 4.966614 1.0071106 6.7592773 2.7997894c1.7926941 1.7926636 2.7998047 4.224045 2.7998047 6.759262l0 0c0 5.2793274 -4.2797546 9.5590515 -9.559082 9.5590515l0 0c-5.279297 0 -9.5590515 -4.279724 -9.5590515 -9.5590515z" fill-rule="evenodd"/><path fill="#000000" fill-opacity="0.0" d="m271.80316 324.27298l0 0c0 -5.2793274 4.279724 -9.559082 9.5590515 -9.559082l0 0c2.5352173 0 4.9665833 1.0071106 6.7592773 2.7998047c1.7926636 1.7926636 2.7997742 4.2240295 2.7997742 6.7592773l0 0c0 5.279297 -4.2797546 9.5590515 -9.5590515 9.5590515l0 0c-5.2793274 0 -9.5590515 -4.2797546 -9.5590515 -9.5590515z" fill-rule="evenodd"/><path stroke="#000000" stroke-width="2.0" stroke-linejoin="round" stroke-linecap="butt" d="m271.80316 324.27298l0 0c0 -5.2793274 4.279724 -9.559082 9.5590515 -9.559082l0 0c2.5352173 0 4.9665833 1.0071106 6.7592773 2.7998047c1.7926636 1.7926636 2.7997742 4.2240295 2.7997742 6.7592773l0 0c0 5.279297 -4.2797546 9.5590515 -9.5590515 9.5590515l0 0c-5.2793274 0 -9.5590515 -4.2797546 -9.5590515 -9.5590515z" fill-rule="evenodd"/></g></svg>