<svg version="1.1" viewBox="0.0 0.0 839.7664041994751 254.50393700787401" fill="none" stroke="none" stroke-linecap="square" stroke-miterlimit="10" xmlns:xlink="http://www.w3.org/1999/xlink" xmlns="http://www.w3.org/2000/svg"><clipPath id="p.0"><path d="m0 0l839.7664 0l0 254.50394l-839.7664 0l0 -254.50394z" clip-rule="nonzero"/></clipPath><g clip-path="url(#p.0)"><path fill="#ffffff" d="m0 0l839.7664 0l0 254.50394l-839.7664 0z" fill-rule="evenodd"/><path fill="#ffd966" d="m318.49063 93.05643l0 0c0 -10.976112 8.897919 -19.874016 19.874023 -19.874016l0 0c5.2709045 0 10.325958 2.0938644 14.05304 5.8209686c3.7271118 3.7270966 5.820984 8.782135 5.820984 14.053047l0 0c0 10.97612 -8.897919 19.874016 -19.874023 19.874016l0 0c-10.976105 0 -19.874023 -8.897896 -19.874023 -19.874016z" fill-rule="evenodd"/><path stroke="#000000" stroke-width="1.0" stroke-linejoin="round" stroke-linecap="butt" d="m318.49063 93.05643l0 0c0 -10.976112 8.897919 -19.874016 19.874023 -19.874016l0 0c5.2709045 0 10.325958 2.0938644 14.05304 5.8209686c3.7271118 3.7270966 5.820984 8.782135 5.820984 14.053047l0 0c0 10.97612 -8.897919 19.874016 -19.874023 19.874016l0 0c-10.976105 0 -19.874023 -8.897896 -19.874023 -19.874016z" fill-rule="evenodd"/><path fill="#000000" fill-opacity="0.0" d="m352.4177 197.42715l89.60632 -90.33071" fill-rule="evenodd"/><path stroke="#000000" stroke-width="1.0" stroke-linejoin="round" stroke-linecap="butt" d="m352.4177 197.42715l89.60632 -90.33071" fill-rule="evenodd"/><path fill="#ffd966" d="m318.49063 211.48021l0 0c0 -10.97612 8.897919 -19.874023 19.874023 -19.874023l0 0c5.2709045 0 10.325958 2.093872 14.05304 5.8209686c3.7271118 3.7270966 5.820984 8.782135 5.820984 14.053055l0 0c0 10.976105 -8.897919 19.874008 -19.874023 19.874008l0 0c-10.976105 0 -19.874023 -8.897903 -19.874023 -19.874008z" fill-rule="evenodd"/><path stroke="#000000" stroke-width="1.0" stroke-linejoin="round" stroke-linecap="butt" d="m318.49063 211.48021l0 0c0 -10.97612 8.897919 -19.874023 19.874023 -19.874023l0 0c5.2709045 0 10.325958 2.093872 14.05304 5.8209686c3.7271118 3.7270966 5.820984 8.782135 5.820984 14.053055l0 0c0 10.976105 -8.897919 19.874008 -19.874023 19.874008l0 0c-10.976105 0 -19.874023 -8.897903 -19.874023 -19.874008z" fill-rule="evenodd"/><path fill="#93c47d" d="m436.20294 93.05643l0 0c0 -10.976112 8.897888 -19.874016 19.874023 -19.874016l0 0c5.2709045 0 10.325958 2.0938644 14.05304 5.8209686c3.7271118 3.7270966 5.820984 8.782135 5.820984 14.053047l0 0c0 10.97612 -8.897919 19.874016 -19.874023 19.874016l0 0c-10.976135 0 -19.874023 -8.897896 -19.874023 -19.874016z" fill-rule="evenodd"/><path stroke="#000000" stroke-width="1.0" stroke-linejoin="round" stroke-linecap="butt" d="m436.20294 93.05643l0 0c0 -10.976112 8.897888 -19.874016 19.874023 -19.874016l0 0c5.2709045 0 10.325958 2.0938644 14.05304 5.8209686c3.7271118 3.7270966 5.820984 8.782135 5.820984 14.053047l0 0c0 10.97612 -8.897919 19.874016 -19.874023 19.874016l0 0c-10.976135 0 -19.874023 -8.897896 -19.874023 -19.874016z" fill-rule="evenodd"/><path fill="#93c47d" d="m436.20294 211.48021l0 0c0 -10.97612 8.897888 -19.874023 19.874023 -19.874023l0 0c5.2709045 0 10.325958 2.093872 14.05304 5.8209686c3.7271118 3.7270966 5.820984 8.782135 5.820984 14.053055l0 0c0 10.976105 -8.897919 19.874008 -19.874023 19.874008l0 0c-10.976135 0 -19.874023 -8.897903 -19.874023 -19.874008z" fill-rule="evenodd"/><path stroke="#000000" stroke-width="1.0" stroke-linejoin="round" stroke-linecap="butt" d="m436.20294 211.48021l0 0c0 -10.97612 8.897888 -19.874023 19.874023 -19.874023l0 0c5.2709045 0 10.325958 2.093872 14.05304 5.8209686c3.7271118 3.7270966 5.820984 8.782135 5.820984 14.053055l0 0c0 10.976105 -8.897919 19.874008 -19.874023 19.874008l0 0c-10.976135 0 -19.874023 -8.897903 -19.874023 -19.874008z" fill-rule="evenodd"/><path fill="#000000" fill-opacity="0.0" d="m442.0239 197.42715l-89.60629 -90.33071" fill-rule="evenodd"/><path stroke="#000000" stroke-width="1.0" stroke-linejoin="round" stroke-linecap="butt" d="m442.0239 197.42715l-89.60629 -90.33071" fill-rule="evenodd"/><path fill="#000000" fill-opacity="0.0" d="m0 10.475065l840.4409 0l0 42.015747l-840.4409 0z" fill-rule="evenodd"/><path fill="#000000" d="m174.40555 37.395065l0 -13.359377l9.15625 0l0 2.265625l-6.453125 0l0 3.15625l5.5625 0l0 2.265625l-5.5625 0l0 5.671877l-2.703125 0zm16.95848 -3.078125l2.546875 0.421875q-0.484375 1.40625 -1.546875 2.140625q-1.0625 0.734375 -2.65625 0.734375q-2.515625 0 -3.734375 -1.65625q-0.953125 -1.3125 -0.953125 -3.328125q0 -2.406252 1.25 -3.765627q1.265625 -1.359375 3.1875 -1.359375q2.15625 0 3.40625 1.421875q1.25 1.421875 1.1875 4.375002l-6.40625 0q0.03125 1.140625 0.609375 1.78125q0.59375 0.625 1.484375 0.625q0.59375 0 1.0 -0.328125q0.421875 -0.328125 0.625 -1.0625zm0.15625 -2.593752q-0.03125 -1.109375 -0.578125 -1.6875q-0.546875 -0.578125 -1.328125 -0.578125q-0.84375 0 -1.390625 0.609375q-0.546875 0.609375 -0.53125 1.65625l3.828125 0zm10.219467 2.593752l2.546875 0.421875q-0.484375 1.40625 -1.546875 2.140625q-1.0625 0.734375 -2.65625 0.734375q-2.515625 0 -3.734375 -1.65625q-0.953125 -1.3125 -0.953125 -3.328125q0 -2.406252 1.25 -3.765627q1.265625 -1.359375 3.1875 -1.359375q2.15625 0 3.40625 1.421875q1.25 1.421875 1.1875 4.375002l-6.40625 0q0.03125 1.140625 0.609375 1.78125q0.59375 0.625 1.484375 0.625q0.59375 0 1.0 -0.328125q0.421875 -0.328125 0.625 -1.0625zm0.15625 -2.593752q-0.03125 -1.109375 -0.578125 -1.6875q-0.546875 -0.578125 -1.328125 -0.578125q-0.84375 0 -1.390625 0.609375q-0.546875 0.609375 -0.53125 1.65625l3.828125 0zm13.500717 5.671877l-2.390625 0l0 -1.421875q-0.59375 0.828125 -1.40625 1.234375q-0.796875 0.40625 -1.609375 0.40625q-1.671875 0 -2.859375 -1.34375q-1.1875 -1.34375 -1.1875 -3.75q0 -2.453127 1.15625 -3.734377q1.15625 -1.28125 2.921875 -1.28125q1.625 0 2.8125 1.34375l0 -4.8125l2.5625 0l0 13.359377zm-6.84375 -5.046875q0 1.546875 0.4375 2.234375q0.609375 1.015625 1.71875 1.015625q0.890625 0 1.5 -0.75q0.625 -0.765625 0.625 -2.25q0 -1.6718769 -0.609375 -2.406252q-0.59375 -0.734375 -1.53125 -0.734375q-0.90625 0 -1.53125 0.734375q-0.609375 0.71875 -0.609375 2.156252zm9.067856 1.484375l0 -2.562502l5.03125 0l0 2.562502l-5.03125 0zm6.540802 3.5625l0 -13.359377l9.15625 0l0 2.265625l-6.453125 0l0 3.15625l5.5625 0l0 2.265625l-5.5625 0l0 5.671877l-2.703125 0zm10.770981 -4.96875q0 -1.2812519 0.625 -2.468752q0.625 -1.203125 1.78125 -1.828125q1.15625 -0.625 2.578125 -0.625q2.1875 0 3.59375 1.421875q1.40625 1.421875 1.40625 3.609377q0 2.1875 -1.421875 3.640625q-1.421875 1.4375 -3.5625 1.4375q-1.328125 0 -2.546875 -0.59375q-1.203125 -0.609375 -1.828125 -1.765625q-0.625 -1.171875 -0.625 -2.828125zm2.625 0.125q0 1.453125 0.671875 2.21875q0.6875 0.75 1.6875 0.75q1.0 0 1.671875 -0.75q0.6875 -0.765625 0.6875 -2.234375q0 -1.4218769 -0.6875 -2.187502q-0.671875 -0.765625 -1.671875 -0.765625q-1.0 0 -1.6875 0.765625q-0.671875 0.765625 -0.671875 2.203127zm11.817856 4.84375l-2.5625 0l0 -9.671877l2.375 0l0 1.375q0.609375 -0.984375 1.09375 -1.28125q0.484375 -0.3125 1.109375 -0.3125q0.875 0 1.6875 0.484375l-0.796875 2.234375q-0.640625 -0.421875 -1.203125 -0.421875q-0.53125 0 -0.90625 0.296875q-0.375 0.296875 -0.59375 1.078125q-0.203125 0.765625 -0.203125 3.234377l0 2.984375zm6.604019 0l-3.0625 -9.671877l2.484375 0l1.8125153 6.343752l1.671875 -6.343752l2.46875 0l1.609375 6.343752l1.859375 -6.343752l2.515625 0l-3.109375 9.671877l-2.453125 0l-1.671875 -6.218752l-1.640625 6.218752l-2.4843903 0zm14.620804 -6.718752l-2.328125 -0.421875q0.40625 -1.40625 1.359375 -2.078125q0.953125 -0.671875 2.84375 -0.671875q1.703125 0 2.546875 0.40625q0.84375 0.40625 1.171875 1.03125q0.34375 0.625 0.34375 2.28125l-0.015625 3.000002q0 1.265625 0.109375 1.875q0.125 0.609375 0.46875 1.296875l-2.53125 0q-0.109375 -0.25 -0.25 -0.75q-0.0625 -0.234375 -0.09375 -0.3125q-0.65625 0.640625 -1.40625 0.96875q-0.734375 0.3125 -1.59375 0.3125q-1.484375 0 -2.34375 -0.8125q-0.859375 -0.8125 -0.859375 -2.046875q0 -0.828125 0.390625 -1.46875q0.390625 -0.640625 1.09375 -0.96875q0.703125 -0.3437519 2.03125 -0.6093769q1.796875 -0.328125 2.484375 -0.625l0 -0.25q0 -0.75 -0.359375 -1.0625q-0.359375 -0.3125 -1.375 -0.3125q-0.6875 0 -1.078125 0.28125q-0.375 0.265625 -0.609375 0.9375zm3.421875 2.078127q-0.484375 0.15625 -1.5625 0.390625q-1.0625 0.21875 -1.390625 0.4375q-0.5 0.359375 -0.5 0.90625q0 0.53125 0.40625 0.9375q0.40625 0.390625 1.015625 0.390625q0.703125 0 1.328125 -0.46875q0.46875 -0.34375 0.609375 -0.84375q0.09375 -0.328125 0.09375 -1.25l0 -0.5zm7.5007324 4.640625l-2.5625 0l0 -9.671877l2.375 0l0 1.375q0.609375 -0.984375 1.09375 -1.28125q0.484375 -0.3125 1.109375 -0.3125q0.875 0 1.6875 0.484375l-0.796875 2.234375q-0.640625 -0.421875 -1.203125 -0.421875q-0.53125 0 -0.90625 0.296875q-0.375 0.296875 -0.59375 1.078125q-0.203125 0.765625 -0.203125 3.234377l0 2.984375zm13.682129 0l-2.390625 0l0 -1.421875q-0.59375 0.828125 -1.40625 1.234375q-0.796875 0.40625 -1.609375 0.40625q-1.671875 0 -2.859375 -1.34375q-1.1875 -1.34375 -1.1875 -3.75q0 -2.453127 1.15625 -3.734377q1.15625 -1.28125 2.921875 -1.28125q1.625 0 2.8125 1.34375l0 -4.8125l2.5625 0l0 13.359377zm-6.84375 -5.046875q0 1.546875 0.4375 2.234375q0.609375 1.015625 1.71875 1.015625q0.890625 0 1.5 -0.75q0.625 -0.765625 0.625 -2.25q0 -1.6718769 -0.609375 -2.406252q-0.59375 -0.734375 -1.53125 -0.734375q-0.90625 0 -1.53125 0.734375q-0.609375 0.71875 -0.609375 2.156252zm18.78241 8.96875l-1.75 0q-1.390625 -2.09375 -2.125 -4.359375q-0.734375 -2.28125 -0.734375 -4.40625q0 -2.625002 0.90625 -4.968752q0.78125 -2.046875 1.984375 -3.765625l1.75 0q-1.25 2.75 -1.71875 4.6875q-0.46875 1.9375 -0.46875 4.109377q0 1.5 0.28125 3.0625q0.28125 1.5625 0.765625 2.96875q0.3125 0.9375 1.109375 2.671875zm2.009552 -3.921875l0 -13.359377l9.15625 0l0 2.265625l-6.453125 0l0 3.15625l5.5625 0l0 2.265625l-5.5625 0l0 5.671877l-2.703125 0zm11.395966 0l0 -13.359377l9.15625 0l0 2.265625l-6.453125 0l0 3.15625l5.5625 0l0 2.265625l-5.5625 0l0 5.671877l-2.703125 0zm10.645996 3.921875q0.765625 -1.609375 1.0625 -2.484375q0.3125 -0.859375 0.578125 -1.984375q0.265625 -1.140625 0.390625 -2.15625q0.125 -1.015625 0.125 -2.078125q0 -2.171877 -0.46875 -4.109377q-0.453125 -1.9375 -1.703125 -4.6875l1.734375 0q1.375 1.953125 2.140625 4.15625q0.765625 2.1875 0.765625 4.453127q0 1.90625 -0.609375 4.078125q-0.671875 2.4375 -2.25 4.8125l-1.765625 0zm10.739746 -3.6875l3.3125 -13.812502l1.921875 0l-3.34375 13.812502l-1.890625 0zm11.725952 -0.234375l0 -13.359377l4.03125 0l2.421875 9.109377l2.390625 -9.109377l4.046875 0l0 13.359377l-2.5 0l0 -10.515627l-2.65625 10.515627l-2.59375 0l-2.640625 -10.515627l0 10.515627l-2.5 0zm15.5564575 -13.359377l2.6875 0l0 7.234375q0 1.7187519 0.109375 2.234377q0.171875 0.828125 0.8125 1.328125q0.65625 0.484375 1.78125 0.484375q1.15625 0 1.734375 -0.46875q0.59375 -0.46875 0.703125 -1.140625q0.125 -0.6875 0.125 -2.281252l0 -7.390625l2.6875 0l0 7.015625q0 2.406252 -0.21875 3.406252q-0.21875 0.984375 -0.8125 1.671875q-0.578125 0.6875 -1.5625 1.09375q-0.984375 0.40625 -2.5625 0.40625q-1.921875 0 -2.90625 -0.4375q-0.984375 -0.453125 -1.5625 -1.15625q-0.578125 -0.703125 -0.75 -1.484375q-0.265625 -1.140625 -0.265625 -3.390627l0 -7.125zm13.566681 13.359377l0 -13.250002l2.6875 0l0 11.000002l6.703125 0l0 2.25l-9.390625 0zm12.932434 0l0 -11.093752l-3.953125 0l0 -2.265625l10.609375 0l0 2.265625l-3.953125 0l0 11.093752l-2.703125 0zm8.317841 0l0 -13.359377l2.6875 0l0 13.359377l-2.6875 0zm4.948944 -3.5625l0 -2.562502l5.03125 0l0 2.562502l-5.03125 0zm6.603302 3.5625l0 -13.250002l2.6875 0l0 11.000002l6.703125 0l0 2.25l-9.390625 0zm23.364746 0l-2.9375 0l-1.171875 -3.03125l-5.328125 0l-1.109375 3.03125l-2.859375 0l5.203125 -13.359377l2.84375 0l5.359375 13.359377zm-4.96875 -5.28125l-1.84375 -4.953127l-1.796875 4.953127l3.640625 0zm8.181244 5.28125l0 -5.625002l-4.890625 -7.734375l3.171875 0l3.140625 5.28125l3.078125 -5.28125l3.109375 0l-4.921875 7.75l0 5.609377l-2.6875 0zm8.943573 0l0 -13.359377l9.90625 0l0 2.265625l-7.21875 0l0 2.953125l6.71875 0l0 2.25l-6.71875 0l0 3.640627l7.46875 0l0 2.25l-10.15625 0zm12.443573 0l0 -13.359377l5.6875 0q2.140625 0 3.109375 0.359375q0.96875 0.359375 1.546875 1.28125q0.578125 0.921875 0.578125 2.109375q0 1.5 -0.890625 2.484375q-0.875 0.96875 -2.625 1.234375q0.875 0.5000019 1.4375 1.1250019q0.578125 0.609375 1.53125 2.15625l1.640625 2.609375l-3.234375 0l-1.9375 -2.90625q-1.046875 -1.5625 -1.4375 -1.96875q-0.375 -0.40625 -0.8125 -0.5468769q-0.421875 -0.15625 -1.34375 -0.15625l-0.546875 0l0 5.578127l-2.703125 0zm2.703125 -7.703127l2.0 0q1.9375 0 2.421875 -0.15625q0.484375 -0.171875 0.75 -0.578125q0.28125 -0.40625 0.28125 -1.0q0 -0.671875 -0.359375 -1.078125q-0.359375 -0.421875 -1.015625 -0.53125q-0.328125 -0.046875 -1.96875 -0.046875l-2.109375 0l0 3.390625zm15.953125 7.703127l0 -13.359377l4.328125 0q2.453125 0 3.203125 0.203125q1.140625 0.296875 1.921875 1.3125q0.78125 1.0 0.78125 2.59375q0 1.234375 -0.453125 2.078125q-0.453125 0.828125 -1.140625 1.3125q-0.6875 0.4687519 -1.390625 0.6250019q-0.96875 0.203125 -2.796875 0.203125l-1.765625 0l0 5.03125l-2.6875 0zm2.6875 -11.093752l0 3.78125l1.484375 0q1.59375 0 2.125 -0.203125q0.546875 -0.203125 0.84375 -0.65625q0.3125 -0.453125 0.3125 -1.03125q0 -0.734375 -0.4375 -1.203125q-0.421875 -0.484375 -1.078125 -0.59375q-0.484375 -0.09375 -1.9375 -0.09375l-1.3125 0zm9.756073 11.093752l0 -13.359377l9.90625 0l0 2.265625l-7.21875 0l0 2.953125l6.71875 0l0 2.25l-6.71875 0l0 3.640627l7.46875 0l0 2.25l-10.15625 0zm12.443573 0l0 -13.359377l5.6875305 0q2.140625 0 3.109375 0.359375q0.96875 0.359375 1.546875 1.28125q0.578125 0.921875 0.578125 2.109375q0 1.5 -0.890625 2.484375q-0.875 0.96875 -2.625 1.234375q0.875 0.5000019 1.4375 1.1250019q0.578125 0.609375 1.53125 2.15625l1.640625 2.609375l-3.234375 0l-1.9375 -2.90625q-1.046875 -1.5625 -1.4375 -1.96875q-0.375 -0.40625 -0.8125305 -0.5468769q-0.421875 -0.15625 -1.34375 -0.15625l-0.546875 0l0 5.578127l-2.703125 0zm2.703125 -7.703127l2.0 0q1.9375305 0 2.4219055 -0.15625q0.484375 -0.171875 0.75 -0.578125q0.28125 -0.40625 0.28125 -1.0q0 -0.671875 -0.359375 -1.078125q-0.359375 -0.421875 -1.015625 -0.53125q-0.328125 -0.046875 -1.9687805 -0.046875l-2.109375 0l0 3.390625zm19.31668 2.796877l2.609375 0.828125q-0.59375 2.1875 -2.0 3.25q-1.390625 1.0625 -3.546875 1.0625q-2.65625 0 -4.375 -1.8125q-1.703125 -1.828125 -1.703125 -4.984377q0 -3.328125 1.71875 -5.171875q1.71875 -1.84375 4.515625 -1.84375q2.453125 0 3.984375 1.4375q0.921875 0.859375 1.375 2.46875l-2.671875 0.640625q-0.234375 -1.046875 -0.984375 -1.640625q-0.75 -0.609375 -1.828125 -0.609375q-1.484375 0 -2.421875 1.078125q-0.921875 1.0625 -0.921875 3.4375q0 2.531252 0.90625 3.609377q0.921875 1.078125 2.375 1.078125q1.078125 0 1.84375 -0.671875q0.78125 -0.6875 1.125 -2.15625zm4.9261475 4.90625l0 -13.359377l9.90625 0l0 2.265625l-7.21875 0l0 2.953125l6.71875 0l0 2.25l-6.71875 0l0 3.640627l7.46875 0l0 2.25l-10.15625 0zm12.4435425 0l0 -13.359377l4.328125 0q2.453125 0 3.203125 0.203125q1.140625 0.296875 1.921875 1.3125q0.78125 1.0 0.78125 2.59375q0 1.234375 -0.453125 2.078125q-0.453125 0.828125 -1.140625 1.3125q-0.6875 0.4687519 -1.390625 0.6250019q-0.96875 0.203125 -2.796875 0.203125l-1.765625 0l0 5.03125l-2.6875 0zm2.6875 -11.093752l0 3.78125l1.484375 0q1.59375 0 2.125 -0.203125q0.546875 -0.203125 0.84375 -0.65625q0.3125 -0.453125 0.3125 -1.03125q0 -0.734375 -0.4375 -1.203125q-0.421875 -0.484375 -1.078125 -0.59375q-0.484375 -0.09375 -1.9375 -0.09375l-1.3125 0zm12.7560425 11.093752l0 -11.093752l-3.953125 0l0 -2.265625l10.609375 0l0 2.265625l-3.953125 0l0 11.093752l-2.703125 0zm8.395996 0l0 -13.359377l5.6875 0q2.140625 0 3.109375 0.359375q0.96875 0.359375 1.546875 1.28125q0.578125 0.921875 0.578125 2.109375q0 1.5 -0.890625 2.484375q-0.875 0.96875 -2.625 1.234375q0.875 0.5000019 1.4375 1.1250019q0.578125 0.609375 1.53125 2.15625l1.640625 2.609375l-3.234375 0l-1.9375 -2.90625q-1.046875 -1.5625 -1.4375 -1.96875q-0.375 -0.40625 -0.8125 -0.5468769q-0.421875 -0.15625 -1.34375 -0.15625l-0.546875 0l0 5.578127l-2.703125 0zm2.703125 -7.703127l2.0 0q1.9375 0 2.421875 -0.15625q0.484375 -0.171875 0.75 -0.578125q0.28125 -0.40625 0.28125 -1.0q0 -0.671875 -0.359375 -1.078125q-0.359375 -0.421875 -1.015625 -0.53125q-0.328125 -0.046875 -1.96875 -0.046875l-2.109375 0l0 3.390625zm10.223022 1.109375q0 -2.046875 0.609375 -3.421875q0.453125 -1.03125 1.234375 -1.828125q0.796875 -0.8125 1.734375 -1.203125q1.25 -0.53125 2.875 -0.53125q2.953125 0 4.71875 1.828125q1.78125 1.828125 1.78125 5.09375q0 3.234377 -1.765625 5.062502q-1.75 1.828125 -4.6875 1.828125q-2.984375 0 -4.75 -1.8125q-1.75 -1.828125 -1.75 -5.015627zm2.78125 -0.09375q0 2.265627 1.046875 3.437502q1.046875 1.171875 2.65625 1.171875q1.609375 0 2.640625 -1.15625q1.046875 -1.171875 1.046875 -3.484377q0 -2.296875 -1.015625 -3.421875q-1.0 -1.140625 -2.671875 -1.140625q-1.671875 0 -2.6875 1.15625q-1.015625 1.140625 -1.015625 3.4375zm12.308228 6.687502l0 -13.359377l2.625 0l5.453125 8.921877l0 -8.921877l2.515625 0l0 13.359377l-2.703125 0l-5.390625 -8.703127l0 8.703127l-2.5 0zm22.84375 3.921875l-1.75 0q-1.390625 -2.09375 -2.125 -4.359375q-0.734375 -2.28125 -0.734375 -4.40625q0 -2.625002 0.90625 -4.968752q0.78125 -2.046875 1.984375 -3.765625l1.75 0q-1.25 2.75 -1.71875 4.6875q-0.46875 1.9375 -0.46875 4.109377q0 1.5 0.28125 3.0625q0.28125 1.5625 0.765625 2.96875q0.3125 0.9375 1.109375 2.671875zm1.9627075 -3.921875l0 -13.359377l4.03125 0l2.421875 9.109377l2.390625 -9.109377l4.046875 0l0 13.359377l-2.5 0l0 -10.515627l-2.65625 10.515627l-2.59375 0l-2.640625 -10.515627l0 10.515627l-2.5 0zm15.6502075 0l0 -13.250002l2.6875 0l0 11.000002l6.703125 0l0 2.25l-9.390625 0zm11.317871 0l0 -13.359377l4.328125 0q2.453125 0 3.203125 0.203125q1.140625 0.296875 1.921875 1.3125q0.78125 1.0 0.78125 2.59375q0 1.234375 -0.453125 2.078125q-0.453125 0.828125 -1.140625 1.3125q-0.6875 0.4687519 -1.390625 0.6250019q-0.96875 0.203125 -2.796875 0.203125l-1.765625 0l0 5.03125l-2.6875 0zm2.6875 -11.093752l0 3.78125l1.484375 0q1.59375 0 2.125 -0.203125q0.546875 -0.203125 0.84375 -0.65625q0.3125 -0.453125 0.3125 -1.03125q0 -0.734375 -0.4375 -1.203125q-0.421875 -0.484375 -1.078125 -0.59375q-0.484375 -0.09375 -1.9375 -0.09375l-1.3125 0zm9.0216675 15.015627q0.765625 -1.609375 1.0625 -2.484375q0.3125 -0.859375 0.578125 -1.984375q0.265625 -1.140625 0.390625 -2.15625q0.125 -1.015625 0.125 -2.078125q0 -2.171877 -0.46875 -4.109377q-0.453125 -1.9375 -1.703125 -4.6875l1.734375 0q1.375 1.953125 2.140625 4.15625q0.765625 2.1875 0.765625 4.453127q0 1.90625 -0.609375 4.078125q-0.671875 2.4375 -2.25 4.8125l-1.765625 0z" fill-rule="nonzero"/><path fill="#e06666" d="m495.32367 152.26115l0 0c0 -10.97612 8.897919 -19.874008 19.874023 -19.874008l0 0c5.270935 0 10.325928 2.0938568 14.05304 5.8209534c3.7271118 3.7271118 5.820984 8.782135 5.820984 14.053055l0 0c0 10.97612 -8.897888 19.874023 -19.874023 19.874023l0 0c-10.976105 0 -19.874023 -8.897903 -19.874023 -19.874023z" fill-rule="evenodd"/><path stroke="#000000" stroke-width="1.0" stroke-linejoin="round" stroke-linecap="butt" d="m495.32367 152.26115l0 0c0 -10.97612 8.897919 -19.874008 19.874023 -19.874008l0 0c5.270935 0 10.325928 2.0938568 14.05304 5.8209534c3.7271118 3.7271118 5.820984 8.782135 5.820984 14.053055l0 0c0 10.97612 -8.897888 19.874023 -19.874023 19.874023l0 0c-10.976105 0 -19.874023 -8.897903 -19.874023 -19.874023z" fill-rule="evenodd"/><path fill="#000000" fill-opacity="0.0" d="m501.14465 138.2081l-31.02362 -31.086609" fill-rule="evenodd"/><path stroke="#000000" stroke-width="1.0" stroke-linejoin="round" stroke-linecap="butt" d="m501.14465 138.2081l-31.02362 -31.086609" fill-rule="evenodd"/><path fill="#000000" fill-opacity="0.0" d="m501.14465 166.31421l-31.02362 31.118103" fill-rule="evenodd"/><path stroke="#000000" stroke-width="1.0" stroke-linejoin="round" stroke-linecap="butt" d="m501.14465 166.31421l-31.02362 31.118103" fill-rule="evenodd"/><path fill="#000000" fill-opacity="0.0" d="m436.20294 93.05643l-77.95276 0" fill-rule="evenodd"/><path stroke="#000000" stroke-width="1.0" stroke-linejoin="round" stroke-linecap="butt" d="m436.20294 93.05643l-77.95276 0" fill-rule="evenodd"/><path fill="#000000" fill-opacity="0.0" d="m436.20294 211.48021l-77.95276 0" fill-rule="evenodd"/><path stroke="#000000" stroke-width="1.0" stroke-linejoin="round" stroke-linecap="butt" d="m436.20294 211.48021l-77.95276 0" fill-rule="evenodd"/></g></svg>