<svg version="1.1" viewBox="0.0 0.0 967.3333333333334 506.3333333333333" fill="none" stroke="none" stroke-linecap="square" stroke-miterlimit="10" xmlns:xlink="http://www.w3.org/1999/xlink" xmlns="http://www.w3.org/2000/svg"><clipPath id="p.0"><path d="m0 0l967.3333 0l0 506.33334l-967.3333 0l0 -506.33334z" clip-rule="nonzero"/></clipPath><g clip-path="url(#p.0)"><path fill="#ffffff" d="m0 0l967.3333 0l0 506.33334l-967.3333 0z" fill-rule="evenodd"/><path fill="#000000" fill-opacity="0.0" d="m0 24.052494l960.0 0l0 43.748028l-960.0 0z" fill-rule="evenodd"/><path fill="#000000" d="m245.85918 57.372494l-3.984375 0l-1.578125 -4.125l-7.25 0l-1.484375 4.125l-3.890625 0l7.0625 -18.125l3.875 0l7.25 18.125zm-6.734375 -7.171875l-2.5 -6.734375l-2.453125 6.734375l4.953125 0zm14.731781 7.171875l0 -18.125l5.4687347 0l3.296875 12.359375l3.25 -12.359375l5.5 0l0 18.125l-3.40625 0l0 -14.265625l-3.59375 14.265625l-3.53125 0l-3.59375 -14.265625l0 14.265625l-3.3906097 0zm37.48915 0l-3.984375 0l-1.578125 -4.125l-7.25 0l-1.484375 4.125l-3.890625 0l7.0625 -18.125l3.875 0l7.25 18.125zm-6.734375 -7.171875l-2.5 -6.734375l-2.453125 6.734375l4.953125 0zm10.87973 7.171875l0 -15.0625l-5.375 0l0 -3.0625l14.40625 0l0 3.0625l-5.375 0l0 15.0625l-3.65625 0zm11.408936 0l0 -18.125l3.65625 0l0 7.125l7.171875 0l0 -7.125l3.65625 0l0 18.125l-3.65625 0l0 -7.921875l-7.171875 0l0 7.921875l-3.65625 0zm18.275513 0l0 -18.125l13.4375 0l0 3.0625l-9.78125 0l0 4.015625l9.109375 0l0 3.0625l-9.109375 0l0 4.921875l10.125 0l0 3.0625l-13.78125 0zm16.846802 0l0 -18.125l5.46875 0l3.296875 12.359375l3.25 -12.359375l5.5 0l0 18.125l-3.40625 0l0 -14.265625l-3.59375 14.265625l-3.53125 0l-3.59375 -14.265625l0 14.265625l-3.390625 0zm37.489136 0l-3.984375 0l-1.578125 -4.125l-7.25 0l-1.484375 4.125l-3.890625 0l7.0625 -18.125l3.875 0l7.25 18.125zm-6.734375 -7.171875l-2.5 -6.734375l-2.453125 6.734375l4.953125 0zm10.87973 7.171875l0 -15.0625l-5.375 0l0 -3.0625l14.40625 0l0 3.0625l-5.375 0l0 15.0625l-3.65625 0zm11.283936 0l0 -18.125l3.65625 0l0 18.125l-3.65625 0zm18.740082 -6.671875l3.5625 1.125q-0.828125 2.96875 -2.734375 4.421875q-1.890625 1.4375 -4.796875 1.4375q-3.625 0 -5.953125 -2.46875q-2.3125 -2.46875 -2.3125 -6.75q0 -4.53125 2.328125 -7.03125q2.34375 -2.5 6.15625 -2.5q3.328125 0 5.40625 1.96875q1.234375 1.15625 1.84375 3.328125l-3.625 0.875q-0.3125 -1.40625 -1.34375 -2.21875q-1.015625 -0.828125 -2.46875 -0.828125q-2.015625 0 -3.28125 1.453125q-1.25 1.4375 -1.25 4.6875q0 3.4375 1.234375 4.90625q1.234375 1.453125 3.21875 1.453125q1.46875 0 2.515625 -0.921875q1.046875 -0.9375 1.5 -2.9375zm23.041199 6.671875l-3.984375 0l-1.578125 -4.125l-7.25 0l-1.484375 4.125l-3.890625 0l7.0625 -18.125l3.875 0l7.25 18.125zm-6.734375 -7.171875l-2.5 -6.734375l-2.453125 6.734375l4.953125 0zm8.775513 7.171875l0 -17.984375l3.671875 0l0 14.921875l9.09375 0l0 3.0625l-12.765625 0zm21.910095 0l0 -18.125l5.46875 0l3.296875 12.359375l3.25 -12.359375l5.5 0l0 18.125l-3.40625 0l0 -14.265625l-3.59375 14.265625l-3.53125 0l-3.59375 -14.265625l0 14.265625l-3.390625 0zm20.395416 -8.953125q0 -2.765625 0.828125 -4.65625q0.625 -1.375 1.6875 -2.46875q1.078125 -1.109375 2.359375 -1.640625q1.6875 -0.71875 3.90625 -0.71875q4.0 0 6.40625 2.484375q2.40625 2.484375 2.40625 6.90625q0 4.390625 -2.390625 6.875q-2.390625 2.484375 -6.375 2.484375q-4.046875 0 -6.4375 -2.46875q-2.390625 -2.46875 -2.390625 -6.796875zm3.78125 -0.125q0 3.078125 1.421875 4.671875q1.421875 1.59375 3.609375 1.59375q2.1875 0 3.59375 -1.578125q1.40625 -1.578125 1.40625 -4.734375q0 -3.125 -1.375 -4.65625q-1.359375 -1.53125 -3.625 -1.53125q-2.265625 0 -3.65625 1.5625q-1.375 1.546875 -1.375 4.671875zm16.654144 -9.046875l6.6875 0q2.265625 0 3.453125 0.34375q1.59375 0.46875 2.734375 1.671875q1.140625 1.1875 1.734375 2.9375q0.59375 1.734375 0.59375 4.28125q0 2.234375 -0.5625 3.859375q-0.671875 1.96875 -1.9375 3.203125q-0.953125 0.921875 -2.578125 1.4375q-1.203125 0.390625 -3.234375 0.390625l-6.890625 0l0 -18.125zm3.65625 3.0625l0 12.0l2.734375 0q1.53125 0 2.21875 -0.171875q0.890625 -0.21875 1.46875 -0.75q0.59375 -0.53125 0.96875 -1.75q0.375 -1.21875 0.375 -3.3125q0 -2.109375 -0.375 -3.234375q-0.375 -1.125 -1.046875 -1.75q-0.65625 -0.640625 -1.6875 -0.859375q-0.765625 -0.171875 -3.0 -0.171875l-1.65625 0zm14.650574 15.0625l0 -18.125l13.4375 0l0 3.0625l-9.78125 0l0 4.015625l9.109375 0l0 3.0625l-9.109375 0l0 4.921875l10.125 0l0 3.0625l-13.78125 0zm16.987427 0l0 -17.984375l3.671875 0l0 14.921875l9.09375 0l0 3.0625l-12.765625 0zm21.20697 -8.953125q0 -2.765625 0.828125 -4.65625q0.625 -1.375 1.6875 -2.46875q1.078125 -1.109375 2.359375 -1.640625q1.6875 -0.71875 3.90625 -0.71875q4.0 0 6.40625 2.484375q2.40625 2.484375 2.40625 6.90625q0 4.390625 -2.390625 6.875q-2.390625 2.484375 -6.375 2.484375q-4.046875 0 -6.4375 -2.46875q-2.390625 -2.46875 -2.390625 -6.796875zm3.78125 -0.125q0 3.078125 1.421875 4.671875q1.421875 1.59375 3.609375 1.59375q2.1875 0 3.59375 -1.578125q1.40625 -1.578125 1.40625 -4.734375q0 -3.125 -1.375 -4.65625q-1.359375 -1.53125 -3.625 -1.53125q-2.265625 0 -3.65625 1.5625q-1.375 1.546875 -1.375 4.671875zm16.70105 9.078125l0 -18.125l12.421875 0l0 3.0625l-8.765625 0l0 4.296875l7.5625 0l0 3.0625l-7.5625 0l0 7.703125l-3.65625 0zm37.8808 0l-3.984375 0l-1.578125 -4.125l-7.25 0l-1.484375 4.125l-3.890625 0l7.0625 -18.125l3.875 0l7.25 18.125zm-6.734375 -7.171875l-2.5 -6.734375l-2.453125 6.734375l4.953125 0zm14.809937 7.171875l0 -18.125l3.5625 0l7.421875 12.109375l0 -12.109375l3.40625 0l0 18.125l-3.671875 0l-7.3125 -11.828125l0 11.828125l-3.40625 0zm18.259888 0l0 -18.125l13.4375 0l0 3.0625l-9.78125 0l0 4.015625l9.109375 0l0 3.0625l-9.109375 0l0 4.921875l10.125 0l0 3.0625l-13.78125 0zm16.862427 -18.125l3.671875 0l0 9.8125q0 2.34375 0.125 3.03125q0.234375 1.109375 1.125 1.796875q0.890625 0.671875 2.421875 0.671875q1.546875 0 2.34375 -0.640625q0.796875 -0.640625 0.953125 -1.5625q0.15625 -0.9375 0.15625 -3.078125l0 -10.03125l3.671875 0l0 9.515625q0 3.265625 -0.296875 4.625q-0.296875 1.34375 -1.09375 2.265625q-0.796875 0.921875 -2.140625 1.484375q-1.328125 0.546875 -3.484375 0.546875q-2.59375 0 -3.9375 -0.59375q-1.34375 -0.609375 -2.125 -1.5625q-0.78125 -0.96875 -1.03125 -2.015625q-0.359375 -1.5625 -0.359375 -4.59375l0 -9.671875zm18.338013 18.125l0 -18.125l7.703125 0q2.90625 0 4.21875 0.484375q1.3125 0.484375 2.109375 1.734375q0.796875 1.25 0.796875 2.859375q0 2.046875 -1.203125 3.375q-1.203125 1.328125 -3.59375 1.671875q1.1875 0.6875 1.953125 1.515625q0.78125 0.828125 2.09375 2.953125l2.21875 3.53125l-4.375 0l-2.65625 -3.9375q-1.40625 -2.125 -1.921875 -2.671875q-0.515625 -0.546875 -1.109375 -0.75q-0.578125 -0.203125 -1.828125 -0.203125l-0.75 0l0 7.5625l-3.65625 0zm3.65625 -10.46875l2.703125 0q2.640625 0 3.296875 -0.21875q0.65625 -0.21875 1.015625 -0.765625q0.375 -0.546875 0.375 -1.359375q0 -0.921875 -0.484375 -1.484375q-0.484375 -0.5625 -1.375 -0.703125q-0.453125 -0.0625 -2.671875 -0.0625l-2.859375 0l0 4.59375zm13.869324 1.515625q0 -2.765625 0.828125 -4.65625q0.625 -1.375 1.6875 -2.46875q1.078125 -1.109375 2.359375 -1.640625q1.6875 -0.71875 3.90625 -0.71875q4.0 0 6.40625 2.484375q2.40625 2.484375 2.40625 6.90625q0 4.390625 -2.390625 6.875q-2.390625 2.484375 -6.375 2.484375q-4.046875 0 -6.4375 -2.46875q-2.390625 -2.46875 -2.390625 -6.796875zm3.78125 -0.125q0 3.078125 1.421875 4.671875q1.421875 1.59375 3.609375 1.59375q2.1875 0 3.59375 -1.578125q1.40625 -1.578125 1.40625 -4.734375q0 -3.125 -1.375 -4.65625q-1.359375 -1.53125 -3.625 -1.53125q-2.265625 0 -3.65625 1.5625q-1.375 1.546875 -1.375 4.671875zm16.70105 9.078125l0 -18.125l3.5625 0l7.421875 12.109375l0 -12.109375l3.40625 0l0 18.125l-3.671875 0l-7.3125 -11.828125l0 11.828125l-3.40625 0z" fill-rule="nonzero"/><path fill="#cfe2f3" d="m476.49738 309.74933l0 0c0 -32.789185 26.580902 -59.370056 59.370056 -59.370056l0 0c15.745972 0 30.846985 6.2550354 41.981018 17.3891c11.134033 11.134033 17.3891 26.235046 17.3891 41.980957l0 0c0 32.789215 -26.580933 59.370087 -59.370117 59.370087l0 0c-32.789154 0 -59.370056 -26.580872 -59.370056 -59.370087z" fill-rule="evenodd"/><path stroke="#000000" stroke-width="1.0" stroke-linejoin="round" stroke-linecap="butt" d="m476.49738 309.74933l0 0c0 -32.789185 26.580902 -59.370056 59.370056 -59.370056l0 0c15.745972 0 30.846985 6.2550354 41.981018 17.3891c11.134033 11.134033 17.3891 26.235046 17.3891 41.980957l0 0c0 32.789215 -26.580933 59.370087 -59.370117 59.370087l0 0c-32.789154 0 -59.370056 -26.580872 -59.370056 -59.370087z" fill-rule="evenodd"/><path fill="#3d85c6" d="m524.23425 302.12247l1.609375 0.21875q-0.265625 1.65625 -1.359375 2.609375q-1.078125 0.9375 -2.671875 0.9375q-1.984375 0 -3.1875 -1.296875q-1.203125 -1.296875 -1.203125 -3.71875q0 -1.578125 0.515625 -2.75q0.515625 -1.171875 1.578125 -1.75q1.0625 -0.59375 2.3125 -0.59375q1.578125 0 2.578125 0.796875q1.0 0.796875 1.28125 2.265625l-1.59375 0.234375q-0.234375 -0.96875 -0.8125 -1.453125q-0.578125 -0.5 -1.390625 -0.5q-1.234375 0 -2.015625 0.890625q-0.78125 0.890625 -0.78125 2.8125q0 1.953125 0.75 2.84375q0.75 0.875 1.953125 0.875q0.96875 0 1.609375 -0.59375q0.65625 -0.59375 0.828125 -1.828125zm9.640625 0.4375l1.6875 0.203125q-0.40625 1.484375 -1.484375 2.3125q-1.078125 0.8125 -2.765625 0.8125q-2.125 0 -3.375 -1.296875q-1.234375 -1.3125 -1.234375 -3.671875q0 -2.453125 1.25 -3.796875q1.265625 -1.34375 3.265625 -1.34375q1.9375 0 3.15625 1.328125q1.234375 1.3125 1.234375 3.703125q0 0.15625 0 0.4375l-7.21875 0q0.09375 1.59375 0.90625 2.453125q0.8125 0.84375 2.015625 0.84375q0.90625 0 1.546875 -0.46875q0.640625 -0.484375 1.015625 -1.515625zm-5.390625 -2.65625l5.40625 0q-0.109375 -1.21875 -0.625 -1.828125q-0.78125 -0.953125 -2.03125 -0.953125q-1.125 0 -1.90625 0.765625q-0.765625 0.75 -0.84375 2.015625zm9.094482 5.765625l0 -13.359375l1.640625 0l0 13.359375l-1.640625 0zm4.1448364 0l0 -13.359375l1.640625 0l0 13.359375l-1.640625 0zm8.140625 0.234375l3.875 -13.8125l1.3125 0l-3.859375 13.8125l-1.328125 0z" fill-rule="nonzero"/><path fill="#3d85c6" d="m504.94986 327.66934l0 -9.671875l1.46875 0l0 1.375q1.0625 -1.59375 3.078125 -1.59375q0.875 0 1.609375 0.3125q0.734375 0.3125 1.0937195 0.828125q0.375 0.5 0.515625 1.203125q0.09375 0.453125 0.09375 1.59375l0 5.953125l-1.6405945 0l0 -5.890625q0 -1.0 -0.203125 -1.484375q-0.1875 -0.5 -0.671875 -0.796875q-0.484375 -0.296875 -1.140625 -0.296875q-1.046875 0 -1.8125 0.671875q-0.75 0.65625 -0.75 2.515625l0 5.28125l-1.640625 0zm16.703827 0l0 -1.421875q-1.125 1.640625 -3.0625 1.640625q-0.859375 0 -1.609375 -0.328125q-0.734375 -0.328125 -1.09375 -0.828125q-0.359375 -0.5 -0.5 -1.21875q-0.109375 -0.46875 -0.109375 -1.53125l0 -5.984375l1.640625 0l0 5.359375q0 1.28125 0.109375 1.734375q0.15625 0.640625 0.65625 1.015625q0.5 0.375 1.234375 0.375q0.734375 0 1.375 -0.375q0.65625 -0.390625 0.921875 -1.03125q0.265625 -0.65625 0.265625 -1.890625l0 -5.1875l1.640625 0l0 9.671875l-1.46875 0zm10.360107 -3.546875l1.609375 0.21875q-0.265625 1.65625 -1.359375 2.609375q-1.078125 0.9375 -2.671875 0.9375q-1.984375 0 -3.1875 -1.296875q-1.203125 -1.296875 -1.203125 -3.71875q0 -1.578125 0.515625 -2.75q0.515625 -1.171875 1.578125 -1.75q1.0625 -0.59375 2.3125 -0.59375q1.578125 0 2.578125 0.796875q1.0 0.796875 1.28125 2.265625l-1.59375 0.234375q-0.234375 -0.96875 -0.8125 -1.453125q-0.578125 -0.5 -1.390625 -0.5q-1.234375 0 -2.015625 0.890625q-0.78125 0.890625 -0.78125 2.8125q0 1.953125 0.75 2.84375q0.75 0.875 1.953125 0.875q0.96875 0 1.609375 -0.59375q0.65625 -0.59375 0.828125 -1.828125zm2.96875 3.546875l0 -13.359375l1.640625 0l0 13.359375l-1.640625 0zm10.816711 -3.109375l1.6875 0.203125q-0.40625 1.484375 -1.484375 2.3125q-1.078125 0.8125 -2.765625 0.8125q-2.125 0 -3.375 -1.296875q-1.234375 -1.3125 -1.234375 -3.671875q0 -2.453125 1.25 -3.796875q1.265625 -1.34375 3.265625 -1.34375q1.9375 0 3.15625 1.328125q1.234375 1.3125 1.234375 3.703125q0 0.15625 0 0.4375l-7.21875 0q0.09375 1.59375 0.90625 2.453125q0.8125 0.84375 2.015625 0.84375q0.90625 0 1.546875 -0.46875q0.640625 -0.484375 1.015625 -1.515625zm-5.390625 -2.65625l5.40625 0q-0.109375 -1.21875 -0.625 -1.828125q-0.78125 -0.953125 -2.03125 -0.953125q-1.125 0 -1.90625 0.765625q-0.765625 0.75 -0.84375 2.015625zm15.469421 5.765625l0 -1.421875q-1.125 1.640625 -3.0625 1.640625q-0.859375 0 -1.609375 -0.328125q-0.734375 -0.328125 -1.09375 -0.828125q-0.359375 -0.5 -0.5 -1.21875q-0.109375 -0.46875 -0.109375 -1.53125l0 -5.984375l1.640625 0l0 5.359375q0 1.28125 0.109375 1.734375q0.15625 0.640625 0.65625 1.015625q0.5 0.375 1.234375 0.375q0.734375 0 1.375 -0.375q0.65625 -0.390625 0.921875 -1.03125q0.265625 -0.65625 0.265625 -1.890625l0 -5.1875l1.640625 0l0 9.671875l-1.46875 0zm3.3913574 -2.890625l1.625 -0.25q0.125 0.96875 0.75 1.5q0.625 0.515625 1.75 0.515625q1.125 0 1.671875 -0.453125q0.546875 -0.46875 0.546875 -1.09375q0 -0.546875 -0.484375 -0.875q-0.328125 -0.21875 -1.671875 -0.546875q-1.8125 -0.46875 -2.515625 -0.796875q-0.6875 -0.328125 -1.046875 -0.90625q-0.359375 -0.59375 -0.359375 -1.3125q0 -0.640625 0.296875 -1.1875q0.296875 -0.5625 0.8125 -0.921875q0.375 -0.28125 1.03125 -0.46875q0.671875 -0.203125 1.421875 -0.203125q1.140625 0 2.0 0.328125q0.859375 0.328125 1.265625 0.890625q0.421875 0.5625 0.578125 1.5l-1.609375 0.21875q-0.109375 -0.75 -0.640625 -1.171875q-0.515625 -0.421875 -1.46875 -0.421875q-1.140625 0 -1.625 0.375q-0.46875 0.375 -0.46875 0.875q0 0.3125 0.1875 0.578125q0.203125 0.265625 0.640625 0.4375q0.234375 0.09375 1.4375 0.421875q1.75 0.453125 2.4375 0.75q0.6875 0.296875 1.078125 0.859375q0.390625 0.5625 0.390625 1.40625q0 0.828125 -0.484375 1.546875q-0.46875 0.71875 -1.375 1.125q-0.90625 0.390625 -2.046875 0.390625q-1.875 0 -2.875 -0.78125q-0.984375 -0.78125 -1.25 -2.328125z" fill-rule="nonzero"/><path fill="#000000" fill-opacity="0.0" d="m595.23755 309.74933l78.96063 0" fill-rule="evenodd"/><path stroke="#000000" stroke-width="1.0" stroke-linejoin="round" stroke-linecap="butt" d="m595.23755 309.74933l72.96063 0" fill-rule="evenodd"/><path fill="#000000" stroke="#000000" stroke-width="1.0" stroke-linecap="butt" d="m668.1982 311.40106l4.538086 -1.6517334l-4.538086 -1.6517029z" fill-rule="evenodd"/><path fill="#000000" fill-opacity="0.0" d="m322.30054 310.42783l154.20471 -0.6929321" fill-rule="evenodd"/><path stroke="#000000" stroke-width="1.0" stroke-linejoin="round" stroke-linecap="butt" d="m322.30054 310.42783l148.20474 -0.6659546" fill-rule="evenodd"/><path fill="#000000" stroke="#000000" stroke-width="1.0" stroke-linecap="butt" d="m470.51273 311.41357l4.5306396 -1.6720886l-4.545471 -1.6313477z" fill-rule="evenodd"/><path fill="#000000" fill-opacity="0.0" d="m315.6391 210.98163l178.23624 56.787415" fill-rule="evenodd"/><path stroke="#000000" stroke-width="1.0" stroke-linejoin="round" stroke-linecap="butt" d="m315.6391 210.98163l172.51938 54.965973" fill-rule="evenodd"/><path fill="#000000" stroke="#000000" stroke-width="1.0" stroke-linecap="butt" d="m487.65704 267.5214l4.8253784 -0.19616699l-3.8225098 -2.951416z" fill-rule="evenodd"/><path fill="#000000" fill-opacity="0.0" d="m226.0643 210.70341l78.96063 0" fill-rule="evenodd"/><path stroke="#000000" stroke-width="1.0" stroke-linejoin="round" stroke-linecap="butt" d="m226.0643 210.70341l72.96063 0" fill-rule="evenodd"/><path fill="#000000" stroke="#000000" stroke-width="1.0" stroke-linecap="butt" d="m299.02493 212.35515l4.538086 -1.6517334l-4.538086 -1.6517334z" fill-rule="evenodd"/><path fill="#cfe2f3" d="m305.02493 210.98163l0 0c0 -2.7657776 2.376068 -5.0078735 5.3070984 -5.0078735l0 0c1.4075317 0 2.7573853 0.5276184 3.752655 1.4667664c0.9952698 0.9391632 1.5544128 2.2129364 1.5544128 3.5411072l0 0c0 2.7657776 -2.376068 5.0078735 -5.307068 5.0078735l0 0c-2.9310303 0 -5.3070984 -2.242096 -5.3070984 -5.0078735z" fill-rule="evenodd"/><path stroke="#000000" stroke-width="1.0" stroke-linejoin="round" stroke-linecap="butt" d="m305.02493 210.98163l0 0c0 -2.7657776 2.376068 -5.0078735 5.3070984 -5.0078735l0 0c1.4075317 0 2.7573853 0.5276184 3.752655 1.4667664c0.9952698 0.9391632 1.5544128 2.2129364 1.5544128 3.5411072l0 0c0 2.7657776 -2.376068 5.0078735 -5.307068 5.0078735l0 0c-2.9310303 0 -5.3070984 -2.242096 -5.3070984 -5.0078735z" fill-rule="evenodd"/><path fill="#000000" fill-opacity="0.0" d="m493.88647 351.73032l-171.59055 58.141754" fill-rule="evenodd"/><path stroke="#000000" stroke-width="1.0" stroke-linejoin="round" stroke-linecap="butt" d="m488.20383 353.65585l-165.90793 56.216187" fill-rule="evenodd"/><path fill="#000000" stroke="#000000" stroke-width="1.0" stroke-linecap="butt" d="m488.73392 355.22018l3.7679749 -3.0207214l-4.828125 -0.10800171z" fill-rule="evenodd"/><path fill="#000000" fill-opacity="0.0" d="m676.4974 273.9672l179.05511 0l0 50.614166l-179.05511 0z" fill-rule="evenodd"/><path fill="#000000" d="m685.9505 317.64032l0.34375 -1.515625q0.984375 0.21875 1.484375 0.21875q0.515625 0 0.796875 -0.28125q0.296875 -0.265625 0.453125 -1.203125l1.71875 -10.171875l-1.953125 0l0.234375 -1.375l1.953125 0l0.234375 -1.296875q0.21875 -1.171875 0.4375 -1.609375q0.3125 -0.609375 0.875 -0.953125q0.5625 -0.34375 1.46875 -0.34375q0.78125 0 2.09375 0.375l-0.34375 1.5q-1.0 -0.234375 -1.5 -0.234375q-0.546875 0 -0.828125 0.265625q-0.265625 0.265625 -0.453125 1.296875l-0.1875 1.0l2.0 0l-0.25 1.375l-1.984375 0l-1.875 10.65625q-0.25 1.453125 -0.84375 2.0q-0.59375 0.546875 -1.6875 0.546875q-0.921875 0 -2.1875 -0.25z" fill-rule="nonzero"/><path fill="#000000" d="m703.7923 320.14032q-2.234375 -2.8125 -3.78125 -6.578125q-1.53125 -3.78125 -1.53125 -7.828125q0 -3.5625 1.15625 -6.828125q1.34375 -3.78125 4.15625 -7.53125l1.921875 0q-1.796875 3.109375 -2.390625 4.4375q-0.90625 2.0625 -1.4375 4.3125q-0.640625 2.796875 -0.640625 5.625q0 7.203125 4.46875 14.390625l-1.921875 0z" fill-rule="nonzero"/><path fill="#000000" d="m714.1844 290.39032l19.328125 0l0 2.5625l-15.4375 0l9.484375 12.109375l-10.140625 12.84375l16.25 0l0 2.515625l-19.75 0l0 -2.921875l9.6875 -12.3125l-9.421875 -12.0625l0 -2.734375z" fill-rule="nonzero"/><path fill="#000000" d="m745.5594 309.84344q0 2.5 1.140625 2.5q1.15625 0 1.90625 -1.875q0.765625 -1.890625 0.765625 -4.15625q0 -1.671875 -0.859375 -2.03125q0.828125 -0.625 1.5 -0.625q1.078125 0 1.078125 1.65625q0 2.5 -1.71875 5.65625q-1.53125 2.8125 -3.3125 2.8125q-2.046875 0 -2.046875 -3.140625q0 -0.125 0.078125 -2.40625q-1.375 3.03125 -2.5 4.21875q-1.109375 1.1875 -2.640625 1.1875q0.25 -0.796875 0.25 -1.828125q0 -2.59375 -0.609375 -5.0q-0.59375 -2.40625 -1.53125 -3.4375q0.796875 -0.390625 1.359375 -0.390625q2.0 0 2.546875 8.328125l0 0.265625q1.078125 -1.375 2.109375 -3.328125q1.03125 -1.953125 1.03125 -3.46875l0 -0.171875q0.75 -0.28125 1.203125 -0.28125q0.796875 0 0.796875 0.578125q0 0.140625 -0.15625 0.796875q-0.140625 0.640625 -0.265625 1.75q-0.125 1.09375 -0.125 2.390625z" fill-rule="nonzero"/><path fill="#000000" d="m753.0683 311.3747l2.125 0l-0.40625 1.921875l-2.109375 0l0.390625 -1.921875zm-0.609375 2.984375l2.109375 0l-1.640625 7.828125l-2.109375 0l1.640625 -7.828125z" fill-rule="nonzero"/><path fill="#000000" d="m766.0162 302.32782q0 -0.25 0.5 -0.5625q0.515625 -0.3125 0.84375 -0.3125q0.5 0 0.6875 0.265625q0.203125 0.265625 0.203125 0.796875q0 0.234375 -0.046875 0.40625q-0.046875 0.171875 -0.34375 0.5625q-0.296875 0.375 -0.859375 0.828125q-0.546875 0.4375 -1.65625 1.1875q-1.09375 0.75 -2.65625 1.671875l0.3125 3.375q0.1875 2.15625 1.1875 2.15625q1.203125 -0.875 1.5625 -0.875q0.15625 0 0.171875 0.0625q-0.171875 0.765625 -1.078125 1.28125q-0.90625 0.515625 -1.859375 0.515625q-0.78125 0 -1.109375 -0.609375q-0.3125 -0.609375 -0.421875 -1.734375l-0.296875 -3.265625q-2.359375 1.390625 -3.4375 2.125q-1.0625 0.71875 -1.28125 1.015625q-0.21875 0.296875 -0.21875 0.703125q0 0.78125 0.53125 0.78125q0.171875 0 0.171875 0.109375q0 0.234375 -0.53125 0.5625q-0.53125 0.3125 -0.828125 0.3125q-0.875 0 -0.875 -0.984375q0 -0.359375 0.15625 -0.65625q0.15625 -0.296875 0.734375 -0.875q0.578125 -0.578125 1.953125 -1.484375q1.375 -0.921875 3.578125 -2.21875l-0.28125 -2.859375q-0.203125 -2.171875 -1.171875 -2.171875l-0.75 0.5625q-0.484375 0.3125 -0.84375 0.3125q-0.15625 0 -0.15625 -0.140625q0 -0.515625 0.90625 -1.109375q0.90625 -0.609375 2.03125 -0.609375q0.546875 0 0.859375 0.34375q0.328125 0.34375 0.453125 0.796875q0.125 0.453125 0.203125 1.203125l0.28125 2.765625q1.484375 -0.890625 2.3125 -1.4375q0.828125 -0.546875 1.21875 -0.90625q0.390625 -0.359375 0.46875 -0.53125q0.078125 -0.171875 0.078125 -0.46875q0 -0.78125 -0.5625 -0.78125q-0.140625 0 -0.140625 -0.109375z" fill-rule="nonzero"/><path fill="#000000" d="m770.17633 311.3747l2.125 0l-0.40625 1.921875l-2.109375 0l0.390625 -1.921875zm-0.609375 2.984375l2.109375 0l-1.640625 7.828125l-2.109375 0l1.640625 -7.828125z" fill-rule="nonzero"/><path fill="#000000" d="m786.5533 311.53094l0 -3.671875l-3.640625 0l0 -1.515625l3.640625 0l0 -3.640625l1.546875 0l0 3.640625l3.640625 0l0 1.515625l-3.640625 0l0 3.671875l-1.546875 0z" fill-rule="nonzero"/><path fill="#000000" d="m803.768 313.6872l2.78125 -13.359375l1.65625 0l-1.0 4.78125q0.78125 -0.71875 1.421875 -1.015625q0.640625 -0.296875 1.328125 -0.296875q1.359375 0 2.265625 1.015625q0.90625 1.0 0.90625 2.9375q0 1.28125 -0.375 2.359375q-0.359375 1.0625 -0.890625 1.78125q-0.53125 0.71875 -1.109375 1.15625q-0.578125 0.4375 -1.1875 0.640625q-0.59375 0.21875 -1.140625 0.21875q-0.96875 0 -1.703125 -0.5q-0.71875 -0.515625 -1.125 -1.546875l-0.390625 1.828125l-1.4375 0zm2.4375 -3.96875l-0.015625 0.3125q0 1.234375 0.59375 1.890625q0.59375 0.640625 1.484375 0.640625q0.859375 0 1.578125 -0.609375q0.734375 -0.609375 1.1875 -1.890625q0.46875 -1.28125 0.46875 -2.375q0 -1.21875 -0.59375 -1.890625q-0.578125 -0.671875 -1.4375 -0.671875q-0.90625 0 -1.65625 0.6875q-0.734375 0.6875 -1.234375 2.125q-0.375 1.0625 -0.375 1.78125z" fill-rule="nonzero"/><path fill="#000000" d="m819.59686 291.3747q2.359375 5.140625 2.359375 10.5625q0 3.640625 -0.953125 6.75q-0.9375 3.109375 -2.890625 6.1875q-1.296875 2.03125 -4.109375 5.265625l-2.109375 0q1.734375 -1.890625 3.6875 -5.296875q1.96875 -3.390625 2.84375 -6.65625q0.875 -3.265625 0.875 -6.59375q0 -4.9375 -1.71875 -10.21875l2.015625 0z" fill-rule="nonzero"/><path fill="#000000" fill-opacity="0.0" d="m408.85828 267.7756l89.19684 0l0 43.62204l-89.19684 0z" fill-rule="evenodd"/><path fill="#000000" d="m426.79578 292.77246q0 2.078125 0.953125 2.078125q0.96875 0 1.59375 -1.5625q0.640625 -1.578125 0.640625 -3.453125q0 -1.40625 -0.71875 -1.703125q0.6875 -0.515625 1.25 -0.515625q0.90625 0 0.90625 1.375q0 2.078125 -1.4375 4.71875q-1.28125 2.34375 -2.765625 2.34375q-1.703125 0 -1.703125 -2.625q0 -0.09375 0.0625 -2.0q-1.140625 2.53125 -2.078125 3.515625q-0.921875 0.984375 -2.203125 0.984375q0.203125 -0.65625 0.203125 -1.515625q0 -2.15625 -0.5 -4.15625q-0.5 -2.015625 -1.28125 -2.875q0.65625 -0.328125 1.140625 -0.328125q1.65625 0 2.125 6.9375l0 0.21875q0.890625 -1.140625 1.75 -2.765625q0.859375 -1.625 0.859375 -2.890625l0 -0.140625q0.625 -0.234375 1.0 -0.234375q0.671875 0 0.671875 0.484375q0 0.109375 -0.125 0.65625q-0.125 0.53125 -0.234375 1.453125q-0.109375 0.921875 -0.109375 2.0z" fill-rule="nonzero"/><path fill="#000000" d="m435.56888 302.9756l-1.703125 0l0 -6.4375q-0.9375 0.875 -2.203125 1.296875l0 -1.546875q0.671875 -0.21875 1.453125 -0.828125q0.78125 -0.609375 1.078125 -1.421875l1.375 0l0 8.9375z" fill-rule="nonzero"/><path fill="#000000" d="m446.70477 287.0537q0 -0.1875 0.40625 -0.4375q0.40625 -0.25 0.65625 -0.25q0.390625 0 0.546875 0.21875q0.15625 0.203125 0.15625 0.609375q0 0.1875 -0.046875 0.328125q-0.03125 0.125 -0.265625 0.4375q-0.234375 0.296875 -0.671875 0.65625q-0.421875 0.34375 -1.296875 0.9375q-0.859375 0.578125 -2.09375 1.3125l0.25 2.640625q0.15625 1.6875 0.9375 1.6875q0.9375 -0.6875 1.21875 -0.6875q0.125 0 0.140625 0.0625q-0.140625 0.59375 -0.859375 1.0q-0.703125 0.40625 -1.453125 0.40625q-0.609375 0 -0.859375 -0.46875q-0.25 -0.484375 -0.328125 -1.375l-0.234375 -2.5625q-1.875 1.09375 -2.71875 1.671875q-0.828125 0.5625 -1.0 0.796875q-0.171875 0.234375 -0.171875 0.546875q0 0.609375 0.421875 0.609375q0.140625 0 0.140625 0.09375q0 0.1875 -0.421875 0.4375q-0.421875 0.25 -0.65625 0.25q-0.6875 0 -0.6875 -0.78125q0 -0.28125 0.125 -0.515625q0.125 -0.234375 0.578125 -0.6875q0.453125 -0.453125 1.53125 -1.171875q1.078125 -0.71875 2.8125 -1.71875l-0.21875 -2.265625q-0.171875 -1.703125 -0.921875 -1.703125l-0.59375 0.453125q-0.375 0.234375 -0.65625 0.234375q-0.125 0 -0.125 -0.109375q0 -0.390625 0.703125 -0.859375q0.71875 -0.484375 1.609375 -0.484375q0.421875 0 0.671875 0.265625q0.265625 0.265625 0.359375 0.625q0.09375 0.359375 0.15625 0.953125l0.21875 2.171875q1.171875 -0.703125 1.8125 -1.125q0.65625 -0.4375 0.96875 -0.71875q0.3125 -0.28125 0.359375 -0.40625q0.0625 -0.140625 0.0625 -0.375q0 -0.625 -0.4375 -0.625q-0.125 0 -0.125 -0.078125z" fill-rule="nonzero"/><path fill="#000000" d="m452.6282 302.9756l-1.703125 0l0 -6.4375q-0.9375 0.875 -2.203125 1.296875l0 -1.546875q0.671875 -0.21875 1.453125 -0.828125q0.78125 -0.609375 1.078125 -1.421875l1.375 0l0 8.9375z" fill-rule="nonzero"/><path fill="#000000" fill-opacity="0.0" d="m409.08923 324.58267l89.19687 0l0 43.62204l-89.19687 0z" fill-rule="evenodd"/><path fill="#000000" d="m427.02673 349.57956q0 2.078125 0.953125 2.078125q0.96875 0 1.59375 -1.5625q0.640625 -1.578125 0.640625 -3.453125q0 -1.40625 -0.71875 -1.703125q0.6875 -0.515625 1.25 -0.515625q0.90625 0 0.90625 1.375q0 2.078125 -1.4375 4.71875q-1.28125 2.34375 -2.765625 2.34375q-1.703125 0 -1.703125 -2.625q0 -0.09375 0.0625 -2.0q-1.140625 2.53125 -2.078125 3.515625q-0.921875 0.984375 -2.203125 0.984375q0.203125 -0.65625 0.203125 -1.515625q0 -2.15625 -0.5 -4.15625q-0.5 -2.015625 -1.28125 -2.875q0.65625 -0.328125 1.140625 -0.328125q1.65625 0 2.125 6.9375l0 0.21875q0.890625 -1.140625 1.75 -2.765625q0.859375 -1.625 0.859375 -2.890625l0 -0.140625q0.625 -0.234375 1.0 -0.234375q0.671875 0 0.671875 0.484375q0 0.109375 -0.125 0.65625q-0.125 0.53125 -0.234375 1.453125q-0.109375 0.921875 -0.109375 2.0z" fill-rule="nonzero"/><path fill="#000000" d="m437.20612 358.20456l0 1.578125l-5.984375 0q0.09375 -0.90625 0.578125 -1.703125q0.484375 -0.8125 1.921875 -2.140625q1.15625 -1.0625 1.421875 -1.453125q0.34375 -0.53125 0.34375 -1.046875q0 -0.5625 -0.3125 -0.875q-0.296875 -0.3125 -0.84375 -0.3125q-0.53125 0 -0.84375 0.328125q-0.3125 0.328125 -0.375 1.0625l-1.6875 -0.15625q0.140625 -1.421875 0.9375 -2.03125q0.8125 -0.609375 2.015625 -0.609375q1.3125 0 2.0625 0.71875q0.765625 0.703125 0.765625 1.75q0 0.609375 -0.21875 1.15625q-0.21875 0.546875 -0.6875 1.140625q-0.3125 0.390625 -1.125 1.140625q-0.796875 0.734375 -1.015625 0.984375q-0.21875 0.234375 -0.34375 0.46875l3.390625 0z" fill-rule="nonzero"/><path fill="#000000" d="m446.93576 343.8608q0 -0.1875 0.40625 -0.4375q0.40625 -0.25 0.65625 -0.25q0.390625 0 0.546875 0.21875q0.15625 0.203125 0.15625 0.609375q0 0.1875 -0.046875 0.328125q-0.03125 0.125 -0.265625 0.4375q-0.234375 0.296875 -0.671875 0.65625q-0.421875 0.34375 -1.296875 0.9375q-0.859375 0.578125 -2.09375 1.3125l0.25 2.640625q0.15625 1.6875 0.9375 1.6875q0.9375 -0.6875 1.21875 -0.6875q0.125 0 0.140625 0.0625q-0.140625 0.59375 -0.859375 1.0q-0.703125 0.40625 -1.453125 0.40625q-0.609375 0 -0.859375 -0.46875q-0.25 -0.484375 -0.328125 -1.375l-0.234375 -2.5625q-1.875 1.09375 -2.71875 1.671875q-0.828125 0.5625 -1.0 0.796875q-0.171875 0.234375 -0.171875 0.546875q0 0.609375 0.421875 0.609375q0.140625 0 0.140625 0.09375q0 0.1875 -0.421875 0.4375q-0.421875 0.25 -0.65625 0.25q-0.6875 0 -0.6875 -0.78125q0 -0.28125 0.125 -0.515625q0.125 -0.234375 0.578125 -0.6875q0.453125 -0.453125 1.53125 -1.171875q1.078125 -0.71875 2.8125 -1.71875l-0.21875 -2.265625q-0.171875 -1.703125 -0.921875 -1.703125l-0.59375 0.453125q-0.375 0.234375 -0.65625 0.234375q-0.125 0 -0.125 -0.109375q0 -0.390625 0.703125 -0.859375q0.71875 -0.484375 1.609375 -0.484375q0.421875 0 0.671875 0.265625q0.265625 0.265625 0.359375 0.625q0.09375 0.359375 0.15625 0.953125l0.21875 2.171875q1.171875 -0.703125 1.8125 -1.125q0.65625 -0.4375 0.96875 -0.71875q0.3125 -0.28125 0.359375 -0.40625q0.0625 -0.140625 0.0625 -0.375q0 -0.625 -0.4375 -0.625q-0.125 0 -0.125 -0.078125z" fill-rule="nonzero"/><path fill="#000000" d="m454.2654 358.20456l0 1.578125l-5.984375 0q0.09375 -0.90625 0.578125 -1.703125q0.484375 -0.8125 1.921875 -2.140625q1.15625 -1.0625 1.421875 -1.453125q0.34375 -0.53125 0.34375 -1.046875q0 -0.5625 -0.3125 -0.875q-0.296875 -0.3125 -0.84375 -0.3125q-0.53125 0 -0.84375 0.328125q-0.3125 0.328125 -0.375 1.0625l-1.6875 -0.15625q0.140625 -1.421875 0.9375 -2.03125q0.8125 -0.609375 2.015625 -0.609375q1.3125 0 2.0625 0.71875q0.765625 0.703125 0.765625 1.75q0 0.609375 -0.21875 1.15625q-0.21875 0.546875 -0.6875 1.140625q-0.3125 0.390625 -1.125 1.140625q-0.796875 0.734375 -1.015625 0.984375q-0.21875 0.234375 -0.34375 0.46875l3.390625 0z" fill-rule="nonzero"/><path fill="#000000" fill-opacity="0.0" d="m410.33728 201.87401l89.19684 0l0 43.622055l-89.19684 0z" fill-rule="evenodd"/><path fill="#000000" d="m428.27478 226.8709q0 2.078125 0.953125 2.078125q0.96875 0 1.59375 -1.5625q0.640625 -1.578125 0.640625 -3.453125q0 -1.40625 -0.71875 -1.703125q0.6875 -0.515625 1.25 -0.515625q0.90625 0 0.90625 1.375q0 2.078125 -1.4375 4.71875q-1.28125 2.34375 -2.765625 2.34375q-1.703125 0 -1.703125 -2.625q0 -0.09375 0.0625 -2.0q-1.140625 2.53125 -2.078125 3.515625q-0.921875 0.984375 -2.203125 0.984375q0.203125 -0.65625 0.203125 -1.515625q0 -2.15625 -0.5 -4.15625q-0.5 -2.015625 -1.28125 -2.875q0.65625 -0.328125 1.140625 -0.328125q1.65625 0 2.125 6.9375l0 0.21875q0.890625 -1.140625 1.75 -2.765625q0.859375 -1.625 0.859375 -2.890625l0 -0.140625q0.625 -0.234375 1.0 -0.234375q0.671875 0 0.671875 0.484375q0 0.109375 -0.125 0.65625q-0.125 0.53125 -0.234375 1.453125q-0.109375 0.921875 -0.109375 2.0z" fill-rule="nonzero"/><path fill="#000000" d="m435.5635 228.1365q1.296875 0 2.03125 0.921875q0.859375 1.09375 0.859375 3.625q0 2.53125 -0.875 3.625q-0.71875 0.921875 -2.015625 0.921875q-1.296875 0 -2.09375 -1.0q-0.796875 -1.0 -0.796875 -3.5625q0 -2.515625 0.875 -3.625q0.734375 -0.90625 2.015625 -0.90625zm0 1.40625q-0.296875 0 -0.546875 0.203125q-0.234375 0.203125 -0.375 0.703125q-0.171875 0.671875 -0.171875 2.234375q0 1.5625 0.15625 2.15625q0.15625 0.578125 0.390625 0.78125q0.25 0.1875 0.546875 0.1875q0.3125 0 0.546875 -0.1875q0.25 -0.203125 0.390625 -0.71875q0.171875 -0.65625 0.171875 -2.21875q0 -1.5625 -0.15625 -2.140625q-0.15625 -0.59375 -0.40625 -0.796875q-0.234375 -0.203125 -0.546875 -0.203125z" fill-rule="nonzero"/><path fill="#000000" d="m448.18378 221.15215q0 -0.1875 0.40625 -0.4375q0.40625 -0.25 0.65625 -0.25q0.390625 0 0.546875 0.21875q0.15625 0.203125 0.15625 0.609375q0 0.1875 -0.046875 0.328125q-0.03125 0.125 -0.265625 0.4375q-0.234375 0.296875 -0.671875 0.65625q-0.421875 0.34375 -1.296875 0.9375q-0.859375 0.578125 -2.09375 1.3125l0.25 2.640625q0.15625 1.6875 0.9375 1.6875q0.9375 -0.6875 1.21875 -0.6875q0.125 0 0.140625 0.0625q-0.140625 0.59375 -0.859375 1.0q-0.703125 0.40625 -1.453125 0.40625q-0.609375 0 -0.859375 -0.46875q-0.25 -0.484375 -0.328125 -1.375l-0.234375 -2.5625q-1.875 1.09375 -2.71875 1.671875q-0.828125 0.5625 -1.0 0.796875q-0.171875 0.234375 -0.171875 0.546875q0 0.609375 0.421875 0.609375q0.140625 0 0.140625 0.09375q0 0.1875 -0.421875 0.4375q-0.421875 0.25 -0.65625 0.25q-0.6875 0 -0.6875 -0.78125q0 -0.28125 0.125 -0.515625q0.125 -0.234375 0.578125 -0.6875q0.453125 -0.453125 1.53125 -1.171875q1.078125 -0.71875 2.8125 -1.71875l-0.21875 -2.265625q-0.171875 -1.703125 -0.921875 -1.703125l-0.59375 0.453125q-0.375 0.234375 -0.65625 0.234375q-0.125 0 -0.125 -0.109375q0 -0.390625 0.703125 -0.859375q0.71875 -0.484375 1.609375 -0.484375q0.421875 0 0.671875 0.265625q0.265625 0.265625 0.359375 0.625q0.09375 0.359375 0.15625 0.953125l0.21875 2.171875q1.171875 -0.703125 1.8125 -1.125q0.65625 -0.4375 0.96875 -0.71875q0.3125 -0.28125 0.359375 -0.40625q0.0625 -0.140625 0.0625 -0.375q0 -0.625 -0.4375 -0.625q-0.125 0 -0.125 -0.078125z" fill-rule="nonzero"/><path fill="#000000" d="m452.62283 228.1365q1.296875 0 2.03125 0.921875q0.859375 1.09375 0.859375 3.625q0 2.53125 -0.875 3.625q-0.71875 0.921875 -2.015625 0.921875q-1.296875 0 -2.09375 -1.0q-0.796875 -1.0 -0.796875 -3.5625q0 -2.515625 0.875 -3.625q0.734375 -0.90625 2.015625 -0.90625zm0 1.40625q-0.296875 0 -0.546875 0.203125q-0.234375 0.203125 -0.375 0.703125q-0.171875 0.671875 -0.171875 2.234375q0 1.5625 0.15625 2.15625q0.15625 0.578125 0.390625 0.78125q0.25 0.1875 0.546875 0.1875q0.3125 0 0.546875 -0.1875q0.25 -0.203125 0.390625 -0.71875q0.171875 -0.65625 0.171875 -2.21875q0 -1.5625 -0.15625 -2.140625q-0.15625 -0.59375 -0.40625 -0.796875q-0.234375 -0.203125 -0.546875 -0.203125z" fill-rule="nonzero"/><path fill="#000000" fill-opacity="0.0" d="m603.9934 260.56036l70.20477 0l0 42.015747l-70.20477 0z" fill-rule="evenodd"/><path fill="#3d85c6" d="m620.5403 286.29288q-0.921875 0.765625 -1.765625 1.09375q-0.828125 0.3125 -1.796875 0.3125q-1.59375 0 -2.453125 -0.78125q-0.859375 -0.78125 -0.859375 -1.984375q0 -0.71875 0.328125 -1.296875q0.328125 -0.59375 0.84375 -0.9375q0.53125 -0.359375 1.1875 -0.546875q0.46875 -0.125 1.453125 -0.25q1.984375 -0.234375 2.921875 -0.5625q0.015625 -0.34375 0.015625 -0.421875q0 -1.0 -0.46875 -1.421875q-0.625 -0.546875 -1.875 -0.546875q-1.15625 0 -1.703125 0.40625q-0.546875 0.40625 -0.8125 1.421875l-1.609375 -0.21875q0.21875 -1.015625 0.71875 -1.640625q0.5 -0.640625 1.453125 -0.984375q0.953125 -0.34375 2.1875 -0.34375q1.25 0 2.015625 0.296875q0.78125 0.28125 1.140625 0.734375q0.375 0.4375 0.515625 1.109375q0.078125 0.421875 0.078125 1.515625l0 2.1875q0 2.28125 0.109375 2.890625q0.109375 0.59375 0.40625 1.15625l-1.703125 0q-0.265625 -0.515625 -0.328125 -1.1875zm-0.140625 -3.671875q-0.890625 0.375 -2.671875 0.625q-1.015625 0.140625 -1.4375 0.328125q-0.421875 0.1875 -0.65625 0.53125q-0.21875 0.34375 -0.21875 0.78125q0 0.65625 0.5 1.09375q0.5 0.4375 1.453125 0.4375q0.9375 0 1.671875 -0.40625q0.75 -0.421875 1.09375 -1.140625q0.265625 -0.5625 0.265625 -1.640625l0 -0.609375zm3.1101074 4.859375l3.53125 -5.03125l-3.265625 -4.640625l2.046875 0l1.484375 2.265625q0.421875 0.640625 0.671875 1.078125q0.40625 -0.59375 0.734375 -1.0625l1.640625 -2.28125l1.953125 0l-3.34375 4.546875l3.59375 5.125l-2.015625 0l-1.984375 -3.0l-0.515625 -0.8125l-2.546875 3.8125l-1.984375 0zm9.8125 -4.84375q0 -2.6875 1.484375 -3.96875q1.25 -1.078125 3.046875 -1.078125q2.0 0 3.265625 1.3125q1.265625 1.296875 1.265625 3.609375q0 1.859375 -0.5625 2.9375q-0.5625 1.0625 -1.640625 1.65625q-1.0625 0.59375 -2.328125 0.59375q-2.03125 0 -3.28125 -1.296875q-1.25 -1.3125 -1.25 -3.765625zm1.6875 0q0 1.859375 0.796875 2.796875q0.8125 0.921875 2.046875 0.921875q1.21875 0 2.03125 -0.921875q0.8125 -0.9375 0.8125 -2.84375q0 -1.796875 -0.8125 -2.71875q-0.8125 -0.921875 -2.03125 -0.921875q-1.234375 0 -2.046875 0.921875q-0.796875 0.90625 -0.796875 2.765625zm9.297607 4.84375l0 -9.671875l1.46875 0l0 1.375q1.0625 -1.59375 3.078125 -1.59375q0.875 0 1.609375 0.3125q0.734375 0.3125 1.09375 0.828125q0.375 0.5 0.515625 1.203125q0.09375 0.453125 0.09375 1.59375l0 5.953125l-1.640625 0l0 -5.890625q0 -1.0 -0.203125 -1.484375q-0.1875 -0.5 -0.671875 -0.796875q-0.484375 -0.296875 -1.140625 -0.296875q-1.046875 0 -1.8125 0.671875q-0.75 0.65625 -0.75 2.515625l0 5.28125l-1.640625 0z" fill-rule="nonzero"/><path fill="#000000" fill-opacity="0.0" d="m195.19029 113.82809l70.20473 0l0 42.01574l-70.20473 0z" fill-rule="evenodd"/><path fill="#3d85c6" d="m211.73717 139.56058q-0.921875 0.765625 -1.765625 1.09375q-0.828125 0.3125 -1.796875 0.3125q-1.59375 0 -2.453125 -0.78125q-0.859375 -0.78125 -0.859375 -1.984375q0 -0.71875 0.328125 -1.296875q0.328125 -0.59375 0.84375 -0.9375q0.53125 -0.359375 1.1875 -0.546875q0.46875 -0.125 1.453125 -0.25q1.984375 -0.234375 2.921875 -0.5625q0.015625 -0.34375 0.015625 -0.421875q0 -1.0 -0.46875 -1.421875q-0.625 -0.546875 -1.875 -0.546875q-1.15625 0 -1.703125 0.40625q-0.546875 0.40625 -0.8125 1.421875l-1.609375 -0.21875q0.21875 -1.015625 0.71875 -1.640625q0.5 -0.640625 1.453125 -0.984375q0.953125 -0.34375 2.1875 -0.34375q1.25 0 2.015625 0.296875q0.78125 0.28125 1.140625 0.734375q0.375 0.4375 0.515625 1.109375q0.078125 0.421875 0.078125 1.515625l0 2.1875q0 2.28125 0.109375 2.890625q0.109375 0.59375 0.40625 1.15625l-1.703125 0q-0.265625 -0.515625 -0.328125 -1.1875zm-0.140625 -3.671875q-0.890625 0.375 -2.671875 0.625q-1.015625 0.140625 -1.4375 0.328125q-0.421875 0.1875 -0.65625 0.53125q-0.21875 0.34375 -0.21875 0.78125q0 0.65625 0.5 1.09375q0.5 0.4375 1.453125 0.4375q0.9375 0 1.671875 -0.40625q0.75 -0.421875 1.09375 -1.140625q0.265625 -0.5625 0.265625 -1.640625l0 -0.609375zm3.1100922 4.859375l3.53125 -5.03125l-3.265625 -4.640625l2.046875 0l1.484375 2.265625q0.421875 0.640625 0.671875 1.078125q0.40625 -0.59375 0.734375 -1.0625l1.640625 -2.28125l1.953125 0l-3.34375 4.546875l3.59375 5.125l-2.015625 0l-1.984375 -3.0l-0.515625 -0.8125l-2.546875 3.8125l-1.984375 0zm9.8125 -4.84375q0 -2.6875 1.484375 -3.96875q1.25 -1.078125 3.046875 -1.078125q2.0 0 3.265625 1.3125q1.265625 1.296875 1.265625 3.609375q0 1.859375 -0.5625 2.9375q-0.5625 1.0625 -1.640625 1.65625q-1.0625 0.59375 -2.328125 0.59375q-2.03125 0 -3.28125 -1.296875q-1.25 -1.3125 -1.25 -3.765625zm1.6875 0q0 1.859375 0.796875 2.796875q0.8125 0.921875 2.046875 0.921875q1.21875 0 2.03125 -0.921875q0.8125 -0.9375 0.8125 -2.84375q0 -1.796875 -0.8125 -2.71875q-0.8125 -0.921875 -2.03125 -0.921875q-1.234375 0 -2.046875 0.921875q-0.796875 0.90625 -0.796875 2.765625zm9.297592 4.84375l0 -9.671875l1.46875 0l0 1.375q1.0625 -1.59375 3.078125 -1.59375q0.875 0 1.609375 0.3125q0.734375 0.3125 1.09375 0.828125q0.375 0.5 0.515625 1.203125q0.09375 0.453125 0.09375 1.59375l0 5.953125l-1.640625 0l0 -5.890625q0 -1.0 -0.203125 -1.484375q-0.1875 -0.5 -0.671875 -0.796875q-0.484375 -0.296875 -1.140625 -0.296875q-1.046875 0 -1.8125 0.671875q-0.75 0.65625 -0.75 2.515625l0 5.28125l-1.640625 0z" fill-rule="nonzero"/><path fill="#000000" fill-opacity="0.0" d="m270.0958 113.6168l93.79529 0l0 42.015755l-93.79529 0z" fill-rule="evenodd"/><path fill="#3d85c6" d="m279.67392 137.64616l1.625 -0.25q0.125 0.96875 0.75 1.5q0.625 0.515625 1.75 0.515625q1.125 0 1.671875 -0.453125q0.546875 -0.46875 0.546875 -1.09375q0 -0.546875 -0.484375 -0.875q-0.328125 -0.21875 -1.671875 -0.546875q-1.8125 -0.46875 -2.515625 -0.796875q-0.6875 -0.328125 -1.046875 -0.90625q-0.359375 -0.59375 -0.359375 -1.3125q0 -0.640625 0.296875 -1.1875q0.296875 -0.5625 0.8125 -0.921875q0.375 -0.28125 1.03125 -0.46875q0.671875 -0.203125 1.421875 -0.203125q1.140625 0 2.0 0.328125q0.859375 0.328125 1.265625 0.890625q0.421875 0.5625 0.578125 1.5l-1.609375 0.21875q-0.109375 -0.75 -0.640625 -1.171875q-0.515625 -0.421875 -1.46875 -0.421875q-1.140625 0 -1.625 0.375q-0.46875 0.375 -0.46875 0.875q0 0.3125 0.1875 0.578125q0.203125 0.265625 0.640625 0.4375q0.234375 0.09375 1.4375 0.421875q1.75 0.453125 2.4375 0.75q0.6875 0.296875 1.078125 0.859375q0.390625 0.5625 0.390625 1.40625q0 0.828125 -0.484375 1.546875q-0.46875 0.71875 -1.375 1.125q-0.90625 0.390625 -2.046875 0.390625q-1.875 0 -2.875 -0.78125q-0.984375 -0.78125 -1.25 -2.328125zm9.90625 6.609375l-0.1875 -1.53125q0.546875 0.140625 0.9375 0.140625q0.546875 0 0.875 -0.1875q0.328125 -0.171875 0.546875 -0.5q0.15625 -0.25 0.5 -1.21875q0.046875 -0.140625 0.140625 -0.40625l-3.671875 -9.6875l1.765625 0l2.015625 5.59375q0.390625 1.078125 0.703125 2.25q0.28125 -1.125 0.671875 -2.203125l2.078125 -5.640625l1.640625 0l-3.6875 9.828125q-0.59375 1.609375 -0.921875 2.203125q-0.4375 0.8125 -1.0 1.1875q-0.5625 0.375 -1.34375 0.375q-0.484375 0 -1.0625 -0.203125zm9.40625 -3.71875l0 -9.671875l1.46875 0l0 1.375q1.0625 -1.59375 3.078125 -1.59375q0.875 0 1.609375 0.3125q0.734375 0.3125 1.09375 0.828125q0.375 0.5 0.515625 1.203125q0.09375 0.453125 0.09375 1.59375l0 5.953125l-1.640625 0l0 -5.890625q0 -1.0 -0.203125 -1.484375q-0.1875 -0.5 -0.671875 -0.796875q-0.484375 -0.296875 -1.140625 -0.296875q-1.046875 0 -1.8125 0.671875q-0.75 0.65625 -0.75 2.515625l0 5.28125l-1.640625 0zm16.688232 -1.1875q-0.921875 0.765625 -1.765625 1.09375q-0.828125 0.3125 -1.796875 0.3125q-1.59375 0 -2.453125 -0.78125q-0.859375 -0.78125 -0.859375 -1.984375q0 -0.71875 0.328125 -1.296875q0.328125 -0.59375 0.84375 -0.9375q0.53125 -0.359375 1.1875 -0.546875q0.46875 -0.125 1.453125 -0.25q1.984375 -0.234375 2.921875 -0.5625q0.015625 -0.34375 0.015625 -0.421875q0 -1.0 -0.46875 -1.421875q-0.625 -0.546875 -1.875 -0.546875q-1.15625 0 -1.703125 0.40625q-0.546875 0.40625 -0.8125 1.421875l-1.609375 -0.21875q0.21875 -1.015625 0.71875 -1.640625q0.5 -0.640625 1.453125 -0.984375q0.953125 -0.34375 2.1875 -0.34375q1.25 0 2.015625 0.296875q0.78125 0.28125 1.140625 0.734375q0.375 0.4375 0.515625 1.109375q0.078125 0.421875 0.078125 1.515625l0 2.1875q0 2.28125 0.109375 2.890625q0.109375 0.59375 0.40625 1.15625l-1.703125 0q-0.265625 -0.515625 -0.328125 -1.1875zm-0.140625 -3.671875q-0.890625 0.375 -2.671875 0.625q-1.015625 0.140625 -1.4375 0.328125q-0.421875 0.1875 -0.65625 0.53125q-0.21875 0.34375 -0.21875 0.78125q0 0.65625 0.5 1.09375q0.5 0.4375 1.453125 0.4375q0.9375 0 1.671875 -0.40625q0.75 -0.421875 1.09375 -1.140625q0.265625 -0.5625 0.265625 -1.640625l0 -0.609375zm4.203827 8.5625l0 -13.375l1.484375 0l0 1.25q0.53125 -0.734375 1.1875 -1.09375q0.671875 -0.375 1.625 -0.375q1.234375 0 2.171875 0.640625q0.953125 0.625 1.4375 1.796875q0.484375 1.15625 0.484375 2.546875q0 1.484375 -0.53125 2.671875q-0.53125 1.1875 -1.546875 1.828125q-1.015625 0.625 -2.140625 0.625q-0.8125 0 -1.46875 -0.34375q-0.65625 -0.34375 -1.0625 -0.875l0 4.703125l-1.640625 0zm1.484375 -8.484375q0 1.859375 0.75 2.765625q0.765625 0.890625 1.828125 0.890625q1.09375 0 1.875 -0.921875q0.78125 -0.9375 0.78125 -2.875q0 -1.84375 -0.765625 -2.765625q-0.75 -0.921875 -1.8125 -0.921875q-1.046875 0 -1.859375 0.984375q-0.796875 0.96875 -0.796875 2.84375zm8.235107 1.890625l1.625 -0.25q0.125 0.96875 0.75 1.5q0.625 0.515625 1.75 0.515625q1.125 0 1.671875 -0.453125q0.546875 -0.46875 0.546875 -1.09375q0 -0.546875 -0.484375 -0.875q-0.328125 -0.21875 -1.671875 -0.546875q-1.8125 -0.46875 -2.515625 -0.796875q-0.6875 -0.328125 -1.046875 -0.90625q-0.359375 -0.59375 -0.359375 -1.3125q0 -0.640625 0.296875 -1.1875q0.296875 -0.5625 0.8125 -0.921875q0.375 -0.28125 1.03125 -0.46875q0.671875 -0.203125 1.421875 -0.203125q1.140625 0 2.0 0.328125q0.859375 0.328125 1.265625 0.890625q0.421875 0.5625 0.578125 1.5l-1.609375 0.21875q-0.109375 -0.75 -0.640625 -1.171875q-0.515625 -0.421875 -1.46875 -0.421875q-1.140625 0 -1.625 0.375q-0.46875 0.375 -0.46875 0.875q0 0.3125 0.1875 0.578125q0.203125 0.265625 0.640625 0.4375q0.234375 0.09375 1.4375 0.421875q1.75 0.453125 2.4375 0.75q0.6875 0.296875 1.078125 0.859375q0.390625 0.5625 0.390625 1.40625q0 0.828125 -0.484375 1.546875q-0.46875 0.71875 -1.375 1.125q-0.90625 0.390625 -2.046875 0.390625q-1.875 0 -2.875 -0.78125q-0.984375 -0.78125 -1.25 -2.328125zm16.609375 -0.21875l1.6875 0.203125q-0.40625 1.484375 -1.484375 2.3125q-1.078125 0.8125 -2.765625 0.8125q-2.125 0 -3.375 -1.296875q-1.234375 -1.3125 -1.234375 -3.671875q0 -2.453125 1.25 -3.796875q1.265625 -1.34375 3.265625 -1.34375q1.9375 0 3.15625 1.328125q1.234375 1.3125 1.234375 3.703125q0 0.15625 0 0.4375l-7.21875 0q0.09375 1.59375 0.90625 2.453125q0.8125 0.84375 2.015625 0.84375q0.90625 0 1.546875 -0.46875q0.640625 -0.484375 1.015625 -1.515625zm-5.390625 -2.65625l5.40625 0q-0.109375 -1.21875 -0.625 -1.828125q-0.78125 -0.953125 -2.03125 -0.953125q-1.125 0 -1.90625 0.765625q-0.765625 0.75 -0.84375 2.015625z" fill-rule="nonzero"/><path fill="#000000" fill-opacity="0.0" d="m366.52362 113.8294l118.74017 0l0 42.01574l-118.74017 0z" fill-rule="evenodd"/><path fill="#3d85c6" d="m383.02362 140.74939l0 -1.21875q-0.90625 1.4375 -2.703125 1.4375q-1.15625 0 -2.125 -0.640625q-0.96875 -0.640625 -1.5 -1.78125q-0.53125 -1.140625 -0.53125 -2.625q0 -1.453125 0.484375 -2.625q0.484375 -1.1875 1.4375 -1.8125q0.96875 -0.625 2.171875 -0.625q0.875 0 1.546875 0.375q0.6875 0.359375 1.109375 0.953125l0 -4.7968674l1.640625 0l0 13.359367l-1.53125 0zm-5.171875 -4.828125q0 1.859375 0.78125 2.78125q0.78125 0.921875 1.84375 0.921875q1.078125 0 1.828125 -0.875q0.75 -0.890625 0.75 -2.6875q0 -1.984375 -0.765625 -2.90625q-0.765625 -0.9375 -1.890625 -0.9375q-1.078125 0 -1.8125 0.890625q-0.734375 0.890625 -0.734375 2.8125zm15.906982 1.71875l1.6875 0.203125q-0.40625 1.484375 -1.484375 2.3125q-1.078125 0.8125 -2.765625 0.8125q-2.125 0 -3.375 -1.296875q-1.234375 -1.3125 -1.234375 -3.671875q0 -2.453125 1.25 -3.796875q1.265625 -1.34375 3.265625 -1.34375q1.9375 0 3.15625 1.328125q1.234375 1.3125 1.234375 3.703125q0 0.15625 0 0.4375l-7.21875 0q0.09375 1.59375 0.90625 2.453125q0.8125 0.84375 2.015625 0.84375q0.90625 0 1.546875 -0.46875q0.640625 -0.484375 1.015625 -1.515625zm-5.390625 -2.65625l5.40625 0q-0.109375 -1.21875 -0.625 -1.828125q-0.78125 -0.953125 -2.03125 -0.953125q-1.125 0 -1.90625 0.765625q-0.765625 0.75 -0.84375 2.015625zm9.141327 5.765625l0 -9.671875l1.46875 0l0 1.375q1.0625 -1.59375 3.078125 -1.59375q0.875 0 1.609375 0.3125q0.734375 0.3125 1.09375 0.828125q0.375 0.5 0.515625 1.203125q0.09375 0.453125 0.09375 1.59375l0 5.953125l-1.640625 0l0 -5.890625q0 -1.0 -0.203125 -1.484375q-0.1875 -0.5 -0.671875 -0.796875q-0.484375 -0.296875 -1.140625 -0.296875q-1.046875 0 -1.8125 0.671875q-0.75 0.65625 -0.75 2.515625l0 5.28125l-1.640625 0zm16.641357 0l0 -1.21875q-0.90625 1.4375 -2.703125 1.4375q-1.15625 0 -2.125 -0.640625q-0.96875 -0.640625 -1.5 -1.78125q-0.53125 -1.140625 -0.53125 -2.625q0 -1.453125 0.484375 -2.625q0.484375 -1.1875 1.4375 -1.8125q0.96875 -0.625 2.171875 -0.625q0.875 0 1.546875 0.375q0.6875 0.359375 1.109375 0.953125l0 -4.7968674l1.640625 0l0 13.359367l-1.53125 0zm-5.171875 -4.828125q0 1.859375 0.78125 2.78125q0.78125 0.921875 1.84375 0.921875q1.078125 0 1.828125 -0.875q0.75 -0.890625 0.75 -2.6875q0 -1.984375 -0.765625 -2.90625q-0.765625 -0.9375 -1.890625 -0.9375q-1.078125 0 -1.8125 0.890625q-0.734375 0.890625 -0.734375 2.8125zm9.266327 4.828125l0 -9.671875l1.46875 0l0 1.46875q0.5625 -1.03125 1.03125 -1.359375q0.484375 -0.328125 1.0625 -0.328125q0.828125 0 1.6875 0.53125l-0.5625 1.515625q-0.609375 -0.359375 -1.203125 -0.359375q-0.546875 0 -0.96875 0.328125q-0.421875 0.328125 -0.609375 0.890625q-0.28125 0.875 -0.28125 1.921875l0 5.0625l-1.625 0zm6.228302 -11.46875l0 -1.8906174l1.640625 0l0 1.8906174l-1.640625 0zm0 11.46875l0 -9.671875l1.640625 0l0 9.671875l-1.640625 0zm7.7229614 -1.46875l0.234375 1.453125q-0.6875 0.140625 -1.234375 0.140625q-0.890625 0 -1.390625 -0.28125q-0.484375 -0.28125 -0.6875 -0.734375q-0.203125 -0.46875 -0.203125 -1.9375l0 -5.578125l-1.203125 0l0 -1.265625l1.203125 0l0 -2.390625l1.625 -0.9843674l0 3.3749924l1.65625 0l0 1.265625l-1.65625 0l0 5.671875q0 0.6875 0.078125 0.890625q0.09375 0.203125 0.28125 0.328125q0.203125 0.109375 0.578125 0.109375q0.265625 0 0.71875 -0.0625zm8.230164 -1.640625l1.6875 0.203125q-0.40625 1.484375 -1.484375 2.3125q-1.078125 0.8125 -2.765625 0.8125q-2.125 0 -3.375 -1.296875q-1.234375 -1.3125 -1.234375 -3.671875q0 -2.453125 1.25 -3.796875q1.265625 -1.34375 3.265625 -1.34375q1.9375 0 3.15625 1.328125q1.234375 1.3125 1.234375 3.703125q0 0.15625 0 0.4375l-7.21875 0q0.09375 1.59375 0.90625 2.453125q0.8125 0.84375 2.015625 0.84375q0.90625 0 1.546875 -0.46875q0.640625 -0.484375 1.015625 -1.515625zm-5.390625 -2.65625l5.40625 0q-0.109375 -1.21875 -0.625 -1.828125q-0.78125 -0.953125 -2.03125 -0.953125q-1.125 0 -1.90625 0.765625q-0.765625 0.75 -0.84375 2.015625zm8.485107 2.875l1.625 -0.25q0.125 0.96875 0.75 1.5q0.625 0.515625 1.75 0.515625q1.125 0 1.671875 -0.453125q0.546875 -0.46875 0.546875 -1.09375q0 -0.546875 -0.484375 -0.875q-0.328125 -0.21875 -1.671875 -0.546875q-1.8125 -0.46875 -2.515625 -0.796875q-0.6875 -0.328125 -1.046875 -0.90625q-0.359375 -0.59375 -0.359375 -1.3125q0 -0.640625 0.296875 -1.1875q0.296875 -0.5625 0.8125 -0.921875q0.375 -0.28125 1.03125 -0.46875q0.671875 -0.203125 1.421875 -0.203125q1.140625 0 2.0 0.328125q0.859375 0.328125 1.265625 0.890625q0.421875 0.5625 0.578125 1.5l-1.609375 0.21875q-0.109375 -0.75 -0.640625 -1.171875q-0.515625 -0.421875 -1.46875 -0.421875q-1.140625 0 -1.625 0.375q-0.46875 0.375 -0.46875 0.875q0 0.3125 0.1875 0.578125q0.203125 0.265625 0.640625 0.4375q0.234375 0.09375 1.4375 0.421875q1.75 0.453125 2.4375 0.75q0.6875 0.296875 1.078125 0.859375q0.390625 0.5625 0.390625 1.40625q0 0.828125 -0.484375 1.546875q-0.46875 0.71875 -1.375 1.125q-0.90625 0.390625 -2.046875 0.390625q-1.875 0 -2.875 -0.78125q-0.984375 -0.78125 -1.25 -2.328125z" fill-rule="nonzero"/><path fill="#cfe2f3" d="m311.68634 310.42783l0 0c0 -2.7657776 2.376068 -5.0078735 5.3070984 -5.0078735l0 0c1.4075317 0 2.7574158 0.5276184 3.7526855 1.4667664c0.9952698 0.93914795 1.5544128 2.2129211 1.5544128 3.5411072l0 0c0 2.7657776 -2.376068 5.0078735 -5.3070984 5.0078735l0 0c-2.9310303 0 -5.3070984 -2.242096 -5.3070984 -5.0078735z" fill-rule="evenodd"/><path stroke="#000000" stroke-width="1.0" stroke-linejoin="round" stroke-linecap="butt" d="m311.68634 310.42783l0 0c0 -2.7657776 2.376068 -5.0078735 5.3070984 -5.0078735l0 0c1.4075317 0 2.7574158 0.5276184 3.7526855 1.4667664c0.9952698 0.93914795 1.5544128 2.2129211 1.5544128 3.5411072l0 0c0 2.7657776 -2.376068 5.0078735 -5.3070984 5.0078735l0 0c-2.9310303 0 -5.3070984 -2.242096 -5.3070984 -5.0078735z" fill-rule="evenodd"/><path fill="#cfe2f3" d="m311.68634 409.87402l0 0c0 -2.7657776 2.376068 -5.0078735 5.3070984 -5.0078735l0 0c1.4075317 0 2.7574158 0.5276184 3.7526855 1.4667664c0.9952698 0.93914795 1.5544128 2.2129211 1.5544128 3.5411072l0 0c0 2.7657776 -2.376068 5.0078735 -5.3070984 5.0078735l0 0c-2.9310303 0 -5.3070984 -2.242096 -5.3070984 -5.0078735z" fill-rule="evenodd"/><path stroke="#000000" stroke-width="1.0" stroke-linejoin="round" stroke-linecap="butt" d="m311.68634 409.87402l0 0c0 -2.7657776 2.376068 -5.0078735 5.3070984 -5.0078735l0 0c1.4075317 0 2.7574158 0.5276184 3.7526855 1.4667664c0.9952698 0.93914795 1.5544128 2.2129211 1.5544128 3.5411072l0 0c0 2.7657776 -2.376068 5.0078735 -5.3070984 5.0078735l0 0c-2.9310303 0 -5.3070984 -2.242096 -5.3070984 -5.0078735z" fill-rule="evenodd"/><path fill="#000000" fill-opacity="0.0" d="m283.26642 156.56693l59.40155 0l0 48.472443l-59.40155 0z" fill-rule="evenodd"/><path fill="#000000" d="m303.0008 184.76318q0 2.5 1.140625 2.5q1.15625 0 1.90625 -1.875q0.765625 -1.890625 0.765625 -4.15625q0 -1.671875 -0.859375 -2.03125q0.828125 -0.625 1.5 -0.625q1.078125 0 1.078125 1.65625q0 2.5 -1.71875 5.65625q-1.53125 2.8125 -3.3125 2.8125q-2.046875 0 -2.046875 -3.140625q0 -0.125 0.078125 -2.40625q-1.375 3.03125 -2.5 4.21875q-1.109375 1.1875 -2.640625 1.1875q0.25 -0.796875 0.25 -1.828125q0 -2.59375 -0.609375 -5.0q-0.59375 -2.40625 -1.53125 -3.4375q0.796875 -0.390625 1.359375 -0.390625q2.0 0 2.546875 8.328125l0 0.265625q1.078125 -1.375 2.109375 -3.328125q1.03125 -1.953125 1.03125 -3.46875l0 -0.171875q0.75 -0.28125 1.203125 -0.28125q0.796875 0 0.796875 0.578125q0 0.140625 -0.15625 0.796875q-0.140625 0.640625 -0.265625 1.75q-0.125 1.09375 -0.125 2.390625z" fill-rule="nonzero"/><path fill="#000000" d="m311.791 186.24756q1.578125 0 2.46875 1.125q1.046875 1.328125 1.046875 4.40625q0 3.0625 -1.0625 4.40625q-0.875 1.109375 -2.453125 1.109375q-1.578125 0 -2.546875 -1.21875q-0.953125 -1.21875 -0.953125 -4.328125q0 -3.046875 1.0625 -4.390625q0.875 -1.109375 2.4375 -1.109375zm0 1.71875q-0.375 0 -0.671875 0.25q-0.28125 0.234375 -0.453125 0.84375q-0.21875 0.8125 -0.21875 2.71875q0 1.890625 0.1875 2.609375q0.203125 0.71875 0.484375 0.953125q0.296875 0.234375 0.671875 0.234375q0.375 0 0.671875 -0.234375q0.296875 -0.25 0.46875 -0.875q0.203125 -0.796875 0.203125 -2.6875q0 -1.90625 -0.1875 -2.609375q-0.1875 -0.71875 -0.484375 -0.953125q-0.296875 -0.25 -0.671875 -0.25z" fill-rule="nonzero"/><path fill="#000000" fill-opacity="0.0" d="m173.97244 175.89764l59.401566 0l0 46.866135l-59.401566 0z" fill-rule="evenodd"/><path fill="#000000" d="m194.58182 195.29826q0 -0.25 0.5 -0.5625q0.515625 -0.3125 0.84375 -0.3125q0.5 0 0.6875 0.265625q0.203125 0.265625 0.203125 0.796875q0 0.234375 -0.046875 0.40625q-0.046875 0.171875 -0.34375 0.5625q-0.296875 0.375 -0.859375 0.828125q-0.546875 0.4375 -1.65625 1.1875q-1.09375 0.75 -2.65625 1.671875l0.3125 3.375q0.1875 2.15625 1.1875 2.15625q1.203125 -0.875 1.5625 -0.875q0.15625 0 0.171875 0.0625q-0.171875 0.765625 -1.078125 1.28125q-0.90625 0.515625 -1.859375 0.515625q-0.78125 0 -1.109375 -0.609375q-0.3125 -0.609375 -0.421875 -1.734375l-0.296875 -3.265625q-2.359375 1.390625 -3.4375 2.125q-1.0625 0.71875 -1.28125 1.015625q-0.21875 0.296875 -0.21875 0.703125q0 0.78125 0.53125 0.78125q0.171875 0 0.171875 0.109375q0 0.234375 -0.53125 0.5625q-0.53125 0.3125 -0.828125 0.3125q-0.875 0 -0.875 -0.984375q0 -0.359375 0.15625 -0.65625q0.15625 -0.296875 0.734375 -0.875q0.578125 -0.578125 1.953125 -1.484375q1.375 -0.921875 3.578125 -2.21875l-0.28125 -2.859375q-0.203125 -2.171875 -1.171875 -2.171875l-0.75 0.5625q-0.484375 0.3125 -0.84375 0.3125q-0.15625 0 -0.15625 -0.140625q0 -0.515625 0.90625 -1.109375q0.90625 -0.609375 2.03125 -0.609375q0.546875 0 0.859375 0.34375q0.328125 0.34375 0.453125 0.796875q0.125 0.453125 0.203125 1.203125l0.28125 2.765625q1.484375 -0.890625 2.3125 -1.4375q0.828125 -0.546875 1.21875 -0.90625q0.390625 -0.359375 0.46875 -0.53125q0.078125 -0.171875 0.078125 -0.46875q0 -0.78125 -0.5625 -0.78125q-0.140625 0 -0.140625 -0.109375z" fill-rule="nonzero"/><path fill="#000000" d="m200.0232 204.29826q1.578125 0 2.46875 1.125q1.046875 1.328125 1.046875 4.40625q0 3.0625 -1.0625 4.40625q-0.875 1.109375 -2.453125 1.109375q-1.578125 0 -2.546875 -1.21875q-0.953125 -1.21875 -0.953125 -4.328125q0 -3.046875 1.0625 -4.390625q0.875 -1.109375 2.4375 -1.109375zm0 1.71875q-0.375 0 -0.671875 0.25q-0.28125 0.234375 -0.453125 0.84375q-0.21875 0.8125 -0.21875 2.71875q0 1.890625 0.1875 2.609375q0.203125 0.71875 0.484375 0.953125q0.296875 0.234375 0.671875 0.234375q0.375 0 0.671875 -0.234375q0.296875 -0.25 0.46875 -0.875q0.203125 -0.796875 0.203125 -2.6875q0 -1.90625 -0.1875 -2.609375q-0.1875 -0.71875 -0.484375 -0.953125q-0.296875 -0.25 -0.671875 -0.25z" fill-rule="nonzero"/><path fill="#000000" fill-opacity="0.0" d="m230.89896 310.17584l80.787384 0.25198364" fill-rule="evenodd"/><path stroke="#000000" stroke-width="1.0" stroke-linejoin="round" stroke-linecap="butt" d="m230.89896 310.17584l74.787415 0.23324585" fill-rule="evenodd"/><path fill="#000000" stroke="#000000" stroke-width="1.0" stroke-linecap="butt" d="m305.68124 312.06082l4.543213 -1.6375732l-4.5329285 -1.665863z" fill-rule="evenodd"/><path fill="#000000" fill-opacity="0.0" d="m232.72572 409.87402l78.96062 0" fill-rule="evenodd"/><path stroke="#000000" stroke-width="1.0" stroke-linejoin="round" stroke-linecap="butt" d="m232.72572 409.87402l72.96062 0" fill-rule="evenodd"/><path fill="#000000" stroke="#000000" stroke-width="1.0" stroke-linecap="butt" d="m305.68634 411.52576l4.5381165 -1.6517334l-4.5381165 -1.6517334z" fill-rule="evenodd"/><path fill="#000000" fill-opacity="0.0" d="m712.97766 312.8937l31.307129 0l0 35.55905l-31.307129 0z" fill-rule="evenodd"/><path fill="#000000" d="m724.08704 326.49057l0.28125 -1.34375l1.171875 0l-0.28125 1.34375l-1.171875 0zm-1.71875 8.203125l1.453125 -6.90625l1.171875 0l-1.4375 6.90625l-1.1875 0z" fill-rule="nonzero"/><path fill="#000000" fill-opacity="0.0" d="m711.34515 263.78873l31.307068 0l0 35.55905l-31.307068 0z" fill-rule="evenodd"/><path fill="#000000" d="m721.1264 285.5887q0.1875 -0.859375 0.5 -1.421875q0.328125 -0.578125 0.859375 -1.09375q0.53125 -0.53125 2.0625 -1.734375q0.921875 -0.734375 1.25 -1.09375q0.5 -0.5 0.71875 -1.0q0.140625 -0.328125 0.140625 -0.71875q0 -0.65625 -0.46875 -1.109375q-0.453125 -0.46875 -1.125 -0.46875q-0.671875 0 -1.171875 0.46875q-0.5 0.46875 -0.71875 1.5l-1.15625 -0.171875q0.171875 -1.265625 0.984375 -2.0q0.8125 -0.734375 2.03125 -0.734375q0.8125 0 1.46875 0.34375q0.671875 0.328125 1.0 0.953125q0.328125 0.609375 0.328125 1.25q0 0.953125 -0.671875 1.828125q-0.421875 0.546875 -2.453125 2.15625q-0.859375 0.6875 -1.296875 1.140625q-0.421875 0.4375 -0.640625 0.828125l4.28125 0l-0.234375 1.078125l-5.6875 0z" fill-rule="nonzero"/><path fill="#000000" fill-opacity="0.0" d="m674.1991 346.19553l191.62207 0l0 42.015747l-191.62207 0z" fill-rule="evenodd"/><path fill="#000000" d="m690.746 371.92804q-0.921875 0.765625 -1.765625 1.09375q-0.828125 0.3125 -1.796875 0.3125q-1.59375 0 -2.453125 -0.78125q-0.859375 -0.78125 -0.859375 -1.984375q0 -0.71875 0.328125 -1.296875q0.328125 -0.59375 0.84375 -0.9375q0.53125 -0.359375 1.1875 -0.546875q0.46875 -0.125 1.453125 -0.25q1.984375 -0.234375 2.921875 -0.5625q0.015625 -0.34375 0.015625 -0.421875q0 -1.0 -0.46875 -1.421875q-0.625 -0.546875 -1.875 -0.546875q-1.15625 0 -1.703125 0.40625q-0.546875 0.40625 -0.8125 1.421875l-1.609375 -0.21875q0.21875 -1.015625 0.71875 -1.640625q0.5 -0.640625 1.453125 -0.984375q0.953125 -0.34375 2.1875 -0.34375q1.25 0 2.015625 0.296875q0.78125 0.28125 1.140625 0.734375q0.375 0.4375 0.515625 1.109375q0.078125 0.421875 0.078125 1.515625l0 2.1875q0 2.28125 0.109375 2.890625q0.109375 0.59375 0.40625 1.15625l-1.703125 0q-0.265625 -0.515625 -0.328125 -1.1875zm-0.140625 -3.671875q-0.890625 0.375 -2.671875 0.625q-1.015625 0.140625 -1.4375 0.328125q-0.421875 0.1875 -0.65625 0.53125q-0.21875 0.34375 -0.21875 0.78125q0 0.65625 0.5 1.09375q0.5 0.4375 1.453125 0.4375q0.9375 0 1.671875 -0.40625q0.75 -0.421875 1.09375 -1.140625q0.265625 -0.5625 0.265625 -1.640625l0 -0.609375zm10.516357 1.3125l1.609375 0.21875q-0.265625 1.65625 -1.359375 2.609375q-1.078125 0.9375 -2.671875 0.9375q-1.984375 0 -3.1875 -1.296875q-1.203125 -1.296875 -1.203125 -3.71875q0 -1.578125 0.515625 -2.75q0.515625 -1.171875 1.578125 -1.75q1.0625 -0.59375 2.3125 -0.59375q1.578125 0 2.578125 0.796875q1.0 0.796875 1.28125 2.265625l-1.59375 0.234375q-0.234375 -0.96875 -0.8125 -1.453125q-0.578125 -0.5 -1.390625 -0.5q-1.234375 0 -2.015625 0.890625q-0.78125 0.890625 -0.78125 2.8125q0 1.953125 0.75 2.84375q0.75 0.875 1.953125 0.875q0.96875 0 1.609375 -0.59375q0.65625 -0.59375 0.828125 -1.828125zm6.59375 2.078125l0.234375 1.453125q-0.6875 0.140625 -1.234375 0.140625q-0.890625 0 -1.390625 -0.28125q-0.484375 -0.28125 -0.6875 -0.734375q-0.203125 -0.46875 -0.203125 -1.9375l0 -5.578125l-1.203125 0l0 -1.265625l1.203125 0l0 -2.390625l1.625 -0.984375l0 3.375l1.65625 0l0 1.265625l-1.65625 0l0 5.671875q0 0.6875 0.078125 0.890625q0.09375 0.203125 0.28125 0.328125q0.203125 0.109375 0.578125 0.109375q0.265625 0 0.71875 -0.0625zm1.6051636 -10.0l0 -1.890625l1.640625 0l0 1.890625l-1.640625 0zm0 11.46875l0 -9.671875l1.640625 0l0 9.671875l-1.640625 0zm6.8323364 0l-3.6875 -9.671875l1.734375 0l2.078125 5.796875q0.328125 0.9375 0.625 1.9375q0.203125 -0.765625 0.609375 -1.828125l2.140625 -5.90625l1.6875 0l-3.65625 9.671875l-1.53125 0zm12.953125 -1.1875q-0.921875 0.765625 -1.765625 1.09375q-0.828125 0.3125 -1.796875 0.3125q-1.59375 0 -2.453125 -0.78125q-0.859375 -0.78125 -0.859375 -1.984375q0 -0.71875 0.328125 -1.296875q0.328125 -0.59375 0.84375 -0.9375q0.53125 -0.359375 1.1875 -0.546875q0.46875 -0.125 1.453125 -0.25q1.984375 -0.234375 2.921875 -0.5625q0.015625 -0.34375 0.015625 -0.421875q0 -1.0 -0.46875 -1.421875q-0.625 -0.546875 -1.875 -0.546875q-1.15625 0 -1.703125 0.40625q-0.546875 0.40625 -0.8125 1.421875l-1.609375 -0.21875q0.21875 -1.015625 0.71875 -1.640625q0.5 -0.640625 1.453125 -0.984375q0.953125 -0.34375 2.1875 -0.34375q1.25 0 2.015625 0.296875q0.78125 0.28125 1.140625 0.734375q0.375 0.4375 0.515625 1.109375q0.078125 0.421875 0.078125 1.515625l0 2.1875q0 2.28125 0.109375 2.890625q0.109375 0.59375 0.40625 1.15625l-1.703125 0q-0.265625 -0.515625 -0.328125 -1.1875zm-0.140625 -3.671875q-0.890625 0.375 -2.671875 0.625q-1.015625 0.140625 -1.4375 0.328125q-0.421875 0.1875 -0.65625 0.53125q-0.21875 0.34375 -0.21875 0.78125q0 0.65625 0.5 1.09375q0.5 0.4375 1.453125 0.4375q0.9375 0 1.671875 -0.40625q0.75 -0.421875 1.09375 -1.140625q0.265625 -0.5625 0.265625 -1.640625l0 -0.609375zm7.7819824 3.390625l0.234375 1.453125q-0.6875 0.140625 -1.234375 0.140625q-0.890625 0 -1.390625 -0.28125q-0.484375 -0.28125 -0.6875 -0.734375q-0.203125 -0.46875 -0.203125 -1.9375l0 -5.578125l-1.203125 0l0 -1.265625l1.203125 0l0 -2.390625l1.625 -0.984375l0 3.375l1.65625 0l0 1.265625l-1.65625 0l0 5.671875q0 0.6875 0.078125 0.890625q0.09375 0.203125 0.28125 0.328125q0.203125 0.109375 0.578125 0.109375q0.265625 0 0.71875 -0.0625zm1.6051636 -10.0l0 -1.890625l1.640625 0l0 1.890625l-1.640625 0zm0 11.46875l0 -9.671875l1.640625 0l0 9.671875l-1.640625 0zm3.5354614 -4.84375q0 -2.6875 1.484375 -3.96875q1.25 -1.078125 3.046875 -1.078125q2.0 0 3.265625 1.3125q1.265625 1.296875 1.265625 3.609375q0 1.859375 -0.5625 2.9375q-0.5625 1.0625 -1.640625 1.65625q-1.0625 0.59375 -2.328125 0.59375q-2.03125 0 -3.28125 -1.296875q-1.25 -1.3125 -1.25 -3.765625zm1.6875 0q0 1.859375 0.796875 2.796875q0.8125 0.921875 2.046875 0.921875q1.21875 0 2.03125 -0.921875q0.8125 -0.9375 0.8125 -2.84375q0 -1.796875 -0.8125 -2.71875q-0.8125 -0.921875 -2.03125 -0.921875q-1.234375 0 -2.046875 0.921875q-0.796875 0.90625 -0.796875 2.765625zm9.297607 4.84375l0 -9.671875l1.46875 0l0 1.375q1.0625 -1.59375 3.078125 -1.59375q0.875 0 1.609375 0.3125q0.734375 0.3125 1.09375 0.828125q0.375 0.5 0.515625 1.203125q0.09375 0.453125 0.09375 1.59375l0 5.953125l-1.640625 0l0 -5.890625q0 -1.0 -0.203125 -1.484375q-0.1875 -0.5 -0.671875 -0.796875q-0.484375 -0.296875 -1.140625 -0.296875q-1.046875 0 -1.8125 0.671875q-0.75 0.65625 -0.75 2.515625l0 5.28125l-1.640625 0zm15.949646 0l0 -8.40625l-1.453125 0l0 -1.265625l1.453125 0l0 -1.03125q0 -0.96875 0.171875 -1.453125q0.234375 -0.640625 0.828125 -1.03125q0.59375 -0.390625 1.671875 -0.390625q0.6875 0 1.53125 0.15625l-0.25 1.4375q-0.5 -0.09375 -0.953125 -0.09375q-0.75 0 -1.0625 0.328125q-0.3125 0.3125 -0.3125 1.1875l0 0.890625l1.890625 0l0 1.265625l-1.890625 0l0 8.40625l-1.625 0zm11.120789 0l0 -1.421875q-1.125 1.640625 -3.0625 1.640625q-0.859375 0 -1.609375 -0.328125q-0.734375 -0.328125 -1.09375 -0.828125q-0.359375 -0.5 -0.5 -1.21875q-0.109375 -0.46875 -0.109375 -1.53125l0 -5.984375l1.640625 0l0 5.359375q0 1.28125 0.109375 1.734375q0.15625 0.640625 0.65625 1.015625q0.5 0.375 1.234375 0.375q0.734375 0 1.375 -0.375q0.65625 -0.390625 0.921875 -1.03125q0.265625 -0.65625 0.265625 -1.890625l0 -5.1875l1.640625 0l0 9.671875l-1.46875 0zm4.0476074 0l0 -9.671875l1.46875 0l0 1.375q1.0625 -1.59375 3.078125 -1.59375q0.875 0 1.609375 0.3125q0.734375 0.3125 1.09375 0.828125q0.375 0.5 0.515625 1.203125q0.09375 0.453125 0.09375 1.59375l0 5.953125l-1.640625 0l0 -5.890625q0 -1.0 -0.203125 -1.484375q-0.1875 -0.5 -0.671875 -0.796875q-0.484375 -0.296875 -1.140625 -0.296875q-1.046875 0 -1.8125 0.671875q-0.75 0.65625 -0.75 2.515625l0 5.28125l-1.640625 0zm16.688171 -3.546875l1.609375 0.21875q-0.265625 1.65625 -1.359375 2.609375q-1.078125 0.9375 -2.671875 0.9375q-1.984375 0 -3.1875 -1.296875q-1.203125 -1.296875 -1.203125 -3.71875q0 -1.578125 0.515625 -2.75q0.515625 -1.171875 1.578125 -1.75q1.0625 -0.59375 2.3125 -0.59375q1.578125 0 2.578125 0.796875q1.0 0.796875 1.28125 2.265625l-1.59375 0.234375q-0.234375 -0.96875 -0.8125 -1.453125q-0.578125 -0.5 -1.390625 -0.5q-1.234375 0 -2.015625 0.890625q-0.78125 0.890625 -0.78125 2.8125q0 1.953125 0.75 2.84375q0.75 0.875 1.953125 0.875q0.96875 0 1.609375 -0.59375q0.65625 -0.59375 0.828125 -1.828125zm6.59375 2.078125l0.234375 1.453125q-0.6875 0.140625 -1.234375 0.140625q-0.890625 0 -1.390625 -0.28125q-0.484375 -0.28125 -0.6875 -0.734375q-0.203125 -0.46875 -0.203125 -1.9375l0 -5.578125l-1.203125 0l0 -1.265625l1.203125 0l0 -2.390625l1.625 -0.984375l0 3.375l1.65625 0l0 1.265625l-1.65625 0l0 5.671875q0 0.6875 0.078125 0.890625q0.09375 0.203125 0.28125 0.328125q0.203125 0.109375 0.578125 0.109375q0.265625 0 0.71875 -0.0625zm1.6052246 -10.0l0 -1.890625l1.640625 0l0 1.890625l-1.640625 0zm0 11.46875l0 -9.671875l1.640625 0l0 9.671875l-1.640625 0zm3.5354004 -4.84375q0 -2.6875 1.484375 -3.96875q1.25 -1.078125 3.046875 -1.078125q2.0 0 3.265625 1.3125q1.265625 1.296875 1.265625 3.609375q0 1.859375 -0.5625 2.9375q-0.5625 1.0625 -1.640625 1.65625q-1.0625 0.59375 -2.328125 0.59375q-2.03125 0 -3.28125 -1.296875q-1.25 -1.3125 -1.25 -3.765625zm1.6875 0q0 1.859375 0.796875 2.796875q0.8125 0.921875 2.046875 0.921875q1.21875 0 2.03125 -0.921875q0.8125 -0.9375 0.8125 -2.84375q0 -1.796875 -0.8125 -2.71875q-0.8125 -0.921875 -2.03125 -0.921875q-1.234375 0 -2.046875 0.921875q-0.796875 0.90625 -0.796875 2.765625zm9.297607 4.84375l0 -9.671875l1.46875 0l0 1.375q1.0625 -1.59375 3.078125 -1.59375q0.875 0 1.609375 0.3125q0.734375 0.3125 1.09375 0.828125q0.375 0.5 0.515625 1.203125q0.09375 0.453125 0.09375 1.59375l0 5.953125l-1.640625 0l0 -5.890625q0 -1.0 -0.203125 -1.484375q-0.1875 -0.5 -0.671875 -0.796875q-0.484375 -0.296875 -1.140625 -0.296875q-1.046875 0 -1.8125 0.671875q-0.75 0.65625 -0.75 2.515625l0 5.28125l-1.640625 0z" fill-rule="nonzero"/><path fill="#000000" fill-opacity="0.0" d="m139.40672 442.7638l137.92125 0l0 42.015747l-137.92125 0z" fill-rule="evenodd"/><path fill="#000000" d="m149.6411 458.21503l0 -1.890625l1.640625 0l0 1.890625l-1.640625 0zm0 11.46875l0 -9.671875l1.640625 0l0 9.671875l-1.640625 0zm4.144821 0l0 -9.671875l1.46875 0l0 1.375q1.0625 -1.59375 3.078125 -1.59375q0.875 0 1.609375 0.3125q0.734375 0.3125 1.09375 0.828125q0.375 0.5 0.515625 1.203125q0.09375 0.453125 0.09375 1.59375l0 5.953125l-1.640625 0l0 -5.890625q0 -1.0 -0.203125 -1.484375q-0.1875 -0.5 -0.671875 -0.796875q-0.484375 -0.296875 -1.140625 -0.296875q-1.046875 0 -1.8125 0.671875q-0.75 0.65625 -0.75 2.515625l0 5.28125l-1.640625 0zm10.375717 3.703125l0 -13.375l1.484375 0l0 1.25q0.53125 -0.734375 1.1875 -1.09375q0.671875 -0.375 1.625 -0.375q1.234375 0 2.171875 0.640625q0.953125 0.625 1.4375 1.796875q0.484375 1.15625 0.484375 2.546875q0 1.484375 -0.53125 2.671875q-0.53125 1.1875 -1.546875 1.828125q-1.015625 0.625 -2.140625 0.625q-0.8125 0 -1.46875 -0.34375q-0.65625 -0.34375 -1.0625 -0.875l0 4.703125l-1.640625 0zm1.484375 -8.484375q0 1.859375 0.75 2.765625q0.765625 0.890625 1.828125 0.890625q1.09375 0 1.875 -0.921875q0.78125 -0.9375 0.78125 -2.875q0 -1.84375 -0.765625 -2.765625q-0.75 -0.921875 -1.8125 -0.921875q-1.046875 0 -1.859375 0.984375q-0.796875 0.96875 -0.796875 2.84375zm15.219467 4.78125l0 -1.421875q-1.125 1.640625 -3.0625 1.640625q-0.859375 0 -1.609375 -0.328125q-0.734375 -0.328125 -1.09375 -0.828125q-0.359375 -0.5 -0.5 -1.21875q-0.109375 -0.46875 -0.109375 -1.53125l0 -5.984375l1.640625 0l0 5.359375q0 1.28125 0.109375 1.734375q0.15625 0.640625 0.65625 1.015625q0.5 0.375 1.234375 0.375q0.734375 0 1.375 -0.375q0.65625 -0.390625 0.921875 -1.03125q0.265625 -0.65625 0.265625 -1.890625l0 -5.1875l1.640625 0l0 9.671875l-1.46875 0zm7.625717 -1.46875l0.234375 1.453125q-0.6875 0.140625 -1.234375 0.140625q-0.890625 0 -1.390625 -0.28125q-0.484375 -0.28125 -0.6875 -0.734375q-0.203125 -0.46875 -0.203125 -1.9375l0 -5.578125l-1.203125 0l0 -1.265625l1.203125 0l0 -2.390625l1.625 -0.984375l0 3.375l1.65625 0l0 1.265625l-1.65625 0l0 5.671875q0 0.6875 0.078125 0.890625q0.09375 0.203125 0.28125 0.328125q0.203125 0.109375 0.578125 0.109375q0.265625 0 0.71875 -0.0625zm9.475983 1.46875l-3.6875 -9.671875l1.734375 0l2.078125 5.796875q0.328125 0.9375 0.625 1.9375q0.203125 -0.765625 0.609375 -1.828125l2.140625 -5.90625l1.6875 0l-3.65625 9.671875l-1.53125 0zm12.953125 -1.1875q-0.921875 0.765625 -1.765625 1.09375q-0.828125 0.3125 -1.796875 0.3125q-1.59375 0 -2.453125 -0.78125q-0.859375 -0.78125 -0.859375 -1.984375q0 -0.71875 0.328125 -1.296875q0.328125 -0.59375 0.84375 -0.9375q0.53125 -0.359375 1.1875 -0.546875q0.46875 -0.125 1.453125 -0.25q1.984375 -0.234375 2.921875 -0.5625q0.015625 -0.34375 0.015625 -0.421875q0 -1.0 -0.46875 -1.421875q-0.625 -0.546875 -1.875 -0.546875q-1.15625 0 -1.703125 0.40625q-0.546875 0.40625 -0.8125 1.421875l-1.609375 -0.21875q0.21875 -1.015625 0.71875 -1.640625q0.5 -0.640625 1.453125 -0.984375q0.953125 -0.34375 2.1875 -0.34375q1.25 0 2.015625 0.296875q0.78125 0.28125 1.140625 0.734375q0.375 0.4375 0.515625 1.109375q0.078125 0.421875 0.078125 1.515625l0 2.1875q0 2.28125 0.109375 2.890625q0.109375 0.59375 0.40625 1.15625l-1.703125 0q-0.265625 -0.515625 -0.328125 -1.1875zm-0.140625 -3.671875q-0.890625 0.375 -2.671875 0.625q-1.015625 0.140625 -1.4375 0.328125q-0.421875 0.1875 -0.65625 0.53125q-0.21875 0.34375 -0.21875 0.78125q0 0.65625 0.5 1.09375q0.5 0.4375 1.453125 0.4375q0.9375 0 1.671875 -0.40625q0.75 -0.421875 1.09375 -1.140625q0.265625 -0.5625 0.265625 -1.640625l0 -0.609375zm4.156967 4.859375l0 -13.359375l1.640625 0l0 13.359375l-1.640625 0zm10.519821 0l0 -1.421875q-1.125 1.640625 -3.0625 1.640625q-0.859375 0 -1.609375 -0.328125q-0.734375 -0.328125 -1.09375 -0.828125q-0.359375 -0.5 -0.5 -1.21875q-0.109375 -0.46875 -0.109375 -1.53125l0 -5.984375l1.640625 0l0 5.359375q0 1.28125 0.109375 1.734375q0.15625 0.640625 0.65625 1.015625q0.5 0.375 1.234375 0.375q0.734375 0 1.375 -0.375q0.65625 -0.390625 0.921875 -1.03125q0.265625 -0.65625 0.265625 -1.890625l0 -5.1875l1.640625 0l0 9.671875l-1.46875 0zm10.672592 -3.109375l1.6875 0.203125q-0.40625 1.484375 -1.484375 2.3125q-1.078125 0.8125 -2.765625 0.8125q-2.125 0 -3.375 -1.296875q-1.234375 -1.3125 -1.234375 -3.671875q0 -2.453125 1.25 -3.796875q1.265625 -1.34375 3.265625 -1.34375q1.9375 0 3.15625 1.328125q1.234375 1.3125 1.234375 3.703125q0 0.15625 0 0.4375l-7.21875 0q0.09375 1.59375 0.90625 2.453125q0.8125 0.84375 2.015625 0.84375q0.90625 0 1.546875 -0.46875q0.640625 -0.484375 1.015625 -1.515625zm-5.390625 -2.65625l5.40625 0q-0.109375 -1.21875 -0.625 -1.828125q-0.78125 -0.953125 -2.03125 -0.953125q-1.125 0 -1.90625 0.765625q-0.765625 0.75 -0.84375 2.015625zm8.485092 2.875l1.625 -0.25q0.125 0.96875 0.75 1.5q0.625 0.515625 1.75 0.515625q1.125 0 1.671875 -0.453125q0.546875 -0.46875 0.546875 -1.09375q0 -0.546875 -0.484375 -0.875q-0.328125 -0.21875 -1.671875 -0.546875q-1.8125 -0.46875 -2.515625 -0.796875q-0.6875 -0.328125 -1.046875 -0.90625q-0.359375 -0.59375 -0.359375 -1.3125q0 -0.640625 0.296875 -1.1875q0.296875 -0.5625 0.8125 -0.921875q0.375 -0.28125 1.03125 -0.46875q0.671875 -0.203125 1.421875 -0.203125q1.140625 0 2.0 0.328125q0.859375 0.328125 1.265625 0.890625q0.421875 0.5625 0.578125 1.5l-1.609375 0.21875q-0.109375 -0.75 -0.640625 -1.171875q-0.515625 -0.421875 -1.46875 -0.421875q-1.140625 0 -1.625 0.375q-0.46875 0.375 -0.46875 0.875q0 0.3125 0.1875 0.578125q0.203125 0.265625 0.640625 0.4375q0.234375 0.09375 1.4375 0.421875q1.75 0.453125 2.4375 0.75q0.6875 0.296875 1.078125 0.859375q0.390625 0.5625 0.390625 1.40625q0 0.828125 -0.484375 1.546875q-0.46875 0.71875 -1.375 1.125q-0.90625 0.390625 -2.046875 0.390625q-1.875 0 -2.875 -0.78125q-0.984375 -0.78125 -1.25 -2.328125z" fill-rule="nonzero"/><path fill="#000000" fill-opacity="0.0" d="m171.47638 278.45013l59.40158 0l0 46.86615l-59.40158 0z" fill-rule="evenodd"/><path fill="#000000" d="m192.08575 297.85077q0 -0.25 0.5 -0.5625q0.515625 -0.3125 0.84375 -0.3125q0.5 0 0.6875 0.265625q0.203125 0.265625 0.203125 0.796875q0 0.234375 -0.046875 0.40625q-0.046875 0.171875 -0.34375 0.5625q-0.296875 0.375 -0.859375 0.828125q-0.546875 0.4375 -1.65625 1.1875q-1.09375 0.75 -2.65625 1.671875l0.3125 3.375q0.1875 2.15625 1.1875 2.15625q1.203125 -0.875 1.5625 -0.875q0.15625 0 0.171875 0.0625q-0.171875 0.765625 -1.078125 1.28125q-0.90625 0.515625 -1.859375 0.515625q-0.78125 0 -1.109375 -0.609375q-0.3125 -0.609375 -0.421875 -1.734375l-0.296875 -3.265625q-2.359375 1.390625 -3.4375 2.125q-1.0625 0.71875 -1.28125 1.015625q-0.21875 0.296875 -0.21875 0.703125q0 0.78125 0.53125 0.78125q0.171875 0 0.171875 0.109375q0 0.234375 -0.53125 0.5625q-0.53125 0.3125 -0.828125 0.3125q-0.875 0 -0.875 -0.984375q0 -0.359375 0.15625 -0.65625q0.15625 -0.296875 0.734375 -0.875q0.578125 -0.578125 1.953125 -1.484375q1.375 -0.921875 3.578125 -2.21875l-0.28125 -2.859375q-0.203125 -2.171875 -1.171875 -2.171875l-0.75 0.5625q-0.484375 0.3125 -0.84375 0.3125q-0.15625 0 -0.15625 -0.140625q0 -0.515625 0.90625 -1.109375q0.90625 -0.609375 2.03125 -0.609375q0.546875 0 0.859375 0.34375q0.328125 0.34375 0.453125 0.796875q0.125 0.453125 0.203125 1.203125l0.28125 2.765625q1.484375 -0.890625 2.3125 -1.4375q0.828125 -0.546875 1.21875 -0.90625q0.390625 -0.359375 0.46875 -0.53125q0.078125 -0.171875 0.078125 -0.46875q0 -0.78125 -0.5625 -0.78125q-0.140625 0 -0.140625 -0.109375z" fill-rule="nonzero"/><path fill="#000000" d="m199.33963 317.71014l-2.078125 0l0 -7.8125q-1.140625 1.0625 -2.6875 1.578125l0 -1.890625q0.8125 -0.265625 1.765625 -1.0q0.953125 -0.75 1.3125 -1.734375l1.6875 0l0 10.859375z" fill-rule="nonzero"/><path fill="#000000" fill-opacity="0.0" d="m173.97244 381.00525l59.401566 0l0 46.86615l-59.401566 0z" fill-rule="evenodd"/><path fill="#000000" d="m194.58182 400.40588q0 -0.25 0.5 -0.5625q0.515625 -0.3125 0.84375 -0.3125q0.5 0 0.6875 0.265625q0.203125 0.265625 0.203125 0.796875q0 0.234375 -0.046875 0.40625q-0.046875 0.171875 -0.34375 0.5625q-0.296875 0.375 -0.859375 0.828125q-0.546875 0.4375 -1.65625 1.1875q-1.09375 0.75 -2.65625 1.671875l0.3125 3.375q0.1875 2.15625 1.1875 2.15625q1.203125 -0.875 1.5625 -0.875q0.15625 0 0.171875 0.0625q-0.171875 0.765625 -1.078125 1.28125q-0.90625 0.515625 -1.859375 0.515625q-0.78125 0 -1.109375 -0.609375q-0.3125 -0.609375 -0.421875 -1.734375l-0.296875 -3.265625q-2.359375 1.390625 -3.4375 2.125q-1.0625 0.71875 -1.28125 1.015625q-0.21875 0.296875 -0.21875 0.703125q0 0.78125 0.53125 0.78125q0.171875 0 0.171875 0.109375q0 0.234375 -0.53125 0.5625q-0.53125 0.3125 -0.828125 0.3125q-0.875 0 -0.875 -0.984375q0 -0.359375 0.15625 -0.65625q0.15625 -0.296875 0.734375 -0.875q0.578125 -0.578125 1.953125 -1.484375q1.375 -0.921875 3.578125 -2.21875l-0.28125 -2.859375q-0.203125 -2.171875 -1.171875 -2.171875l-0.75 0.5625q-0.484375 0.3125 -0.84375 0.3125q-0.15625 0 -0.15625 -0.140625q0 -0.515625 0.90625 -1.109375q0.90625 -0.609375 2.03125 -0.609375q0.546875 0 0.859375 0.34375q0.328125 0.34375 0.453125 0.796875q0.125 0.453125 0.203125 1.203125l0.28125 2.765625q1.484375 -0.890625 2.3125 -1.4375q0.828125 -0.546875 1.21875 -0.90625q0.390625 -0.359375 0.46875 -0.53125q0.078125 -0.171875 0.078125 -0.46875q0 -0.78125 -0.5625 -0.78125q-0.140625 0 -0.140625 -0.109375z" fill-rule="nonzero"/><path fill="#000000" d="m203.5232 418.34338l0 1.921875l-7.265625 0q0.125 -1.09375 0.703125 -2.0625q0.59375 -0.984375 2.34375 -2.59375q1.390625 -1.3125 1.71875 -1.78125q0.421875 -0.640625 0.421875 -1.265625q0 -0.6875 -0.375 -1.0625q-0.375 -0.375 -1.03125 -0.375q-0.640625 0 -1.03125 0.390625q-0.375 0.390625 -0.4375 1.296875l-2.0625 -0.203125q0.171875 -1.71875 1.140625 -2.453125q0.984375 -0.75 2.453125 -0.75q1.59375 0 2.5 0.859375q0.921875 0.859375 0.921875 2.15625q0 0.71875 -0.265625 1.390625q-0.25 0.65625 -0.828125 1.375q-0.375 0.484375 -1.359375 1.390625q-0.96875 0.890625 -1.234375 1.1875q-0.265625 0.296875 -0.421875 0.578125l4.109375 0z" fill-rule="nonzero"/><path fill="#000000" fill-opacity="0.0" d="m277.32803 442.7638l89.19687 0l0 42.015747l-89.19687 0z" fill-rule="evenodd"/><path fill="#000000" d="m289.34366 469.68378l-2.96875 -9.671875l1.703125 0l1.53125 5.578125l0.578125 2.078125q0.046875 -0.15625 0.5 -2.0l1.546875 -5.65625l1.6875 0l1.4375 5.609375l0.484375 1.84375l0.5625 -1.859375l1.65625 -5.59375l1.59375 0l-3.03125 9.671875l-1.703125 0l-1.53125 -5.796875l-0.375 -1.640625l-1.953125 7.4375l-1.71875 0zm18.316711 -3.109375l1.6875 0.203125q-0.40625 1.484375 -1.484375 2.3125q-1.078125 0.8125 -2.765625 0.8125q-2.125 0 -3.375 -1.296875q-1.234375 -1.3125 -1.234375 -3.671875q0 -2.453125 1.25 -3.796875q1.265625 -1.34375 3.265625 -1.34375q1.9375 0 3.15625 1.328125q1.234375 1.3125 1.234375 3.703125q0 0.15625 0 0.4375l-7.21875 0q0.09375 1.59375 0.90625 2.453125q0.8125 0.84375 2.015625 0.84375q0.90625 0 1.546875 -0.46875q0.640625 -0.484375 1.015625 -1.515625zm-5.390625 -2.65625l5.40625 0q-0.109375 -1.21875 -0.625 -1.828125q-0.78125 -0.953125 -2.03125 -0.953125q-1.125 0 -1.90625 0.765625q-0.765625 0.75 -0.84375 2.015625zm9.141327 -5.703125l0 -1.890625l1.640625 0l0 1.890625l-1.640625 0zm0 11.46875l0 -9.671875l1.640625 0l0 9.671875l-1.640625 0zm3.8323364 0.796875l1.59375 0.234375q0.109375 0.75 0.5625 1.078125q0.609375 0.453125 1.671875 0.453125q1.140625 0 1.75 -0.453125q0.625 -0.453125 0.84375 -1.265625q0.125 -0.5 0.109375 -2.109375q-1.0625 1.265625 -2.671875 1.265625q-2.0 0 -3.09375 -1.4375q-1.09375 -1.4375 -1.09375 -3.453125q0 -1.390625 0.5 -2.5625q0.515625 -1.171875 1.453125 -1.796875q0.953125 -0.640625 2.25 -0.640625q1.703125 0 2.8125 1.375l0 -1.15625l1.515625 0l0 8.359375q0 2.265625 -0.46875 3.203125q-0.453125 0.9375 -1.453125 1.484375q-0.984375 0.546875 -2.453125 0.546875q-1.71875 0 -2.796875 -0.78125q-1.0625 -0.765625 -1.03125 -2.34375zm1.359375 -5.8125q0 1.90625 0.75 2.78125q0.765625 0.875 1.90625 0.875q1.125 0 1.890625 -0.859375q0.765625 -0.875 0.765625 -2.734375q0 -1.78125 -0.796875 -2.671875q-0.78125 -0.90625 -1.890625 -0.90625q-1.09375 0 -1.859375 0.890625q-0.765625 0.875 -0.765625 2.625zm9.328827 5.015625l0 -13.359375l1.640625 0l0 4.796875q1.140625 -1.328125 2.890625 -1.328125q1.078125 0 1.859375 0.421875q0.796875 0.421875 1.140625 1.171875q0.34375 0.75 0.34375 2.171875l0 6.125l-1.640625 0l0 -6.125q0 -1.234375 -0.53125 -1.796875q-0.53125 -0.5625 -1.515625 -0.5625q-0.71875 0 -1.359375 0.390625q-0.640625 0.375 -0.921875 1.015625q-0.265625 0.640625 -0.265625 1.78125l0 5.296875l-1.640625 0zm13.953857 -1.46875l0.234375 1.453125q-0.6875 0.140625 -1.234375 0.140625q-0.890625 0 -1.390625 -0.28125q-0.484375 -0.28125 -0.6875 -0.734375q-0.203125 -0.46875 -0.203125 -1.9375l0 -5.578125l-1.203125 0l0 -1.265625l1.203125 0l0 -2.390625l1.625 -0.984375l0 3.375l1.65625 0l0 1.265625l-1.65625 0l0 5.671875q0 0.6875 0.078125 0.890625q0.09375 0.203125 0.28125 0.328125q0.203125 0.109375 0.578125 0.109375q0.265625 0 0.71875 -0.0625zm0.9489136 -1.421875l1.625 -0.25q0.125 0.96875 0.75 1.5q0.625 0.515625 1.75 0.515625q1.125 0 1.671875 -0.453125q0.546875 -0.46875 0.546875 -1.09375q0 -0.546875 -0.484375 -0.875q-0.328125 -0.21875 -1.671875 -0.546875q-1.8125 -0.46875 -2.515625 -0.796875q-0.6875 -0.328125 -1.046875 -0.90625q-0.359375 -0.59375 -0.359375 -1.3125q0 -0.640625 0.296875 -1.1875q0.296875 -0.5625 0.8125 -0.921875q0.375 -0.28125 1.03125 -0.46875q0.671875 -0.203125 1.421875 -0.203125q1.140625 0 2.0 0.328125q0.859375 0.328125 1.265625 0.890625q0.421875 0.5625 0.578125 1.5l-1.609375 0.21875q-0.109375 -0.75 -0.640625 -1.171875q-0.515625 -0.421875 -1.46875 -0.421875q-1.140625 0 -1.625 0.375q-0.46875 0.375 -0.46875 0.875q0 0.3125 0.1875 0.578125q0.203125 0.265625 0.640625 0.4375q0.234375 0.09375 1.4375 0.421875q1.75 0.453125 2.4375 0.75q0.6875 0.296875 1.078125 0.859375q0.390625 0.5625 0.390625 1.40625q0 0.828125 -0.484375 1.546875q-0.46875 0.71875 -1.375 1.125q-0.90625 0.390625 -2.046875 0.390625q-1.875 0 -2.875 -0.78125q-0.984375 -0.78125 -1.25 -2.328125z" fill-rule="nonzero"/><path fill="#000000" fill-opacity="0.0" d="m287.29266 257.67453l59.40155 0l0 48.472443l-59.40155 0z" fill-rule="evenodd"/><path fill="#000000" d="m307.02704 285.8708q0 2.5 1.140625 2.5q1.15625 0 1.90625 -1.875q0.765625 -1.890625 0.765625 -4.15625q0 -1.671875 -0.859375 -2.03125q0.828125 -0.625 1.5 -0.625q1.078125 0 1.078125 1.65625q0 2.5 -1.71875 5.65625q-1.53125 2.8125 -3.3125 2.8125q-2.046875 0 -2.046875 -3.140625q0 -0.125 0.078125 -2.40625q-1.375 3.03125 -2.5 4.21875q-1.109375 1.1875 -2.640625 1.1875q0.25 -0.796875 0.25 -1.828125q0 -2.59375 -0.609375 -5.0q-0.59375 -2.40625 -1.53125 -3.4375q0.796875 -0.390625 1.359375 -0.390625q2.0 0 2.546875 8.328125l0 0.265625q1.078125 -1.375 2.109375 -3.328125q1.03125 -1.953125 1.03125 -3.46875l0 -0.171875q0.75 -0.28125 1.203125 -0.28125q0.796875 0 0.796875 0.578125q0 0.140625 -0.15625 0.796875q-0.140625 0.640625 -0.265625 1.75q-0.125 1.09375 -0.125 2.390625z" fill-rule="nonzero"/><path fill="#000000" d="m317.62973 298.21454l-2.078125 0l0 -7.8125q-1.140625 1.0625 -2.6875 1.578125l0 -1.890625q0.8125 -0.265625 1.765625 -1.0q0.953125 -0.75 1.3125 -1.734375l1.6875 0l0 10.859375z" fill-rule="nonzero"/><path fill="#000000" fill-opacity="0.0" d="m289.33072 356.93832l59.40155 0l0 48.472443l-59.40155 0z" fill-rule="evenodd"/><path fill="#000000" d="m309.0651 385.13458q0 2.5 1.140625 2.5q1.15625 0 1.90625 -1.875q0.765625 -1.890625 0.765625 -4.15625q0 -1.671875 -0.859375 -2.03125q0.828125 -0.625 1.5 -0.625q1.078125 0 1.078125 1.65625q0 2.5 -1.71875 5.65625q-1.53125 2.8125 -3.3125 2.8125q-2.046875 0 -2.046875 -3.140625q0 -0.125 0.078125 -2.40625q-1.375 3.03125 -2.5 4.21875q-1.109375 1.1875 -2.640625 1.1875q0.25 -0.796875 0.25 -1.828125q0 -2.59375 -0.609375 -5.0q-0.59375 -2.40625 -1.53125 -3.4375q0.796875 -0.390625 1.359375 -0.390625q2.0 0 2.546875 8.328125l0 0.265625q1.078125 -1.375 2.109375 -3.328125q1.03125 -1.953125 1.03125 -3.46875l0 -0.171875q0.75 -0.28125 1.203125 -0.28125q0.796875 0 0.796875 0.578125q0 0.140625 -0.15625 0.796875q-0.140625 0.640625 -0.265625 1.75q-0.125 1.09375 -0.125 2.390625z" fill-rule="nonzero"/><path fill="#000000" d="m321.3553 395.55646l0 1.921875l-7.265625 0q0.125 -1.09375 0.703125 -2.0625q0.59375 -0.984375 2.34375 -2.59375q1.390625 -1.3125 1.71875 -1.78125q0.421875 -0.640625 0.421875 -1.265625q0 -0.6875 -0.375 -1.0625q-0.375 -0.375 -1.03125 -0.375q-0.640625 0 -1.03125 0.390625q-0.375 0.390625 -0.4375 1.296875l-2.0625 -0.203125q0.171875 -1.71875 1.140625 -2.453125q0.984375 -0.75 2.453125 -0.75q1.59375 0 2.5 0.859375q0.921875 0.859375 0.921875 2.15625q0 0.71875 -0.265625 1.390625q-0.25 0.65625 -0.828125 1.375q-0.375 0.484375 -1.359375 1.390625q-0.96875 0.890625 -1.234375 1.1875q-0.265625 0.296875 -0.421875 0.578125l4.109375 0z" fill-rule="nonzero"/></g></svg>