<svg version="1.1" viewBox="0.0 0.0 841.7007874015748 239.31233595800524" fill="none" stroke="none" stroke-linecap="square" stroke-miterlimit="10" xmlns:xlink="http://www.w3.org/1999/xlink" xmlns="http://www.w3.org/2000/svg"><clipPath id="p.0"><path d="m0 0l841.7008 0l0 239.31233l-841.7008 0l0 -239.31233z" clip-rule="nonzero"/></clipPath><g clip-path="url(#p.0)"><path fill="#ffffff" d="m0 0l841.7008 0l0 239.31233l-841.7008 0z" fill-rule="evenodd"/><path fill="#000000" fill-opacity="0.0" d="m0 4.3543305l840.4409 0l0 42.015747l-840.4409 0z" fill-rule="evenodd"/><path fill="#000000" d="m271.05426 26.368078l0 -2.25l5.8125 0l0 5.3125q-0.84375 0.828125 -2.453125 1.453125q-1.609375 0.625 -3.25 0.625q-2.09375 0 -3.65625 -0.875q-1.5625 -0.890625 -2.34375 -2.515625q-0.78125 -1.640625 -0.78125 -3.5625q0 -2.09375 0.875 -3.703125q0.875 -1.625 2.5625 -2.5q1.28125 -0.65625 3.203125 -0.65625q2.484375 0 3.875 1.046875q1.40625 1.03125 1.796875 2.875l-2.671875 0.5q-0.28125 -0.984375 -1.0625 -1.546875q-0.78125 -0.578125 -1.9375 -0.578125q-1.78125 0 -2.828125 1.125q-1.03125 1.125 -1.03125 3.328125q0 2.375 1.046875 3.5625q1.0625 1.1875 2.78125 1.1875q0.84375 0 1.6875 -0.328125q0.859375 -0.328125 1.46875 -0.8125l0 -1.6875l-3.09375 0zm13.886414 1.828125l2.546875 0.421875q-0.484375 1.40625 -1.546875 2.140625q-1.0625 0.734375 -2.65625 0.734375q-2.515625 0 -3.734375 -1.65625q-0.953125 -1.3125 -0.953125 -3.328125q0 -2.40625 1.25 -3.765625q1.265625 -1.359375 3.1875 -1.359375q2.15625 0 3.40625 1.421875q1.25 1.421875 1.1875 4.375l-6.40625 0q0.03125 1.140625 0.609375 1.78125q0.59375 0.625 1.484375 0.625q0.59375 0 1.0 -0.328125q0.421875 -0.328125 0.625 -1.0625zm0.15625 -2.59375q-0.03125 -1.109375 -0.578125 -1.6875q-0.546875 -0.578125 -1.328125 -0.578125q-0.84375 0 -1.390625 0.609375q-0.546875 0.609375 -0.53125 1.65625l3.828125 0zm13.422607 5.671875l-2.5625 0l0 -4.9375q0 -1.5625 -0.171875 -2.015625q-0.15625 -0.46875 -0.53125 -0.71875q-0.359375 -0.265625 -0.875 -0.265625q-0.671875 0 -1.203125 0.375q-0.53125 0.359375 -0.734375 0.96875q-0.1875 0.59375 -0.1875 2.21875l0 4.375l-2.546875 0l0 -9.671875l2.375 0l0 1.421875q1.265625 -1.640625 3.1875 -1.640625q0.84375 0 1.546875 0.3125q0.703125 0.296875 1.0625 0.78125q0.359375 0.46875 0.5 1.078125q0.140625 0.59375 0.140625 1.703125l0 6.015625zm8.192871 -3.078125l2.546875 0.421875q-0.484375 1.40625 -1.546875 2.140625q-1.0625 0.734375 -2.65625 0.734375q-2.515625 0 -3.734375 -1.65625q-0.953125 -1.3125 -0.953125 -3.328125q0 -2.40625 1.25 -3.765625q1.265625 -1.359375 3.1875 -1.359375q2.15625 0 3.40625 1.421875q1.25 1.421875 1.1875 4.375l-6.40625 0q0.03125 1.140625 0.609375 1.78125q0.59375 0.625 1.484375 0.625q0.59375 0 1.0 -0.328125q0.421875 -0.328125 0.625 -1.0625zm0.15625 -2.59375q-0.03125 -1.109375 -0.578125 -1.6875q-0.546875 -0.578125 -1.328125 -0.578125q-0.84375 0 -1.390625 0.609375q-0.546875 0.609375 -0.53125 1.65625l3.828125 0zm7.078827 5.671875l-2.5625 0l0 -9.671875l2.375 0l0 1.375q0.609375 -0.984375 1.09375 -1.28125q0.484375 -0.3125 1.109375 -0.3125q0.875 0 1.6875 0.484375l-0.796875 2.234375q-0.640625 -0.421875 -1.203125 -0.421875q-0.53125 0 -0.90625 0.296875q-0.375 0.296875 -0.59375 1.078125q-0.203125 0.765625 -0.203125 3.234375l0 2.984375zm6.7134094 -6.71875l-2.328125 -0.421875q0.40625 -1.40625 1.359375 -2.078125q0.953125 -0.671875 2.84375 -0.671875q1.703125 0 2.546875 0.40625q0.84375 0.40625 1.171875 1.03125q0.34375 0.625 0.34375 2.28125l-0.015625 3.0q0 1.265625 0.109375 1.875q0.125 0.609375 0.46875 1.296875l-2.53125 0q-0.109375 -0.25 -0.25 -0.75q-0.0625 -0.234375 -0.09375 -0.3125q-0.65625 0.640625 -1.40625 0.96875q-0.734375 0.3125 -1.59375 0.3125q-1.484375 0 -2.34375 -0.8125q-0.859375 -0.8125 -0.859375 -2.046875q0 -0.828125 0.390625 -1.46875q0.390625 -0.640625 1.09375 -0.96875q0.703125 -0.34375 2.03125 -0.609375q1.796875 -0.328125 2.484375 -0.625l0 -0.25q0 -0.75 -0.359375 -1.0625q-0.359375 -0.3125 -1.375 -0.3125q-0.6875 0 -1.078125 0.28125q-0.375 0.265625 -0.609375 0.9375zm3.421875 2.078125q-0.484375 0.15625 -1.5625 0.390625q-1.0625 0.21875 -1.390625 0.4375q-0.5 0.359375 -0.5 0.90625q0 0.53125 0.40625 0.9375q0.40625 0.390625 1.015625 0.390625q0.703125 0 1.328125 -0.46875q0.46875 -0.34375 0.609375 -0.84375q0.09375 -0.328125 0.09375 -1.25l0 -0.5zm5.047577 4.640625l0 -13.359375l2.5625 0l0 13.359375l-2.5625 0zm21.73642 0l-2.9375 0l-1.171875 -3.03125l-5.328125 0l-1.109375 3.03125l-2.859375 0l5.203125 -13.359375l2.84375 0l5.359375 13.359375zm-4.96875 -5.28125l-1.84375 -4.953125l-1.796875 4.953125l3.640625 0zm15.254181 5.28125l-2.390625 0l0 -1.421875q-0.59375 0.828125 -1.40625 1.234375q-0.796875 0.40625 -1.609375 0.40625q-1.671875 0 -2.859375 -1.34375q-1.1875 -1.34375 -1.1875 -3.75q0 -2.453125 1.15625 -3.734375q1.15625 -1.28125 2.921875 -1.28125q1.625 0 2.8125 1.34375l0 -4.8125l2.5625 0l0 13.359375zm-6.84375 -5.046875q0 1.546875 0.4375 2.234375q0.609375 1.015625 1.71875 1.015625q0.890625 0 1.5 -0.75q0.625 -0.765625 0.625 -2.25q0 -1.671875 -0.609375 -2.40625q-0.59375 -0.734375 -1.53125 -0.734375q-0.90625 0 -1.53125 0.734375q-0.609375 0.71875 -0.609375 2.15625zm12.020966 5.046875l-3.90625 -9.671875l2.6875 0l1.828125 4.9375l0.53125 1.640625q0.203125 -0.625 0.265625 -0.828125q0.125 -0.40625 0.265625 -0.8125l1.84375 -4.9375l2.625 0l-3.84375 9.671875l-2.296875 0zm13.313232 -3.078125l2.546875 0.421875q-0.484375 1.40625 -1.546875 2.140625q-1.0625 0.734375 -2.65625 0.734375q-2.515625 0 -3.734375 -1.65625q-0.953125 -1.3125 -0.953125 -3.328125q0 -2.40625 1.25 -3.765625q1.265625 -1.359375 3.1875 -1.359375q2.15625 0 3.40625 1.421875q1.25 1.421875 1.1875 4.375l-6.40625 0q0.03125 1.140625 0.609375 1.78125q0.59375 0.625 1.484375 0.625q0.59375 0 1.0 -0.328125q0.421875 -0.328125 0.625 -1.0625zm0.15625 -2.59375q-0.03125 -1.109375 -0.578125 -1.6875q-0.546875 -0.578125 -1.328125 -0.578125q-0.84375 0 -1.390625 0.609375q-0.546875 0.609375 -0.53125 1.65625l3.828125 0zm7.0788574 5.671875l-2.5625 0l0 -9.671875l2.375 0l0 1.375q0.609375 -0.984375 1.09375 -1.28125q0.484375 -0.3125 1.109375 -0.3125q0.875 0 1.6875 0.484375l-0.796875 2.234375q-0.640625 -0.421875 -1.203125 -0.421875q-0.53125 0 -0.90625 0.296875q-0.375 0.296875 -0.59375 1.078125q-0.203125 0.765625 -0.203125 3.234375l0 2.984375zm3.900879 -2.765625l2.5625 -0.390625q0.171875 0.75 0.671875 1.140625q0.5 0.390625 1.40625 0.390625q0.984375 0 1.484375 -0.375q0.34375 -0.25 0.34375 -0.671875q0 -0.296875 -0.1875 -0.484375q-0.1875 -0.1875 -0.859375 -0.34375q-3.09375 -0.6875 -3.921875 -1.25q-1.140625 -0.78125 -1.140625 -2.171875q0 -1.265625 0.984375 -2.109375q1.0 -0.859375 3.078125 -0.859375q1.984375 0 2.953125 0.65625q0.96875 0.640625 1.328125 1.90625l-2.40625 0.4375q-0.15625 -0.5625 -0.59375 -0.859375q-0.421875 -0.296875 -1.234375 -0.296875q-1.0 0 -1.4375 0.28125q-0.296875 0.203125 -0.296875 0.515625q0 0.265625 0.25 0.46875q0.34375 0.25 2.390625 0.71875q2.046875 0.453125 2.859375 1.140625q0.796875 0.671875 0.796875 1.890625q0 1.34375 -1.109375 2.296875q-1.109375 0.953125 -3.28125 0.953125q-1.984375 0 -3.140625 -0.796875q-1.140625 -0.8125 -1.5 -2.1875zm13.188232 -3.953125l-2.328125 -0.421875q0.40625 -1.40625 1.359375 -2.078125q0.953125 -0.671875 2.84375 -0.671875q1.703125 0 2.546875 0.40625q0.84375 0.40625 1.171875 1.03125q0.34375 0.625 0.34375 2.28125l-0.015625 3.0q0 1.265625 0.109375 1.875q0.125 0.609375 0.46875 1.296875l-2.53125 0q-0.109375 -0.25 -0.25 -0.75q-0.0625 -0.234375 -0.09375 -0.3125q-0.65625 0.640625 -1.40625 0.96875q-0.734375 0.3125 -1.59375 0.3125q-1.484375 0 -2.34375 -0.8125q-0.859375 -0.8125 -0.859375 -2.046875q0 -0.828125 0.390625 -1.46875q0.390625 -0.640625 1.09375 -0.96875q0.703125 -0.34375 2.03125 -0.609375q1.796875 -0.328125 2.484375 -0.625l0 -0.25q0 -0.75 -0.359375 -1.0625q-0.359375 -0.3125 -1.375 -0.3125q-0.6875 0 -1.078125 0.28125q-0.375 0.265625 -0.609375 0.9375zm3.421875 2.078125q-0.484375 0.15625 -1.5625 0.390625q-1.0625 0.21875 -1.390625 0.4375q-0.5 0.359375 -0.5 0.90625q0 0.53125 0.40625 0.9375q0.40625 0.390625 1.015625 0.390625q0.703125 0 1.328125 -0.46875q0.46875 -0.34375 0.609375 -0.84375q0.09375 -0.328125 0.09375 -1.25l0 -0.5zm7.500702 4.640625l-2.5625 0l0 -9.671875l2.375 0l0 1.375q0.609375 -0.984375 1.09375 -1.28125q0.484375 -0.3125 1.109375 -0.3125q0.875 0 1.6875 0.484375l-0.796875 2.234375q-0.640625 -0.421875 -1.203125 -0.421875q-0.53125 0 -0.90625 0.296875q-0.375 0.296875 -0.59375 1.078125q-0.203125 0.765625 -0.203125 3.234375l0 2.984375zm4.8071594 -10.984375l0 -2.375l2.5625 0l0 2.375l-2.5625 0zm0 10.984375l0 -9.671875l2.5625 0l0 9.671875l-2.5625 0zm7.0895386 -6.71875l-2.328125 -0.421875q0.40625 -1.40625 1.359375 -2.078125q0.953125 -0.671875 2.84375 -0.671875q1.703125 0 2.546875 0.40625q0.84375 0.40625 1.171875 1.03125q0.34375 0.625 0.34375 2.28125l-0.015625 3.0q0 1.265625 0.109375 1.875q0.125 0.609375 0.46875 1.296875l-2.53125 0q-0.109375 -0.25 -0.25 -0.75q-0.0625 -0.234375 -0.09375 -0.3125q-0.65625 0.640625 -1.40625 0.96875q-0.734375 0.3125 -1.59375 0.3125q-1.484375 0 -2.34375 -0.8125q-0.859375 -0.8125 -0.859375 -2.046875q0 -0.828125 0.390625 -1.46875q0.390625 -0.640625 1.09375 -0.96875q0.703125 -0.34375 2.03125 -0.609375q1.796875 -0.328125 2.484375 -0.625l0 -0.25q0 -0.75 -0.359375 -1.0625q-0.359375 -0.3125 -1.375 -0.3125q-0.6875 0 -1.078125 0.28125q-0.375 0.265625 -0.609375 0.9375zm3.421875 2.078125q-0.484375 0.15625 -1.5625 0.390625q-1.0625 0.21875 -1.390625 0.4375q-0.5 0.359375 -0.5 0.90625q0 0.53125 0.40625 0.9375q0.40625 0.390625 1.015625 0.390625q0.703125 0 1.328125 -0.46875q0.46875 -0.34375 0.609375 -0.84375q0.09375 -0.328125 0.09375 -1.25l0 -0.5zm5.0476074 4.640625l0 -13.359375l2.5625 0l0 13.359375l-2.5625 0zm10.413452 0l0 -13.359375l2.625 0l5.453125 8.921875l0 -8.921875l2.515625 0l0 13.359375l-2.703125 0l-5.390625 -8.703125l0 8.703125l-2.5 0zm19.019836 -3.078125l2.546875 0.421875q-0.484375 1.40625 -1.546875 2.140625q-1.0625 0.734375 -2.65625 0.734375q-2.515625 0 -3.734375 -1.65625q-0.953125 -1.3125 -0.953125 -3.328125q0 -2.40625 1.25 -3.765625q1.265625 -1.359375 3.1875 -1.359375q2.15625 0 3.40625 1.421875q1.25 1.421875 1.1875 4.375l-6.40625 0q0.03125 1.140625 0.609375 1.78125q0.59375 0.625 1.484375 0.625q0.59375 0 1.0 -0.328125q0.421875 -0.328125 0.625 -1.0625zm0.15625 -2.59375q-0.03125 -1.109375 -0.578125 -1.6875q-0.546875 -0.578125 -1.328125 -0.578125q-0.84375 0 -1.390625 0.609375q-0.546875 0.609375 -0.53125 1.65625l3.828125 0zm9.063232 -4.0l0 2.03125l-1.75 0l0 3.90625q0 1.1875 0.046875 1.390625q0.046875 0.1875 0.21875 0.3125q0.1875 0.125 0.4375 0.125q0.359375 0 1.03125 -0.25l0.21875 2.0q-0.890625 0.375 -2.015625 0.375q-0.703125 0 -1.265625 -0.234375q-0.546875 -0.234375 -0.8125 -0.59375q-0.25 -0.375 -0.34375 -1.0q-0.09375 -0.453125 -0.09375 -1.8125l0 -4.21875l-1.171875 0l0 -2.03125l1.171875 0l0 -1.921875l2.578125 -1.5l0 3.421875l1.75 0zm3.5720215 9.671875l-3.0625 -9.671875l2.484375 0l1.8125 6.34375l1.671875 -6.34375l2.46875 0l1.609375 6.34375l1.859375 -6.34375l2.515625 0l-3.109375 9.671875l-2.453125 0l-1.671875 -6.21875l-1.640625 6.21875l-2.484375 0zm12.120819 -4.96875q0 -1.28125 0.625 -2.46875q0.625 -1.203125 1.78125 -1.828125q1.15625 -0.625 2.578125 -0.625q2.1875 0 3.59375 1.421875q1.40625 1.421875 1.40625 3.609375q0 2.1875 -1.421875 3.640625q-1.421875 1.4375 -3.5625 1.4375q-1.328125 0 -2.546875 -0.59375q-1.203125 -0.609375 -1.828125 -1.765625q-0.625 -1.171875 -0.625 -2.828125zm2.625 0.125q0 1.453125 0.671875 2.21875q0.6875 0.75 1.6875 0.75q1.0 0 1.671875 -0.75q0.6875 -0.765625 0.6875 -2.234375q0 -1.421875 -0.6875 -2.1875q-0.671875 -0.765625 -1.671875 -0.765625q-1.0 0 -1.6875 0.765625q-0.671875 0.765625 -0.671875 2.203125zm11.817841 4.84375l-2.5625 0l0 -9.671875l2.375 0l0 1.375q0.609375 -0.984375 1.09375 -1.28125q0.484375 -0.3125 1.109375 -0.3125q0.875 0 1.6875 0.484375l-0.796875 2.234375q-0.640625 -0.421875 -1.203125 -0.421875q-0.53125 0 -0.90625 0.296875q-0.375 0.296875 -0.59375 1.078125q-0.203125 0.765625 -0.203125 3.234375l0 2.984375zm4.7134094 0l0 -13.359375l2.5625 0l0 7.09375l2.9999695 -3.40625l3.140625 0l-3.296875 3.53125l3.53125 6.140625l-2.75 0l-2.4375 -4.34375l-1.1874695 1.25l0 3.09375l-2.5625 0zm19.887177 3.921877l-1.75 0q-1.390625 -2.09375 -2.125 -4.359377q-0.734375 -2.28125 -0.734375 -4.40625q0 -2.625 0.90625 -4.96875q0.78125 -2.046875 1.984375 -3.765625l1.75 0q-1.25 2.75 -1.71875 4.6875q-0.46875 1.9375 -0.46875 4.109375q0 1.5 0.28125 3.0625q0.28125 1.5625 0.765625 2.968752q0.3125 0.9375 1.109375 2.671875zm8.1970215 -8.828127l0 -2.25l5.8125 0l0 5.3125q-0.84375 0.828125 -2.453125 1.453125q-1.609375 0.625 -3.25 0.625q-2.09375 0 -3.65625 -0.875q-1.5625 -0.890625 -2.34375 -2.515625q-0.78125 -1.640625 -0.78125 -3.5625q0 -2.09375 0.875 -3.703125q0.875 -1.625 2.5625 -2.5q1.28125 -0.65625 3.203125 -0.65625q2.484375 0 3.875 1.046875q1.40625 1.03125 1.796875 2.875l-2.671875 0.5q-0.28125 -0.984375 -1.0625 -1.546875q-0.78125 -0.578125 -1.9375 -0.578125q-1.78125 0 -2.828125 1.125q-1.03125 1.125 -1.03125 3.328125q0 2.375 1.046875 3.5625q1.0625 1.1875 2.78125 1.1875q0.84375 0 1.6875 -0.328125q0.859375 -0.328125 1.46875 -0.8125l0 -1.6875l-3.09375 0zm20.355164 4.90625l-2.9375 0l-1.171875 -3.03125l-5.328125 0l-1.109375 3.03125l-2.859375 0l5.203125 -13.359375l2.84375 0l5.359375 13.359375zm-4.96875 -5.28125l-1.84375 -4.953125l-1.796875 4.953125l3.640625 0zm6.4260864 5.28125l0 -13.359375l2.625 0l5.453125 8.921875l0 -8.921875l2.515625 0l0 13.359375l-2.703125 0l-5.390625 -8.703125l0 8.703125l-2.5 0zm12.707336 3.921877q0.765625 -1.609375 1.0625 -2.484375q0.3125 -0.8593769 0.578125 -1.9843769q0.265625 -1.140625 0.390625 -2.15625q0.125 -1.015625 0.125 -2.078125q0 -2.171875 -0.46875 -4.109375q-0.453125 -1.9375 -1.703125 -4.6875l1.734375 0q1.375 1.953125 2.140625 4.15625q0.765625 2.1875 0.765625 4.453125q0 1.90625 -0.609375 4.078125q-0.671875 2.437502 -2.25 4.812502l-1.765625 0z" fill-rule="nonzero"/><path fill="#ffd966" d="m259.26492 81.238846l0 0c0 -10.97612 8.897888 -19.874016 19.874023 -19.874016l0 0c5.2709045 0 10.325928 2.0938644 14.05304 5.820961c3.7271118 3.7271042 5.8209534 8.782135 5.8209534 14.053055l0 0c0 10.976112 -8.897888 19.874016 -19.873993 19.874016l0 0c-10.976135 0 -19.874023 -8.897903 -19.874023 -19.874016z" fill-rule="evenodd"/><path stroke="#000000" stroke-width="1.0" stroke-linejoin="round" stroke-linecap="butt" d="m259.26492 81.238846l0 0c0 -10.97612 8.897888 -19.874016 19.874023 -19.874016l0 0c5.2709045 0 10.325928 2.0938644 14.05304 5.820961c3.7271118 3.7271042 5.8209534 8.782135 5.8209534 14.053055l0 0c0 10.976112 -8.897888 19.874016 -19.873993 19.874016l0 0c-10.976135 0 -19.874023 -8.897903 -19.874023 -19.874016z" fill-rule="evenodd"/><path fill="#93c47d" d="m318.11948 140.45073l0 0c0 -10.97612 8.897888 -19.874016 19.873993 -19.874016l0 0c5.270935 0 10.325958 2.0938644 14.05307 5.8209686c3.7270813 3.7271042 5.8209534 8.782127 5.8209534 14.053047l0 0c0 10.97612 -8.897888 19.874023 -19.874023 19.874023l0 0c-10.976105 0 -19.873993 -8.897903 -19.873993 -19.874023z" fill-rule="evenodd"/><path stroke="#000000" stroke-width="1.0" stroke-linejoin="round" stroke-linecap="butt" d="m318.11948 140.45073l0 0c0 -10.97612 8.897888 -19.874016 19.873993 -19.874016l0 0c5.270935 0 10.325958 2.0938644 14.05307 5.8209686c3.7270813 3.7271042 5.8209534 8.782127 5.8209534 14.053047l0 0c0 10.97612 -8.897888 19.874023 -19.874023 19.874023l0 0c-10.976105 0 -19.873993 -8.897903 -19.873993 -19.874023z" fill-rule="evenodd"/><path fill="#000000" fill-opacity="0.0" d="m293.192 95.29189l30.740143 31.11811" fill-rule="evenodd"/><path stroke="#000000" stroke-width="1.0" stroke-linejoin="round" stroke-linecap="butt" d="m293.192 95.29189l30.740143 31.11811" fill-rule="evenodd"/><path fill="#000000" fill-opacity="0.0" d="m293.192 185.60957l30.740143 -31.118118" fill-rule="evenodd"/><path stroke="#000000" stroke-width="1.0" stroke-linejoin="round" stroke-linecap="butt" d="m293.192 185.60957l30.740143 -31.118118" fill-rule="evenodd"/><path fill="#ffd966" d="m259.26492 199.66261l0 0c0 -10.976105 8.897888 -19.874008 19.874023 -19.874008l0 0c5.2709045 0 10.325928 2.0938568 14.05304 5.8209686c3.7271118 3.7270966 5.8209534 8.782135 5.8209534 14.05304l0 0c0 10.97612 -8.897888 19.874023 -19.873993 19.874023l0 0c-10.976135 0 -19.874023 -8.897903 -19.874023 -19.874023z" fill-rule="evenodd"/><path stroke="#000000" stroke-width="1.0" stroke-linejoin="round" stroke-linecap="butt" d="m259.26492 199.66261l0 0c0 -10.976105 8.897888 -19.874008 19.874023 -19.874008l0 0c5.2709045 0 10.325928 2.0938568 14.05304 5.8209686c3.7271118 3.7270966 5.8209534 8.782135 5.8209534 14.05304l0 0c0 10.97612 -8.897888 19.874023 -19.873993 19.874023l0 0c-10.976135 0 -19.874023 -8.897903 -19.874023 -19.874023z" fill-rule="evenodd"/><path fill="#ffd966" d="m259.26492 140.45073l0 0c0 -10.97612 8.897888 -19.874016 19.874023 -19.874016l0 0c5.2709045 0 10.325928 2.0938644 14.05304 5.8209686c3.7271118 3.7271042 5.8209534 8.782127 5.8209534 14.053047l0 0c0 10.97612 -8.897888 19.874023 -19.873993 19.874023l0 0c-10.976135 0 -19.874023 -8.897903 -19.874023 -19.874023z" fill-rule="evenodd"/><path stroke="#000000" stroke-width="1.0" stroke-linejoin="round" stroke-linecap="butt" d="m259.26492 140.45073l0 0c0 -10.97612 8.897888 -19.874016 19.874023 -19.874016l0 0c5.2709045 0 10.325928 2.0938644 14.05304 5.8209686c3.7271118 3.7271042 5.8209534 8.782127 5.8209534 14.053047l0 0c0 10.97612 -8.897888 19.874023 -19.873993 19.874023l0 0c-10.976135 0 -19.874023 -8.897903 -19.874023 -19.874023z" fill-rule="evenodd"/><path fill="#93c47d" d="m376.97723 140.45073l0 0c0 -10.97612 8.897888 -19.874016 19.873993 -19.874016l0 0c5.270935 0 10.325958 2.0938644 14.05307 5.8209686c3.7270813 3.7271042 5.8209534 8.782127 5.8209534 14.053047l0 0c0 10.97612 -8.897888 19.874023 -19.874023 19.874023l0 0c-10.976105 0 -19.873993 -8.897903 -19.873993 -19.874023z" fill-rule="evenodd"/><path stroke="#000000" stroke-width="1.0" stroke-linejoin="round" stroke-linecap="butt" d="m376.97723 140.45073l0 0c0 -10.97612 8.897888 -19.874016 19.873993 -19.874016l0 0c5.270935 0 10.325958 2.0938644 14.05307 5.8209686c3.7270813 3.7271042 5.8209534 8.782127 5.8209534 14.053047l0 0c0 10.97612 -8.897888 19.874023 -19.874023 19.874023l0 0c-10.976105 0 -19.873993 -8.897903 -19.873993 -19.874023z" fill-rule="evenodd"/><path fill="#93c47d" d="m318.12106 81.238846l0 0c0 -10.97612 8.897919 -19.874016 19.874023 -19.874016l0 0c5.2709045 0 10.325958 2.0938644 14.05304 5.820961c3.7271118 3.7271042 5.820984 8.782135 5.820984 14.053055l0 0c0 10.976112 -8.897919 19.874016 -19.874023 19.874016l0 0c-10.976105 0 -19.874023 -8.897903 -19.874023 -19.874016z" fill-rule="evenodd"/><path stroke="#000000" stroke-width="1.0" stroke-linejoin="round" stroke-linecap="butt" d="m318.12106 81.238846l0 0c0 -10.97612 8.897919 -19.874016 19.874023 -19.874016l0 0c5.2709045 0 10.325958 2.0938644 14.05304 5.820961c3.7271118 3.7271042 5.820984 8.782135 5.820984 14.053055l0 0c0 10.976112 -8.897919 19.874016 -19.874023 19.874016l0 0c-10.976105 0 -19.874023 -8.897903 -19.874023 -19.874016z" fill-rule="evenodd"/><path fill="#93c47d" d="m376.97723 81.238846l0 0c0 -10.97612 8.897888 -19.874016 19.873993 -19.874016l0 0c5.270935 0 10.325958 2.0938644 14.05307 5.820961c3.7270813 3.7271042 5.8209534 8.782135 5.8209534 14.053055l0 0c0 10.976112 -8.897888 19.874016 -19.874023 19.874016l0 0c-10.976105 0 -19.873993 -8.897903 -19.873993 -19.874016z" fill-rule="evenodd"/><path stroke="#000000" stroke-width="1.0" stroke-linejoin="round" stroke-linecap="butt" d="m376.97723 81.238846l0 0c0 -10.97612 8.897888 -19.874016 19.873993 -19.874016l0 0c5.270935 0 10.325958 2.0938644 14.05307 5.820961c3.7270813 3.7271042 5.8209534 8.782135 5.8209534 14.053055l0 0c0 10.976112 -8.897888 19.874016 -19.874023 19.874016l0 0c-10.976105 0 -19.873993 -8.897903 -19.873993 -19.874016z" fill-rule="evenodd"/><path fill="#93c47d" d="m318.12106 199.66261l0 0c0 -10.976105 8.897919 -19.874008 19.874023 -19.874008l0 0c5.2709045 0 10.325958 2.0938568 14.05304 5.8209686c3.7271118 3.7270966 5.820984 8.782135 5.820984 14.05304l0 0c0 10.97612 -8.897919 19.874023 -19.874023 19.874023l0 0c-10.976105 0 -19.874023 -8.897903 -19.874023 -19.874023z" fill-rule="evenodd"/><path stroke="#000000" stroke-width="1.0" stroke-linejoin="round" stroke-linecap="butt" d="m318.12106 199.66261l0 0c0 -10.976105 8.897919 -19.874008 19.874023 -19.874008l0 0c5.2709045 0 10.325958 2.0938568 14.05304 5.8209686c3.7271118 3.7270966 5.820984 8.782135 5.820984 14.05304l0 0c0 10.97612 -8.897919 19.874023 -19.874023 19.874023l0 0c-10.976105 0 -19.874023 -8.897903 -19.874023 -19.874023z" fill-rule="evenodd"/><path fill="#93c47d" d="m376.97723 199.66261l0 0c0 -10.976105 8.897888 -19.874008 19.873993 -19.874008l0 0c5.270935 0 10.325958 2.0938568 14.05307 5.8209686c3.7270813 3.7270966 5.8209534 8.782135 5.8209534 14.05304l0 0c0 10.97612 -8.897888 19.874023 -19.874023 19.874023l0 0c-10.976105 0 -19.873993 -8.897903 -19.873993 -19.874023z" fill-rule="evenodd"/><path stroke="#000000" stroke-width="1.0" stroke-linejoin="round" stroke-linecap="butt" d="m376.97723 199.66261l0 0c0 -10.976105 8.897888 -19.874008 19.873993 -19.874008l0 0c5.270935 0 10.325958 2.0938568 14.05307 5.8209686c3.7270813 3.7270966 5.8209534 8.782135 5.8209534 14.05304l0 0c0 10.97612 -8.897888 19.874023 -19.874023 19.874023l0 0c-10.976105 0 -19.873993 -8.897903 -19.873993 -19.874023z" fill-rule="evenodd"/><path fill="#000000" fill-opacity="0.0" d="m357.8675 140.45073l19.118103 0" fill-rule="evenodd"/><path stroke="#000000" stroke-width="1.0" stroke-linejoin="round" stroke-linecap="butt" d="m357.8675 140.45073l19.118103 0" fill-rule="evenodd"/><path fill="#000000" fill-opacity="0.0" d="m357.8691 199.66261l19.118103 0" fill-rule="evenodd"/><path stroke="#000000" stroke-width="1.0" stroke-linejoin="round" stroke-linecap="butt" d="m357.8691 199.66261l19.118103 0" fill-rule="evenodd"/><path fill="#000000" fill-opacity="0.0" d="m382.7982 185.60957l-30.740143 -31.118118" fill-rule="evenodd"/><path stroke="#000000" stroke-width="1.0" stroke-linejoin="round" stroke-linecap="butt" d="m382.7982 185.60957l-30.740143 -31.118118" fill-rule="evenodd"/><path fill="#000000" fill-opacity="0.0" d="m318.12106 199.66261l-19.118103 0" fill-rule="evenodd"/><path stroke="#000000" stroke-width="1.0" stroke-linejoin="round" stroke-linecap="butt" d="m318.12106 199.66261l-19.118103 0" fill-rule="evenodd"/><path fill="#000000" fill-opacity="0.0" d="m323.94205 185.60957l-30.740173 -31.118118" fill-rule="evenodd"/><path stroke="#000000" stroke-width="1.0" stroke-linejoin="round" stroke-linecap="butt" d="m323.94205 185.60957l-30.740173 -31.118118" fill-rule="evenodd"/><path fill="#000000" fill-opacity="0.0" d="m293.192 126.39768l30.740143 -31.11811" fill-rule="evenodd"/><path stroke="#000000" stroke-width="1.0" stroke-linejoin="round" stroke-linecap="butt" d="m293.192 126.39768l30.740143 -31.11811" fill-rule="evenodd"/><path fill="#000000" fill-opacity="0.0" d="m299.01294 81.238846l19.118134 0" fill-rule="evenodd"/><path stroke="#000000" stroke-width="1.0" stroke-linejoin="round" stroke-linecap="butt" d="m299.01294 81.238846l19.118134 0" fill-rule="evenodd"/><path fill="#000000" fill-opacity="0.0" d="m357.8691 81.238846l19.118103 0" fill-rule="evenodd"/><path stroke="#000000" stroke-width="1.0" stroke-linejoin="round" stroke-linecap="butt" d="m357.8691 81.238846l19.118103 0" fill-rule="evenodd"/><path fill="#000000" fill-opacity="0.0" d="m299.01294 140.45073l19.118134 0" fill-rule="evenodd"/><path stroke="#000000" stroke-width="1.0" stroke-linejoin="round" stroke-linecap="butt" d="m299.01294 140.45073l19.118134 0" fill-rule="evenodd"/><path fill="#000000" fill-opacity="0.0" d="m382.7982 95.29189l-30.740143 31.11811" fill-rule="evenodd"/><path stroke="#000000" stroke-width="1.0" stroke-linejoin="round" stroke-linecap="butt" d="m382.7982 95.29189l-30.740143 31.11811" fill-rule="evenodd"/><path fill="#000000" fill-opacity="0.0" d="m293.192 95.29189l30.740143 90.33071" fill-rule="evenodd"/><path stroke="#000000" stroke-width="1.0" stroke-linejoin="round" stroke-linecap="butt" d="m293.192 95.29189l30.740143 90.33071" fill-rule="evenodd"/><path fill="#000000" fill-opacity="0.0" d="m323.94205 95.29189l-30.740173 90.33071" fill-rule="evenodd"/><path stroke="#000000" stroke-width="1.0" stroke-linejoin="round" stroke-linecap="butt" d="m323.94205 95.29189l-30.740173 90.33071" fill-rule="evenodd"/><path fill="#000000" fill-opacity="0.0" d="m352.04813 95.29189l30.740173 31.11811" fill-rule="evenodd"/><path stroke="#000000" stroke-width="1.0" stroke-linejoin="round" stroke-linecap="butt" d="m352.04813 95.29189l30.740173 31.11811" fill-rule="evenodd"/><path fill="#000000" fill-opacity="0.0" d="m352.04813 95.29189l30.740173 90.33071" fill-rule="evenodd"/><path stroke="#000000" stroke-width="1.0" stroke-linejoin="round" stroke-linecap="butt" d="m352.04813 95.29189l30.740173 90.33071" fill-rule="evenodd"/><path fill="#000000" fill-opacity="0.0" d="m352.04813 185.60957l30.740173 -31.118118" fill-rule="evenodd"/><path stroke="#000000" stroke-width="1.0" stroke-linejoin="round" stroke-linecap="butt" d="m352.04813 185.60957l30.740173 -31.118118" fill-rule="evenodd"/><path fill="#000000" fill-opacity="0.0" d="m352.04813 185.60957l30.740173 -90.33071" fill-rule="evenodd"/><path stroke="#000000" stroke-width="1.0" stroke-linejoin="round" stroke-linecap="butt" d="m352.04813 185.60957l30.740173 -90.33071" fill-rule="evenodd"/><path fill="#e06666" d="m435.83286 140.44942l0 0c0 -10.97612 8.897919 -19.874016 19.874023 -19.874016l0 0c5.2709045 0 10.325958 2.0938644 14.05304 5.8209686c3.7271118 3.7271042 5.820984 8.782127 5.820984 14.053047l0 0c0 10.97612 -8.897919 19.874023 -19.874023 19.874023l0 0c-10.976105 0 -19.874023 -8.897903 -19.874023 -19.874023z" fill-rule="evenodd"/><path stroke="#000000" stroke-width="1.0" stroke-linejoin="round" stroke-linecap="butt" d="m435.83286 140.44942l0 0c0 -10.97612 8.897919 -19.874016 19.874023 -19.874016l0 0c5.2709045 0 10.325958 2.0938644 14.05304 5.8209686c3.7271118 3.7271042 5.820984 8.782127 5.820984 14.053047l0 0c0 10.97612 -8.897919 19.874023 -19.874023 19.874023l0 0c-10.976105 0 -19.874023 -8.897903 -19.874023 -19.874023z" fill-rule="evenodd"/><path fill="#e06666" d="m435.83286 81.23753l0 0c0 -10.97612 8.897919 -19.874016 19.874023 -19.874016l0 0c5.2709045 0 10.325958 2.0938644 14.05304 5.820961c3.7271118 3.7271042 5.820984 8.782135 5.820984 14.053055l0 0c0 10.976112 -8.897919 19.874016 -19.874023 19.874016l0 0c-10.976105 0 -19.874023 -8.897903 -19.874023 -19.874016z" fill-rule="evenodd"/><path stroke="#000000" stroke-width="1.0" stroke-linejoin="round" stroke-linecap="butt" d="m435.83286 81.23753l0 0c0 -10.97612 8.897919 -19.874016 19.874023 -19.874016l0 0c5.2709045 0 10.325958 2.0938644 14.05304 5.820961c3.7271118 3.7271042 5.820984 8.782135 5.820984 14.053055l0 0c0 10.976112 -8.897919 19.874016 -19.874023 19.874016l0 0c-10.976105 0 -19.874023 -8.897903 -19.874023 -19.874016z" fill-rule="evenodd"/><path fill="#e06666" d="m435.83286 199.6613l0 0c0 -10.976105 8.897919 -19.874008 19.874023 -19.874008l0 0c5.2709045 0 10.325958 2.0938568 14.05304 5.8209686c3.7271118 3.7270966 5.820984 8.782135 5.820984 14.05304l0 0c0 10.97612 -8.897919 19.874023 -19.874023 19.874023l0 0c-10.976105 0 -19.874023 -8.897903 -19.874023 -19.874023z" fill-rule="evenodd"/><path stroke="#000000" stroke-width="1.0" stroke-linejoin="round" stroke-linecap="butt" d="m435.83286 199.6613l0 0c0 -10.976105 8.897919 -19.874008 19.874023 -19.874008l0 0c5.2709045 0 10.325958 2.0938568 14.05304 5.8209686c3.7271118 3.7270966 5.820984 8.782135 5.820984 14.05304l0 0c0 10.97612 -8.897919 19.874023 -19.874023 19.874023l0 0c-10.976105 0 -19.874023 -8.897903 -19.874023 -19.874023z" fill-rule="evenodd"/><path fill="#000000" fill-opacity="0.0" d="m416.71475 140.44942l19.118103 0" fill-rule="evenodd"/><path stroke="#000000" stroke-width="1.0" stroke-linejoin="round" stroke-linecap="butt" d="m416.71475 140.44942l19.118103 0" fill-rule="evenodd"/><path fill="#000000" fill-opacity="0.0" d="m416.71475 199.6613l19.118103 0" fill-rule="evenodd"/><path stroke="#000000" stroke-width="1.0" stroke-linejoin="round" stroke-linecap="butt" d="m416.71475 199.6613l19.118103 0" fill-rule="evenodd"/><path fill="#000000" fill-opacity="0.0" d="m441.65384 185.60826l-30.740173 -31.118118" fill-rule="evenodd"/><path stroke="#000000" stroke-width="1.0" stroke-linejoin="round" stroke-linecap="butt" d="m441.65384 185.60826l-30.740173 -31.118118" fill-rule="evenodd"/><path fill="#000000" fill-opacity="0.0" d="m416.71475 81.23753l19.118103 0" fill-rule="evenodd"/><path stroke="#000000" stroke-width="1.0" stroke-linejoin="round" stroke-linecap="butt" d="m416.71475 81.23753l19.118103 0" fill-rule="evenodd"/><path fill="#000000" fill-opacity="0.0" d="m441.65384 95.29058l-30.740173 31.11811" fill-rule="evenodd"/><path stroke="#000000" stroke-width="1.0" stroke-linejoin="round" stroke-linecap="butt" d="m441.65384 95.29058l-30.740173 31.11811" fill-rule="evenodd"/><path fill="#000000" fill-opacity="0.0" d="m410.91367 95.27826l30.740173 31.11811" fill-rule="evenodd"/><path stroke="#000000" stroke-width="1.0" stroke-linejoin="round" stroke-linecap="butt" d="m410.91367 95.27826l30.740173 31.11811" fill-rule="evenodd"/><path fill="#000000" fill-opacity="0.0" d="m410.91367 95.27755l30.740173 90.33071" fill-rule="evenodd"/><path stroke="#000000" stroke-width="1.0" stroke-linejoin="round" stroke-linecap="butt" d="m410.91367 95.27755l30.740173 90.33071" fill-rule="evenodd"/><path fill="#000000" fill-opacity="0.0" d="m410.91367 185.62057l30.740173 -31.118103" fill-rule="evenodd"/><path stroke="#000000" stroke-width="1.0" stroke-linejoin="round" stroke-linecap="butt" d="m410.91367 185.62057l30.740173 -31.118103" fill-rule="evenodd"/><path fill="#000000" fill-opacity="0.0" d="m410.91367 185.62129l30.740173 -90.33071" fill-rule="evenodd"/><path stroke="#000000" stroke-width="1.0" stroke-linejoin="round" stroke-linecap="butt" d="m410.91367 185.62129l30.740173 -90.33071" fill-rule="evenodd"/><path fill="#93c47d" d="m494.6885 140.60297l0 0c0 -10.97612 8.897888 -19.874016 19.873993 -19.874016l0 0c5.270935 0 10.325989 2.0938644 14.053101 5.820961c3.7270508 3.7270966 5.820923 8.782135 5.820923 14.053055l0 0c0 10.97612 -8.897888 19.874008 -19.874023 19.874008l0 0c-10.976105 0 -19.873993 -8.897888 -19.873993 -19.874008z" fill-rule="evenodd"/><path stroke="#000000" stroke-width="1.0" stroke-linejoin="round" stroke-linecap="butt" d="m494.6885 140.60297l0 0c0 -10.97612 8.897888 -19.874016 19.873993 -19.874016l0 0c5.270935 0 10.325989 2.0938644 14.053101 5.820961c3.7270508 3.7270966 5.820923 8.782135 5.820923 14.053055l0 0c0 10.97612 -8.897888 19.874008 -19.874023 19.874008l0 0c-10.976105 0 -19.873993 -8.897888 -19.873993 -19.874008z" fill-rule="evenodd"/><path fill="#93c47d" d="m494.6885 81.391075l0 0c0 -10.976112 8.897888 -19.874016 19.873993 -19.874016l0 0c5.270935 0 10.325989 2.0938644 14.053101 5.8209686c3.7270508 3.7270966 5.820923 8.782135 5.820923 14.053047l0 0c0 10.97612 -8.897888 19.874016 -19.874023 19.874016l0 0c-10.976105 0 -19.873993 -8.897896 -19.873993 -19.874016z" fill-rule="evenodd"/><path stroke="#000000" stroke-width="1.0" stroke-linejoin="round" stroke-linecap="butt" d="m494.6885 81.391075l0 0c0 -10.976112 8.897888 -19.874016 19.873993 -19.874016l0 0c5.270935 0 10.325989 2.0938644 14.053101 5.8209686c3.7270508 3.7270966 5.820923 8.782135 5.820923 14.053047l0 0c0 10.97612 -8.897888 19.874016 -19.874023 19.874016l0 0c-10.976105 0 -19.873993 -8.897896 -19.873993 -19.874016z" fill-rule="evenodd"/><path fill="#93c47d" d="m494.6885 199.81485l0 0c0 -10.97612 8.897888 -19.874008 19.873993 -19.874008l0 0c5.270935 0 10.325989 2.0938568 14.053101 5.8209534c3.7270508 3.7271118 5.820923 8.782135 5.820923 14.053055l0 0c0 10.97612 -8.897888 19.874023 -19.874023 19.874023l0 0c-10.976105 0 -19.873993 -8.897903 -19.873993 -19.874023z" fill-rule="evenodd"/><path stroke="#000000" stroke-width="1.0" stroke-linejoin="round" stroke-linecap="butt" d="m494.6885 199.81485l0 0c0 -10.97612 8.897888 -19.874008 19.873993 -19.874008l0 0c5.270935 0 10.325989 2.0938568 14.053101 5.8209534c3.7270508 3.7271118 5.820923 8.782135 5.820923 14.053055l0 0c0 10.97612 -8.897888 19.874023 -19.874023 19.874023l0 0c-10.976105 0 -19.873993 -8.897903 -19.873993 -19.874023z" fill-rule="evenodd"/><path fill="#000000" fill-opacity="0.0" d="m475.5704 140.60297l19.118103 0" fill-rule="evenodd"/><path stroke="#000000" stroke-width="1.0" stroke-linejoin="round" stroke-linecap="butt" d="m475.5704 140.60297l19.118103 0" fill-rule="evenodd"/><path fill="#000000" fill-opacity="0.0" d="m475.5704 199.81485l19.118103 0" fill-rule="evenodd"/><path stroke="#000000" stroke-width="1.0" stroke-linejoin="round" stroke-linecap="butt" d="m475.5704 199.81485l19.118103 0" fill-rule="evenodd"/><path fill="#000000" fill-opacity="0.0" d="m500.50946 185.7618l-30.740143 -31.118103" fill-rule="evenodd"/><path stroke="#000000" stroke-width="1.0" stroke-linejoin="round" stroke-linecap="butt" d="m500.50946 185.7618l-30.740143 -31.118103" fill-rule="evenodd"/><path fill="#000000" fill-opacity="0.0" d="m475.5704 81.391075l19.118103 0" fill-rule="evenodd"/><path stroke="#000000" stroke-width="1.0" stroke-linejoin="round" stroke-linecap="butt" d="m475.5704 81.391075l19.118103 0" fill-rule="evenodd"/><path fill="#000000" fill-opacity="0.0" d="m500.50946 95.44413l-30.740143 31.11811" fill-rule="evenodd"/><path stroke="#000000" stroke-width="1.0" stroke-linejoin="round" stroke-linecap="butt" d="m500.50946 95.44413l-30.740143 31.11811" fill-rule="evenodd"/><path fill="#000000" fill-opacity="0.0" d="m469.76932 95.4318l30.740143 31.11811" fill-rule="evenodd"/><path stroke="#000000" stroke-width="1.0" stroke-linejoin="round" stroke-linecap="butt" d="m469.76932 95.4318l30.740143 31.11811" fill-rule="evenodd"/><path fill="#000000" fill-opacity="0.0" d="m469.76932 95.43109l30.740143 90.3307" fill-rule="evenodd"/><path stroke="#000000" stroke-width="1.0" stroke-linejoin="round" stroke-linecap="butt" d="m469.76932 95.43109l30.740143 90.3307" fill-rule="evenodd"/><path fill="#000000" fill-opacity="0.0" d="m469.76932 185.77412l30.740143 -31.118103" fill-rule="evenodd"/><path stroke="#000000" stroke-width="1.0" stroke-linejoin="round" stroke-linecap="butt" d="m469.76932 185.77412l30.740143 -31.118103" fill-rule="evenodd"/><path fill="#000000" fill-opacity="0.0" d="m469.76932 185.77484l30.740143 -90.33071" fill-rule="evenodd"/><path stroke="#000000" stroke-width="1.0" stroke-linejoin="round" stroke-linecap="butt" d="m469.76932 185.77484l30.740143 -90.33071" fill-rule="evenodd"/><path fill="#e06666" d="m559.3814 169.58066l0 0c0 -10.97612 8.897888 -19.874023 19.874023 -19.874023l0 0c5.270935 0 10.325928 2.093872 14.05304 5.8209686c3.7271118 3.7270966 5.820984 8.782135 5.820984 14.053055l0 0c0 10.976105 -8.897888 19.874008 -19.874023 19.874008l0 0c-10.976135 0 -19.874023 -8.897903 -19.874023 -19.874008z" fill-rule="evenodd"/><path stroke="#000000" stroke-width="1.0" stroke-linejoin="round" stroke-linecap="butt" d="m559.3814 169.58066l0 0c0 -10.97612 8.897888 -19.874023 19.874023 -19.874023l0 0c5.270935 0 10.325928 2.093872 14.05304 5.8209686c3.7271118 3.7270966 5.820984 8.782135 5.820984 14.053055l0 0c0 10.976105 -8.897888 19.874008 -19.874023 19.874008l0 0c-10.976135 0 -19.874023 -8.897903 -19.874023 -19.874008z" fill-rule="evenodd"/><path fill="#000000" fill-opacity="0.0" d="m534.4281 81.398994l29.29132 14.29921" fill-rule="evenodd"/><path stroke="#000000" stroke-width="1.0" stroke-linejoin="round" stroke-linecap="butt" d="m534.4281 81.398994l29.29132 14.29921" fill-rule="evenodd"/><path fill="#000000" fill-opacity="0.0" d="m565.2024 155.5276l-30.771667 -14.929138" fill-rule="evenodd"/><path stroke="#000000" stroke-width="1.0" stroke-linejoin="round" stroke-linecap="butt" d="m565.2024 155.5276l-30.771667 -14.929138" fill-rule="evenodd"/><path fill="#e06666" d="m557.8985 109.75126l0 0c0 -10.97612 8.897888 -19.874016 19.874023 -19.874016l0 0c5.270874 0 10.325928 2.0938644 14.05304 5.820961c3.7271118 3.7271042 5.820923 8.782135 5.820923 14.053055l0 0c0 10.976112 -8.897888 19.874016 -19.873962 19.874016l0 0c-10.976135 0 -19.874023 -8.897903 -19.874023 -19.874016z" fill-rule="evenodd"/><path stroke="#000000" stroke-width="1.0" stroke-linejoin="round" stroke-linecap="butt" d="m557.8985 109.75126l0 0c0 -10.97612 8.897888 -19.874016 19.874023 -19.874016l0 0c5.270874 0 10.325928 2.0938644 14.05304 5.820961c3.7271118 3.7271042 5.820923 8.782135 5.820923 14.053055l0 0c0 10.976112 -8.897888 19.874016 -19.873962 19.874016l0 0c-10.976135 0 -19.874023 -8.897903 -19.874023 -19.874016z" fill-rule="evenodd"/><path fill="#000000" fill-opacity="0.0" d="m563.7194 123.804306l-29.29132 16.7874" fill-rule="evenodd"/><path stroke="#000000" stroke-width="1.0" stroke-linejoin="round" stroke-linecap="butt" d="m563.7194 123.804306l-29.29132 16.7874" fill-rule="evenodd"/><path fill="#000000" fill-opacity="0.0" d="m534.4365 199.81485l30.771667 -16.18898" fill-rule="evenodd"/><path stroke="#000000" stroke-width="1.0" stroke-linejoin="round" stroke-linecap="butt" d="m534.4365 199.81485l30.771667 -16.18898" fill-rule="evenodd"/><path fill="#000000" fill-opacity="0.0" d="m528.6156 185.7618l35.118103 -61.95275" fill-rule="evenodd"/><path stroke="#000000" stroke-width="1.0" stroke-linejoin="round" stroke-linecap="butt" d="m528.6156 185.7618l35.118103 -61.95275" fill-rule="evenodd"/><path fill="#000000" fill-opacity="0.0" d="m565.2024 155.5276l-36.59845 -60.09449" fill-rule="evenodd"/><path stroke="#000000" stroke-width="1.0" stroke-linejoin="round" stroke-linecap="butt" d="m565.2024 155.5276l-36.59845 -60.09449" fill-rule="evenodd"/><path fill="#ffd966" d="m446.14172 81.391075l0 0c0 -5.27932 4.2797546 -9.5590515 9.5590515 -9.5590515l0 0c2.5352173 0 4.966614 1.0071106 6.7592773 2.7997818c1.7926636 1.7926712 2.7998047 4.2240524 2.7998047 6.7592697l0 0c0 5.27932 -4.2797546 9.559059 -9.559082 9.559059l0 0c-5.279297 0 -9.5590515 -4.2797394 -9.5590515 -9.559059z" fill-rule="evenodd"/><path stroke="#ffd966" stroke-width="2.0" stroke-linejoin="round" stroke-linecap="butt" d="m446.14172 81.391075l0 0c0 -5.27932 4.2797546 -9.5590515 9.5590515 -9.5590515l0 0c2.5352173 0 4.966614 1.0071106 6.7592773 2.7997818c1.7926636 1.7926712 2.7998047 4.2240524 2.7998047 6.7592697l0 0c0 5.27932 -4.2797546 9.559059 -9.559082 9.559059l0 0c-5.279297 0 -9.5590515 -4.2797394 -9.5590515 -9.559059z" fill-rule="evenodd"/><path fill="#ffd966" d="m446.14172 199.50656l0 0c0 -5.2793274 4.2797546 -9.5590515 9.5590515 -9.5590515l0 0c2.5352173 0 4.966614 1.0071106 6.7592773 2.7997742c1.7926636 1.7926788 2.7998047 4.22406 2.7998047 6.7592773l0 0c0 5.2793274 -4.2797546 9.5590515 -9.559082 9.5590515l0 0c-5.279297 0 -9.5590515 -4.279724 -9.5590515 -9.5590515z" fill-rule="evenodd"/><path stroke="#ffd966" stroke-width="2.0" stroke-linejoin="round" stroke-linecap="butt" d="m446.14172 199.50656l0 0c0 -5.2793274 4.2797546 -9.5590515 9.5590515 -9.5590515l0 0c2.5352173 0 4.966614 1.0071106 6.7592773 2.7997742c1.7926636 1.7926788 2.7998047 4.22406 2.7998047 6.7592773l0 0c0 5.2793274 -4.2797546 9.5590515 -9.559082 9.5590515l0 0c-5.279297 0 -9.5590515 -4.279724 -9.5590515 -9.5590515z" fill-rule="evenodd"/><path fill="#ffd966" d="m446.15222 140.45013l0 0c0 -5.2793274 4.2797546 -9.5590515 9.5590515 -9.5590515l0 0c2.5352173 0 4.966614 1.0071106 6.7592773 2.7997742c1.7926636 1.7926788 2.7998047 4.22406 2.7998047 6.7592773l0 0c0 5.279312 -4.2797546 9.5590515 -9.559082 9.5590515l0 0c-5.279297 0 -9.5590515 -4.2797394 -9.5590515 -9.5590515z" fill-rule="evenodd"/><path stroke="#ffd966" stroke-width="2.0" stroke-linejoin="round" stroke-linecap="butt" d="m446.15222 140.45013l0 0c0 -5.2793274 4.2797546 -9.5590515 9.5590515 -9.5590515l0 0c2.5352173 0 4.966614 1.0071106 6.7592773 2.7997742c1.7926636 1.7926788 2.7998047 4.22406 2.7998047 6.7592773l0 0c0 5.279312 -4.2797546 9.5590515 -9.559082 9.5590515l0 0c-5.279297 0 -9.5590515 -4.2797394 -9.5590515 -9.5590515z" fill-rule="evenodd"/><path fill="#ffd966" d="m569.69556 170.21523l0 0c0 -5.2793274 4.279724 -9.5590515 9.559021 -9.5590515l0 0c2.5352173 0 4.966614 1.0071106 6.7592773 2.7997742c1.7926636 1.7926788 2.7998047 4.22406 2.7998047 6.7592773l0 0c0 5.279312 -4.279724 9.5590515 -9.559082 9.5590515l0 0c-5.279297 0 -9.559021 -4.2797394 -9.559021 -9.5590515z" fill-rule="evenodd"/><path stroke="#ffd966" stroke-width="2.0" stroke-linejoin="round" stroke-linecap="butt" d="m569.69556 170.21523l0 0c0 -5.2793274 4.279724 -9.5590515 9.559021 -9.5590515l0 0c2.5352173 0 4.966614 1.0071106 6.7592773 2.7997742c1.7926636 1.7926788 2.7998047 4.22406 2.7998047 6.7592773l0 0c0 5.279312 -4.279724 9.5590515 -9.559082 9.5590515l0 0c-5.279297 0 -9.559021 -4.2797394 -9.559021 -9.5590515z" fill-rule="evenodd"/><path fill="#ffd966" d="m568.2126 111.002625l0 0c0 -5.27932 4.279724 -9.5590515 9.559082 -9.5590515l0 0c2.5352173 0 4.966614 1.0071106 6.7592773 2.7997818c1.7926636 1.7926712 2.7997437 4.2240524 2.7997437 6.7592697l0 0c0 5.27932 -4.279724 9.5590515 -9.559021 9.5590515l0 0c-5.279358 0 -9.559082 -4.2797318 -9.559082 -9.5590515z" fill-rule="evenodd"/><path stroke="#ffd966" stroke-width="2.0" stroke-linejoin="round" stroke-linecap="butt" d="m568.2126 111.002625l0 0c0 -5.27932 4.279724 -9.5590515 9.559082 -9.5590515l0 0c2.5352173 0 4.966614 1.0071106 6.7592773 2.7997818c1.7926636 1.7926712 2.7997437 4.2240524 2.7997437 6.7592697l0 0c0 5.27932 -4.279724 9.5590515 -9.559021 9.5590515l0 0c-5.279358 0 -9.559082 -4.2797318 -9.559082 -9.5590515z" fill-rule="evenodd"/><path fill="#000000" fill-opacity="0.0" d="m269.5958 81.391075l0 0c0 -5.27932 4.2797546 -9.5590515 9.5590515 -9.5590515l0 0c2.5352173 0 4.966614 1.0071106 6.7592773 2.7997818c1.7926636 1.7926712 2.7997742 4.2240524 2.7997742 6.7592697l0 0c0 5.27932 -4.279724 9.559059 -9.5590515 9.559059l0 0c-5.279297 0 -9.5590515 -4.2797394 -9.5590515 -9.559059z" fill-rule="evenodd"/><path stroke="#000000" stroke-width="2.0" stroke-linejoin="round" stroke-linecap="butt" d="m269.5958 81.391075l0 0c0 -5.27932 4.2797546 -9.5590515 9.5590515 -9.5590515l0 0c2.5352173 0 4.966614 1.0071106 6.7592773 2.7997818c1.7926636 1.7926712 2.7997742 4.2240524 2.7997742 6.7592697l0 0c0 5.27932 -4.279724 9.559059 -9.5590515 9.559059l0 0c-5.279297 0 -9.5590515 -4.2797394 -9.5590515 -9.559059z" fill-rule="evenodd"/><path fill="#000000" fill-opacity="0.0" d="m269.5958 199.51181l0 0c0 -5.279312 4.2797546 -9.5590515 9.5590515 -9.5590515l0 0c2.5352173 0 4.966614 1.0071106 6.7592773 2.7997742c1.7926636 1.7926788 2.7997742 4.22406 2.7997742 6.7592773l0 0c0 5.2793274 -4.279724 9.5590515 -9.5590515 9.5590515l0 0c-5.279297 0 -9.5590515 -4.279724 -9.5590515 -9.5590515z" fill-rule="evenodd"/><path stroke="#000000" stroke-width="2.0" stroke-linejoin="round" stroke-linecap="butt" d="m269.5958 199.51181l0 0c0 -5.279312 4.2797546 -9.5590515 9.5590515 -9.5590515l0 0c2.5352173 0 4.966614 1.0071106 6.7592773 2.7997742c1.7926636 1.7926788 2.7997742 4.22406 2.7997742 6.7592773l0 0c0 5.2793274 -4.279724 9.5590515 -9.5590515 9.5590515l0 0c-5.279297 0 -9.5590515 -4.279724 -9.5590515 -9.5590515z" fill-rule="evenodd"/><path fill="#000000" fill-opacity="0.0" d="m269.5643 140.45013l0 0c0 -5.2793274 4.279724 -9.5590515 9.5590515 -9.5590515l0 0c2.5352173 0 4.966614 1.0071106 6.7592773 2.7997742c1.7926636 1.7926788 2.7997742 4.22406 2.7997742 6.7592773l0 0c0 5.279312 -4.279724 9.5590515 -9.5590515 9.5590515l0 0c-5.2793274 0 -9.5590515 -4.2797394 -9.5590515 -9.5590515z" fill-rule="evenodd"/><path stroke="#000000" stroke-width="2.0" stroke-linejoin="round" stroke-linecap="butt" d="m269.5643 140.45013l0 0c0 -5.2793274 4.279724 -9.5590515 9.5590515 -9.5590515l0 0c2.5352173 0 4.966614 1.0071106 6.7592773 2.7997742c1.7926636 1.7926788 2.7997742 4.22406 2.7997742 6.7592773l0 0c0 5.279312 -4.279724 9.5590515 -9.5590515 9.5590515l0 0c-5.2793274 0 -9.5590515 -4.2797394 -9.5590515 -9.5590515z" fill-rule="evenodd"/></g></svg>