<svg version="1.1" viewBox="0.0 0.0 842.0839895013123 252.91601049868765" fill="none" stroke="none" stroke-linecap="square" stroke-miterlimit="10" xmlns:xlink="http://www.w3.org/1999/xlink" xmlns="http://www.w3.org/2000/svg"><clipPath id="p.0"><path d="m0 0l842.084 0l0 252.91602l-842.084 0l0 -252.91602z" clip-rule="nonzero"/></clipPath><g clip-path="url(#p.0)"><path fill="#ffffff" d="m0 0l842.084 0l0 252.91602l-842.084 0z" fill-rule="evenodd"/><path fill="#000000" fill-opacity="0.0" d="m440.08923 68.59449l0 0c0 -5.2793236 4.2797546 -9.559055 9.5590515 -9.559055l0 0c2.5352173 0 4.966614 1.0071106 6.7592773 2.7997818c1.7926636 1.7926712 2.7997742 4.2240562 2.7997742 6.7592735l0 0c0 5.27932 -4.279724 9.5590515 -9.5590515 9.5590515l0 0c-5.279297 0 -9.5590515 -4.2797318 -9.5590515 -9.5590515z" fill-rule="evenodd"/><path stroke="#000000" stroke-width="1.0" stroke-linejoin="round" stroke-linecap="butt" d="m440.08923 68.59449l0 0c0 -5.2793236 4.2797546 -9.559055 9.5590515 -9.559055l0 0c2.5352173 0 4.966614 1.0071106 6.7592773 2.7997818c1.7926636 1.7926712 2.7997742 4.2240562 2.7997742 6.7592735l0 0c0 5.27932 -4.279724 9.5590515 -9.5590515 9.5590515l0 0c-5.279297 0 -9.5590515 -4.2797318 -9.5590515 -9.5590515z" fill-rule="evenodd"/><path fill="#000000" fill-opacity="0.0" d="m381.22833 188.59448l0 0c0 -5.279312 4.2797546 -9.5590515 9.559082 -9.5590515l0 0c2.5352173 0 4.9665833 1.0071106 6.759247 2.7997894c1.7926941 1.7926636 2.7998047 4.224045 2.7998047 6.759262l0 0c0 5.2793274 -4.2797546 9.559067 -9.5590515 9.559067l0 0c-5.2793274 0 -9.559082 -4.2797394 -9.559082 -9.559067z" fill-rule="evenodd"/><path stroke="#000000" stroke-width="1.0" stroke-linejoin="round" stroke-linecap="butt" d="m381.22833 188.59448l0 0c0 -5.279312 4.2797546 -9.5590515 9.559082 -9.5590515l0 0c2.5352173 0 4.9665833 1.0071106 6.759247 2.7997894c1.7926941 1.7926636 2.7998047 4.224045 2.7998047 6.759262l0 0c0 5.2793274 -4.2797546 9.559067 -9.5590515 9.559067l0 0c-5.2793274 0 -9.559082 -4.2797394 -9.559082 -9.559067z" fill-rule="evenodd"/><path fill="#000000" fill-opacity="0.0" d="m381.23883 128.59448l0 0c0 -5.279312 4.2797546 -9.5590515 9.559082 -9.5590515l0 0c2.5352173 0 4.9665833 1.0071106 6.759247 2.7997818c1.7926941 1.7926712 2.7998047 4.22406 2.7998047 6.7592697l0 0c0 5.2793274 -4.2797546 9.559067 -9.5590515 9.559067l0 0c-5.2793274 0 -9.559082 -4.2797394 -9.559082 -9.559067z" fill-rule="evenodd"/><path stroke="#000000" stroke-width="1.0" stroke-linejoin="round" stroke-linecap="butt" d="m381.23883 128.59448l0 0c0 -5.279312 4.2797546 -9.5590515 9.559082 -9.5590515l0 0c2.5352173 0 4.9665833 1.0071106 6.759247 2.7997818c1.7926941 1.7926712 2.7998047 4.22406 2.7998047 6.7592697l0 0c0 5.2793274 -4.2797546 9.559067 -9.5590515 9.559067l0 0c-5.2793274 0 -9.559082 -4.2797394 -9.559082 -9.559067z" fill-rule="evenodd"/><path fill="#000000" fill-opacity="0.0" d="m440.08923 188.59448l0 0c0 -5.279312 4.2797546 -9.5590515 9.5590515 -9.5590515l0 0c2.5352173 0 4.966614 1.0071106 6.7592773 2.7997894c1.7926636 1.7926636 2.7997742 4.224045 2.7997742 6.759262l0 0c0 5.2793274 -4.279724 9.559067 -9.5590515 9.559067l0 0c-5.279297 0 -9.5590515 -4.2797394 -9.5590515 -9.559067z" fill-rule="evenodd"/><path stroke="#000000" stroke-width="1.0" stroke-linejoin="round" stroke-linecap="butt" d="m440.08923 188.59448l0 0c0 -5.279312 4.2797546 -9.5590515 9.5590515 -9.5590515l0 0c2.5352173 0 4.966614 1.0071106 6.7592773 2.7997894c1.7926636 1.7926636 2.7997742 4.224045 2.7997742 6.759262l0 0c0 5.2793274 -4.279724 9.559067 -9.5590515 9.559067l0 0c-5.279297 0 -9.5590515 -4.2797394 -9.5590515 -9.559067z" fill-rule="evenodd"/><path fill="#000000" fill-opacity="0.0" d="m440.08923 128.59448l0 0c0 -5.279312 4.2797546 -9.5590515 9.5590515 -9.5590515l0 0c2.5352173 0 4.966614 1.0071106 6.7592773 2.7997818c1.7926636 1.7926712 2.7997742 4.22406 2.7997742 6.7592697l0 0c0 5.2793274 -4.279724 9.559067 -9.5590515 9.559067l0 0c-5.279297 0 -9.5590515 -4.2797394 -9.5590515 -9.559067z" fill-rule="evenodd"/><path stroke="#000000" stroke-width="1.0" stroke-linejoin="round" stroke-linecap="butt" d="m440.08923 128.59448l0 0c0 -5.279312 4.2797546 -9.5590515 9.5590515 -9.5590515l0 0c2.5352173 0 4.966614 1.0071106 6.7592773 2.7997818c1.7926636 1.7926712 2.7997742 4.22406 2.7997742 6.7592697l0 0c0 5.2793274 -4.279724 9.559067 -9.5590515 9.559067l0 0c-5.279297 0 -9.5590515 -4.2797394 -9.5590515 -9.559067z" fill-rule="evenodd"/><path fill="#000000" fill-opacity="0.0" d="m381.23358 68.59449l0 0c0 -5.2793236 4.2797546 -9.559055 9.559082 -9.559055l0 0c2.5352173 0 4.9665833 1.0071106 6.759247 2.7997818c1.7926941 1.7926712 2.7998047 4.2240562 2.7998047 6.7592735l0 0c0 5.27932 -4.2797546 9.5590515 -9.5590515 9.5590515l0 0c-5.2793274 0 -9.559082 -4.2797318 -9.559082 -9.5590515z" fill-rule="evenodd"/><path stroke="#000000" stroke-width="1.0" stroke-linejoin="round" stroke-linecap="butt" d="m381.23358 68.59449l0 0c0 -5.2793236 4.2797546 -9.559055 9.559082 -9.559055l0 0c2.5352173 0 4.9665833 1.0071106 6.759247 2.7997818c1.7926941 1.7926712 2.7998047 4.2240562 2.7998047 6.7592735l0 0c0 5.27932 -4.2797546 9.5590515 -9.5590515 9.5590515l0 0c-5.2793274 0 -9.559082 -4.2797318 -9.559082 -9.5590515z" fill-rule="evenodd"/><path fill="#ffd966" d="m312.0628 87.603676l0 0c0 -10.97612 8.897919 -19.874016 19.874023 -19.874016l0 0c5.270935 0 10.325958 2.0938644 14.05307 5.820961c3.7270813 3.7271042 5.8209534 8.782135 5.8209534 14.053055l0 0c0 10.976112 -8.897888 19.874016 -19.874023 19.874016l0 0c-10.976105 0 -19.874023 -8.897903 -19.874023 -19.874016z" fill-rule="evenodd"/><path stroke="#000000" stroke-width="1.0" stroke-linejoin="round" stroke-linecap="butt" d="m312.0628 87.603676l0 0c0 -10.97612 8.897919 -19.874016 19.874023 -19.874016l0 0c5.270935 0 10.325958 2.0938644 14.05307 5.820961c3.7270813 3.7271042 5.8209534 8.782135 5.8209534 14.053055l0 0c0 10.976112 -8.897888 19.874016 -19.874023 19.874016l0 0c-10.976105 0 -19.874023 -8.897903 -19.874023 -19.874016z" fill-rule="evenodd"/><path fill="#6fa8dc" d="m370.91736 146.81557l0 0c0 -10.97612 8.897919 -19.874023 19.874023 -19.874023l0 0c5.2709045 0 10.325958 2.093872 14.05304 5.8209686c3.7271118 3.7270966 5.820984 8.782135 5.820984 14.053055l0 0c0 10.976105 -8.897919 19.874008 -19.874023 19.874008l0 0c-10.976105 0 -19.874023 -8.897903 -19.874023 -19.874008z" fill-rule="evenodd"/><path stroke="#000000" stroke-width="1.0" stroke-linejoin="round" stroke-linecap="butt" d="m370.91736 146.81557l0 0c0 -10.97612 8.897919 -19.874023 19.874023 -19.874023l0 0c5.2709045 0 10.325958 2.093872 14.05304 5.8209686c3.7271118 3.7270966 5.820984 8.782135 5.820984 14.053055l0 0c0 10.976105 -8.897919 19.874008 -19.874023 19.874008l0 0c-10.976105 0 -19.874023 -8.897903 -19.874023 -19.874008z" fill-rule="evenodd"/><path fill="#000000" fill-opacity="0.0" d="m345.9899 101.65672l30.740143 31.118118" fill-rule="evenodd"/><path stroke="#000000" stroke-width="1.0" stroke-linejoin="round" stroke-linecap="butt" d="m345.9899 101.65672l30.740143 31.118118" fill-rule="evenodd"/><path fill="#000000" fill-opacity="0.0" d="m345.9899 191.9744l30.740143 -31.118103" fill-rule="evenodd"/><path stroke="#000000" stroke-width="1.0" stroke-linejoin="round" stroke-linecap="butt" d="m345.9899 191.9744l30.740143 -31.118103" fill-rule="evenodd"/><path fill="#ffd966" d="m312.0628 206.02745l0 0c0 -10.97612 8.897919 -19.874023 19.874023 -19.874023l0 0c5.270935 0 10.325958 2.093872 14.05307 5.8209686c3.7270813 3.7270966 5.8209534 8.782135 5.8209534 14.053055l0 0c0 10.97612 -8.897888 19.874008 -19.874023 19.874008l0 0c-10.976105 0 -19.874023 -8.897888 -19.874023 -19.874008z" fill-rule="evenodd"/><path stroke="#000000" stroke-width="1.0" stroke-linejoin="round" stroke-linecap="butt" d="m312.0628 206.02745l0 0c0 -10.97612 8.897919 -19.874023 19.874023 -19.874023l0 0c5.270935 0 10.325958 2.093872 14.05307 5.8209686c3.7270813 3.7270966 5.8209534 8.782135 5.8209534 14.053055l0 0c0 10.97612 -8.897888 19.874008 -19.874023 19.874008l0 0c-10.976105 0 -19.874023 -8.897888 -19.874023 -19.874008z" fill-rule="evenodd"/><path fill="#ffd966" d="m312.0628 146.81557l0 0c0 -10.97612 8.897919 -19.874023 19.874023 -19.874023l0 0c5.270935 0 10.325958 2.093872 14.05307 5.8209686c3.7270813 3.7270966 5.8209534 8.782135 5.8209534 14.053055l0 0c0 10.976105 -8.897888 19.874008 -19.874023 19.874008l0 0c-10.976105 0 -19.874023 -8.897903 -19.874023 -19.874008z" fill-rule="evenodd"/><path stroke="#000000" stroke-width="1.0" stroke-linejoin="round" stroke-linecap="butt" d="m312.0628 146.81557l0 0c0 -10.97612 8.897919 -19.874023 19.874023 -19.874023l0 0c5.270935 0 10.325958 2.093872 14.05307 5.8209686c3.7270813 3.7270966 5.8209534 8.782135 5.8209534 14.053055l0 0c0 10.976105 -8.897888 19.874008 -19.874023 19.874008l0 0c-10.976105 0 -19.874023 -8.897903 -19.874023 -19.874008z" fill-rule="evenodd"/><path fill="#6fa8dc" d="m429.77512 146.81557l0 0c0 -10.97612 8.897919 -19.874023 19.874023 -19.874023l0 0c5.2709045 0 10.325958 2.093872 14.05304 5.8209686c3.7271118 3.7270966 5.820984 8.782135 5.820984 14.053055l0 0c0 10.976105 -8.897919 19.874008 -19.874023 19.874008l0 0c-10.976105 0 -19.874023 -8.897903 -19.874023 -19.874008z" fill-rule="evenodd"/><path stroke="#000000" stroke-width="1.0" stroke-linejoin="round" stroke-linecap="butt" d="m429.77512 146.81557l0 0c0 -10.97612 8.897919 -19.874023 19.874023 -19.874023l0 0c5.2709045 0 10.325958 2.093872 14.05304 5.8209686c3.7271118 3.7270966 5.820984 8.782135 5.820984 14.053055l0 0c0 10.976105 -8.897919 19.874008 -19.874023 19.874008l0 0c-10.976105 0 -19.874023 -8.897903 -19.874023 -19.874008z" fill-rule="evenodd"/><path fill="#6fa8dc" d="m370.91898 87.603676l0 0c0 -10.97612 8.897888 -19.874016 19.874023 -19.874016l0 0c5.2709045 0 10.325928 2.0938644 14.05304 5.820961c3.7271118 3.7271042 5.8209534 8.782135 5.8209534 14.053055l0 0c0 10.976112 -8.897888 19.874016 -19.873993 19.874016l0 0c-10.976135 0 -19.874023 -8.897903 -19.874023 -19.874016z" fill-rule="evenodd"/><path stroke="#000000" stroke-width="1.0" stroke-linejoin="round" stroke-linecap="butt" d="m370.91898 87.603676l0 0c0 -10.97612 8.897888 -19.874016 19.874023 -19.874016l0 0c5.2709045 0 10.325928 2.0938644 14.05304 5.820961c3.7271118 3.7271042 5.8209534 8.782135 5.8209534 14.053055l0 0c0 10.976112 -8.897888 19.874016 -19.873993 19.874016l0 0c-10.976135 0 -19.874023 -8.897903 -19.874023 -19.874016z" fill-rule="evenodd"/><path fill="#6fa8dc" d="m429.77512 87.603676l0 0c0 -10.97612 8.897919 -19.874016 19.874023 -19.874016l0 0c5.2709045 0 10.325958 2.0938644 14.05304 5.820961c3.7271118 3.7271042 5.820984 8.782135 5.820984 14.053055l0 0c0 10.976112 -8.897919 19.874016 -19.874023 19.874016l0 0c-10.976105 0 -19.874023 -8.897903 -19.874023 -19.874016z" fill-rule="evenodd"/><path stroke="#000000" stroke-width="1.0" stroke-linejoin="round" stroke-linecap="butt" d="m429.77512 87.603676l0 0c0 -10.97612 8.897919 -19.874016 19.874023 -19.874016l0 0c5.2709045 0 10.325958 2.0938644 14.05304 5.820961c3.7271118 3.7271042 5.820984 8.782135 5.820984 14.053055l0 0c0 10.976112 -8.897919 19.874016 -19.874023 19.874016l0 0c-10.976105 0 -19.874023 -8.897903 -19.874023 -19.874016z" fill-rule="evenodd"/><path fill="#6fa8dc" d="m370.91898 206.02745l0 0c0 -10.97612 8.897888 -19.874023 19.874023 -19.874023l0 0c5.2709045 0 10.325928 2.093872 14.05304 5.8209686c3.7271118 3.7270966 5.8209534 8.782135 5.8209534 14.053055l0 0c0 10.97612 -8.897888 19.874008 -19.873993 19.874008l0 0c-10.976135 0 -19.874023 -8.897888 -19.874023 -19.874008z" fill-rule="evenodd"/><path stroke="#000000" stroke-width="1.0" stroke-linejoin="round" stroke-linecap="butt" d="m370.91898 206.02745l0 0c0 -10.97612 8.897888 -19.874023 19.874023 -19.874023l0 0c5.2709045 0 10.325928 2.093872 14.05304 5.8209686c3.7271118 3.7270966 5.8209534 8.782135 5.8209534 14.053055l0 0c0 10.97612 -8.897888 19.874008 -19.873993 19.874008l0 0c-10.976135 0 -19.874023 -8.897888 -19.874023 -19.874008z" fill-rule="evenodd"/><path fill="#6fa8dc" d="m429.77512 206.02745l0 0c0 -10.97612 8.897919 -19.874023 19.874023 -19.874023l0 0c5.2709045 0 10.325958 2.093872 14.05304 5.8209686c3.7271118 3.7270966 5.820984 8.782135 5.820984 14.053055l0 0c0 10.97612 -8.897919 19.874008 -19.874023 19.874008l0 0c-10.976105 0 -19.874023 -8.897888 -19.874023 -19.874008z" fill-rule="evenodd"/><path stroke="#000000" stroke-width="1.0" stroke-linejoin="round" stroke-linecap="butt" d="m429.77512 206.02745l0 0c0 -10.97612 8.897919 -19.874023 19.874023 -19.874023l0 0c5.2709045 0 10.325958 2.093872 14.05304 5.8209686c3.7271118 3.7270966 5.820984 8.782135 5.820984 14.053055l0 0c0 10.97612 -8.897919 19.874008 -19.874023 19.874008l0 0c-10.976105 0 -19.874023 -8.897888 -19.874023 -19.874008z" fill-rule="evenodd"/><path fill="#000000" fill-opacity="0.0" d="m390.793 186.15343l0 -19.464554" fill-rule="evenodd"/><path stroke="#000000" stroke-width="1.0" stroke-linejoin="round" stroke-linecap="butt" d="m390.793 186.15343l0 -19.464554" fill-rule="evenodd"/><path fill="#000000" fill-opacity="0.0" d="m410.6654 146.81557l19.118103 0" fill-rule="evenodd"/><path stroke="#000000" stroke-width="1.0" stroke-linejoin="round" stroke-linecap="butt" d="m410.6654 146.81557l19.118103 0" fill-rule="evenodd"/><path fill="#000000" fill-opacity="0.0" d="m410.667 206.02745l19.118134 0" fill-rule="evenodd"/><path stroke="#000000" stroke-width="1.0" stroke-linejoin="round" stroke-linecap="butt" d="m410.667 206.02745l19.118134 0" fill-rule="evenodd"/><path fill="#000000" fill-opacity="0.0" d="m435.5961 191.9744l-30.740173 -31.118103" fill-rule="evenodd"/><path stroke="#000000" stroke-width="1.0" stroke-linejoin="round" stroke-linecap="butt" d="m435.5961 191.9744l-30.740173 -31.118103" fill-rule="evenodd"/><path fill="#000000" fill-opacity="0.0" d="m370.91898 206.02745l-19.118103 0" fill-rule="evenodd"/><path stroke="#000000" stroke-width="1.0" stroke-linejoin="round" stroke-linecap="butt" d="m370.91898 206.02745l-19.118103 0" fill-rule="evenodd"/><path fill="#000000" fill-opacity="0.0" d="m376.73993 191.9744l-30.740143 -31.118103" fill-rule="evenodd"/><path stroke="#000000" stroke-width="1.0" stroke-linejoin="round" stroke-linecap="butt" d="m376.73993 191.9744l-30.740143 -31.118103" fill-rule="evenodd"/><path fill="#000000" fill-opacity="0.0" d="m345.9899 132.76251l30.740143 -31.11811" fill-rule="evenodd"/><path stroke="#000000" stroke-width="1.0" stroke-linejoin="round" stroke-linecap="butt" d="m345.9899 132.76251l30.740143 -31.11811" fill-rule="evenodd"/><path fill="#000000" fill-opacity="0.0" d="m351.81085 87.603676l19.118103 0" fill-rule="evenodd"/><path stroke="#000000" stroke-width="1.0" stroke-linejoin="round" stroke-linecap="butt" d="m351.81085 87.603676l19.118103 0" fill-rule="evenodd"/><path fill="#000000" fill-opacity="0.0" d="m410.667 87.603676l19.118134 0" fill-rule="evenodd"/><path stroke="#000000" stroke-width="1.0" stroke-linejoin="round" stroke-linecap="butt" d="m410.667 87.603676l19.118134 0" fill-rule="evenodd"/><path fill="#000000" fill-opacity="0.0" d="m390.793 107.47769l0 19.46457" fill-rule="evenodd"/><path stroke="#000000" stroke-width="1.0" stroke-linejoin="round" stroke-linecap="butt" d="m390.793 107.47769l0 19.46457" fill-rule="evenodd"/><path fill="#000000" fill-opacity="0.0" d="m351.81085 146.81557l19.118103 0" fill-rule="evenodd"/><path stroke="#000000" stroke-width="1.0" stroke-linejoin="round" stroke-linecap="butt" d="m351.81085 146.81557l19.118103 0" fill-rule="evenodd"/><path fill="#000000" fill-opacity="0.0" d="m435.5961 101.65672l-30.740173 31.118118" fill-rule="evenodd"/><path stroke="#000000" stroke-width="1.0" stroke-linejoin="round" stroke-linecap="butt" d="m435.5961 101.65672l-30.740173 31.118118" fill-rule="evenodd"/><path fill="#000000" fill-opacity="0.0" d="m0 4.266404l840.4409 0l0 42.01575l-840.4409 0z" fill-rule="evenodd"/><path fill="#000000" d="m277.48578 31.186403l0 -13.359375l5.6875 0q2.140625 0 3.109375 0.359375q0.96875 0.359375 1.546875 1.28125q0.578125 0.921875 0.578125 2.109375q0 1.5 -0.890625 2.484375q-0.875 0.96875 -2.625 1.234375q0.875 0.5 1.4375 1.125q0.578125 0.609375 1.53125 2.15625l1.640625 2.609375l-3.234375 0l-1.9375 -2.90625q-1.046875 -1.5625 -1.4375 -1.96875q-0.375 -0.40625 -0.8125 -0.546875q-0.421875 -0.15625 -1.34375 -0.15625l-0.546875 0l0 5.578125l-2.703125 0zm2.703125 -7.703125l2.0 0q1.9375 0 2.421875 -0.15625q0.484375 -0.171875 0.75 -0.578125q0.28125 -0.40625 0.28125 -1.0q0 -0.671875 -0.359375 -1.078125q-0.359375 -0.421875 -1.015625 -0.53125q-0.328125 -0.046875 -1.96875 -0.046875l-2.109375 0l0 3.390625zm16.347961 4.625l2.546875 0.421875q-0.484375 1.40625 -1.546875 2.140625q-1.0625 0.734375 -2.65625 0.734375q-2.515625 0 -3.734375 -1.65625q-0.953125 -1.3125 -0.953125 -3.328125q0 -2.40625 1.25 -3.765625q1.265625 -1.359375 3.1875 -1.359375q2.15625 0 3.40625 1.421875q1.25 1.421875 1.1875 4.375l-6.40625 0q0.03125 1.140625 0.609375 1.78125q0.59375 0.625 1.484375 0.625q0.59375 0 1.0 -0.328125q0.421875 -0.328125 0.625 -1.0625zm0.15625 -2.59375q-0.03125 -1.109375 -0.578125 -1.6875q-0.546875 -0.578125 -1.328125 -0.578125q-0.84375 0 -1.390625 0.609375q-0.546875 0.609375 -0.53125 1.65625l3.828125 0zm13.063202 -1.140625l-2.53125 0.453125q-0.125 -0.75 -0.578125 -1.125q-0.453125 -0.390625 -1.171875 -0.390625q-0.953125 0 -1.53125 0.65625q-0.5625 0.65625 -0.5625 2.203125q0 1.734375 0.578125 2.4375q0.578125 0.703125 1.546875 0.703125q0.734375 0 1.203125 -0.40625q0.46875 -0.421875 0.65625 -1.421875l2.515625 0.421875q-0.390625 1.734375 -1.515625 2.625q-1.109375 0.875 -2.96875 0.875q-2.125 0 -3.390625 -1.328125q-1.25 -1.34375 -1.25 -3.71875q0 -2.390625 1.265625 -3.71875q1.265625 -1.34375 3.421875 -1.34375q1.765625 0 2.796875 0.765625q1.046875 0.75 1.515625 2.3125zm8.297577 6.8125l0 -1.453125q-0.53125 0.78125 -1.390625 1.234375q-0.859375 0.4375 -1.8125 0.4375q-0.96875 0 -1.75 -0.421875q-0.765625 -0.4375 -1.125 -1.203125q-0.34375 -0.78125 -0.34375 -2.140625l0 -6.125l2.5625 0l0 4.4375q0 2.046875 0.140625 2.515625q0.140625 0.453125 0.515625 0.71875q0.375 0.265625 0.953125 0.265625q0.65625 0 1.171875 -0.359375q0.515625 -0.359375 0.703125 -0.890625q0.203125 -0.53125 0.203125 -2.609375l0 -4.078125l2.546875 0l0 9.671875l-2.375 0zm7.489746 0l-2.5625 0l0 -9.671875l2.375 0l0 1.375q0.609375 -0.984375 1.09375 -1.28125q0.484375 -0.3125 1.109375 -0.3125q0.875 0 1.6875 0.484375l-0.796875 2.234375q-0.640625 -0.421875 -1.203125 -0.421875q-0.53125 0 -0.90625 0.296875q-0.375 0.296875 -0.59375 1.078125q-0.203125 0.765625 -0.203125 3.234375l0 2.984375zm7.260254 0l-2.5625 0l0 -9.671875l2.375 0l0 1.375q0.609375 -0.984375 1.09375 -1.28125q0.484375 -0.3125 1.109375 -0.3125q0.875 0 1.6875 0.484375l-0.796875 2.234375q-0.640625 -0.421875 -1.203125 -0.421875q-0.53125 0 -0.90625 0.296875q-0.375 0.296875 -0.59375 1.078125q-0.203125 0.765625 -0.203125 3.234375l0 2.984375zm10.400909 -3.078125l2.546875 0.421875q-0.484375 1.40625 -1.546875 2.140625q-1.0625 0.734375 -2.65625 0.734375q-2.515625 0 -3.734375 -1.65625q-0.953125 -1.3125 -0.953125 -3.328125q0 -2.40625 1.25 -3.765625q1.265625 -1.359375 3.1875 -1.359375q2.15625 0 3.40625 1.421875q1.25 1.421875 1.1875 4.375l-6.40625 0q0.03125 1.140625 0.609375 1.78125q0.59375 0.625 1.484375 0.625q0.59375 0 1.0 -0.328125q0.421875 -0.328125 0.625 -1.0625zm0.15625 -2.59375q-0.03125 -1.109375 -0.578125 -1.6875q-0.546875 -0.578125 -1.328125 -0.578125q-0.84375 0 -1.390625 0.609375q-0.546875 0.609375 -0.53125 1.65625l3.828125 0zm13.422577 5.671875l-2.5625 0l0 -4.9375q0 -1.5625 -0.171875 -2.015625q-0.15625 -0.46875 -0.53125 -0.71875q-0.359375 -0.265625 -0.875 -0.265625q-0.671875 0 -1.203125 0.375q-0.53125 0.359375 -0.734375 0.96875q-0.1875 0.59375 -0.1875 2.21875l0 4.375l-2.546875 0l0 -9.671875l2.375 0l0 1.421875q1.265625 -1.640625 3.1875 -1.640625q0.84375 0 1.546875 0.3125q0.703125 0.296875 1.0625 0.78125q0.359375 0.46875 0.5 1.078125q0.140625 0.59375 0.140625 1.703125l0 6.015625zm7.036621 -9.671875l0 2.03125l-1.75 0l0 3.90625q0 1.1875 0.046875 1.390625q0.046875 0.1875 0.21875 0.3125q0.1875 0.125 0.4375 0.125q0.359375 0 1.03125 -0.25l0.21875 2.0q-0.890625 0.375 -2.015625 0.375q-0.703125 0 -1.265625 -0.234375q-0.546875 -0.234375 -0.8125 -0.59375q-0.25 -0.375 -0.34375 -1.0q-0.09375 -0.453125 -0.09375 -1.8125l0 -4.21875l-1.171875 0l0 -2.03125l1.171875 0l0 -1.921875l2.578125 -1.5l0 3.421875l1.75 0zm7.005371 9.671875l0 -13.359375l2.625 0l5.453125 8.921875l0 -8.921875l2.515625 0l0 13.359375l-2.703125 0l-5.390625 -8.703125l0 8.703125l-2.5 0zm19.019806 -3.078125l2.546875 0.421875q-0.484375 1.40625 -1.546875 2.140625q-1.0625 0.734375 -2.65625 0.734375q-2.515625 0 -3.734375 -1.65625q-0.953125 -1.3125 -0.953125 -3.328125q0 -2.40625 1.25 -3.765625q1.265625 -1.359375 3.1875 -1.359375q2.15625 0 3.40625 1.421875q1.25 1.421875 1.1875 4.375l-6.40625 0q0.03125 1.140625 0.609375 1.78125q0.59375 0.625 1.484375 0.625q0.59375 0 1.0 -0.328125q0.421875 -0.328125 0.625 -1.0625zm0.15625 -2.59375q-0.03125 -1.109375 -0.578125 -1.6875q-0.546875 -0.578125 -1.328125 -0.578125q-0.84375 0 -1.390625 0.609375q-0.546875 0.609375 -0.53125 1.65625l3.828125 0zm10.985077 5.671875l0 -1.453125q-0.53125 0.78125 -1.390625 1.234375q-0.859375 0.4375 -1.8125 0.4375q-0.96875 0 -1.75 -0.421875q-0.765625 -0.4375 -1.125 -1.203125q-0.34375 -0.78125 -0.34375 -2.140625l0 -6.125l2.5625 0l0 4.4375q0 2.046875 0.140625 2.515625q0.140625 0.453125 0.515625 0.71875q0.375 0.265625 0.953125 0.265625q0.65625 0 1.171875 -0.359375q0.515625 -0.359375 0.703125 -0.890625q0.203125 -0.53125 0.203125 -2.609375l0 -4.078125l2.546875 0l0 9.671875l-2.375 0zm7.489746 0l-2.5625 0l0 -9.671875l2.375 0l0 1.375q0.609375 -0.984375 1.09375 -1.28125q0.484375 -0.3125 1.109375 -0.3125q0.875 0 1.6875 0.484375l-0.796875 2.234375q-0.640625 -0.421875 -1.203125 -0.421875q-0.53125 0 -0.90625 0.296875q-0.375 0.296875 -0.59375 1.078125q-0.203125 0.765625 -0.203125 3.234375l0 2.984375zm6.713379 -6.71875l-2.328125 -0.421875q0.40625 -1.40625 1.359375 -2.078125q0.953125 -0.671875 2.84375 -0.671875q1.703125 0 2.546875 0.40625q0.84375 0.40625 1.171875 1.03125q0.34375 0.625 0.34375 2.28125l-0.015625 3.0q0 1.265625 0.109375 1.875q0.125 0.609375 0.46875 1.296875l-2.53125 0q-0.109375 -0.25 -0.25 -0.75q-0.0625 -0.234375 -0.09375 -0.3125q-0.65625 0.640625 -1.40625 0.96875q-0.734375 0.3125 -1.59375 0.3125q-1.484375 0 -2.34375 -0.8125q-0.859375 -0.8125 -0.859375 -2.046875q0 -0.828125 0.390625 -1.46875q0.390625 -0.640625 1.09375 -0.96875q0.703125 -0.34375 2.03125 -0.609375q1.796875 -0.328125 2.484375 -0.625l0 -0.25q0 -0.75 -0.359375 -1.0625q-0.359375 -0.3125 -1.375 -0.3125q-0.6875 0 -1.078125 0.28125q-0.375 0.265625 -0.609375 0.9375zm3.421875 2.078125q-0.484375 0.15625 -1.5625 0.390625q-1.0625 0.21875 -1.390625 0.4375q-0.5 0.359375 -0.5 0.90625q0 0.53125 0.40625 0.9375q0.40625 0.390625 1.015625 0.390625q0.703125 0 1.328125 -0.46875q0.46875 -0.34375 0.609375 -0.84375q0.09375 -0.328125 0.09375 -1.25l0 -0.5zm5.0476074 4.640625l0 -13.359375l2.5625 0l0 13.359375l-2.5625 0zm10.413483 0l0 -13.359375l2.625 0l5.453125 8.921875l0 -8.921875l2.515625 0l0 13.359375l-2.703125 0l-5.390625 -8.703125l0 8.703125l-2.5 0zm19.019806 -3.078125l2.546875 0.421875q-0.484375 1.40625 -1.546875 2.140625q-1.0625 0.734375 -2.65625 0.734375q-2.515625 0 -3.734375 -1.65625q-0.953125 -1.3125 -0.953125 -3.328125q0 -2.40625 1.25 -3.765625q1.265625 -1.359375 3.1875 -1.359375q2.15625 0 3.40625 1.421875q1.25 1.421875 1.1875 4.375l-6.40625 0q0.03125 1.140625 0.609375 1.78125q0.59375 0.625 1.484375 0.625q0.59375 0 1.0 -0.328125q0.421875 -0.328125 0.625 -1.0625zm0.15625 -2.59375q-0.03125 -1.109375 -0.578125 -1.6875q-0.546875 -0.578125 -1.328125 -0.578125q-0.84375 0 -1.390625 0.609375q-0.546875 0.609375 -0.53125 1.65625l3.828125 0zm9.063232 -4.0l0 2.03125l-1.75 0l0 3.90625q0 1.1875 0.046875 1.390625q0.046875 0.1875 0.21875 0.3125q0.1875 0.125 0.4375 0.125q0.359375 0 1.03125 -0.25l0.21875 2.0q-0.890625 0.375 -2.015625 0.375q-0.703125 0 -1.265625 -0.234375q-0.546875 -0.234375 -0.8125 -0.59375q-0.25 -0.375 -0.34375 -1.0q-0.09375 -0.453125 -0.09375 -1.8125l0 -4.21875l-1.171875 0l0 -2.03125l1.171875 0l0 -1.921875l2.578125 -1.5l0 3.421875l1.75 0zm3.572052 9.671875l-3.0625 -9.671875l2.484375 0l1.8125 6.34375l1.671875 -6.34375l2.46875 0l1.609375 6.34375l1.859375 -6.34375l2.515625 0l-3.109375 9.671875l-2.453125 0l-1.671875 -6.21875l-1.640625 6.21875l-2.484375 0zm12.120819 -4.96875q0 -1.28125 0.625 -2.46875q0.625 -1.203125 1.78125 -1.828125q1.15625 -0.625 2.578125 -0.625q2.1875 0 3.59375 1.421875q1.40625 1.421875 1.40625 3.609375q0 2.1875 -1.421875 3.640625q-1.421875 1.4375 -3.5625 1.4375q-1.328125 0 -2.546875 -0.59375q-1.203125 -0.609375 -1.828125 -1.765625q-0.625 -1.171875 -0.625 -2.828125zm2.625 0.125q0 1.453125 0.671875 2.21875q0.6875 0.75 1.6875 0.75q1.0 0 1.671875 -0.75q0.6875 -0.765625 0.6875 -2.234375q0 -1.421875 -0.6875 -2.1875q-0.671875 -0.765625 -1.671875 -0.765625q-1.0 0 -1.6875 0.765625q-0.671875 0.765625 -0.671875 2.203125zm11.817841 4.84375l-2.5625 0l0 -9.671875l2.375 0l0 1.375q0.609375 -0.984375 1.09375 -1.28125q0.484375 -0.3125 1.109375 -0.3125q0.875 0 1.6875 0.484375l-0.796875 2.234375q-0.640625 -0.421875 -1.203125 -0.421875q-0.53125 0 -0.90625 0.296875q-0.375 0.296875 -0.59375 1.078125q-0.203125 0.765625 -0.203125 3.234375l0 2.984375zm4.7134094 0l0 -13.359375l2.5625 0l0 7.09375l3.0 -3.40625l3.140625 0l-3.296875 3.53125l3.53125 6.140625l-2.75 0l-2.4375 -4.34375l-1.1875 1.25l0 3.09375l-2.5625 0zm19.887146 3.921873l-1.75 0q-1.390625 -2.09375 -2.125 -4.359373q-0.734375 -2.28125 -0.734375 -4.40625q0 -2.625 0.90625 -4.96875q0.78125 -2.046875 1.984375 -3.765625l1.75 0q-1.25 2.75 -1.71875 4.6875q-0.46875 1.9375 -0.46875 4.109375q0 1.5 0.28125 3.0625q0.28125 1.5625 0.765625 2.968748q0.3125 0.9375 1.109375 2.671875zm1.9938965 -3.921873l0 -13.359375l5.6875 0q2.140625 0 3.109375 0.359375q0.96875 0.359375 1.546875 1.28125q0.578125 0.921875 0.578125 2.109375q0 1.5 -0.890625 2.484375q-0.875 0.96875 -2.625 1.234375q0.875 0.5 1.4375 1.125q0.578125 0.609375 1.53125 2.15625l1.640625 2.609375l-3.234375 0l-1.9375 -2.90625q-1.046875 -1.5625 -1.4375 -1.96875q-0.375 -0.40625 -0.8125 -0.546875q-0.421875 -0.15625 -1.34375 -0.15625l-0.546875 0l0 5.578125l-2.703125 0zm2.703125 -7.703125l2.0 0q1.9375 0 2.421875 -0.15625q0.484375 -0.171875 0.75 -0.578125q0.28125 -0.40625 0.28125 -1.0q0 -0.671875 -0.359375 -1.078125q-0.359375 -0.421875 -1.015625 -0.53125q-0.328125 -0.046875 -1.96875 -0.046875l-2.109375 0l0 3.390625zm10.801086 7.703125l0 -13.359375l2.625 0l5.453125 8.921875l0 -8.921875l2.515625 0l0 13.359375l-2.703125 0l-5.390625 -8.703125l0 8.703125l-2.5 0zm13.472961 0l0 -13.359375l2.625 0l5.453125 8.921875l0 -8.921875l2.515625 0l0 13.359375l-2.703125 0l-5.390625 -8.703125l0 8.703125l-2.5 0zm12.707336 3.921873q0.765625 -1.609375 1.0625 -2.484375q0.3125 -0.8593731 0.578125 -1.9843731q0.265625 -1.140625 0.390625 -2.15625q0.125 -1.015625 0.125 -2.078125q0 -2.171875 -0.46875 -4.109375q-0.453125 -1.9375 -1.703125 -4.6875l1.734375 0q1.375 1.953125 2.140625 4.15625q0.765625 2.1875 0.765625 4.453125q0 1.90625 -0.609375 4.078125q-0.671875 2.437498 -2.25 4.812498l-1.765625 0z" fill-rule="nonzero"/><path fill="#000000" fill-opacity="0.0" d="m345.9899 101.65672l30.740143 90.3307" fill-rule="evenodd"/><path stroke="#000000" stroke-width="1.0" stroke-linejoin="round" stroke-linecap="butt" d="m345.9899 101.65672l30.740143 90.3307" fill-rule="evenodd"/><path fill="#000000" fill-opacity="0.0" d="m376.73993 101.65672l-30.740143 90.3307" fill-rule="evenodd"/><path stroke="#000000" stroke-width="1.0" stroke-linejoin="round" stroke-linecap="butt" d="m376.73993 101.65672l-30.740143 90.3307" fill-rule="evenodd"/><path fill="#000000" fill-opacity="0.0" d="m404.84604 101.65672l30.740143 31.118118" fill-rule="evenodd"/><path stroke="#000000" stroke-width="1.0" stroke-linejoin="round" stroke-linecap="butt" d="m404.84604 101.65672l30.740143 31.118118" fill-rule="evenodd"/><path fill="#000000" fill-opacity="0.0" d="m404.84604 101.65672l30.740143 90.3307" fill-rule="evenodd"/><path stroke="#000000" stroke-width="1.0" stroke-linejoin="round" stroke-linecap="butt" d="m404.84604 101.65672l30.740143 90.3307" fill-rule="evenodd"/><path fill="#000000" fill-opacity="0.0" d="m404.84604 191.9744l30.740143 -31.118103" fill-rule="evenodd"/><path stroke="#000000" stroke-width="1.0" stroke-linejoin="round" stroke-linecap="butt" d="m404.84604 191.9744l30.740143 -31.118103" fill-rule="evenodd"/><path fill="#000000" fill-opacity="0.0" d="m404.84604 191.9744l30.740143 -90.3307" fill-rule="evenodd"/><path stroke="#000000" stroke-width="1.0" stroke-linejoin="round" stroke-linecap="butt" d="m404.84604 191.9744l30.740143 -90.3307" fill-rule="evenodd"/><path fill="#e06666" d="m488.63077 146.81425l0 0c0 -10.97612 8.897888 -19.874023 19.874023 -19.874023l0 0c5.2709045 0 10.325958 2.093872 14.05307 5.8209686c3.7270508 3.7270966 5.820923 8.782135 5.820923 14.053055l0 0c0 10.976105 -8.897888 19.874008 -19.873993 19.874008l0 0c-10.976135 0 -19.874023 -8.897903 -19.874023 -19.874008z" fill-rule="evenodd"/><path stroke="#000000" stroke-width="1.0" stroke-linejoin="round" stroke-linecap="butt" d="m488.63077 146.81425l0 0c0 -10.97612 8.897888 -19.874023 19.874023 -19.874023l0 0c5.2709045 0 10.325958 2.093872 14.05307 5.8209686c3.7270508 3.7270966 5.820923 8.782135 5.820923 14.053055l0 0c0 10.976105 -8.897888 19.874008 -19.873993 19.874008l0 0c-10.976135 0 -19.874023 -8.897903 -19.874023 -19.874008z" fill-rule="evenodd"/><path fill="#e06666" d="m488.63077 87.60236l0 0c0 -10.97612 8.897888 -19.874016 19.874023 -19.874016l0 0c5.2709045 0 10.325958 2.0938644 14.05307 5.820961c3.7270508 3.7271042 5.820923 8.782135 5.820923 14.053055l0 0c0 10.976112 -8.897888 19.874016 -19.873993 19.874016l0 0c-10.976135 0 -19.874023 -8.897903 -19.874023 -19.874016z" fill-rule="evenodd"/><path stroke="#000000" stroke-width="1.0" stroke-linejoin="round" stroke-linecap="butt" d="m488.63077 87.60236l0 0c0 -10.97612 8.897888 -19.874016 19.874023 -19.874016l0 0c5.2709045 0 10.325958 2.0938644 14.05307 5.820961c3.7270508 3.7271042 5.820923 8.782135 5.820923 14.053055l0 0c0 10.976112 -8.897888 19.874016 -19.873993 19.874016l0 0c-10.976135 0 -19.874023 -8.897903 -19.874023 -19.874016z" fill-rule="evenodd"/><path fill="#e06666" d="m488.63077 206.02614l0 0c0 -10.97612 8.897888 -19.874023 19.874023 -19.874023l0 0c5.2709045 0 10.325958 2.093872 14.05307 5.8209686c3.7270508 3.7270966 5.820923 8.782135 5.820923 14.053055l0 0c0 10.97612 -8.897888 19.874008 -19.873993 19.874008l0 0c-10.976135 0 -19.874023 -8.897888 -19.874023 -19.874008z" fill-rule="evenodd"/><path stroke="#000000" stroke-width="1.0" stroke-linejoin="round" stroke-linecap="butt" d="m488.63077 206.02614l0 0c0 -10.97612 8.897888 -19.874023 19.874023 -19.874023l0 0c5.2709045 0 10.325958 2.093872 14.05307 5.8209686c3.7270508 3.7270966 5.820923 8.782135 5.820923 14.053055l0 0c0 10.97612 -8.897888 19.874008 -19.873993 19.874008l0 0c-10.976135 0 -19.874023 -8.897888 -19.874023 -19.874008z" fill-rule="evenodd"/><path fill="#000000" fill-opacity="0.0" d="m469.51266 146.81425l19.118103 0" fill-rule="evenodd"/><path stroke="#000000" stroke-width="1.0" stroke-linejoin="round" stroke-linecap="butt" d="m469.51266 146.81425l19.118103 0" fill-rule="evenodd"/><path fill="#000000" fill-opacity="0.0" d="m469.51266 206.02614l19.118103 0" fill-rule="evenodd"/><path stroke="#000000" stroke-width="1.0" stroke-linejoin="round" stroke-linecap="butt" d="m469.51266 206.02614l19.118103 0" fill-rule="evenodd"/><path fill="#000000" fill-opacity="0.0" d="m494.45172 191.97308l-30.740143 -31.118103" fill-rule="evenodd"/><path stroke="#000000" stroke-width="1.0" stroke-linejoin="round" stroke-linecap="butt" d="m494.45172 191.97308l-30.740143 -31.118103" fill-rule="evenodd"/><path fill="#000000" fill-opacity="0.0" d="m469.51266 87.60236l19.118103 0" fill-rule="evenodd"/><path stroke="#000000" stroke-width="1.0" stroke-linejoin="round" stroke-linecap="butt" d="m469.51266 87.60236l19.118103 0" fill-rule="evenodd"/><path fill="#000000" fill-opacity="0.0" d="m494.45172 101.65541l-30.740143 31.118118" fill-rule="evenodd"/><path stroke="#000000" stroke-width="1.0" stroke-linejoin="round" stroke-linecap="butt" d="m494.45172 101.65541l-30.740143 31.118118" fill-rule="evenodd"/><path fill="#000000" fill-opacity="0.0" d="m463.71158 101.64309l30.740143 31.11811" fill-rule="evenodd"/><path stroke="#000000" stroke-width="1.0" stroke-linejoin="round" stroke-linecap="butt" d="m463.71158 101.64309l30.740143 31.11811" fill-rule="evenodd"/><path fill="#000000" fill-opacity="0.0" d="m463.71158 101.64238l30.740143 90.3307" fill-rule="evenodd"/><path stroke="#000000" stroke-width="1.0" stroke-linejoin="round" stroke-linecap="butt" d="m463.71158 101.64238l30.740143 90.3307" fill-rule="evenodd"/><path fill="#000000" fill-opacity="0.0" d="m463.71158 191.98541l30.740143 -31.118118" fill-rule="evenodd"/><path stroke="#000000" stroke-width="1.0" stroke-linejoin="round" stroke-linecap="butt" d="m463.71158 191.98541l30.740143 -31.118118" fill-rule="evenodd"/><path fill="#000000" fill-opacity="0.0" d="m463.71158 191.98611l30.740143 -90.3307" fill-rule="evenodd"/><path stroke="#000000" stroke-width="1.0" stroke-linejoin="round" stroke-linecap="butt" d="m463.71158 191.98611l30.740143 -90.3307" fill-rule="evenodd"/><path fill="#000000" fill-opacity="0.0" d="m449.64914 107.47769l0 19.46457" fill-rule="evenodd"/><path stroke="#000000" stroke-width="1.0" stroke-linejoin="round" stroke-linecap="butt" d="m449.64914 107.47769l0 19.46457" fill-rule="evenodd"/><path fill="#000000" fill-opacity="0.0" d="m449.64914 166.68958l0 19.46457" fill-rule="evenodd"/><path stroke="#000000" stroke-width="1.0" stroke-linejoin="round" stroke-linecap="butt" d="m449.64914 166.68958l0 19.46457" fill-rule="evenodd"/></g></svg>