<svg version="1.1" viewBox="0.0 0.0 963.5459317585302 545.509186351706" fill="none" stroke="none" stroke-linecap="square" stroke-miterlimit="10" xmlns:xlink="http://www.w3.org/1999/xlink" xmlns="http://www.w3.org/2000/svg"><clipPath id="p.0"><path d="m0 0l963.54596 0l0 545.5092l-963.54596 0l0 -545.5092z" clip-rule="nonzero"/></clipPath><g clip-path="url(#p.0)"><path fill="#ffffff" d="m0 0l963.54596 0l0 545.5092l-963.54596 0z" fill-rule="evenodd"/><path fill="#000000" fill-opacity="0.0" d="m71.28871 40.742783l206.39369 0l0 104.12598l-206.39369 0z" fill-rule="evenodd"/><path fill="#000000" d="m109.04599 54.54153l0 1.546875l-1.75 0l0 -1.546875l1.75 0zm0.203125 2.78125l0 5.03125l1.765625 0q0.515625 0 0.734375 0.203125q0.234375 0.203125 0.234375 0.53125q0 0.328125 -0.234375 0.53125q-0.21875 0.203125 -0.734375 0.203125l-5.0 0q-0.53125 0 -0.75 -0.203125q-0.21875 -0.203125 -0.21875 -0.53125q0 -0.328125 0.21875 -0.53125q0.21875 -0.203125 0.75 -0.203125l1.765625 0l0 -3.5625l-1.1875 0q-0.515625 0 -0.75 -0.203125q-0.21875 -0.203125 -0.21875 -0.53125q0 -0.328125 0.21875 -0.53125q0.234375 -0.203125 0.75 -0.203125l2.65625 0zm8.779556 -1.296875l0 8.625004l0.890625 0q0.53125 0 0.75 0.1875q0.234375 0.203125 0.234375 0.53125q0 0.328125 -0.234375 0.53125q-0.21875 0.21875 -0.75 0.21875l-2.34375 0l0 -11.562504l2.34375 0q0.53125 0 0.75 0.203125q0.234375 0.203125 0.234375 0.546875q0 0.3125 -0.234375 0.515625q-0.21875 0.203125 -0.75 0.203125l-0.890625 0zm11.279556 2.34375l0 1.625q0 1.421875 -0.828125 2.734375q-0.8125 1.3125038 -2.359375 1.3125038q-0.890625 0 -1.5 -0.3906288q-0.609375 -0.390625 -1.15625 -1.4375q-0.546875 -1.046875 -0.546875 -2.21875l0 -1.625q0 -1.421875 0.8125 -2.734375q0.828125 -1.3125 2.375 -1.3125q0.875 0 1.484375 0.390625q0.609375 0.390625 1.15625 1.4375q0.5625 1.046875 0.5625 2.21875zm-1.46875 0q0 -1.1875 -0.671875 -2.078125q-0.375 -0.5 -1.0625 -0.5q-0.65625 0 -1.078125 0.546875q-0.640625 0.828125 -0.640625 2.03125l0 1.625q0 1.1875 0.671875 2.078125q0.375 0.5 1.0625 0.5q0.65625 0 1.078125 -0.546875q0.640625 -0.828125 0.640625 -2.03125l0 -1.625zm6.3420563 6.281254l0 -8.625004l-0.875 0q-0.53125 0 -0.765625 -0.203125q-0.21875 -0.203125 -0.21875 -0.515625q0 -0.34375 0.21875 -0.546875q0.234375 -0.203125 0.765625 -0.203125l2.34375 0l0 11.562504l-2.34375 0q-0.53125 0 -0.765625 -0.21875q-0.21875 -0.203125 -0.21875 -0.53125q0 -0.3125 0.21875 -0.515625q0.234375 -0.203125 0.765625 -0.203125l0.875 0zm9.170181 -2.7968788l1.96875 0l-2.109375 3.9687538q-0.1875 0.359375 -0.46875 0.359375q-0.1875 0 -0.328125 -0.125q-0.125 -0.125 -0.125 -0.28125q0 -0.09375 0.046875 -0.28125l1.015625 -3.6406288zm18.465363 -7.3125l0 1.546875l-1.75 0l0 -1.546875l1.75 0zm0.203125 2.78125l0 5.03125l1.765625 0q0.515625 0 0.734375 0.203125q0.234375 0.203125 0.234375 0.53125q0 0.328125 -0.234375 0.53125q-0.21875 0.203125 -0.734375 0.203125l-5.0 0q-0.53125 0 -0.75 -0.203125q-0.21875 -0.203125 -0.21875 -0.53125q0 -0.328125 0.21875 -0.53125q0.21875 -0.203125 0.75 -0.203125l1.765625 0l0 -3.5625l-1.1875 0q-0.515625 0 -0.75 -0.203125q-0.21875 -0.203125 -0.21875 -0.53125q0 -0.328125 0.21875 -0.53125q0.234375 -0.203125 0.75 -0.203125l2.65625 0zm8.779556 -1.296875l0 8.625004l0.890625 0q0.53125 0 0.75 0.1875q0.234375 0.203125 0.234375 0.53125q0 0.328125 -0.234375 0.53125q-0.21875 0.21875 -0.75 0.21875l-2.34375 0l0 -11.562504l2.34375 0q0.53125 0 0.75 0.203125q0.234375 0.203125 0.234375 0.546875q0 0.3125 -0.234375 0.515625q-0.21875 0.203125 -0.75 0.203125l-0.890625 0zm8.826431 -1.703125l0 8.03125l1.484375 0q0.53125 0 0.75 0.203125q0.234375 0.203125 0.234375 0.53125q0 0.328125 -0.234375 0.53125q-0.21875 0.203125 -0.75 0.203125l-4.421875 0q-0.53125 0 -0.765625 -0.203125q-0.21875 -0.203125 -0.21875 -0.53125q0 -0.328125 0.21875 -0.53125q0.234375 -0.203125 0.765625 -0.203125l1.46875 0l0 -6.109375l-1.296875 0.328125q-0.328125 0.09375 -0.484375 0.09375q-0.265625 0 -0.484375 -0.21875q-0.203125 -0.21875 -0.203125 -0.546875q0 -0.296875 0.15625 -0.453125q0.15625 -0.171875 0.625 -0.3125l3.15625 -0.8125zm7.3264313 10.328129l0 -8.625004l-0.875 0q-0.53125 0 -0.765625 -0.203125q-0.21875 -0.203125 -0.21875 -0.515625q0 -0.34375 0.21875 -0.546875q0.234375 -0.203125 0.765625 -0.203125l2.34375 0l0 11.562504l-2.34375 0q-0.53125 0 -0.765625 -0.21875q-0.21875 -0.203125 -0.21875 -0.53125q0 -0.3125 0.21875 -0.515625q0.234375 -0.203125 0.765625 -0.203125l0.875 0zm9.170181 -2.7968788l1.96875 0l-2.109375 3.9687538q-0.1875 0.359375 -0.46875 0.359375q-0.1875 0 -0.328125 -0.125q-0.125 -0.125 -0.125 -0.28125q0 -0.09375 0.046875 -0.28125l1.015625 -3.6406288zm17.152863 0.5l2.578125 0q0.015625 -0.40625 0.21875 -0.609375q0.203125 -0.203125 0.5 -0.203125q0.34375 0 0.546875 0.234375q0.203125 0.21875 0.203125 0.75l0 1.296875l-6.390625 0l0 -1.21875l3.859375 -3.8125l-2.234375 0l0 0.140625q0 0.53125 -0.21875 0.75q-0.203125 0.21875 -0.53125 0.21875q-0.328125 0 -0.53125 -0.21875q-0.203125 -0.21875 -0.203125 -0.75l0.015625 -1.609375l6.0625 0l0 1.203125l-3.875 3.828125zm10.295181 -6.328125l0 8.625004l0.890625 0q0.53125 0 0.75 0.1875q0.234375 0.203125 0.234375 0.53125q0 0.328125 -0.234375 0.53125q-0.21875 0.21875 -0.75 0.21875l-2.34375 0l0 -11.562504l2.34375 0q0.53125 0 0.75 0.203125q0.234375 0.203125 0.234375 0.546875q0 0.3125 -0.234375 0.515625q-0.21875 0.203125 -0.75 0.203125l-0.890625 0zm11.279556 2.34375l0 1.625q0 1.421875 -0.828125 2.734375q-0.8125 1.3125038 -2.359375 1.3125038q-0.890625 0 -1.5 -0.3906288q-0.609375 -0.390625 -1.15625 -1.4375q-0.546875 -1.046875 -0.546875 -2.21875l0 -1.625q0 -1.421875 0.8125 -2.734375q0.828125 -1.3125 2.375 -1.3125q0.875 0 1.484375 0.390625q0.609375 0.390625 1.15625 1.4375q0.5625 1.046875 0.5625 2.21875zm-1.46875 0q0 -1.1875 -0.671875 -2.078125q-0.375 -0.5 -1.0625 -0.5q-0.65625 0 -1.078125 0.546875q-0.640625 0.828125 -0.640625 2.03125l0 1.625q0 1.1875 0.671875 2.078125q0.375 0.5 1.0625 0.5q0.65625 0 1.078125 -0.546875q0.640625 -0.828125 0.640625 -2.03125l0 -1.625zm6.3420563 6.281254l0 -8.625004l-0.875 0q-0.53125 0 -0.765625 -0.203125q-0.21875 -0.203125 -0.21875 -0.515625q0 -0.34375 0.21875 -0.546875q0.234375 -0.203125 0.765625 -0.203125l2.34375 0l0 11.562504l-2.34375 0q-0.53125 0 -0.765625 -0.21875q-0.21875 -0.203125 -0.21875 -0.53125q0 -0.3125 0.21875 -0.515625q0.234375 -0.203125 0.765625 -0.203125l0.875 0z" fill-rule="nonzero"/><path fill="#000000" d="m122.53854 73.12591l0 -0.265625l-4.40625 0l0 0.53125q0 0.21875 -0.078125 0.3125q-0.078125 0.09375 -0.21875 0.09375q-0.140625 0 -0.234375 -0.09375q-0.078125 -0.09375 -0.078125 -0.3125l0 -1.15625l5.640625 0l0 0.984375l-2.46875 7.90625q-0.0625 0.1875 -0.140625 0.25q-0.078125 0.0625 -0.1875 0.0625q-0.125 0 -0.21875 -0.078125q-0.078125 -0.09375 -0.078125 -0.21875q0 -0.078125 0.03125 -0.203125l2.4375 -7.8125zm9.76709 2.9375l0 1.53125q0 1.984375 -0.953125 3.140625q-0.734375 0.90625 -1.859375 0.90625q-0.546875 0 -1.03125 -0.21875q-0.46875 -0.21875 -0.8125 -0.59375q-0.203125 -0.25 -0.46875 -0.78125q-0.25 -0.53125 -0.359375 -0.984375q-0.171875 -0.625 -0.171875 -1.46875l0 -1.53125q0 -1.984375 0.953125 -3.140625q0.734375 -0.90625 1.859375 -0.90625q0.5625 0 1.03125 0.21875q0.46875 0.203125 0.8125 0.59375q0.21875 0.25 0.46875 0.796875q0.25 0.53125 0.359375 0.96875q0.171875 0.625 0.171875 1.46875zm-0.625 0.078125q0 -0.859375 -0.25 -1.609375q-0.234375 -0.75 -0.546875 -1.203125q-0.171875 -0.25 -0.46875 -0.4375q-0.421875 -0.265625 -0.9375 -0.265625q-1.03125 0 -1.625 1.0625q-0.578125 1.046875 -0.578125 2.453125l0 1.359375q0 0.875 0.234375 1.640625q0.25 0.75 0.5625 1.1875q0.1875 0.25 0.46875 0.4375q0.421875 0.265625 0.953125 0.265625q1.015625 0 1.59375 -1.0625q0.59375 -1.0625 0.59375 -2.46875l0 -1.359375zm5.57959 3.0625l2.0 0l-2.171875 4.046875q-0.203125 0.375 -0.484375 0.375q-0.171875 0 -0.3125 -0.140625q-0.125 -0.125 -0.125 -0.296875q0 -0.078125 0.03125 -0.171875l1.0625 -3.8125zm39.75586 -2.984375q-0.484375 0.84375 -1.140625 1.265625q-0.65625 0.421875 -1.34375 0.421875q-0.640625 0 -1.234375 -0.359375q-0.59375 -0.359375 -0.953125 -1.0625q-0.34375 -0.71875 -0.34375 -1.5q0 -1.125 0.6875 -2.046875q0.703125 -0.921875 1.875 -0.921875q0.84375 0 1.53125 0.515625q0.6875 0.515625 1.0625 1.5q0.5 1.28125 0.5 2.953125q0 1.296875 -0.421875 2.171875q-0.28125 0.578125 -0.828125 1.125q-0.53125 0.546875 -1.203125 0.90625q-0.921875 0.453125 -1.921875 0.453125q-0.65625 0 -1.0625 -0.25q-0.203125 -0.109375 -0.203125 -0.296875q0 -0.125 0.09375 -0.203125q0.09375 -0.078125 0.21875 -0.078125q0.078125 0 0.25 0.078125q0.28125 0.140625 0.65625 0.140625q1.5625 0 2.671875 -1.125q1.125 -1.125 1.125 -2.828125q0 -0.296875 -0.015625 -0.859375zm-0.125 -1.015625q-0.390625 -1.5 -0.96875 -2.03125q-0.5625 -0.546875 -1.34375 -0.546875q-0.78125 0 -1.375 0.671875q-0.59375 0.65625 -0.59375 1.6875q0 1.0 0.59375 1.65625q0.59375 0.65625 1.34375 0.65625q0.4375 0 0.859375 -0.234375q0.421875 -0.234375 0.796875 -0.703125q0.234375 -0.3125 0.6875 -1.15625zm7.86084 1.453125q0.765625 0.375 1.15625 0.984375q0.390625 0.609375 0.390625 1.3125q0 1.09375 -0.828125 1.890625q-0.8125 0.796875 -1.984375 0.796875q-1.171875 0 -2.0 -0.796875q-0.8125 -0.796875 -0.8125 -1.890625q0 -0.703125 0.390625 -1.3125q0.390625 -0.609375 1.171875 -0.984375q-0.671875 -0.390625 -0.984375 -0.8125q-0.421875 -0.59375 -0.421875 -1.3125q0 -1.0 0.78125 -1.75q0.78125 -0.765625 1.875 -0.765625q1.109375 0 1.875 0.765625q0.78125 0.75 0.78125 1.75q0 0.71875 -0.421875 1.3125q-0.296875 0.421875 -0.96875 0.8125zm0.765625 -2.09375q0 -0.796875 -0.59375 -1.359375q-0.578125 -0.578125 -1.4375 -0.578125q-0.859375 0 -1.453125 0.578125q-0.578125 0.578125 -0.578125 1.34375q0 0.71875 0.578125 1.265625q0.59375 0.53125 1.453125 0.53125q0.875 0 1.453125 -0.53125q0.578125 -0.546875 0.578125 -1.25zm0.171875 4.40625q0 -0.8125 -0.640625 -1.40625q-0.625 -0.609375 -1.5625 -0.609375q-0.9375 0 -1.5625 0.609375q-0.625 0.59375 -0.625 1.390625q0 0.84375 0.625 1.46875q0.640625 0.609375 1.5625 0.609375q0.9375 0 1.5625 -0.609375q0.640625 -0.625 0.640625 -1.453125zm5.57959 0.234375l2.0 0l-2.171875 4.046875q-0.203125 0.375 -0.484375 0.375q-0.171875 0 -0.3125 -0.140625q-0.125 -0.125 -0.125 -0.296875q0 -0.078125 0.03125 -0.171875l1.0625 -3.8125zm39.75586 -2.984375q-0.484375 0.84375 -1.140625 1.265625q-0.65625 0.421875 -1.34375 0.421875q-0.640625 0 -1.234375 -0.359375q-0.59375 -0.359375 -0.953125 -1.0625q-0.34375 -0.71875 -0.34375 -1.5q0 -1.125 0.6875 -2.046875q0.703125 -0.921875 1.875 -0.921875q0.84375 0 1.53125 0.515625q0.6875 0.515625 1.0625 1.5q0.5 1.28125 0.5 2.953125q0 1.296875 -0.421875 2.171875q-0.28125 0.578125 -0.828125 1.125q-0.53125 0.546875 -1.203125 0.90625q-0.921875 0.453125 -1.921875 0.453125q-0.65625 0 -1.0625 -0.25q-0.203125 -0.109375 -0.203125 -0.296875q0 -0.125 0.09375 -0.203125q0.09375 -0.078125 0.21875 -0.078125q0.078125 0 0.25 0.078125q0.28125 0.140625 0.65625 0.140625q1.5625 0 2.671875 -1.125q1.125 -1.125 1.125 -2.828125q0 -0.296875 -0.015625 -0.859375zm-0.125 -1.015625q-0.390625 -1.5 -0.96875 -2.03125q-0.5625 -0.546875 -1.34375 -0.546875q-0.78125 0 -1.375 0.671875q-0.59375 0.65625 -0.59375 1.6875q0 1.0 0.59375 1.65625q0.59375 0.65625 1.34375 0.65625q0.4375 0 0.859375 -0.234375q0.421875 -0.234375 0.796875 -0.703125q0.234375 -0.3125 0.6875 -1.15625zm6.907715 -3.09375l0 8.703125l2.109375 0q0.21875 0 0.3125 0.078125q0.09375 0.078125 0.09375 0.21875q0 0.140625 -0.09375 0.234375q-0.09375 0.078125 -0.3125 0.078125l-4.84375 0q-0.21875 0 -0.3125 -0.078125q-0.09375 -0.09375 -0.09375 -0.234375q0 -0.140625 0.09375 -0.21875q0.09375 -0.078125 0.3125 -0.078125l2.109375 0l0 -7.859375l-2.0 0.625q-0.15625 0.046875 -0.21875 0.046875q-0.109375 0 -0.203125 -0.078125q-0.09375 -0.09375 -0.09375 -0.21875q0 -0.109375 0.078125 -0.21875q0.0625 -0.046875 0.25 -0.125l2.8125 -0.875z" fill-rule="nonzero"/><path fill="#000000" d="m118.78854 90.46028l0 3.0q0.53125 -0.21875 1.03125 -0.328125q0.5 -0.125 0.953125 -0.125q1.15625 0 1.921875 0.8125q0.78125 0.8125 0.78125 2.140625q0 1.46875 -0.875 2.375q-0.875 0.90625 -2.1875 0.90625q-0.875 0 -1.6875 -0.390625q-0.5625 -0.265625 -1.03125 -0.671875q-0.28125 -0.234375 -0.28125 -0.40625q0 -0.125 0.078125 -0.21875q0.09375 -0.09375 0.21875 -0.09375q0.125 0 0.265625 0.140625q1.09375 1.03125 2.40625 1.03125q1.078125 0 1.78125 -0.734375q0.703125 -0.75 0.703125 -1.96875q0 -1.03125 -0.609375 -1.65625q-0.609375 -0.640625 -1.546875 -0.640625q-0.96875 0 -1.921875 0.5q-0.234375 0.109375 -0.328125 0.109375q-0.140625 0 -0.21875 -0.078125q-0.078125 -0.09375 -0.078125 -0.25l0 -4.078125l4.296875 0q0.21875 0 0.3125 0.09375q0.09375 0.078125 0.09375 0.21875q0 0.125 -0.09375 0.21875q-0.09375 0.09375 -0.3125 0.09375l-3.671875 0zm13.51709 3.203125l0 1.53125q0 1.984375 -0.953125 3.140625q-0.734375 0.90625 -1.859375 0.90625q-0.546875 0 -1.03125 -0.21875q-0.46875 -0.21875 -0.8125 -0.59375q-0.203125 -0.25 -0.46875 -0.78125q-0.25 -0.53125 -0.359375 -0.984375q-0.171875 -0.625 -0.171875 -1.46875l0 -1.53125q0 -1.984375 0.953125 -3.140625q0.734375 -0.90625 1.859375 -0.90625q0.5625 0 1.03125 0.21875q0.46875 0.203125 0.8125 0.59375q0.21875 0.25 0.46875 0.796875q0.25 0.53125 0.359375 0.96875q0.171875 0.625 0.171875 1.46875zm-0.625 0.078125q0 -0.859375 -0.25 -1.609375q-0.234375 -0.75 -0.546875 -1.203125q-0.171875 -0.25 -0.46875 -0.4375q-0.421875 -0.265625 -0.9375 -0.265625q-1.03125 0 -1.625 1.0625q-0.578125 1.046875 -0.578125 2.453125l0 1.359375q0 0.875 0.234375 1.640625q0.25 0.75 0.5625 1.1875q0.1875 0.25 0.46875 0.4375q0.421875 0.265625 0.953125 0.265625q1.015625 0 1.59375 -1.0625q0.59375 -1.0625 0.59375 -2.46875l0 -1.359375zm5.57959 3.0625l2.0 0l-2.171875 4.046875q-0.203125 0.375 -0.484375 0.375q-0.171875 0 -0.3125 -0.140625q-0.125 -0.125 -0.125 -0.296875q0 -0.078125 0.03125 -0.171875l1.0625 -3.8125zm38.490234 -2.546875q0.765625 0.375 1.15625 0.984375q0.390625 0.609375 0.390625 1.3125q0 1.09375 -0.828125 1.890625q-0.8125 0.796875 -1.984375 0.796875q-1.171875 0 -2.0 -0.796875q-0.8125 -0.796875 -0.8125 -1.890625q0 -0.703125 0.390625 -1.3125q0.390625 -0.609375 1.171875 -0.984375q-0.671875 -0.390625 -0.984375 -0.8125q-0.421875 -0.59375 -0.421875 -1.3125q0 -1.0 0.78125 -1.75q0.78125 -0.765625 1.875 -0.765625q1.109375 0 1.875 0.765625q0.78125 0.75 0.78125 1.75q0 0.71875 -0.421875 1.3125q-0.296875 0.421875 -0.96875 0.8125zm0.765625 -2.09375q0 -0.796875 -0.59375 -1.359375q-0.578125 -0.578125 -1.4375 -0.578125q-0.859375 0 -1.453125 0.578125q-0.578125 0.578125 -0.578125 1.34375q0 0.71875 0.578125 1.265625q0.59375 0.53125 1.453125 0.53125q0.875 0 1.453125 -0.53125q0.578125 -0.546875 0.578125 -1.25zm0.171875 4.40625q0 -0.8125 -0.640625 -1.40625q-0.625 -0.609375 -1.5625 -0.609375q-0.9375 0 -1.5625 0.609375q-0.625 0.59375 -0.625 1.390625q0 0.84375 0.625 1.46875q0.640625 0.609375 1.5625 0.609375q0.9375 0 1.5625 -0.609375q0.640625 -0.625 0.640625 -1.453125zm5.11084 -6.109375l0 3.0q0.53125 -0.21875 1.03125 -0.328125q0.5 -0.125 0.953125 -0.125q1.15625 0 1.921875 0.8125q0.78125 0.8125 0.78125 2.140625q0 1.46875 -0.875 2.375q-0.875 0.90625 -2.1875 0.90625q-0.875 0 -1.6875 -0.390625q-0.5625 -0.265625 -1.03125 -0.671875q-0.28125 -0.234375 -0.28125 -0.40625q0 -0.125 0.078125 -0.21875q0.09375 -0.09375 0.21875 -0.09375q0.125 0 0.265625 0.140625q1.09375 1.03125 2.40625 1.03125q1.078125 0 1.78125 -0.734375q0.703125 -0.75 0.703125 -1.96875q0 -1.03125 -0.609375 -1.65625q-0.609375 -0.640625 -1.546875 -0.640625q-0.96875 0 -1.921875 0.5q-0.234375 0.109375 -0.328125 0.109375q-0.140625 0 -0.21875 -0.078125q-0.078125 -0.09375 -0.078125 -0.25l0 -4.078125l4.296875 0q0.21875 0 0.3125 0.09375q0.09375 0.078125 0.09375 0.21875q0 0.125 -0.09375 0.21875q-0.09375 0.09375 -0.3125 0.09375l-3.671875 0zm9.470215 6.34375l2.0 0l-2.171875 4.046875q-0.203125 0.375 -0.484375 0.375q-0.171875 0 -0.3125 -0.140625q-0.125 -0.125 -0.125 -0.296875q0 -0.078125 0.03125 -0.171875l1.0625 -3.8125zm38.490234 -2.546875q0.765625 0.375 1.15625 0.984375q0.390625 0.609375 0.390625 1.3125q0 1.09375 -0.828125 1.890625q-0.8125 0.796875 -1.984375 0.796875q-1.171875 0 -2.0 -0.796875q-0.8125 -0.796875 -0.8125 -1.890625q0 -0.703125 0.390625 -1.3125q0.390625 -0.609375 1.171875 -0.984375q-0.671875 -0.390625 -0.984375 -0.8125q-0.421875 -0.59375 -0.421875 -1.3125q0 -1.0 0.78125 -1.75q0.78125 -0.765625 1.875 -0.765625q1.109375 0 1.875 0.765625q0.78125 0.75 0.78125 1.75q0 0.71875 -0.421875 1.3125q-0.296875 0.421875 -0.96875 0.8125zm0.765625 -2.09375q0 -0.796875 -0.59375 -1.359375q-0.578125 -0.578125 -1.4375 -0.578125q-0.859375 0 -1.453125 0.578125q-0.578125 0.578125 -0.578125 1.34375q0 0.71875 0.578125 1.265625q0.59375 0.53125 1.453125 0.53125q0.875 0 1.453125 -0.53125q0.578125 -0.546875 0.578125 -1.25zm0.171875 4.40625q0 -0.8125 -0.640625 -1.40625q-0.625 -0.609375 -1.5625 -0.609375q-0.9375 0 -1.5625 0.609375q-0.625 0.59375 -0.625 1.390625q0 0.84375 0.625 1.46875q0.640625 0.609375 1.5625 0.609375q0.9375 0 1.5625 -0.609375q0.640625 -0.625 0.640625 -1.453125zm4.157715 1.84375l4.71875 0l0 -0.25q0 -0.21875 0.078125 -0.3125q0.09375 -0.09375 0.234375 -0.09375q0.140625 0 0.21875 0.09375q0.09375 0.09375 0.09375 0.3125l0 0.859375l-5.953125 0l0 -0.90625q1.875 -1.6875 3.65625 -3.4375q0.828125 -0.8125 1.125 -1.1875q0.3125 -0.375 0.421875 -0.65625q0.109375 -0.296875 0.109375 -0.59375q0 -0.796875 -0.640625 -1.40625q-0.625 -0.609375 -1.53125 -0.609375q-0.796875 0 -1.421875 0.46875q-0.625 0.46875 -0.8125 1.140625q-0.046875 0.171875 -0.109375 0.234375q-0.078125 0.0625 -0.203125 0.0625q-0.125 0 -0.21875 -0.078125q-0.078125 -0.078125 -0.078125 -0.203125q0 -0.34375 0.390625 -0.9375q0.390625 -0.609375 1.0625 -0.953125q0.671875 -0.34375 1.390625 -0.34375q1.140625 0 1.96875 0.796875q0.828125 0.796875 0.828125 1.8125q0 0.421875 -0.140625 0.78125q-0.125 0.34375 -0.46875 0.765625q-0.328125 0.421875 -1.1875 1.265625q-2.171875 2.140625 -3.53125 3.328125l0 0.046875z" fill-rule="nonzero"/><path fill="#000000" d="m118.64792 112.732155q0.5625 -0.84375 1.171875 -1.234375q0.609375 -0.40625 1.34375 -0.40625q0.984375 0 1.734375 0.8125q0.765625 0.8125 0.765625 2.015625q0 1.09375 -0.703125 2.015625q-0.6875 0.90625 -1.90625 0.90625q-0.796875 0 -1.5 -0.484375q-0.6875 -0.5 -1.078125 -1.515625q-0.5 -1.265625 -0.5 -2.796875q0 -1.171875 0.46875 -2.15625q0.34375 -0.765625 0.921875 -1.34375q0.59375 -0.59375 1.375 -0.953125q0.78125 -0.375 1.6875 -0.375q0.625 0 1.03125 0.25q0.171875 0.109375 0.171875 0.28125q0 0.140625 -0.078125 0.234375q-0.078125 0.078125 -0.203125 0.078125q-0.09375 0 -0.21875 -0.078125q-0.3125 -0.15625 -0.75 -0.15625q-1.4375 0 -2.609375 1.234375q-1.171875 1.234375 -1.171875 2.921875q0 0.234375 0.046875 0.75zm0.140625 1.015625q0.265625 1.34375 0.859375 1.921875q0.609375 0.5625 1.421875 0.5625q0.8125 0 1.390625 -0.640625q0.59375 -0.640625 0.59375 -1.671875q0 -0.953125 -0.59375 -1.578125q-0.578125 -0.640625 -1.328125 -0.640625q-0.703125 0 -1.359375 0.609375q-0.4375 0.40625 -0.984375 1.4375zm9.001465 -5.6875l0 3.0q0.53125 -0.21875 1.03125 -0.328125q0.5 -0.125 0.953125 -0.125q1.15625 0 1.921875 0.8125q0.78125 0.8125 0.78125 2.140625q0 1.46875 -0.875 2.375q-0.875 0.90625 -2.1875 0.90625q-0.875 0 -1.6875 -0.390625q-0.5625 -0.265625 -1.03125 -0.671875q-0.28125 -0.234375 -0.28125 -0.40625q0 -0.125 0.078125 -0.21875q0.09375 -0.09375 0.21875 -0.09375q0.125 0 0.265625 0.140625q1.09375 1.03125 2.40625 1.03125q1.078125 0 1.78125 -0.734375q0.703125 -0.75 0.703125 -1.96875q0 -1.03125 -0.609375 -1.65625q-0.609375 -0.640625 -1.546875 -0.640625q-0.96875 0 -1.921875 0.5q-0.234375 0.109375 -0.328125 0.109375q-0.140625 0 -0.21875 -0.078125q-0.078125 -0.09375 -0.078125 -0.25l0 -4.078125l4.296875 0q0.21875 0 0.3125 0.09375q0.09375 0.078125 0.09375 0.21875q0 0.125 -0.09375 0.21875q-0.09375 0.09375 -0.3125 0.09375l-3.671875 0zm9.470215 6.34375l2.0 0l-2.171875 4.046875q-0.203125 0.375 -0.484375 0.375q-0.171875 0 -0.3125 -0.140625q-0.125 -0.125 -0.125 -0.296875q0 -0.078125 0.03125 -0.171875l1.0625 -3.8125zm35.396484 -1.671875q0.5625 -0.84375 1.171875 -1.234375q0.609375 -0.40625 1.34375 -0.40625q0.984375 0 1.734375 0.8125q0.765625 0.8125 0.765625 2.015625q0 1.09375 -0.703125 2.015625q-0.6875 0.90625 -1.90625 0.90625q-0.796875 0 -1.5 -0.484375q-0.6875 -0.5 -1.078125 -1.515625q-0.5 -1.265625 -0.5 -2.796875q0 -1.171875 0.46875 -2.15625q0.34375 -0.765625 0.921875 -1.34375q0.59375 -0.59375 1.375 -0.953125q0.78125 -0.375 1.6875 -0.375q0.625 0 1.03125 0.25q0.171875 0.109375 0.171875 0.28125q0 0.140625 -0.078125 0.234375q-0.078125 0.078125 -0.203125 0.078125q-0.09375 0 -0.21875 -0.078125q-0.3125 -0.15625 -0.75 -0.15625q-1.4375 0 -2.609375 1.234375q-1.171875 1.234375 -1.171875 2.921875q0 0.234375 0.046875 0.75zm0.140625 1.015625q0.265625 1.34375 0.859375 1.921875q0.609375 0.5625 1.421875 0.5625q0.8125 0 1.390625 -0.640625q0.59375 -0.640625 0.59375 -1.671875q0 -0.953125 -0.59375 -1.578125q-0.578125 -0.640625 -1.328125 -0.640625q-0.703125 0 -1.359375 0.609375q-0.4375 0.40625 -0.984375 1.4375zm12.751465 -5.421875l0 -0.265625l-4.40625 0l0 0.53125q0 0.21875 -0.078125 0.3125q-0.078125 0.09375 -0.21875 0.09375q-0.140625 0 -0.234375 -0.09375q-0.078125 -0.09375 -0.078125 -0.3125l0 -1.15625l5.640625 0l0 0.984375l-2.46875 7.90625q-0.0625 0.1875 -0.140625 0.25q-0.078125 0.0625 -0.1875 0.0625q-0.125 0 -0.21875 -0.078125q-0.078125 -0.09375 -0.078125 -0.21875q0 -0.078125 0.03125 -0.203125l2.4375 -7.8125zm5.720215 6.078125l2.0 0l-2.171875 4.046875q-0.203125 0.375 -0.484375 0.375q-0.171875 0 -0.3125 -0.140625q-0.125 -0.125 -0.125 -0.296875q0 -0.078125 0.03125 -0.171875l1.0625 -3.8125zm38.490234 -2.546875q0.765625 0.375 1.15625 0.984375q0.390625 0.609375 0.390625 1.3125q0 1.09375 -0.828125 1.890625q-0.8125 0.796875 -1.984375 0.796875q-1.171875 0 -2.0 -0.796875q-0.8125 -0.796875 -0.8125 -1.890625q0 -0.703125 0.390625 -1.3125q0.390625 -0.609375 1.171875 -0.984375q-0.671875 -0.390625 -0.984375 -0.8125q-0.421875 -0.59375 -0.421875 -1.3125q0 -1.0 0.78125 -1.75q0.78125 -0.765625 1.875 -0.765625q1.109375 0 1.875 0.765625q0.78125 0.75 0.78125 1.75q0 0.71875 -0.421875 1.3125q-0.296875 0.421875 -0.96875 0.8125zm0.765625 -2.09375q0 -0.796875 -0.59375 -1.359375q-0.578125 -0.578125 -1.4375 -0.578125q-0.859375 0 -1.453125 0.578125q-0.578125 0.578125 -0.578125 1.34375q0 0.71875 0.578125 1.265625q0.59375 0.53125 1.453125 0.53125q0.875 0 1.453125 -0.53125q0.578125 -0.546875 0.578125 -1.25zm0.171875 4.40625q0 -0.8125 -0.640625 -1.40625q-0.625 -0.609375 -1.5625 -0.609375q-0.9375 0 -1.5625 0.609375q-0.625 0.59375 -0.625 1.390625q0 0.84375 0.625 1.46875q0.640625 0.609375 1.5625 0.609375q0.9375 0 1.5625 -0.609375q0.640625 -0.625 0.640625 -1.453125zm9.626465 -2.90625l0 1.53125q0 1.984375 -0.953125 3.140625q-0.734375 0.90625 -1.859375 0.90625q-0.546875 0 -1.03125 -0.21875q-0.46875 -0.21875 -0.8125 -0.59375q-0.203125 -0.25 -0.46875 -0.78125q-0.25 -0.53125 -0.359375 -0.984375q-0.171875 -0.625 -0.171875 -1.46875l0 -1.53125q0 -1.984375 0.953125 -3.140625q0.734375 -0.90625 1.859375 -0.90625q0.5625 0 1.03125 0.21875q0.46875 0.203125 0.8125 0.59375q0.21875 0.25 0.46875 0.796875q0.25 0.53125 0.359375 0.96875q0.171875 0.625 0.171875 1.46875zm-0.625 0.078125q0 -0.859375 -0.25 -1.609375q-0.234375 -0.75 -0.546875 -1.203125q-0.171875 -0.25 -0.46875 -0.4375q-0.421875 -0.265625 -0.9375 -0.265625q-1.03125 0 -1.625 1.0625q-0.578125 1.046875 -0.578125 2.453125l0 1.359375q0 0.875 0.234375 1.640625q0.25 0.75 0.5625 1.1875q0.1875 0.25 0.46875 0.4375q0.421875 0.265625 0.953125 0.265625q1.015625 0 1.59375 -1.0625q0.59375 -1.0625 0.59375 -2.46875l0 -1.359375z" fill-rule="nonzero"/><path fill="#000000" d="m117.83542 133.6134l4.71875 0l0 -0.25q0 -0.21875 0.078125 -0.3125q0.09375 -0.09375 0.234375 -0.09375q0.140625 0 0.21875 0.09375q0.09375 0.09375 0.09375 0.3125l0 0.859375l-5.953125 0l0 -0.90625q1.875 -1.6875 3.65625 -3.4375q0.828125 -0.8125 1.125 -1.1875q0.3125 -0.375 0.421875 -0.65625q0.109375 -0.296875 0.109375 -0.59375q0 -0.796875 -0.640625 -1.40625q-0.625 -0.609375 -1.53125 -0.609375q-0.796875 0 -1.421875 0.46875q-0.625 0.46875 -0.8125 1.140625q-0.046875 0.171875 -0.109375 0.234375q-0.078125 0.0625 -0.203125 0.0625q-0.125 0 -0.21875 -0.078125q-0.078125 -0.078125 -0.078125 -0.203125q0 -0.34375 0.390625 -0.9375q0.390625 -0.609375 1.0625 -0.953125q0.671875 -0.34375 1.390625 -0.34375q1.140625 0 1.96875 0.796875q0.828125 0.796875 0.828125 1.8125q0 0.421875 -0.140625 0.78125q-0.125 0.34375 -0.46875 0.765625q-0.328125 0.421875 -1.1875 1.265625q-2.171875 2.140625 -3.53125 3.328125l0 0.046875zm9.95459 -7.953125l0 3.0q0.53125 -0.21875 1.03125 -0.328125q0.5 -0.125 0.953125 -0.125q1.15625 0 1.921875 0.8125q0.78125 0.8125 0.78125 2.140625q0 1.46875 -0.875 2.375q-0.875 0.90625 -2.1875 0.90625q-0.875 0 -1.6875 -0.390625q-0.5625 -0.265625 -1.03125 -0.671875q-0.28125 -0.234375 -0.28125 -0.40625q0 -0.125 0.078125 -0.21875q0.09375 -0.09375 0.21875 -0.09375q0.125 0 0.265625 0.140625q1.09375 1.03125 2.40625 1.03125q1.078125 0 1.78125 -0.734375q0.703125 -0.75 0.703125 -1.96875q0 -1.03125 -0.609375 -1.65625q-0.609375 -0.640625 -1.546875 -0.640625q-0.96875 0 -1.921875 0.5q-0.234375 0.109375 -0.328125 0.109375q-0.140625 0 -0.21875 -0.078125q-0.078125 -0.09375 -0.078125 -0.25l0 -4.078125l4.296875 0q0.21875 0 0.3125 0.09375q0.09375 0.078125 0.09375 0.21875q0 0.125 -0.09375 0.21875q-0.09375 0.09375 -0.3125 0.09375l-3.671875 0zm9.470215 6.34375l2.0 0l-2.171875 4.046875q-0.203125 0.375 -0.484375 0.375q-0.171875 0 -0.3125 -0.140625q-0.125 -0.125 -0.125 -0.296875q0 -0.078125 0.03125 -0.171875l1.0625 -3.8125zm39.75586 -2.984375q-0.484375 0.84375 -1.140625 1.265625q-0.65625 0.421875 -1.34375 0.421875q-0.640625 0 -1.234375 -0.359375q-0.59375 -0.359375 -0.953125 -1.0625q-0.34375 -0.71875 -0.34375 -1.5q0 -1.125 0.6875 -2.046875q0.703125 -0.921875 1.875 -0.921875q0.84375 0 1.53125 0.515625q0.6875 0.515625 1.0625 1.5q0.5 1.28125 0.5 2.953125q0 1.296875 -0.421875 2.171875q-0.28125 0.578125 -0.828125 1.125q-0.53125 0.546875 -1.203125 0.90625q-0.921875 0.453125 -1.921875 0.453125q-0.65625 0 -1.0625 -0.25q-0.203125 -0.109375 -0.203125 -0.296875q0 -0.125 0.09375 -0.203125q0.09375 -0.078125 0.21875 -0.078125q0.078125 0 0.25 0.078125q0.28125 0.140625 0.65625 0.140625q1.5625 0 2.671875 -1.125q1.125 -1.125 1.125 -2.828125q0 -0.296875 -0.015625 -0.859375zm-0.125 -1.015625q-0.390625 -1.5 -0.96875 -2.03125q-0.5625 -0.546875 -1.34375 -0.546875q-0.78125 0 -1.375 0.671875q-0.59375 0.65625 -0.59375 1.6875q0 1.0 0.59375 1.65625q0.59375 0.65625 1.34375 0.65625q0.4375 0 0.859375 -0.234375q0.421875 -0.234375 0.796875 -0.703125q0.234375 -0.3125 0.6875 -1.15625zm4.907715 -2.34375l0 3.0q0.53125 -0.21875 1.03125 -0.328125q0.5 -0.125 0.953125 -0.125q1.15625 0 1.921875 0.8125q0.78125 0.8125 0.78125 2.140625q0 1.46875 -0.875 2.375q-0.875 0.90625 -2.1875 0.90625q-0.875 0 -1.6875 -0.390625q-0.5625 -0.265625 -1.03125 -0.671875q-0.28125 -0.234375 -0.28125 -0.40625q0 -0.125 0.078125 -0.21875q0.09375 -0.09375 0.21875 -0.09375q0.125 0 0.265625 0.140625q1.09375 1.03125 2.40625 1.03125q1.078125 0 1.78125 -0.734375q0.703125 -0.75 0.703125 -1.96875q0 -1.03125 -0.609375 -1.65625q-0.609375 -0.640625 -1.546875 -0.640625q-0.96875 0 -1.921875 0.5q-0.234375 0.109375 -0.328125 0.109375q-0.140625 0 -0.21875 -0.078125q-0.078125 -0.09375 -0.078125 -0.25l0 -4.078125l4.296875 0q0.21875 0 0.3125 0.09375q0.09375 0.078125 0.09375 0.21875q0 0.125 -0.09375 0.21875q-0.09375 0.09375 -0.3125 0.09375l-3.671875 0zm9.470215 6.34375l2.0 0l-2.171875 4.046875q-0.203125 0.375 -0.484375 0.375q-0.171875 0 -0.3125 -0.140625q-0.125 -0.125 -0.125 -0.296875q0 -0.078125 0.03125 -0.171875l1.0625 -3.8125zm35.396484 -1.671875q0.5625 -0.84375 1.171875 -1.234375q0.609375 -0.40625 1.34375 -0.40625q0.984375 0 1.734375 0.8125q0.765625 0.8125 0.765625 2.015625q0 1.09375 -0.703125 2.015625q-0.6875 0.90625 -1.90625 0.90625q-0.796875 0 -1.5 -0.484375q-0.6875 -0.5 -1.078125 -1.515625q-0.5 -1.265625 -0.5 -2.796875q0 -1.171875 0.46875 -2.15625q0.34375 -0.765625 0.921875 -1.34375q0.59375 -0.59375 1.375 -0.953125q0.78125 -0.375 1.6875 -0.375q0.625 0 1.03125 0.25q0.171875 0.109375 0.171875 0.28125q0 0.140625 -0.078125 0.234375q-0.078125 0.078125 -0.203125 0.078125q-0.09375 0 -0.21875 -0.078125q-0.3125 -0.15625 -0.75 -0.15625q-1.4375 0 -2.609375 1.234375q-1.171875 1.234375 -1.171875 2.921875q0 0.234375 0.046875 0.75zm0.140625 1.015625q0.265625 1.34375 0.859375 1.921875q0.609375 0.5625 1.421875 0.5625q0.8125 0 1.390625 -0.640625q0.59375 -0.640625 0.59375 -1.671875q0 -0.953125 -0.59375 -1.578125q-0.578125 -0.640625 -1.328125 -0.640625q-0.703125 0 -1.359375 0.609375q-0.4375 0.40625 -0.984375 1.4375zm11.95459 -1.890625q0.765625 0.375 1.15625 0.984375q0.390625 0.609375 0.390625 1.3125q0 1.09375 -0.828125 1.890625q-0.8125 0.796875 -1.984375 0.796875q-1.171875 0 -2.0 -0.796875q-0.8125 -0.796875 -0.8125 -1.890625q0 -0.703125 0.390625 -1.3125q0.390625 -0.609375 1.171875 -0.984375q-0.671875 -0.390625 -0.984375 -0.8125q-0.421875 -0.59375 -0.421875 -1.3125q0 -1.0 0.78125 -1.75q0.78125 -0.765625 1.875 -0.765625q1.109375 0 1.875 0.765625q0.78125 0.75 0.78125 1.75q0 0.71875 -0.421875 1.3125q-0.296875 0.421875 -0.96875 0.8125zm0.765625 -2.09375q0 -0.796875 -0.59375 -1.359375q-0.578125 -0.578125 -1.4375 -0.578125q-0.859375 0 -1.453125 0.578125q-0.578125 0.578125 -0.578125 1.34375q0 0.71875 0.578125 1.265625q0.59375 0.53125 1.453125 0.53125q0.875 0 1.453125 -0.53125q0.578125 -0.546875 0.578125 -1.25zm0.171875 4.40625q0 -0.8125 -0.640625 -1.40625q-0.625 -0.609375 -1.5625 -0.609375q-0.9375 0 -1.5625 0.609375q-0.625 0.59375 -0.625 1.390625q0 0.84375 0.625 1.46875q0.640625 0.609375 1.5625 0.609375q0.9375 0 1.5625 -0.609375q0.640625 -0.625 0.640625 -1.453125z" fill-rule="nonzero"/><path fill="#000000" fill-opacity="0.0" d="m98.708664 69.548325l104.44095 0l0 17.543312l-104.44095 0z" fill-rule="evenodd"/><path stroke="#000000" stroke-width="1.0" stroke-linejoin="round" stroke-linecap="butt" d="m98.708664 69.548325l104.44095 0l0 17.543312l-104.44095 0z" fill-rule="evenodd"/><path fill="#000000" fill-opacity="0.0" d="m0 27.91601l960.0 0l0 48.125984l-960.0 0z" fill-rule="evenodd"/><path fill="#000000" d="m312.63657 56.312885l3.75 -0.375q0.328125 1.890625 1.359375 2.78125q1.046875 0.875 2.796875 0.875q1.859375 0 2.796875 -0.78125q0.953125 -0.78125 0.953125 -1.84375q0 -0.671875 -0.40625 -1.140625q-0.390625 -0.484375 -1.375 -0.828125q-0.671875 -0.234375 -3.09375 -0.84375q-3.09375 -0.765625 -4.34375 -1.890625q-1.75 -1.5625 -1.75 -3.828125q0 -1.46875 0.828125 -2.734375q0.828125 -1.265625 2.375 -1.921875q1.5625 -0.671875 3.75 -0.671875q3.59375 0 5.40625 1.578125q1.828125 1.578125 1.921875 4.203125l-3.859375 0.171875q-0.25 -1.46875 -1.0625 -2.109375q-0.8125 -0.65625 -2.4375 -0.65625q-1.6875 0 -2.625 0.6875q-0.609375 0.453125 -0.609375 1.1875q0 0.671875 0.5625 1.15625q0.734375 0.609375 3.546875 1.28125q2.8125 0.65625 4.15625 1.375q1.34375 0.703125 2.109375 1.9375q0.765625 1.234375 0.765625 3.03125q0 1.640625 -0.921875 3.078125q-0.90625 1.4375 -2.578125 2.140625q-1.65625 0.6875 -4.140625 0.6875q-3.625 0 -5.5625 -1.671875q-1.9375 -1.671875 -2.3125 -4.875zm23.045135 6.203125l0 -15.859375l-5.65625 0l0 -3.21875l15.15625 0l0 3.21875l-5.640625 0l0 15.859375l-3.859375 0zm11.98584 0l0 -19.078125l14.15625 0l0 3.21875l-10.296875 0l0 4.234375l9.578125 0l0 3.21875l-9.578125 0l0 5.1875l10.65625 0l0 3.21875l-14.515625 0zm17.77948 0l0 -19.078125l6.1875 0q3.515625 0 4.578125 0.28125q1.640625 0.4375 2.75 1.875q1.109375 1.4375 1.109375 3.703125q0 1.765625 -0.640625 2.96875q-0.640625 1.1875 -1.625 1.875q-0.984375 0.6875 -2.0 0.90625q-1.375 0.265625 -4.0 0.265625l-2.5 0l0 7.203125l-3.859375 0zm3.859375 -15.859375l0 5.421875l2.109375 0q2.265625 0 3.03125 -0.296875q0.78125 -0.296875 1.21875 -0.9375q0.4375 -0.640625 0.4375 -1.484375q0 -1.046875 -0.625 -1.71875q-0.609375 -0.671875 -1.546875 -0.84375q-0.6875 -0.140625 -2.765625 -0.140625l-1.859375 0zm32.391235 12.46875l0 3.390625l-12.828125 0q0.21875 -1.921875 1.25 -3.640625q1.046875 -1.734375 4.125 -4.578125q2.46875 -2.3125 3.03125 -3.125q0.75 -1.140625 0.75 -2.25q0 -1.21875 -0.65625 -1.875q-0.65625 -0.65625 -1.8125 -0.65625q-1.140625 0 -1.828125 0.6875q-0.671875 0.6875 -0.78125 2.296875l-3.640625 -0.375q0.328125 -3.015625 2.046875 -4.328125q1.71875 -1.3125 4.296875 -1.3125q2.8125 0 4.421875 1.53125q1.625 1.515625 1.625 3.78125q0 1.28125 -0.46875 2.453125q-0.453125 1.15625 -1.453125 2.4375q-0.671875 0.84375 -2.40625 2.4375q-1.71875 1.578125 -2.1875 2.109375q-0.453125 0.515625 -0.75 1.015625l7.265625 0zm10.246521 -1.703125l0 -3.65625l7.1875 0l0 3.65625l-7.1875 0zm16.76706 5.09375l0 -19.078125l3.75 0l7.796875 12.734375l0 -12.734375l3.578125 0l0 19.078125l-3.859375 0l-7.6875 -12.4375l0 12.4375l-3.578125 0zm18.42215 -9.421875q0 -2.921875 0.875 -4.890625q0.65625 -1.46875 1.78125 -2.625q1.125 -1.15625 2.46875 -1.71875q1.78125 -0.75 4.109375 -0.75q4.21875 0 6.75 2.625q2.53125 2.609375 2.53125 7.265625q0 4.625 -2.515625 7.234375q-2.515625 2.609375 -6.71875 2.609375q-4.25 0 -6.765625 -2.59375q-2.515625 -2.609375 -2.515625 -7.15625zm3.96875 -0.125q0 3.234375 1.5 4.90625q1.5 1.671875 3.796875 1.671875q2.3125 0 3.78125 -1.65625q1.484375 -1.65625 1.484375 -4.984375q0 -3.28125 -1.4375 -4.890625q-1.4375 -1.609375 -3.828125 -1.609375q-2.375 0 -3.84375 1.640625q-1.453125 1.625 -1.453125 4.921875zm17.562225 9.546875l0 -19.078125l8.109375 0q3.0625 0 4.4375 0.515625q1.390625 0.515625 2.21875 1.828125q0.84375 1.3125 0.84375 3.0q0 2.15625 -1.265625 3.5625q-1.265625 1.390625 -3.78125 1.75q1.25 0.734375 2.0625 1.609375q0.8125 0.859375 2.203125 3.09375l2.328125 3.71875l-4.609375 0l-2.78125 -4.15625q-1.484375 -2.21875 -2.03125 -2.796875q-0.546875 -0.578125 -1.171875 -0.796875q-0.609375 -0.21875 -1.921875 -0.21875l-0.78125 0l0 7.96875l-3.859375 0zm3.859375 -11.015625l2.84375 0q2.765625 0 3.453125 -0.234375q0.703125 -0.234375 1.09375 -0.796875q0.390625 -0.578125 0.390625 -1.4375q0 -0.96875 -0.515625 -1.546875q-0.515625 -0.59375 -1.453125 -0.75q-0.46875 -0.078125 -2.8125 -0.078125l-3.0 0l0 4.84375zm15.3284 11.015625l0 -19.078125l5.765625 0l3.453125 13.015625l3.421875 -13.015625l5.78125 0l0 19.078125l-3.578125 0l0 -15.015625l-3.78125 15.015625l-3.71875 0l-3.765625 -15.015625l0 15.015625l-3.578125 0zm39.454895 0l-4.1875 0l-1.65625 -4.328125l-7.640625 0l-1.5625 4.328125l-4.09375 0l7.4375 -19.078125l4.0625 0l7.640625 19.078125zm-7.09375 -7.546875l-2.625 -7.078125l-2.578125 7.078125l5.203125 0zm9.250244 7.546875l0 -18.921875l3.84375 0l0 15.703125l9.578125 0l0 3.21875l-13.421875 0zm16.063965 0l0 -19.078125l3.84375 0l0 19.078125l-3.84375 0zm5.859131 0l0 -3.46875l10.03125 -12.390625l-8.890625 0l0 -3.21875l13.96875 0l0 2.984375l-10.453125 12.875l10.84375 0l0 3.21875l-15.5 0zm35.14203 0l-4.1875 0l-1.65625 -4.328125l-7.640625 0l-1.5625 4.328125l-4.09375 0l7.4375 -19.078125l4.0625 0l7.640625 19.078125zm-7.09375 -7.546875l-2.625 -7.078125l-2.578125 7.078125l5.203125 0zm11.458679 7.546875l0 -15.859375l-5.65625 0l0 -3.21875l15.15625 0l0 3.21875l-5.640625 0l0 15.859375l-3.859375 0zm11.876465 0l0 -19.078125l3.84375 0l0 19.078125l-3.84375 0zm6.734009 -9.421875q0 -2.921875 0.875 -4.890625q0.65625 -1.46875 1.78125 -2.625q1.125 -1.15625 2.46875 -1.71875q1.78125 -0.75 4.109375 -0.75q4.21875 0 6.75 2.625q2.53125 2.609375 2.53125 7.265625q0 4.625 -2.515625 7.234375q-2.515625 2.609375 -6.71875 2.609375q-4.25 0 -6.765625 -2.59375q-2.515625 -2.609375 -2.515625 -7.15625zm3.96875 -0.125q0 3.234375 1.5 4.90625q1.5 1.671875 3.796875 1.671875q2.3125 0 3.78125 -1.65625q1.484375 -1.65625 1.484375 -4.984375q0 -3.28125 -1.4375 -4.890625q-1.4375 -1.609375 -3.828125 -1.609375q-2.375 0 -3.84375 1.640625q-1.453125 1.625 -1.453125 4.921875zm17.593506 9.546875l0 -19.078125l3.75 0l7.796875 12.734375l0 -12.734375l3.578125 0l0 19.078125l-3.859375 0l-7.6875 -12.4375l0 12.4375l-3.578125 0z" fill-rule="nonzero"/><path fill="#ffd966" d="m262.79132 263.08383l0 0c0 -20.586746 16.688843 -37.275604 37.275574 -37.275604l0 0c9.886108 0 19.36731 3.927246 26.35785 10.91777c6.990509 6.9905243 10.917755 16.471725 10.917755 26.357834l0 0c0 20.586731 -16.688843 37.275574 -37.275604 37.275574l0 0c-20.586731 0 -37.275574 -16.688843 -37.275574 -37.275574z" fill-rule="evenodd"/><path stroke="#000000" stroke-width="1.0" stroke-linejoin="round" stroke-linecap="butt" d="m262.79132 263.08383l0 0c0 -20.586746 16.688843 -37.275604 37.275574 -37.275604l0 0c9.886108 0 19.36731 3.927246 26.35785 10.91777c6.990509 6.9905243 10.917755 16.471725 10.917755 26.357834l0 0c0 20.586731 -16.688843 37.275574 -37.275604 37.275574l0 0c-20.586731 0 -37.275574 -16.688843 -37.275574 -37.275574z" fill-rule="evenodd"/><path fill="#000000" d="m298.3071 258.64444q0 -0.25 0.5 -0.5625q0.515625 -0.3125 0.84375 -0.3125q0.5 0 0.6875 0.265625q0.203125 0.265625 0.203125 0.796875q0 0.234375 -0.046875 0.40625q-0.046875 0.171875 -0.34375 0.5625q-0.296875 0.375 -0.859375 0.828125q-0.546875 0.4375 -1.65625 1.1875q-1.09375 0.75 -2.65625 1.671875l0.3125 3.375q0.1875 2.15625 1.1875 2.15625q1.203125 -0.875 1.5625 -0.875q0.15625 0 0.171875 0.0625q-0.171875 0.765625 -1.078125 1.28125q-0.90625 0.515625 -1.859375 0.515625q-0.78125 0 -1.109375 -0.609375q-0.3125 -0.609375 -0.421875 -1.734375l-0.296875 -3.265625q-2.359375 1.390625 -3.4375 2.125q-1.0625 0.71875 -1.28125 1.015625q-0.21875 0.296875 -0.21875 0.703125q0 0.78125 0.53125 0.78125q0.171875 0 0.171875 0.109375q0 0.234375 -0.53125 0.5625q-0.53125 0.3125 -0.828125 0.3125q-0.875 0 -0.875 -0.984375q0 -0.359375 0.15625 -0.65625q0.15625 -0.296875 0.734375 -0.875q0.578125 -0.578125 1.953125 -1.484375q1.375 -0.921875 3.578125 -2.21875l-0.28125 -2.859375q-0.203125 -2.171875 -1.171875 -2.171875l-0.75 0.5625q-0.484375 0.3125 -0.84375 0.3125q-0.15625 0 -0.15625 -0.140625q0 -0.515625 0.90625 -1.109375q0.90625 -0.609375 2.03125 -0.609375q0.546875 0 0.859375 0.34375q0.328125 0.34375 0.453125 0.796875q0.125 0.453125 0.203125 1.203125l0.28125 2.765625q1.484375 -0.890625 2.3125 -1.4375q0.828125 -0.546875 1.21875 -0.90625q0.390625 -0.359375 0.46875 -0.53125q0.078125 -0.171875 0.078125 -0.46875q0 -0.78125 -0.5625 -0.78125q-0.140625 0 -0.140625 -0.109375z" fill-rule="nonzero"/><path fill="#000000" d="m300.4516 279.47256l0 -11.375l2.40625 0l0 0.90625l-1.3125 0l0 9.5625l1.3125 0l0 0.90625l-2.40625 0zm3.127411 -6.859375q0 -1.578125 0.328125 -2.53125q0.328125 -0.96875 0.96875 -1.484375q0.640625 -0.53125 1.609375 -0.53125q0.71875 0 1.25 0.296875q0.546875 0.28125 0.890625 0.828125q0.359375 0.53125 0.5625 1.3125q0.203125 0.78125 0.203125 2.109375q0 1.5625 -0.328125 2.53125q-0.328125 0.953125 -0.96875 1.484375q-0.640625 0.53125 -1.609375 0.53125q-1.296875 0 -2.03125 -0.921875q-0.875 -1.109375 -0.875 -3.625zm1.125 0q0 2.1875 0.515625 2.921875q0.515625 0.71875 1.265625 0.71875q0.75 0 1.265625 -0.71875q0.515625 -0.734375 0.515625 -2.921875q0 -2.203125 -0.515625 -2.921875q-0.515625 -0.71875 -1.28125 -0.71875q-0.75 0 -1.203125 0.640625q-0.5625 0.8125 -0.5625 3.0zm7.917145 6.859375l-2.40625 0l0 -0.90625l1.328125 0l0 -9.5625l-1.328125 0l0 -0.90625l2.40625 0l0 11.375z" fill-rule="nonzero"/><path fill="#ffd966" d="m262.79132 411.36172l0 0c0 -20.586731 16.688843 -37.275574 37.275574 -37.275574l0 0c9.886108 0 19.36731 3.927246 26.35785 10.917755c6.990509 6.9905396 10.917755 16.47174 10.917755 26.357819l0 0c0 20.586761 -16.688843 37.275604 -37.275604 37.275604l0 0c-20.586731 0 -37.275574 -16.688843 -37.275574 -37.275604z" fill-rule="evenodd"/><path stroke="#000000" stroke-width="1.0" stroke-linejoin="round" stroke-linecap="butt" d="m262.79132 411.36172l0 0c0 -20.586731 16.688843 -37.275574 37.275574 -37.275574l0 0c9.886108 0 19.36731 3.927246 26.35785 10.917755c6.990509 6.9905396 10.917755 16.47174 10.917755 26.357819l0 0c0 20.586761 -16.688843 37.275604 -37.275604 37.275604l0 0c-20.586731 0 -37.275574 -16.688843 -37.275574 -37.275604z" fill-rule="evenodd"/><path fill="#000000" d="m294.31845 406.92236q0 -0.25 0.5 -0.5625q0.515625 -0.3125 0.84375 -0.3125q0.5 0 0.6875 0.265625q0.203125 0.265625 0.203125 0.796875q0 0.234375 -0.046875 0.40625q-0.046875 0.171875 -0.34375 0.5625q-0.296875 0.375 -0.859375 0.828125q-0.546875 0.4375 -1.65625 1.1875q-1.09375 0.75 -2.65625 1.671875l0.3125 3.375q0.1875 2.15625 1.1875 2.15625q1.203125 -0.875 1.5625 -0.875q0.15625 0 0.171875 0.0625q-0.171875 0.765625 -1.078125 1.28125q-0.90625 0.515625 -1.859375 0.515625q-0.78125 0 -1.109375 -0.609375q-0.3125 -0.609375 -0.421875 -1.734375l-0.296875 -3.265625q-2.359375 1.390625 -3.4375 2.125q-1.0625 0.71875 -1.28125 1.015625q-0.21875 0.296875 -0.21875 0.703125q0 0.78125 0.53125 0.78125q0.171875 0 0.171875 0.109375q0 0.234375 -0.53125 0.5625q-0.53125 0.3125 -0.828125 0.3125q-0.875 0 -0.875 -0.984375q0 -0.359375 0.15625 -0.65625q0.15625 -0.296875 0.734375 -0.875q0.578125 -0.578125 1.953125 -1.484375q1.375 -0.921875 3.578125 -2.21875l-0.28125 -2.859375q-0.203125 -2.171875 -1.171875 -2.171875l-0.75 0.5625q-0.484375 0.3125 -0.84375 0.3125q-0.15625 0 -0.15625 -0.140625q0 -0.515625 0.90625 -1.109375q0.90625 -0.609375 2.03125 -0.609375q0.546875 0 0.859375 0.34375q0.328125 0.34375 0.453125 0.796875q0.125 0.453125 0.203125 1.203125l0.28125 2.765625q1.484375 -0.890625 2.3125 -1.4375q0.828125 -0.546875 1.21875 -0.90625q0.390625 -0.359375 0.46875 -0.53125q0.078125 -0.171875 0.078125 -0.46875q0 -0.78125 -0.5625 -0.78125q-0.140625 0 -0.140625 -0.109375z" fill-rule="nonzero"/><path fill="#000000" d="m296.46295 427.7505l0 -11.375l2.40625 0l0 0.90625l-1.3125 0l0 9.5625l1.3125 0l0 0.90625l-2.40625 0zm7.252411 -2.46875l-1.09375 0l0 -6.96875q-0.40625 0.375 -1.046875 0.75q-0.640625 0.375 -1.140625 0.578125l0 -1.0625q0.90625 -0.4375 1.59375 -1.046875q0.6875 -0.609375 0.96875 -1.1875l0.71875 0l0 8.9375zm4.917145 2.46875l-2.40625 0l0 -0.90625l1.328125 0l0 -9.5625l-1.328125 0l0 -0.90625l2.40625 0l0 11.375z" fill-rule="nonzero"/><path fill="#93c47d" d="m524.01447 175.08513l0 0c0 -20.586731 16.688843 -37.27559 37.275574 -37.27559l0 0c9.886108 0 19.36731 3.927246 26.35785 10.91777c6.9905396 6.9905243 10.917786 16.471725 10.917786 26.357819l0 0c0 20.586746 -16.688843 37.27559 -37.275635 37.27559l0 0c-20.586731 0 -37.275574 -16.688843 -37.275574 -37.27559z" fill-rule="evenodd"/><path stroke="#000000" stroke-width="1.0" stroke-linejoin="round" stroke-linecap="butt" d="m524.01447 175.08513l0 0c0 -20.586731 16.688843 -37.27559 37.275574 -37.27559l0 0c9.886108 0 19.36731 3.927246 26.35785 10.91777c6.9905396 6.9905243 10.917786 16.471725 10.917786 26.357819l0 0c0 20.586746 -16.688843 37.27559 -37.275635 37.27559l0 0c-20.586731 0 -37.275574 -16.688843 -37.275574 -37.27559z" fill-rule="evenodd"/><path fill="#000000" d="m544.8175 180.38889l0.171875 -0.703125q0.453125 0.09375 0.6875 0.09375q0.25 0 0.375 -0.125q0.140625 -0.125 0.203125 -0.5625l0.8125 -4.75l-0.921875 0l0.109375 -0.640625l0.921875 0l0.109375 -0.59375q0.09375 -0.546875 0.203125 -0.75q0.140625 -0.296875 0.390625 -0.453125q0.265625 -0.15625 0.703125 -0.15625q0.359375 0 0.96875 0.171875l-0.15625 0.703125q-0.46875 -0.109375 -0.703125 -0.109375q-0.25 0 -0.375 0.125q-0.125 0.125 -0.21875 0.59375l-0.09375 0.46875l0.9375 0l-0.109375 0.640625l-0.9375 0l-0.875 4.984375q-0.109375 0.671875 -0.390625 0.921875q-0.28125 0.265625 -0.78125 0.265625q-0.4375 0 -1.03125 -0.125z" fill-rule="nonzero"/><path fill="#000000" d="m550.2085 182.04514l0 -4.453125l0.546875 0l0 1.59375q0.390625 -0.4375 0.96875 -0.4375q0.359375 0 0.625 0.140625q0.265625 0.140625 0.375 0.390625q0.109375 0.25 0.109375 0.71875l0 2.046875l-0.546875 0l0 -2.046875q0 -0.40625 -0.171875 -0.59375q-0.171875 -0.1875 -0.5 -0.1875q-0.25 0 -0.46875 0.125q-0.203125 0.125 -0.296875 0.34375q-0.09375 0.21875 -0.09375 0.59375l0 1.765625l-0.546875 0zm3.4741821 1.234375l0 -5.6875l1.203125 0l0 0.453125l-0.65625 0l0 4.78125l0.65625 0l0 0.453125l-1.203125 0zm1.5715332 -3.4375q0 -0.78125 0.15625 -1.265625q0.15625 -0.484375 0.46875 -0.734375q0.328125 -0.265625 0.8125 -0.265625q0.359375 0 0.625 0.140625q0.28125 0.140625 0.453125 0.421875q0.171875 0.265625 0.265625 0.65625q0.109375 0.390625 0.109375 1.046875q0 0.796875 -0.15625 1.28125q-0.15625 0.46875 -0.484375 0.734375q-0.3125 0.265625 -0.8125 0.265625q-0.640625 0 -1.0 -0.46875q-0.4375 -0.546875 -0.4375 -1.8125zm0.546875 0q0 1.109375 0.25 1.46875q0.265625 0.359375 0.640625 0.359375q0.390625 0 0.640625 -0.359375q0.25 -0.375 0.25 -1.46875q0 -1.09375 -0.25 -1.453125q-0.25 -0.359375 -0.640625 -0.359375q-0.375 0 -0.59375 0.3125q-0.296875 0.40625 -0.296875 1.5zm3.9741821 3.4375l-1.203125 0l0 -0.453125l0.65625 0l0 -4.78125l-0.65625 0l0 -0.453125l1.203125 0l0 5.6875zm0.8215332 0l0 -5.6875l1.203125 0l0 0.453125l-0.65625 0l0 4.78125l0.65625 0l0 0.453125l-1.203125 0zm1.5715332 -3.4375q0 -0.78125 0.15625 -1.265625q0.15625 -0.484375 0.46875 -0.734375q0.328125 -0.265625 0.8125 -0.265625q0.359375 0 0.625 0.140625q0.28125 0.140625 0.453125 0.421875q0.171875 0.265625 0.265625 0.65625q0.109375 0.390625 0.109375 1.046875q0 0.796875 -0.15625 1.28125q-0.15625 0.46875 -0.484375 0.734375q-0.3125 0.265625 -0.8125 0.265625q-0.640625 0 -1.0 -0.46875q-0.4375 -0.546875 -0.4375 -1.8125zm0.546875 0q0 1.109375 0.25 1.46875q0.265625 0.359375 0.640625 0.359375q0.390625 0 0.640625 -0.359375q0.25 -0.375 0.25 -1.46875q0 -1.09375 -0.25 -1.453125q-0.25 -0.359375 -0.640625 -0.359375q-0.375 0 -0.59375 0.3125q-0.296875 0.40625 -0.296875 1.5zm3.9741821 3.4375l-1.203125 0l0 -0.453125l0.65625 0l0 -4.78125l-0.65625 0l0 -0.453125l1.203125 0l0 5.6875z" fill-rule="nonzero"/><path fill="#000000" d="m569.27655 180.51389q-0.6875 -0.859375 -1.15625 -2.0q-0.46875 -1.15625 -0.46875 -2.390625q0 -1.078125 0.359375 -2.078125q0.40625 -1.140625 1.265625 -2.296875l0.578125 0q-0.546875 0.953125 -0.71875 1.359375q-0.28125 0.625 -0.4375 1.3125q-0.203125 0.84375 -0.203125 1.71875q0 2.1875 1.359375 4.375l-0.578125 0z" fill-rule="nonzero"/><path fill="#000000" d="m570.586 176.88889l0.828125 -0.046875q0 0.359375 0.109375 0.609375q0.109375 0.25 0.390625 0.40625q0.296875 0.15625 0.6875 0.15625q0.546875 0 0.8125 -0.21875q0.28125 -0.21875 0.28125 -0.515625q0 -0.203125 -0.15625 -0.40625q-0.171875 -0.1875 -0.828125 -0.46875q-0.65625 -0.28125 -0.828125 -0.390625q-0.3125 -0.1875 -0.46875 -0.4375q-0.15625 -0.25 -0.15625 -0.578125q0 -0.578125 0.453125 -0.984375q0.46875 -0.421875 1.28125 -0.421875q0.90625 0 1.375 0.421875q0.484375 0.421875 0.5 1.109375l-0.796875 0.0625q-0.015625 -0.4375 -0.3125 -0.6875q-0.296875 -0.265625 -0.828125 -0.265625q-0.421875 0 -0.671875 0.203125q-0.234375 0.1875 -0.234375 0.421875q0 0.21875 0.21875 0.40625q0.125 0.109375 0.703125 0.359375q0.9375 0.40625 1.1875 0.640625q0.390625 0.375 0.390625 0.921875q0 0.359375 -0.21875 0.703125q-0.21875 0.34375 -0.671875 0.5625q-0.453125 0.203125 -1.0625 0.203125q-0.84375 0 -1.4375 -0.421875q-0.578125 -0.40625 -0.546875 -1.34375z" fill-rule="nonzero"/><path fill="#000000" d="m576.0157 180.51389l-0.59375 0q1.359375 -2.1875 1.359375 -4.375q0 -0.859375 -0.1875 -1.703125q-0.15625 -0.6875 -0.4375 -1.3125q-0.171875 -0.40625 -0.734375 -1.375l0.59375 0q0.859375 1.15625 1.265625 2.296875q0.34375 1.0 0.34375 2.078125q0 1.234375 -0.46875 2.390625q-0.46875 1.140625 -1.140625 2.0z" fill-rule="nonzero"/><path fill="#93c47d" d="m525.5342 326.01962l0 0c0 -20.586761 16.688843 -37.275604 37.275574 -37.275604l0 0c9.886108 0 19.36731 3.927246 26.35785 10.917786c6.9904785 6.990509 10.917725 16.47171 10.917725 26.357819l0 0c0 20.586731 -16.688843 37.275574 -37.275574 37.275574l0 0c-20.586731 0 -37.275574 -16.688843 -37.275574 -37.275574z" fill-rule="evenodd"/><path stroke="#000000" stroke-width="1.0" stroke-linejoin="round" stroke-linecap="butt" d="m525.5342 326.01962l0 0c0 -20.586761 16.688843 -37.275604 37.275574 -37.275604l0 0c9.886108 0 19.36731 3.927246 26.35785 10.917786c6.9904785 6.990509 10.917725 16.47171 10.917725 26.357819l0 0c0 20.586731 -16.688843 37.275574 -37.275574 37.275574l0 0c-20.586731 0 -37.275574 -16.688843 -37.275574 -37.275574z" fill-rule="evenodd"/><path fill="#000000" d="m546.33716 331.32336l0.171875 -0.703125q0.453125 0.09375 0.6875 0.09375q0.25 0 0.375 -0.125q0.140625 -0.125 0.203125 -0.5625l0.8125 -4.75l-0.921875 0l0.109375 -0.640625l0.921875 0l0.109375 -0.59375q0.09375 -0.546875 0.203125 -0.75q0.140625 -0.296875 0.390625 -0.453125q0.265625 -0.15625 0.703125 -0.15625q0.359375 0 0.96875 0.171875l-0.15625 0.703125q-0.46875 -0.109375 -0.703125 -0.109375q-0.25 0 -0.375 0.125q-0.125 0.125 -0.21875 0.59375l-0.09375 0.46875l0.9375 0l-0.109375 0.640625l-0.9375 0l-0.875 4.984375q-0.109375 0.671875 -0.390625 0.921875q-0.28125 0.265625 -0.78125 0.265625q-0.4375 0 -1.03125 -0.125z" fill-rule="nonzero"/><path fill="#000000" d="m551.72815 332.9796l0 -4.453125l0.546875 0l0 1.59375q0.390625 -0.4375 0.96875 -0.4375q0.359375 0 0.625 0.140625q0.265625 0.140625 0.375 0.390625q0.109375 0.25 0.109375 0.71875l0 2.046875l-0.546875 0l0 -2.046875q0 -0.40625 -0.171875 -0.59375q-0.171875 -0.1875 -0.5 -0.1875q-0.25 0 -0.46875 0.125q-0.203125 0.125 -0.296875 0.34375q-0.09375 0.21875 -0.09375 0.59375l0 1.765625l-0.546875 0zm3.4742432 1.234375l0 -5.6875l1.203125 0l0 0.453125l-0.65625 0l0 4.78125l0.65625 0l0 0.453125l-1.203125 0zm1.5714722 -3.4375q0 -0.78125 0.15625 -1.265625q0.15625 -0.484375 0.46875 -0.734375q0.328125 -0.265625 0.8125 -0.265625q0.359375 0 0.625 0.140625q0.28125 0.140625 0.453125 0.421875q0.171875 0.265625 0.265625 0.65625q0.109375 0.390625 0.109375 1.046875q0 0.796875 -0.15625 1.28125q-0.15625 0.46875 -0.484375 0.734375q-0.3125 0.265625 -0.8125 0.265625q-0.640625 0 -1.0 -0.46875q-0.4375 -0.546875 -0.4375 -1.8125zm0.546875 0q0 1.109375 0.25 1.46875q0.265625 0.359375 0.640625 0.359375q0.390625 0 0.640625 -0.359375q0.25 -0.375 0.25 -1.46875q0 -1.09375 -0.25 -1.453125q-0.25 -0.359375 -0.640625 -0.359375q-0.375 0 -0.59375 0.3125q-0.296875 0.40625 -0.296875 1.5zm3.9742432 3.4375l-1.203125 0l0 -0.453125l0.65625 0l0 -4.78125l-0.65625 0l0 -0.453125l1.203125 0l0 5.6875zm0.82147217 0l0 -5.6875l1.203125 0l0 0.453125l-0.65625 0l0 4.78125l0.65625 0l0 0.453125l-1.203125 0zm3.6184082 -1.234375l-0.546875 0l0 -3.484375q-0.1875 0.1875 -0.515625 0.375q-0.3125 0.1875 -0.578125 0.28125l0 -0.53125q0.46875 -0.203125 0.8125 -0.515625q0.34375 -0.3125 0.484375 -0.59375l0.34375 0l0 4.46875zm2.4741821 1.234375l-1.203125 0l0 -0.453125l0.65625 0l0 -4.78125l-0.65625 0l0 -0.453125l1.203125 0l0 5.6875z" fill-rule="nonzero"/><path fill="#000000" d="m570.7962 331.44836q-0.6875 -0.859375 -1.15625 -2.0q-0.46875 -1.15625 -0.46875 -2.390625q0 -1.078125 0.359375 -2.078125q0.40625 -1.140625 1.265625 -2.296875l0.578125 0q-0.546875 0.953125 -0.71875 1.359375q-0.28125 0.625 -0.4375 1.3125q-0.203125 0.84375 -0.203125 1.71875q0 2.1875 1.359375 4.375l-0.578125 0z" fill-rule="nonzero"/><path fill="#000000" d="m572.10565 327.82336l0.828125 -0.046875q0 0.359375 0.109375 0.609375q0.109375 0.25 0.390625 0.40625q0.296875 0.15625 0.6875 0.15625q0.546875 0 0.8125 -0.21875q0.28125 -0.21875 0.28125 -0.515625q0 -0.203125 -0.15625 -0.40625q-0.171875 -0.1875 -0.828125 -0.46875q-0.65625 -0.28125 -0.828125 -0.390625q-0.3125 -0.1875 -0.46875 -0.4375q-0.15625 -0.25 -0.15625 -0.578125q0 -0.578125 0.453125 -0.984375q0.46875 -0.421875 1.28125 -0.421875q0.90625 0 1.375 0.421875q0.484375 0.421875 0.5 1.109375l-0.796875 0.0625q-0.015625 -0.4375 -0.3125 -0.6875q-0.296875 -0.265625 -0.828125 -0.265625q-0.421875 0 -0.671875 0.203125q-0.234375 0.1875 -0.234375 0.421875q0 0.21875 0.21875 0.40625q0.125 0.109375 0.703125 0.359375q0.9375 0.40625 1.1875 0.640625q0.390625 0.375 0.390625 0.921875q0 0.359375 -0.21875 0.703125q-0.21875 0.34375 -0.671875 0.5625q-0.453125 0.203125 -1.0625 0.203125q-0.84375 0 -1.4375 -0.421875q-0.578125 -0.40625 -0.546875 -1.34375z" fill-rule="nonzero"/><path fill="#000000" d="m577.53534 331.44836l-0.59375 0q1.359375 -2.1875 1.359375 -4.375q0 -0.859375 -0.1875 -1.703125q-0.15625 -0.6875 -0.4375 -1.3125q-0.171875 -0.40625 -0.734375 -1.375l0.59375 0q0.859375 1.15625 1.265625 2.296875q0.34375 1.0 0.34375 2.078125q0 1.234375 -0.46875 2.390625q-0.46875 1.140625 -1.140625 2.0z" fill-rule="nonzero"/><path fill="#e06666" d="m793.5656 326.6741l0 0c0 -20.586731 16.688843 -37.275604 37.275574 -37.275604l0 0c9.886108 0 19.36731 3.927246 26.35785 10.917786c6.9905396 6.990509 10.917725 16.47171 10.917725 26.357819l0 0c0 20.586731 -16.688843 37.275604 -37.275574 37.275604l0 0c-20.586731 0 -37.275574 -16.688873 -37.275574 -37.275604z" fill-rule="evenodd"/><path stroke="#000000" stroke-width="1.0" stroke-linejoin="round" stroke-linecap="butt" d="m793.5656 326.6741l0 0c0 -20.586731 16.688843 -37.275604 37.275574 -37.275604l0 0c9.886108 0 19.36731 3.927246 26.35785 10.917786c6.9905396 6.990509 10.917725 16.47171 10.917725 26.357819l0 0c0 20.586731 -16.688843 37.275604 -37.275574 37.275604l0 0c-20.586731 0 -37.275574 -16.688873 -37.275574 -37.275604z" fill-rule="evenodd"/><path fill="#000000" d="m814.1019 333.5691l0.203125 -0.90625q0.59375 0.125 0.890625 0.125q0.328125 0 0.484375 -0.171875q0.171875 -0.15625 0.265625 -0.71875l1.046875 -6.109375l-1.1875 0l0.140625 -0.8125l1.1875 0l0.140625 -0.78125q0.125 -0.703125 0.265625 -0.96875q0.171875 -0.359375 0.5 -0.5625q0.34375 -0.21875 0.890625 -0.21875q0.46875 0 1.265625 0.234375l-0.203125 0.890625q-0.609375 -0.140625 -0.90625 -0.140625q-0.328125 0 -0.5 0.171875q-0.15625 0.15625 -0.265625 0.765625l-0.109375 0.609375l1.1875 0l-0.140625 0.8125l-1.203125 0l-1.109375 6.40625q-0.15625 0.859375 -0.515625 1.1875q-0.359375 0.34375 -1.015625 0.34375q-0.546875 0 -1.3125 -0.15625z" fill-rule="nonzero"/><path fill="#000000" d="m820.77576 333.61597q0 -1.15625 0.640625 -1.703125q0.53125 -0.46875 1.3125 -0.46875q0.84375 0 1.390625 0.5625q0.546875 0.5625 0.546875 1.546875q0 0.8125 -0.25 1.265625q-0.234375 0.453125 -0.703125 0.71875q-0.453125 0.25 -0.984375 0.25q-0.875 0 -1.421875 -0.5625q-0.53125 -0.5625 -0.53125 -1.609375zm0.71875 0q0 0.796875 0.34375 1.203125q0.359375 0.390625 0.890625 0.390625q0.515625 0 0.859375 -0.390625q0.359375 -0.40625 0.359375 -1.21875q0 -0.78125 -0.359375 -1.171875q-0.34375 -0.390625 -0.859375 -0.390625q-0.53125 0 -0.890625 0.390625q-0.34375 0.390625 -0.34375 1.1875zm4.0117188 3.671875l0 -7.328125l1.546875 0l0 0.59375l-0.84375 0l0 6.15625l0.84375 0l0 0.578125l-1.546875 0zm2.0039062 -4.421875q0 -1.015625 0.203125 -1.625q0.21875 -0.625 0.625 -0.953125q0.421875 -0.34375 1.046875 -0.34375q0.453125 0 0.796875 0.1875q0.359375 0.1875 0.578125 0.53125q0.234375 0.34375 0.359375 0.859375q0.125 0.5 0.125 1.34375q0 1.015625 -0.203125 1.640625q-0.203125 0.609375 -0.625 0.953125q-0.40625 0.328125 -1.03125 0.328125q-0.828125 0 -1.296875 -0.59375q-0.578125 -0.71875 -0.578125 -2.328125zm0.734375 0q0 1.40625 0.328125 1.875q0.328125 0.46875 0.8125 0.46875q0.484375 0 0.8125 -0.46875q0.328125 -0.46875 0.328125 -1.875q0 -1.40625 -0.328125 -1.875q-0.328125 -0.46875 -0.828125 -0.46875q-0.484375 0 -0.765625 0.40625q-0.359375 0.53125 -0.359375 1.9375zm5.0898438 4.421875l-1.546875 0l0 -0.578125l0.84375 0l0 -6.15625l-0.84375 0l0 -0.59375l1.546875 0l0 7.328125z" fill-rule="nonzero"/><path fill="#000000" d="m836.6664 333.72534q-0.875 -1.109375 -1.484375 -2.578125q-0.59375 -1.484375 -0.59375 -3.0625q0 -1.390625 0.4375 -2.671875q0.53125 -1.484375 1.640625 -2.953125l0.75 0q-0.703125 1.21875 -0.9375 1.734375q-0.359375 0.8125 -0.5625 1.6875q-0.25 1.09375 -0.25 2.203125q0 2.828125 1.75 5.640625l-0.75 0z" fill-rule="nonzero"/><path fill="#000000" d="m838.35 329.0691l1.0625 -0.0625q0 0.453125 0.140625 0.78125q0.140625 0.3125 0.515625 0.515625q0.375 0.203125 0.875 0.203125q0.703125 0 1.046875 -0.28125q0.359375 -0.28125 0.359375 -0.65625q0 -0.28125 -0.203125 -0.515625q-0.21875 -0.25 -1.0625 -0.609375q-0.84375 -0.359375 -1.078125 -0.515625q-0.390625 -0.234375 -0.59375 -0.5625q-0.1875 -0.328125 -0.1875 -0.75q0 -0.734375 0.578125 -1.25q0.59375 -0.53125 1.640625 -0.53125q1.171875 0 1.78125 0.546875q0.625 0.53125 0.640625 1.421875l-1.03125 0.0625q-0.03125 -0.5625 -0.40625 -0.890625q-0.375 -0.328125 -1.0625 -0.328125q-0.546875 0 -0.859375 0.25q-0.296875 0.25 -0.296875 0.546875q0 0.296875 0.265625 0.515625q0.171875 0.15625 0.90625 0.46875q1.21875 0.53125 1.53125 0.828125q0.515625 0.5 0.515625 1.1875q0 0.46875 -0.296875 0.921875q-0.28125 0.4375 -0.859375 0.703125q-0.578125 0.265625 -1.375 0.265625q-1.078125 0 -1.828125 -0.53125q-0.765625 -0.53125 -0.71875 -1.734375z" fill-rule="nonzero"/><path fill="#000000" d="m845.33435 333.72534l-0.75 0q1.75 -2.8125 1.75 -5.640625q0 -1.09375 -0.25 -2.1875q-0.203125 -0.875 -0.5625 -1.6875q-0.234375 -0.515625 -0.9375 -1.75l0.75 0q1.09375 1.46875 1.625 2.953125q0.453125 1.28125 0.453125 2.671875q0 1.578125 -0.609375 3.0625q-0.609375 1.46875 -1.46875 2.578125z" fill-rule="nonzero"/><path fill="#93c47d" d="m524.01526 476.95456l0 0c0 -20.586731 16.688904 -37.275574 37.275635 -37.275574l0 0c9.886108 0 19.367249 3.927246 26.357788 10.917755c6.9905396 6.9905396 10.917786 16.47174 10.917786 26.357819l0 0c0 20.586761 -16.688843 37.275604 -37.275574 37.275604l0 0c-20.586731 0 -37.275635 -16.688843 -37.275635 -37.275604z" fill-rule="evenodd"/><path stroke="#000000" stroke-width="1.0" stroke-linejoin="round" stroke-linecap="butt" d="m524.01526 476.95456l0 0c0 -20.586731 16.688904 -37.275574 37.275635 -37.275574l0 0c9.886108 0 19.367249 3.927246 26.357788 10.917755c6.9905396 6.9905396 10.917786 16.47174 10.917786 26.357819l0 0c0 20.586761 -16.688843 37.275604 -37.275574 37.275604l0 0c-20.586731 0 -37.275635 -16.688843 -37.275635 -37.275604z" fill-rule="evenodd"/><path fill="#000000" d="m544.8183 482.25833l0.171875 -0.703125q0.453125 0.09375 0.6875 0.09375q0.25 0 0.375 -0.125q0.140625 -0.125 0.203125 -0.5625l0.8125 -4.75l-0.921875 0l0.109375 -0.640625l0.921875 0l0.109375 -0.59375q0.09375 -0.546875 0.203125 -0.75q0.140625 -0.296875 0.390625 -0.453125q0.265625 -0.15625 0.703125 -0.15625q0.359375 0 0.96875 0.171875l-0.15625 0.703125q-0.46875 -0.109375 -0.703125 -0.109375q-0.25 0 -0.375 0.125q-0.125 0.125 -0.21875 0.59375l-0.09375 0.46875l0.9375 0l-0.109375 0.640625l-0.9375 0l-0.875 4.984375q-0.109375 0.671875 -0.390625 0.921875q-0.28125 0.265625 -0.78125 0.265625q-0.4375 0 -1.03125 -0.125z" fill-rule="nonzero"/><path fill="#000000" d="m550.2093 483.91458l0 -4.453125l0.546875 0l0 1.59375q0.390625 -0.4375 0.96875 -0.4375q0.359375 0 0.625 0.140625q0.265625 0.140625 0.375 0.390625q0.109375 0.25 0.109375 0.71875l0 2.046875l-0.546875 0l0 -2.046875q0 -0.40625 -0.171875 -0.59375q-0.171875 -0.1875 -0.5 -0.1875q-0.25 0 -0.46875 0.125q-0.203125 0.125 -0.296875 0.34375q-0.09375 0.21875 -0.09375 0.59375l0 1.765625l-0.546875 0zm3.4741821 1.234375l0 -5.6875l1.203125 0l0 0.453125l-0.65625 0l0 4.78125l0.65625 0l0 0.453125l-1.203125 0zm1.5715332 -3.4375q0 -0.78125 0.15625 -1.265625q0.15625 -0.484375 0.46875 -0.734375q0.328125 -0.265625 0.8125 -0.265625q0.359375 0 0.625 0.140625q0.28125 0.140625 0.453125 0.421875q0.171875 0.265625 0.265625 0.65625q0.109375 0.390625 0.109375 1.046875q0 0.796875 -0.15625 1.28125q-0.15625 0.46875 -0.484375 0.734375q-0.3125 0.265625 -0.8125 0.265625q-0.640625 0 -1.0 -0.46875q-0.4375 -0.546875 -0.4375 -1.8125zm0.546875 0q0 1.109375 0.25 1.46875q0.265625 0.359375 0.640625 0.359375q0.390625 0 0.640625 -0.359375q0.25 -0.375 0.25 -1.46875q0 -1.09375 -0.25 -1.453125q-0.25 -0.359375 -0.640625 -0.359375q-0.375 0 -0.59375 0.3125q-0.296875 0.40625 -0.296875 1.5zm3.9741821 3.4375l-1.203125 0l0 -0.453125l0.65625 0l0 -4.78125l-0.65625 0l0 -0.453125l1.203125 0l0 5.6875zm0.8215332 0l0 -5.6875l1.203125 0l0 0.453125l-0.65625 0l0 4.78125l0.65625 0l0 0.453125l-1.203125 0zm4.430908 -1.765625l0 0.53125l-2.9375 0q0 -0.203125 0.0625 -0.375q0.109375 -0.3125 0.359375 -0.59375q0.25 -0.296875 0.71875 -0.671875q0.71875 -0.59375 0.96875 -0.9375q0.265625 -0.359375 0.265625 -0.671875q0 -0.328125 -0.234375 -0.546875q-0.234375 -0.21875 -0.609375 -0.21875q-0.390625 0 -0.625 0.234375q-0.234375 0.234375 -0.234375 0.65625l-0.5625 -0.0625q0.046875 -0.625 0.421875 -0.953125q0.390625 -0.328125 1.015625 -0.328125q0.640625 0 1.015625 0.359375q0.375 0.34375 0.375 0.875q0 0.265625 -0.109375 0.53125q-0.109375 0.25 -0.359375 0.546875q-0.25 0.28125 -0.84375 0.78125q-0.5 0.40625 -0.640625 0.5625q-0.140625 0.140625 -0.21875 0.28125l2.171875 0zm1.6616821 1.765625l-1.203125 0l0 -0.453125l0.65625 0l0 -4.78125l-0.65625 0l0 -0.453125l1.203125 0l0 5.6875z" fill-rule="nonzero"/><path fill="#000000" d="m569.27734 482.38333q-0.6875 -0.859375 -1.15625 -2.0q-0.46875 -1.15625 -0.46875 -2.390625q0 -1.078125 0.359375 -2.078125q0.40625 -1.140625 1.265625 -2.296875l0.578125 0q-0.546875 0.953125 -0.71875 1.359375q-0.28125 0.625 -0.4375 1.3125q-0.203125 0.84375 -0.203125 1.71875q0 2.1875 1.359375 4.375l-0.578125 0z" fill-rule="nonzero"/><path fill="#000000" d="m570.5868 478.75833l0.828125 -0.046875q0 0.359375 0.109375 0.609375q0.109375 0.25 0.390625 0.40625q0.296875 0.15625 0.6875 0.15625q0.546875 0 0.8125 -0.21875q0.28125 -0.21875 0.28125 -0.515625q0 -0.203125 -0.15625 -0.40625q-0.171875 -0.1875 -0.828125 -0.46875q-0.65625 -0.28125 -0.828125 -0.390625q-0.3125 -0.1875 -0.46875 -0.4375q-0.15625 -0.25 -0.15625 -0.578125q0 -0.578125 0.453125 -0.984375q0.46875 -0.421875 1.28125 -0.421875q0.90625 0 1.375 0.421875q0.484375 0.421875 0.5 1.109375l-0.796875 0.0625q-0.015625 -0.4375 -0.3125 -0.6875q-0.296875 -0.265625 -0.828125 -0.265625q-0.421875 0 -0.671875 0.203125q-0.234375 0.1875 -0.234375 0.421875q0 0.21875 0.21875 0.40625q0.125 0.109375 0.703125 0.359375q0.9375 0.40625 1.1875 0.640625q0.390625 0.375 0.390625 0.921875q0 0.359375 -0.21875 0.703125q-0.21875 0.34375 -0.671875 0.5625q-0.453125 0.203125 -1.0625 0.203125q-0.84375 0 -1.4375 -0.421875q-0.578125 -0.40625 -0.546875 -1.34375z" fill-rule="nonzero"/><path fill="#000000" d="m576.0165 482.38333l-0.59375 0q1.359375 -2.1875 1.359375 -4.375q0 -0.859375 -0.1875 -1.703125q-0.15625 -0.6875 -0.4375 -1.3125q-0.171875 -0.40625 -0.734375 -1.375l0.59375 0q0.859375 1.15625 1.265625 2.296875q0.34375 1.0 0.34375 2.078125q0 1.234375 -0.46875 2.390625q-0.46875 1.140625 -1.140625 2.0z" fill-rule="nonzero"/><path fill="#000000" fill-opacity="0.0" d="m337.3425 263.08383l186.67715 -88.000015" fill-rule="evenodd"/><path stroke="#000000" stroke-width="1.0" stroke-linejoin="round" stroke-linecap="butt" d="m337.3425 263.08383l181.24991 -85.441605" fill-rule="evenodd"/><path fill="#000000" stroke="#000000" stroke-width="1.0" stroke-linecap="butt" d="m519.29675 179.13628l3.4005737 -3.4290924l-4.809204 0.44099426z" fill-rule="evenodd"/><path fill="#000000" fill-opacity="0.0" d="m337.3425 263.08383l188.189 62.929108" fill-rule="evenodd"/><path stroke="#000000" stroke-width="1.0" stroke-linejoin="round" stroke-linecap="butt" d="m337.3425 263.08383l182.49869 61.026337" fill-rule="evenodd"/><path fill="#000000" stroke="#000000" stroke-width="1.0" stroke-linecap="butt" d="m519.3173 325.67664l4.8276978 -0.12728882l-3.7800293 -3.0056458z" fill-rule="evenodd"/><path fill="#000000" fill-opacity="0.0" d="m337.3425 263.08383l186.67715 213.85825" fill-rule="evenodd"/><path stroke="#000000" stroke-width="1.0" stroke-linejoin="round" stroke-linecap="butt" d="m337.3425 263.08383l182.73148 209.33807" fill-rule="evenodd"/><path fill="#000000" stroke="#000000" stroke-width="1.0" stroke-linecap="butt" d="m518.82965 473.50812l4.2286377 2.3326416l-1.7399292 -4.505005z" fill-rule="evenodd"/><path fill="#000000" fill-opacity="0.0" d="m598.5657 175.08513l194.99213 151.59056" fill-rule="evenodd"/><path stroke="#000000" stroke-width="1.0" stroke-linejoin="round" stroke-linecap="butt" d="m598.5657 175.08514l190.25519 147.90796" fill-rule="evenodd"/><path fill="#000000" stroke="#000000" stroke-width="1.0" stroke-linecap="butt" d="m787.8071 324.29712l4.5965576 1.4812927l-2.5690308 -4.089325z" fill-rule="evenodd"/><path fill="#000000" fill-opacity="0.0" d="m600.0853 326.01962l193.48035 0.6614075" fill-rule="evenodd"/><path stroke="#000000" stroke-width="1.0" stroke-linejoin="round" stroke-linecap="butt" d="m600.0853 326.01962l187.48035 0.64089966" fill-rule="evenodd"/><path fill="#000000" stroke="#000000" stroke-width="1.0" stroke-linecap="butt" d="m787.56006 328.31226l4.543762 -1.6362l-4.5324707 -1.6672363z" fill-rule="evenodd"/><path fill="#000000" fill-opacity="0.0" d="m598.56647 476.95456l194.99213 -150.2677" fill-rule="evenodd"/><path stroke="#000000" stroke-width="1.0" stroke-linejoin="round" stroke-linecap="butt" d="m598.56647 476.95456l190.23956 -146.60522" fill-rule="evenodd"/><path fill="#000000" stroke="#000000" stroke-width="1.0" stroke-linecap="butt" d="m789.8143 331.65762l2.5863647 -4.0783997l-4.602844 1.461792z" fill-rule="evenodd"/><path fill="#000000" fill-opacity="0.0" d="m337.3425 411.36172l186.67715 -236.28345" fill-rule="evenodd"/><path stroke="#000000" stroke-width="1.0" stroke-linejoin="round" stroke-linecap="butt" d="m337.3425 411.36176l182.95755 -231.57552" fill-rule="evenodd"/><path fill="#000000" stroke="#000000" stroke-width="1.0" stroke-linecap="butt" d="m521.5961 180.81018l1.517273 -4.5848083l-4.109375 2.536911z" fill-rule="evenodd"/><path fill="#000000" fill-opacity="0.0" d="m337.3425 411.36172l188.189 -85.35431" fill-rule="evenodd"/><path stroke="#000000" stroke-width="1.0" stroke-linejoin="round" stroke-linecap="butt" d="m337.3425 411.36176l182.7247 -82.87601" fill-rule="evenodd"/><path fill="#000000" stroke="#000000" stroke-width="1.0" stroke-linecap="butt" d="m520.7495 329.99l3.4505615 -3.3787537l-4.8151245 0.37026978z" fill-rule="evenodd"/><path fill="#000000" fill-opacity="0.0" d="m337.3425 411.36172l186.67715 65.60632" fill-rule="evenodd"/><path stroke="#000000" stroke-width="1.0" stroke-linejoin="round" stroke-linecap="butt" d="m337.3425 411.36176l181.01657 63.616913" fill-rule="evenodd"/><path fill="#000000" stroke="#000000" stroke-width="1.0" stroke-linecap="butt" d="m517.8114 476.537l4.8290405 -0.053649902l-3.7337646 -3.0629578z" fill-rule="evenodd"/><path fill="#000000" fill-opacity="0.0" d="m200.12466 265.01575l-72.15747 0" fill-rule="evenodd"/><path stroke="#000000" stroke-width="1.0" stroke-linejoin="round" stroke-linecap="butt" d="m194.12466 265.01575l-66.15747 0" fill-rule="evenodd"/><path fill="#000000" stroke="#000000" stroke-width="1.0" stroke-linecap="butt" d="m194.12468 266.66748l4.538086 -1.6517334l-4.538086 -1.6517334z" fill-rule="evenodd"/><path fill="#000000" fill-opacity="0.0" d="m47.581364 161.04199l138.26772 0l0 52.7874l-138.26772 0z" fill-rule="evenodd"/><path fill="#0000ff" d="m96.33984 182.842l0 -8.421875l-3.140625 0l0 -1.125l7.5625 0l0 1.125l-3.15625 0l0 8.421875l-1.265625 0zm5.0528107 0l0 -6.90625l1.0625 0l0 1.046875q0.40625 -0.734375 0.734375 -0.96875q0.34375 -0.234375 0.765625 -0.234375q0.59375 0 1.203125 0.375l-0.40625 1.078125q-0.4375 -0.25 -0.859375 -0.25q-0.390625 0 -0.703125 0.234375q-0.296875 0.234375 -0.421875 0.640625q-0.203125 0.625 -0.203125 1.359375l0 3.625l-1.171875 0zm8.96962 -0.859375q-0.65625 0.5625 -1.265625 0.796875q-0.59375 0.21875 -1.28125 0.21875q-1.140625 0 -1.75 -0.546875q-0.609375 -0.5625 -0.609375 -1.4375q0 -0.5 0.21875 -0.921875q0.234375 -0.421875 0.609375 -0.671875q0.375 -0.25 0.84375 -0.390625q0.34375 -0.078125 1.046875 -0.171875q1.421875 -0.171875 2.09375 -0.40625q0 -0.234375 0 -0.296875q0 -0.71875 -0.328125 -1.015625q-0.453125 -0.390625 -1.34375 -0.390625q-0.8125 0 -1.21875 0.296875q-0.390625 0.28125 -0.578125 1.015625l-1.140625 -0.15625q0.15625 -0.734375 0.515625 -1.1875q0.359375 -0.453125 1.03125 -0.6875q0.671875 -0.25 1.5625 -0.25q0.890625 0 1.4375 0.203125q0.5625 0.203125 0.8125 0.53125q0.265625 0.3125 0.375 0.796875q0.046875 0.296875 0.046875 1.078125l0 1.5625q0 1.625 0.078125 2.0625q0.078125 0.4375 0.296875 0.828125l-1.21875 0q-0.1875 -0.359375 -0.234375 -0.859375zm-0.09375 -2.609375q-0.640625 0.265625 -1.921875 0.4375q-0.71875 0.109375 -1.015625 0.25q-0.296875 0.125 -0.46875 0.375q-0.15625 0.25 -0.15625 0.546875q0 0.46875 0.34375 0.78125q0.359375 0.3125 1.046875 0.3125q0.671875 0 1.203125 -0.296875q0.53125 -0.296875 0.78125 -0.8125q0.1875 -0.390625 0.1875 -1.171875l0 -0.421875zm3.0062256 -4.71875l0 -1.359375l1.171875 0l0 1.359375l-1.171875 0zm0 8.1875l0 -6.90625l1.171875 0l0 6.90625l-1.171875 0zm2.945465 0l0 -6.90625l1.0625 0l0 0.984375q0.75 -1.140625 2.1875 -1.140625q0.625 0 1.15625 0.21875q0.53125 0.21875 0.78125 0.59375q0.265625 0.359375 0.375 0.859375q0.0625 0.328125 0.0625 1.140625l0 4.25l-1.171875 0l0 -4.203125q0 -0.71875 -0.140625 -1.0625q-0.140625 -0.359375 -0.484375 -0.5625q-0.34375 -0.21875 -0.8125 -0.21875q-0.75 0 -1.296875 0.46875q-0.546875 0.46875 -0.546875 1.796875l0 3.78125l-1.171875 0zm7.4281006 -8.1875l0 -1.359375l1.171875 0l0 1.359375l-1.171875 0zm0 8.1875l0 -6.90625l1.171875 0l0 6.90625l-1.171875 0zm2.945465 0l0 -6.90625l1.0625 0l0 0.984375q0.75 -1.140625 2.1875 -1.140625q0.625 0 1.15625 0.21875q0.53125 0.21875 0.78125 0.59375q0.265625 0.359375 0.375 0.859375q0.0625 0.328125 0.0625 1.140625l0 4.25l-1.171875 0l0 -4.203125q0 -0.71875 -0.140625 -1.0625q-0.140625 -0.359375 -0.484375 -0.5625q-0.34375 -0.21875 -0.8125 -0.21875q-0.75 0 -1.296875 0.46875q-0.546875 0.46875 -0.546875 1.796875l0 3.78125l-1.171875 0zm7.1937256 0.578125l1.140625 0.15625q0.078125 0.53125 0.40625 0.78125q0.4375 0.3125 1.1875 0.3125q0.8125 0 1.25 -0.328125q0.453125 -0.3125 0.609375 -0.90625q0.09375 -0.359375 0.078125 -1.5q-0.765625 0.90625 -1.90625 0.90625q-1.4375 0 -2.21875 -1.03125q-0.78125 -1.03125 -0.78125 -2.46875q0 -0.984375 0.359375 -1.8125q0.359375 -0.84375 1.03125 -1.296875q0.6875 -0.453125 1.609375 -0.453125q1.21875 0 2.015625 0.984375l0 -0.828125l1.078125 0l0 5.96875q0 1.609375 -0.328125 2.28125q-0.328125 0.6875 -1.046875 1.078125q-0.703125 0.390625 -1.75 0.390625q-1.234375 0 -2.0 -0.5625q-0.75 -0.5625 -0.734375 -1.671875zm0.984375 -4.15625q0 1.359375 0.53125 1.984375q0.546875 0.625 1.359375 0.625q0.796875 0 1.34375 -0.625q0.546875 -0.625 0.546875 -1.953125q0 -1.265625 -0.5625 -1.90625q-0.5625 -0.640625 -1.359375 -0.640625q-0.765625 0 -1.3125 0.640625q-0.546875 0.625 -0.546875 1.875z" fill-rule="nonzero"/><path fill="#0000ff" d="m103.143524 198.842l0 -9.546875l1.25 0l0 9.546875l-1.25 0zm3.3279877 0l0 -6.90625l1.0625 0l0 0.984375q0.75 -1.140625 2.1875 -1.140625q0.625 0 1.15625 0.21875q0.53125 0.21875 0.78125 0.59375q0.265625 0.359375 0.375 0.859375q0.0625 0.328125 0.0625 1.140625l0 4.25l-1.171875 0l0 -4.203125q0 -0.71875 -0.140625 -1.0625q-0.140625 -0.359375 -0.484375 -0.5625q-0.34375 -0.21875 -0.8125 -0.21875q-0.75 0 -1.296875 0.46875q-0.546875 0.46875 -0.546875 1.796875l0 3.78125l-1.171875 0zm7.4124756 2.65625l0 -9.5625l1.078125 0l0 0.890625q0.375 -0.53125 0.84375 -0.78125q0.484375 -0.265625 1.15625 -0.265625q0.875 0 1.546875 0.453125q0.6875 0.453125 1.03125 1.28125q0.34375 0.828125 0.34375 1.828125q0 1.046875 -0.375 1.90625q-0.375 0.84375 -1.109375 1.296875q-0.71875 0.453125 -1.53125 0.453125q-0.578125 0 -1.046875 -0.25q-0.46875 -0.25 -0.765625 -0.625l0 3.375l-1.171875 0zm1.0625 -6.078125q0 1.34375 0.53125 1.984375q0.546875 0.625 1.3125 0.625q0.78125 0 1.34375 -0.65625q0.5625 -0.65625 0.5625 -2.046875q0 -1.3125 -0.546875 -1.96875q-0.546875 -0.671875 -1.296875 -0.671875q-0.75 0 -1.328125 0.703125q-0.578125 0.703125 -0.578125 2.03125zm10.881226 3.421875l0 -1.015625q-0.8125 1.171875 -2.1875 1.171875q-0.609375 0 -1.140625 -0.234375q-0.53125 -0.234375 -0.796875 -0.578125q-0.25 -0.359375 -0.359375 -0.875q-0.0625 -0.34375 -0.0625 -1.09375l0 -4.28125l1.171875 0l0 3.828125q0 0.921875 0.0625 1.234375q0.109375 0.46875 0.46875 0.734375q0.359375 0.25 0.890625 0.25q0.515625 0 0.984375 -0.265625q0.46875 -0.265625 0.65625 -0.734375q0.1875 -0.46875 0.1875 -1.34375l0 -3.703125l1.171875 0l0 6.90625l-1.046875 0zm5.4437256 -1.046875l0.171875 1.03125q-0.5 0.109375 -0.890625 0.109375q-0.640625 0 -1.0 -0.203125q-0.34375 -0.203125 -0.484375 -0.53125q-0.140625 -0.328125 -0.140625 -1.390625l0 -3.96875l-0.859375 0l0 -0.90625l0.859375 0l0 -1.71875l1.171875 -0.703125l0 2.421875l1.171875 0l0 0.90625l-1.171875 0l0 4.046875q0 0.5 0.046875 0.640625q0.0625 0.140625 0.203125 0.234375q0.140625 0.078125 0.40625 0.078125q0.203125 0 0.515625 -0.046875z" fill-rule="nonzero"/><path fill="#ffd966" d="m144.50262 252.26772l29.826767 0l0 24.18898l-29.826767 0z" fill-rule="evenodd"/><path stroke="#000000" stroke-width="1.0" stroke-linejoin="round" stroke-linecap="butt" d="m144.50262 252.26772l29.826767 0l0 24.18898l-29.826767 0z" fill-rule="evenodd"/><path fill="#000000" d="m156.00488 268.8822l0 -8.59375l1.15625 0l4.515625 6.75l0 -6.75l1.09375 0l0 8.59375l-1.171875 0l-4.515625 -6.75l0 6.75l-1.078125 0z" fill-rule="nonzero"/><path fill="#000000" fill-opacity="0.0" d="m93.12467 244.00787l47.1811 0l0 42.015747l-47.1811 0z" fill-rule="evenodd"/><path fill="#0000ff" d="m105.65592 257.5685l2.625 0l-0.5 2.375l-2.609375 0l0.484375 -2.375zm-0.765625 3.6875l2.625 0l-2.03125 9.671875l-2.609375 0l2.015625 -9.671875z" fill-rule="nonzero"/><path fill="#0000ff" d="m108.1986 280.4435l0 -11.421875l3.015625 0l0 1.34375l-1.390625 0l0 8.734375l1.390625 0l0 1.34375l-3.015625 0zm6.6574097 -11.453125q1.296875 0 2.03125 0.921875q0.859375 1.09375 0.859375 3.625q0 2.53125 -0.875 3.625q-0.71875 0.921875 -2.015625 0.921875q-1.296875 0 -2.09375 -1.0q-0.796875 -1.0 -0.796875 -3.5625q0 -2.515625 0.875 -3.625q0.734375 -0.90625 2.015625 -0.90625zm0 1.40625q-0.296875 0 -0.546875 0.203125q-0.234375 0.203125 -0.375 0.703125q-0.171875 0.671875 -0.171875 2.234375q0 1.5625 0.15625 2.15625q0.15625 0.578125 0.390625 0.78125q0.25 0.1875 0.546875 0.1875q0.3125 0 0.546875 -0.1875q0.25 -0.203125 0.390625 -0.71875q0.171875 -0.65625 0.171875 -2.21875q0 -1.5625 -0.15625 -2.140625q-0.15625 -0.59375 -0.40625 -0.796875q-0.234375 -0.203125 -0.546875 -0.203125zm6.760895 -1.375l0 11.421875l-3.015625 0l0 -1.34375l1.40625 0l0 -8.75l-1.40625 0l0 -1.328125l3.015625 0z" fill-rule="nonzero"/><path fill="#000000" fill-opacity="0.0" d="m179.89108 169.30971l82.897644 0l0 36.25197l-82.897644 0z" fill-rule="evenodd"/><path fill="#0000ff" d="m207.76819 191.10971l0 -9.546875l1.25 0l0 9.546875l-1.25 0zm3.3279877 0l0 -6.90625l1.0625 0l0 0.984375q0.75 -1.140625 2.1875 -1.140625q0.625 0 1.15625 0.21875q0.53125 0.21875 0.78125 0.59375q0.265625 0.359375 0.375 0.859375q0.0625 0.328125 0.0625 1.140625l0 4.25l-1.171875 0l0 -4.203125q0 -0.71875 -0.140625 -1.0625q-0.140625 -0.359375 -0.484375 -0.5625q-0.34375 -0.21875 -0.8125 -0.21875q-0.75 0 -1.296875 0.46875q-0.546875 0.46875 -0.546875 1.796875l0 3.78125l-1.171875 0zm7.4124756 2.65625l0 -9.5625l1.078125 0l0 0.890625q0.375 -0.53125 0.84375 -0.78125q0.484375 -0.265625 1.15625 -0.265625q0.875 0 1.546875 0.453125q0.6875 0.453125 1.03125 1.28125q0.34375 0.828125 0.34375 1.828125q0 1.046875 -0.375 1.90625q-0.375 0.84375 -1.109375 1.296875q-0.71875 0.453125 -1.53125 0.453125q-0.578125 0 -1.046875 -0.25q-0.46875 -0.25 -0.765625 -0.625l0 3.375l-1.171875 0zm1.0625 -6.078125q0 1.34375 0.53125 1.984375q0.546875 0.625 1.3125 0.625q0.78125 0 1.34375 -0.65625q0.5625 -0.65625 0.5625 -2.046875q0 -1.3125 -0.546875 -1.96875q-0.546875 -0.671875 -1.296875 -0.671875q-0.75 0 -1.328125 0.703125q-0.578125 0.703125 -0.578125 2.03125zm10.881226 3.421875l0 -1.015625q-0.8125 1.171875 -2.1875 1.171875q-0.609375 0 -1.140625 -0.234375q-0.53125 -0.234375 -0.796875 -0.578125q-0.25 -0.359375 -0.359375 -0.875q-0.0625 -0.34375 -0.0625 -1.09375l0 -4.28125l1.171875 0l0 3.828125q0 0.921875 0.0625 1.234375q0.109375 0.46875 0.46875 0.734375q0.359375 0.25 0.890625 0.25q0.515625 0 0.984375 -0.265625q0.46875 -0.265625 0.65625 -0.734375q0.1875 -0.46875 0.1875 -1.34375l0 -3.703125l1.171875 0l0 6.90625l-1.046875 0zm5.4437256 -1.046875l0.171875 1.03125q-0.5 0.109375 -0.890625 0.109375q-0.640625 0 -1.0 -0.203125q-0.34375 -0.203125 -0.484375 -0.53125q-0.140625 -0.328125 -0.140625 -1.390625l0 -3.96875l-0.859375 0l0 -0.90625l0.859375 0l0 -1.71875l1.171875 -0.703125l0 2.421875l1.171875 0l0 0.90625l-1.171875 0l0 4.046875q0 0.5 0.046875 0.640625q0.0625 0.140625 0.203125 0.234375q0.140625 0.078125 0.40625 0.078125q0.203125 0 0.515625 -0.046875z" fill-rule="nonzero"/><path fill="#000000" fill-opacity="0.0" d="m200.12466 244.00787l47.181107 0l0 42.015747l-47.181107 0z" fill-rule="evenodd"/><path fill="#0000ff" d="m214.32779 268.20914l-2.40625 2.71875l-3.203125 0l4.46875 -4.953125l-2.453125 -4.71875l2.765625 0l1.421875 2.75l2.453125 -2.75l3.171875 0l-4.484375 5.015625l2.4375 4.65625l-2.78125 0l-1.390625 -2.71875z" fill-rule="nonzero"/><path fill="#0000ff" d="m220.391 280.4435l0 -11.421875l3.015625 0l0 1.34375l-1.390625 0l0 8.734375l1.390625 0l0 1.34375l-3.015625 0zm6.6574097 -11.453125q1.296875 0 2.03125 0.921875q0.859375 1.09375 0.859375 3.625q0 2.53125 -0.875 3.625q-0.71875 0.921875 -2.015625 0.921875q-1.296875 0 -2.09375 -1.0q-0.796875 -1.0 -0.796875 -3.5625q0 -2.515625 0.875 -3.625q0.734375 -0.90625 2.015625 -0.90625zm0 1.40625q-0.296875 0 -0.546875 0.203125q-0.234375 0.203125 -0.375 0.703125q-0.171875 0.671875 -0.171875 2.234375q0 1.5625 0.15625 2.15625q0.15625 0.578125 0.390625 0.78125q0.25 0.1875 0.546875 0.1875q0.3125 0 0.546875 -0.1875q0.25 -0.203125 0.390625 -0.71875q0.171875 -0.65625 0.171875 -2.21875q0 -1.5625 -0.15625 -2.140625q-0.15625 -0.59375 -0.40625 -0.796875q-0.234375 -0.203125 -0.546875 -0.203125zm6.760895 -1.375l0 11.421875l-3.015625 0l0 -1.34375l1.40625 0l0 -8.75l-1.40625 0l0 -1.328125l3.015625 0z" fill-rule="nonzero"/><path fill="#000000" fill-opacity="0.0" d="m262.79395 265.2518l-25.322845 0" fill-rule="evenodd"/><path stroke="#000000" stroke-width="1.0" stroke-linejoin="round" stroke-linecap="butt" d="m256.79395 265.2518l-19.32283 0" fill-rule="evenodd"/><path fill="#000000" stroke="#000000" stroke-width="1.0" stroke-linecap="butt" d="m256.79395 266.90353l4.538086 -1.6517334l-4.538086 -1.6517334z" fill-rule="evenodd"/><path fill="#000000" fill-opacity="0.0" d="m200.12466 413.29398l-72.15747 0" fill-rule="evenodd"/><path stroke="#000000" stroke-width="1.0" stroke-linejoin="round" stroke-linecap="butt" d="m194.12466 413.29398l-66.15747 0" fill-rule="evenodd"/><path fill="#000000" stroke="#000000" stroke-width="1.0" stroke-linecap="butt" d="m194.12468 414.9457l4.538086 -1.6517334l-4.538086 -1.6517334z" fill-rule="evenodd"/><path fill="#ffd966" d="m144.50262 400.54593l29.826767 0l0 24.188965l-29.826767 0z" fill-rule="evenodd"/><path stroke="#000000" stroke-width="1.0" stroke-linejoin="round" stroke-linecap="butt" d="m144.50262 400.54593l29.826767 0l0 24.188965l-29.826767 0z" fill-rule="evenodd"/><path fill="#000000" d="m156.00488 417.16043l0 -8.59375l1.15625 0l4.515625 6.75l0 -6.75l1.09375 0l0 8.59375l-1.171875 0l-4.515625 -6.75l0 6.75l-1.078125 0z" fill-rule="nonzero"/><path fill="#000000" fill-opacity="0.0" d="m93.12467 392.2861l47.1811 0l0 42.015747l-47.1811 0z" fill-rule="evenodd"/><path fill="#0000ff" d="m105.65592 405.8467l2.625 0l-0.5 2.375l-2.609375 0l0.484375 -2.375zm-0.765625 3.6875l2.625 0l-2.03125 9.671875l-2.609375 0l2.015625 -9.671875z" fill-rule="nonzero"/><path fill="#0000ff" d="m108.1986 428.7217l0 -11.421875l3.015625 0l0 1.34375l-1.390625 0l0 8.734375l1.390625 0l0 1.34375l-3.015625 0zm8.141785 -2.515625l-1.703125 0l0 -6.4375q-0.9375 0.875 -2.203125 1.296875l0 -1.546875q0.671875 -0.21875 1.453125 -0.828125q0.78125 -0.609375 1.078125 -1.421875l1.375 0l0 8.9375zm5.27652 -8.90625l0 11.421875l-3.015625 0l0 -1.34375l1.40625 0l0 -8.75l-1.40625 0l0 -1.328125l3.015625 0z" fill-rule="nonzero"/><path fill="#000000" fill-opacity="0.0" d="m200.12466 392.2861l47.181107 0l0 42.015747l-47.181107 0z" fill-rule="evenodd"/><path fill="#0000ff" d="m214.32779 416.48734l-2.40625 2.71875l-3.203125 0l4.46875 -4.953125l-2.453125 -4.71875l2.765625 0l1.421875 2.75l2.453125 -2.75l3.171875 0l-4.484375 5.015625l2.4375 4.65625l-2.78125 0l-1.390625 -2.71875z" fill-rule="nonzero"/><path fill="#0000ff" d="m220.391 428.7217l0 -11.421875l3.015625 0l0 1.34375l-1.390625 0l0 8.734375l1.390625 0l0 1.34375l-3.015625 0zm8.141785 -2.515625l-1.703125 0l0 -6.4375q-0.9375 0.875 -2.203125 1.296875l0 -1.546875q0.671875 -0.21875 1.453125 -0.828125q0.78125 -0.609375 1.078125 -1.421875l1.375 0l0 8.9375zm5.27652 -8.90625l0 11.421875l-3.015625 0l0 -1.34375l1.40625 0l0 -8.75l-1.40625 0l0 -1.328125l3.015625 0z" fill-rule="nonzero"/><path fill="#000000" fill-opacity="0.0" d="m262.79395 413.53l-25.322845 0" fill-rule="evenodd"/><path stroke="#000000" stroke-width="1.0" stroke-linejoin="round" stroke-linecap="butt" d="m256.79395 413.53003l-19.32283 0" fill-rule="evenodd"/><path fill="#000000" stroke="#000000" stroke-width="1.0" stroke-linecap="butt" d="m256.79395 415.18176l4.538086 -1.6517334l-4.538086 -1.6517334z" fill-rule="evenodd"/><path fill="#000000" fill-opacity="0.0" d="m94.784775 215.55643l51.968506 0l0 28.440948l-51.968506 0z" fill-rule="evenodd"/><path fill="#000000" d="m104.6754 224.88753l0 -1.578125l8.640625 0l0 1.28125q-1.28125 1.359375 -2.53125 3.609375q-1.25 2.25 -1.9375 4.625q-0.484375 1.671875 -0.625 3.671875l-1.6875 0q0.03125 -1.578125 0.625 -3.8125q0.59375 -2.234375 1.6875 -4.296875q1.109375 -2.078125 2.359375 -3.5l-6.53125 0zm10.266342 5.015625q0 -2.359375 0.484375 -3.796875q0.484375 -1.453125 1.4375 -2.234375q0.96875 -0.78125 2.421875 -0.78125q1.078125 0 1.890625 0.4375q0.8125 0.421875 1.328125 1.25q0.53125 0.8125 0.828125 1.984375q0.3125 1.15625 0.3125 3.140625q0 2.359375 -0.484375 3.8125q-0.484375 1.4375 -1.453125 2.234375q-0.953125 0.78125 -2.421875 0.78125q-1.921875 0 -3.03125 -1.390625q-1.3125 -1.671875 -1.3125 -5.4375zm1.671875 0q0 3.296875 0.765625 4.390625q0.78125 1.078125 1.90625 1.078125q1.140625 0 1.90625 -1.09375q0.765625 -1.09375 0.765625 -4.375q0 -3.296875 -0.765625 -4.375q-0.765625 -1.078125 -1.921875 -1.078125q-1.125 0 -1.796875 0.953125q-0.859375 1.21875 -0.859375 4.5z" fill-rule="nonzero"/><path fill="#000000" fill-opacity="0.0" d="m190.63518 215.55643l72.157486 0l0 28.440948l-72.157486 0z" fill-rule="evenodd"/><path fill="#000000" d="m206.5883 236.4969l-1.640625 0l0 -10.453125q-0.59375 0.5625 -1.5625 1.140625q-0.953125 0.5625 -1.71875 0.84375l0 -1.59375q1.375 -0.640625 2.40625 -1.5625q1.03125 -0.921875 1.453125 -1.78125l1.0625 0l0 13.40625zm5.110092 0l0 -1.875l1.875 0l0 1.875l-1.875 0zm4.277054 -6.59375q0 -2.359375 0.484375 -3.796875q0.484375 -1.453125 1.4375 -2.234375q0.96875 -0.78125 2.421875 -0.78125q1.078125 0 1.890625 0.4375q0.8125 0.421875 1.328125 1.25q0.53125 0.8125 0.828125 1.984375q0.3125 1.15625 0.3125 3.140625q0 2.359375 -0.484375 3.8125q-0.484375 1.4375 -1.453125 2.234375q-0.953125 0.78125 -2.421875 0.78125q-1.921875 0 -3.03125 -1.390625q-1.3125 -1.671875 -1.3125 -5.4375zm1.671875 0q0 3.296875 0.765625 4.390625q0.78125 1.078125 1.90625 1.078125q1.140625 0 1.90625 -1.09375q0.765625 -1.09375 0.765625 -4.375q0 -3.296875 -0.765625 -4.375q-0.765625 -1.078125 -1.921875 -1.078125q-1.125 0 -1.796875 0.953125q-0.859375 1.21875 -0.859375 4.5zm8.703842 0q0 -2.359375 0.484375 -3.796875q0.484375 -1.453125 1.4375 -2.234375q0.96875 -0.78125 2.421875 -0.78125q1.078125 0 1.890625 0.4375q0.8125 0.421875 1.328125 1.25q0.53125 0.8125 0.828125 1.984375q0.3125 1.15625 0.3125 3.140625q0 2.359375 -0.484375 3.8125q-0.484375 1.4375 -1.453125 2.234375q-0.953125 0.78125 -2.421875 0.78125q-1.921875 0 -3.03125 -1.390625q-1.3125 -1.671875 -1.3125 -5.4375zm1.671875 0q0 3.296875 0.765625 4.390625q0.78125 1.078125 1.90625 1.078125q1.140625 0 1.90625 -1.09375q0.765625 -1.09375 0.765625 -4.375q0 -3.296875 -0.765625 -4.375q-0.765625 -1.078125 -1.921875 -1.078125q-1.125 0 -1.796875 0.953125q-0.859375 1.21875 -0.859375 4.5zm8.703842 0q0 -2.359375 0.484375 -3.796875q0.484375 -1.453125 1.4375 -2.234375q0.96875 -0.78125 2.421875 -0.78125q1.078125 0 1.890625 0.4375q0.8125 0.421875 1.328125 1.25q0.53125 0.8125 0.828125 1.984375q0.3125 1.15625 0.3125 3.140625q0 2.359375 -0.484375 3.8125q-0.484375 1.4375 -1.453125 2.234375q-0.953125 0.78125 -2.421875 0.78125q-1.921875 0 -3.03125 -1.390625q-1.3125 -1.671875 -1.3125 -5.4375zm1.671875 0q0 3.296875 0.765625 4.390625q0.78125 1.078125 1.90625 1.078125q1.140625 0 1.90625 -1.09375q0.765625 -1.09375 0.765625 -4.375q0 -3.296875 -0.765625 -4.375q-0.765625 -1.078125 -1.921875 -1.078125q-1.125 0 -1.796875 0.953125q-0.859375 1.21875 -0.859375 4.5z" fill-rule="nonzero"/><path fill="#000000" fill-opacity="0.0" d="m94.784775 367.55643l51.968506 0l0 28.440948l-51.968506 0z" fill-rule="evenodd"/><path fill="#000000" d="m104.8004 385.40314l1.578125 -0.140625q0.203125 1.109375 0.765625 1.609375q0.5625 0.5 1.453125 0.5q0.75 0 1.3125 -0.34375q0.578125 -0.34375 0.9375 -0.921875q0.375 -0.578125 0.609375 -1.5625q0.25 -0.984375 0.25 -2.0q0 -0.109375 0 -0.328125q-0.5 0.78125 -1.359375 1.265625q-0.84375 0.484375 -1.828125 0.484375q-1.671875 0 -2.8125 -1.203125q-1.140625 -1.203125 -1.140625 -3.171875q0 -2.03125 1.1875 -3.265625q1.203125 -1.234375 3.0 -1.234375q1.3125 0 2.390625 0.703125q1.078125 0.703125 1.640625 2.0q0.5625 1.296875 0.5625 3.75q0 2.5625 -0.5625 4.078125q-0.5625 1.515625 -1.65625 2.3125q-1.09375 0.796875 -2.578125 0.796875q-1.5625 0 -2.5625 -0.875q-0.984375 -0.875 -1.1875 -2.453125zm6.71875 -5.890625q0 -1.40625 -0.75 -2.234375q-0.75 -0.828125 -1.8125 -0.828125q-1.09375 0 -1.90625 0.890625q-0.8125 0.890625 -0.8125 2.3125q0 1.28125 0.765625 2.078125q0.78125 0.796875 1.90625 0.796875q1.140625 0 1.875 -0.796875q0.734375 -0.796875 0.734375 -2.21875zm5.938217 1.75q-1.015625 -0.375 -1.515625 -1.0625q-0.484375 -0.703125 -0.484375 -1.671875q0 -1.453125 1.046875 -2.4375q1.046875 -1.0 2.78125 -1.0q1.75 0 2.8125 1.015625q1.078125 1.015625 1.078125 2.46875q0 0.9375 -0.5 1.625q-0.484375 0.6875 -1.46875 1.0625q1.21875 0.390625 1.859375 1.28125q0.65625 0.890625 0.65625 2.140625q0 1.703125 -1.21875 2.875q-1.21875 1.171875 -3.1875 1.171875q-1.984375 0 -3.203125 -1.171875q-1.203125 -1.171875 -1.203125 -2.921875q0 -1.3125 0.65625 -2.1875q0.671875 -0.875 1.890625 -1.1875zm-0.328125 -2.78125q0 0.9375 0.609375 1.546875q0.609375 0.59375 1.59375 0.59375q0.9375 0 1.546875 -0.59375q0.609375 -0.59375 0.609375 -1.453125q0 -0.90625 -0.625 -1.515625q-0.625 -0.625 -1.5625 -0.625q-0.9375 0 -1.5625 0.609375q-0.609375 0.59375 -0.609375 1.4375zm-0.53125 6.15625q0 0.703125 0.328125 1.359375q0.34375 0.65625 1.0 1.015625q0.65625 0.359375 1.40625 0.359375q1.171875 0 1.9375 -0.75q0.765625 -0.75 0.765625 -1.921875q0 -1.1875 -0.796875 -1.953125q-0.78125 -0.78125 -1.953125 -0.78125q-1.15625 0 -1.921875 0.765625q-0.765625 0.765625 -0.765625 1.90625z" fill-rule="nonzero"/><path fill="#000000" fill-opacity="0.0" d="m190.63518 367.55643l72.157486 0l0 28.440948l-72.157486 0z" fill-rule="evenodd"/><path fill="#000000" d="m206.5883 388.4969l-1.640625 0l0 -10.453125q-0.59375 0.5625 -1.5625 1.140625q-0.953125 0.5625 -1.71875 0.84375l0 -1.59375q1.375 -0.640625 2.40625 -1.5625q1.03125 -0.921875 1.453125 -1.78125l1.0625 0l0 13.40625zm5.110092 0l0 -1.875l1.875 0l0 1.875l-1.875 0zm4.277054 -6.59375q0 -2.359375 0.484375 -3.796875q0.484375 -1.453125 1.4375 -2.234375q0.96875 -0.78125 2.421875 -0.78125q1.078125 0 1.890625 0.4375q0.8125 0.421875 1.328125 1.25q0.53125 0.8125 0.828125 1.984375q0.3125 1.15625 0.3125 3.140625q0 2.359375 -0.484375 3.8125q-0.484375 1.4375 -1.453125 2.234375q-0.953125 0.78125 -2.421875 0.78125q-1.921875 0 -3.03125 -1.390625q-1.3125 -1.671875 -1.3125 -5.4375zm1.671875 0q0 3.296875 0.765625 4.390625q0.78125 1.078125 1.90625 1.078125q1.140625 0 1.90625 -1.09375q0.765625 -1.09375 0.765625 -4.375q0 -3.296875 -0.765625 -4.375q-0.765625 -1.078125 -1.921875 -1.078125q-1.125 0 -1.796875 0.953125q-0.859375 1.21875 -0.859375 4.5zm8.703842 0q0 -2.359375 0.484375 -3.796875q0.484375 -1.453125 1.4375 -2.234375q0.96875 -0.78125 2.421875 -0.78125q1.078125 0 1.890625 0.4375q0.8125 0.421875 1.328125 1.25q0.53125 0.8125 0.828125 1.984375q0.3125 1.15625 0.3125 3.140625q0 2.359375 -0.484375 3.8125q-0.484375 1.4375 -1.453125 2.234375q-0.953125 0.78125 -2.421875 0.78125q-1.921875 0 -3.03125 -1.390625q-1.3125 -1.671875 -1.3125 -5.4375zm1.671875 0q0 3.296875 0.765625 4.390625q0.78125 1.078125 1.90625 1.078125q1.140625 0 1.90625 -1.09375q0.765625 -1.09375 0.765625 -4.375q0 -3.296875 -0.765625 -4.375q-0.765625 -1.078125 -1.921875 -1.078125q-1.125 0 -1.796875 0.953125q-0.859375 1.21875 -0.859375 4.5zm8.703842 0q0 -2.359375 0.484375 -3.796875q0.484375 -1.453125 1.4375 -2.234375q0.96875 -0.78125 2.421875 -0.78125q1.078125 0 1.890625 0.4375q0.8125 0.421875 1.328125 1.25q0.53125 0.8125 0.828125 1.984375q0.3125 1.15625 0.3125 3.140625q0 2.359375 -0.484375 3.8125q-0.484375 1.4375 -1.453125 2.234375q-0.953125 0.78125 -2.421875 0.78125q-1.921875 0 -3.03125 -1.390625q-1.3125 -1.671875 -1.3125 -5.4375zm1.671875 0q0 3.296875 0.765625 4.390625q0.78125 1.078125 1.90625 1.078125q1.140625 0 1.90625 -1.09375q0.765625 -1.09375 0.765625 -4.375q0 -3.296875 -0.765625 -4.375q-0.765625 -1.078125 -1.921875 -1.078125q-1.125 0 -1.796875 0.953125q-0.859375 1.21875 -0.859375 4.5z" fill-rule="nonzero"/><path fill="#000000" fill-opacity="0.0" d="m52.973755 9.645669l243.02362 0l0 38.771656l-243.02362 0z" fill-rule="evenodd"/><path fill="#000000" d="m120.24338 34.00567l0 -10.109373l-3.78125 0l0 -1.34375l9.078125 0l0 1.34375l-3.78125 0l0 10.109373l-1.515625 0zm6.0703125 0l0 -8.296873l1.265625 0l0 1.25q0.484375 -0.875 0.890625 -1.15625q0.40625 -0.28125 0.90625 -0.28125q0.703125 0 1.4375 0.453125l-0.484375 1.296875q-0.515625 -0.296875 -1.03125 -0.296875q-0.453125 0 -0.828125 0.28125q-0.359375 0.265625 -0.515625 0.765625q-0.234375 0.75 -0.234375 1.640625l0 4.343748l-1.40625 0zm10.75 -1.03125q-0.78125 0.671875 -1.5 0.953125q-0.71875 0.265625 -1.546875 0.265625q-1.375 0 -2.109375 -0.671875q-0.734375 -0.671875 -0.734375 -1.7031231q0 -0.609375 0.28125 -1.109375q0.28125 -0.515625 0.71875 -0.8125q0.453125 -0.3125 1.015625 -0.46875q0.421875 -0.109375 1.25 -0.203125q1.703125 -0.203125 2.515625 -0.484375q0 -0.296875 0 -0.375q0 -0.859375 -0.390625 -1.203125q-0.546875 -0.484375 -1.609375 -0.484375q-0.984375 0 -1.46875 0.359375q-0.46875 0.34375 -0.6875 1.21875l-1.375 -0.1875q0.1875 -0.875 0.609375 -1.421875q0.4375 -0.546875 1.25 -0.828125q0.8125 -0.296875 1.875 -0.296875q1.0625 0 1.71875 0.25q0.671875 0.25 0.984375 0.625q0.3125 0.375 0.4375 0.953125q0.078125 0.359375 0.078125 1.296875l0 1.875q0 1.9687481 0.078125 2.484373q0.09375 0.515625 0.359375 1.0l-1.46875 0q-0.21875 -0.4375 -0.28125 -1.03125zm-0.109375 -3.140623q-0.765625 0.3125 -2.296875 0.53125q-0.875 0.125 -1.234375 0.28125q-0.359375 0.15625 -0.5625 0.46875q-0.1875 0.296875 -0.1875 0.65625q0 0.5624981 0.421875 0.9374981q0.4375 0.375 1.25 0.375q0.8125 0 1.4375 -0.34375q0.640625 -0.359375 0.9375 -0.9843731q0.234375 -0.46875 0.234375 -1.40625l0 -0.515625zm3.6015625 -5.671875l0 -1.609375l1.40625 0l0 1.609375l-1.40625 0zm0 9.843748l0 -8.296873l1.40625 0l0 8.296873l-1.40625 0zm3.5546875 0l0 -8.296873l1.265625 0l0 1.171875q0.90625 -1.359375 2.640625 -1.359375q0.75 0 1.375 0.265625q0.625 0.265625 0.9375 0.703125q0.3125 0.4375 0.4375 1.046875q0.078125 0.390625 0.078125 1.359375l0 5.109373l-1.40625 0l0 -5.046873q0 -0.859375 -0.171875 -1.28125q-0.15625 -0.4375 -0.578125 -0.6875q-0.40625 -0.25 -0.96875 -0.25q-0.90625 0 -1.5625 0.578125q-0.640625 0.5625 -0.640625 2.15625l0 4.531248l-1.40625 0zm8.8984375 -9.843748l0 -1.609375l1.40625 0l0 1.609375l-1.40625 0zm0 9.843748l0 -8.296873l1.40625 0l0 8.296873l-1.40625 0zm3.5546875 0l0 -8.296873l1.265625 0l0 1.171875q0.90625 -1.359375 2.640625 -1.359375q0.75 0 1.375 0.265625q0.625 0.265625 0.9375 0.703125q0.3125 0.4375 0.4375 1.046875q0.078125 0.390625 0.078125 1.359375l0 5.109373l-1.40625 0l0 -5.046873q0 -0.859375 -0.171875 -1.28125q-0.15625 -0.4375 -0.578125 -0.6875q-0.40625 -0.25 -0.96875 -0.25q-0.90625 0 -1.5625 0.578125q-0.640625 0.5625 -0.640625 2.15625l0 4.531248l-1.40625 0zm8.6328125 0.6875l1.375 0.203125q0.078125 0.640625 0.46875 0.921875q0.53125 0.390625 1.4375 0.390625q0.96875 0 1.5 -0.390625q0.53125 -0.390625 0.71875 -1.09375q0.109375 -0.421875 0.109375 -1.8125q-0.921875 1.09375 -2.296875 1.09375q-1.71875 0 -2.65625 -1.234375q-0.9375 -1.2343731 -0.9375 -2.968748q0 -1.1875 0.421875 -2.1875q0.4375 -1.0 1.25 -1.546875q0.828125 -0.546875 1.921875 -0.546875q1.46875 0 2.421875 1.1875l0 -1.0l1.296875 0l0 7.171873q0 1.9375 -0.390625 2.75q-0.390625 0.8125 -1.25 1.28125q-0.859375 0.46875 -2.109375 0.46875q-1.484375 0 -2.40625 -0.671875q-0.90625 -0.671875 -0.875 -2.015625zm1.171875 -4.984373q0 1.625 0.640625 2.374998q0.65625 0.75 1.625 0.75q0.96875 0 1.625 -0.734375q0.65625 -0.7499981 0.65625 -2.343748q0 -1.53125 -0.671875 -2.296875q-0.671875 -0.78125 -1.625 -0.78125q-0.9375 0 -1.59375 0.765625q-0.65625 0.765625 -0.65625 2.265625zm12.609375 4.296873l0 -11.453123l3.953125 0q1.328125 0 2.03125 0.15625q0.984375 0.234375 1.6875 0.828125q0.90625 0.765625 1.34375 1.953125q0.453125 1.1875 0.453125 2.71875q0 1.3125 -0.3125 2.328125q-0.296875 1.0 -0.78125 1.6562481q-0.46875 0.65625 -1.03125 1.046875q-0.5625 0.375 -1.375 0.578125q-0.796875 0.1875 -1.828125 0.1875l-4.140625 0zm1.515625 -1.359375l2.453125 0q1.125 0 1.765625 -0.203125q0.65625 -0.21875 1.03125 -0.5937481q0.546875 -0.546875 0.84375 -1.453125q0.296875 -0.90625 0.296875 -2.203125q0 -1.796875 -0.59375 -2.765625q-0.578125 -0.96875 -1.421875 -1.296875q-0.609375 -0.234375 -1.96875 -0.234375l-2.40625 0l0 8.749998zm15.2734375 0.328125q-0.78125 0.671875 -1.5 0.953125q-0.71875 0.265625 -1.546875 0.265625q-1.375 0 -2.109375 -0.671875q-0.734375 -0.671875 -0.734375 -1.7031231q0 -0.609375 0.28125 -1.109375q0.28125 -0.515625 0.71875 -0.8125q0.453125 -0.3125 1.015625 -0.46875q0.421875 -0.109375 1.25 -0.203125q1.703125 -0.203125 2.515625 -0.484375q0 -0.296875 0 -0.375q0 -0.859375 -0.390625 -1.203125q-0.546875 -0.484375 -1.609375 -0.484375q-0.984375 0 -1.46875 0.359375q-0.46875 0.34375 -0.6875 1.21875l-1.375 -0.1875q0.1875 -0.875 0.609375 -1.421875q0.4375 -0.546875 1.25 -0.828125q0.8125 -0.296875 1.875 -0.296875q1.0625 0 1.71875 0.25q0.671875 0.25 0.984375 0.625q0.3125 0.375 0.4375 0.953125q0.078125 0.359375 0.078125 1.296875l0 1.875q0 1.9687481 0.078125 2.484373q0.09375 0.515625 0.359375 1.0l-1.46875 0q-0.21875 -0.4375 -0.28125 -1.03125zm-0.109375 -3.140623q-0.765625 0.3125 -2.296875 0.53125q-0.875 0.125 -1.234375 0.28125q-0.359375 0.15625 -0.5625 0.46875q-0.1875 0.296875 -0.1875 0.65625q0 0.5624981 0.421875 0.9374981q0.4375 0.375 1.25 0.375q0.8125 0 1.4375 -0.34375q0.640625 -0.359375 0.9375 -0.9843731q0.234375 -0.46875 0.234375 -1.40625l0 -0.515625zm6.6640625 2.906248l0.203125 1.25q-0.59375 0.125 -1.0625 0.125q-0.765625 0 -1.1875 -0.234375q-0.421875 -0.25 -0.59375 -0.640625q-0.171875 -0.40625 -0.171875 -1.6718731l0 -4.765625l-1.03125 0l0 -1.09375l1.03125 0l0 -2.0625l1.40625 -0.84375l0 2.90625l1.40625 0l0 1.09375l-1.40625 0l0 4.84375q0 0.6093731 0.0625 0.7812481q0.078125 0.171875 0.25 0.28125q0.171875 0.09375 0.484375 0.09375q0.234375 0 0.609375 -0.0625zm6.7890625 0.234375q-0.78125 0.671875 -1.5 0.953125q-0.71875 0.265625 -1.546875 0.265625q-1.375 0 -2.109375 -0.671875q-0.734375 -0.671875 -0.734375 -1.7031231q0 -0.609375 0.28125 -1.109375q0.28125 -0.515625 0.71875 -0.8125q0.453125 -0.3125 1.015625 -0.46875q0.421875 -0.109375 1.25 -0.203125q1.703125 -0.203125 2.515625 -0.484375q0 -0.296875 0 -0.375q0 -0.859375 -0.390625 -1.203125q-0.546875 -0.484375 -1.609375 -0.484375q-0.984375 0 -1.46875 0.359375q-0.46875 0.34375 -0.6875 1.21875l-1.375 -0.1875q0.1875 -0.875 0.609375 -1.421875q0.4375 -0.546875 1.25 -0.828125q0.8125 -0.296875 1.875 -0.296875q1.0625 0 1.71875 0.25q0.671875 0.25 0.984375 0.625q0.3125 0.375 0.4375 0.953125q0.078125 0.359375 0.078125 1.296875l0 1.875q0 1.9687481 0.078125 2.484373q0.09375 0.515625 0.359375 1.0l-1.46875 0q-0.21875 -0.4375 -0.28125 -1.03125zm-0.109375 -3.140623q-0.765625 0.3125 -2.296875 0.53125q-0.875 0.125 -1.234375 0.28125q-0.359375 0.15625 -0.5625 0.46875q-0.1875 0.296875 -0.1875 0.65625q0 0.5624981 0.421875 0.9374981q0.4375 0.375 1.25 0.375q0.8125 0 1.4375 -0.34375q0.640625 -0.359375 0.9375 -0.9843731q0.234375 -0.46875 0.234375 -1.40625l0 -0.515625zm3.0390625 1.6875l1.390625 -0.21875q0.109375 0.8437481 0.640625 1.2968731q0.546875 0.4375 1.5 0.4375q0.96875 0 1.4375 -0.390625q0.46875 -0.40625 0.46875 -0.9374981q0 -0.46875 -0.40625 -0.75q-0.296875 -0.1875 -1.4375 -0.46875q-1.546875 -0.390625 -2.15625 -0.671875q-0.59375 -0.296875 -0.90625 -0.796875q-0.296875 -0.5 -0.296875 -1.109375q0 -0.5625 0.25 -1.03125q0.25 -0.46875 0.6875 -0.78125q0.328125 -0.25 0.890625 -0.40625q0.578125 -0.171875 1.21875 -0.171875q0.984375 0 1.71875 0.28125q0.734375 0.28125 1.078125 0.765625q0.359375 0.46875 0.5 1.28125l-1.375 0.1875q-0.09375 -0.640625 -0.546875 -1.0q-0.453125 -0.359375 -1.265625 -0.359375q-0.96875 0 -1.390625 0.328125q-0.40625 0.3125 -0.40625 0.734375q0 0.28125 0.171875 0.5q0.171875 0.21875 0.53125 0.375q0.21875 0.078125 1.25 0.359375q1.484375 0.390625 2.078125 0.65625q0.59375 0.25 0.921875 0.734375q0.34375 0.484375 0.34375 1.203125q0 0.7031231 -0.421875 1.3281231q-0.40625 0.609375 -1.1875 0.953125q-0.765625 0.34375 -1.734375 0.34375q-1.625 0 -2.46875 -0.671875q-0.84375 -0.671875 -1.078125 -1.9999981zm14.234375 -0.1875l1.453125 0.171875q-0.34375 1.2812481 -1.28125 1.9843731q-0.921875 0.703125 -2.359375 0.703125q-1.828125 0 -2.890625 -1.125q-1.0625 -1.1249981 -1.0625 -3.140623q0 -2.09375 1.078125 -3.25q1.078125 -1.15625 2.796875 -1.15625q1.65625 0 2.703125 1.140625q1.0625 1.125 1.0625 3.171875q0 0.125 0 0.375l-6.1875 0q0.078125 1.375 0.765625 2.109373q0.703125 0.71875 1.734375 0.71875q0.78125 0 1.328125 -0.40625q0.546875 -0.40625 0.859375 -1.2968731zm-4.609375 -2.28125l4.625 0q-0.09375 -1.046875 -0.53125 -1.5625q-0.671875 -0.8125 -1.734375 -0.8125q-0.96875 0 -1.640625 0.65625q-0.65625 0.640625 -0.71875 1.71875zm10.8984375 3.687498l0.203125 1.25q-0.59375 0.125 -1.0625 0.125q-0.765625 0 -1.1875 -0.234375q-0.421875 -0.25 -0.59375 -0.640625q-0.171875 -0.40625 -0.171875 -1.6718731l0 -4.765625l-1.03125 0l0 -1.09375l1.03125 0l0 -2.0625l1.40625 -0.84375l0 2.90625l1.40625 0l0 1.09375l-1.40625 0l0 4.84375q0 0.6093731 0.0625 0.7812481q0.078125 0.171875 0.25 0.28125q0.171875 0.09375 0.484375 0.09375q0.234375 0 0.609375 -0.0625z" fill-rule="nonzero"/><path fill="#000000" fill-opacity="0.0" d="m98.708664 78.31998l-28.923897 0l0 151.46457l24.986885 0" fill-rule="evenodd"/><path stroke="#000000" stroke-width="1.0" stroke-linejoin="round" stroke-linecap="butt" d="m98.708664 78.31998l-28.923904 0l0 151.46457l18.986893 0" fill-rule="evenodd"/><path fill="#000000" stroke="#000000" stroke-width="1.0" stroke-linecap="butt" d="m88.77165 231.43628l4.538101 -1.6517334l-4.538101 -1.6517334z" fill-rule="evenodd"/><path fill="#000000" fill-opacity="0.0" d="m98.708664 78.31998l-28.923897 0l0 303.46457l24.986885 0" fill-rule="evenodd"/><path stroke="#000000" stroke-width="1.0" stroke-linejoin="round" stroke-linecap="butt" d="m98.708664 78.31998l-28.923904 0l0 303.46457l18.986893 0" fill-rule="evenodd"/><path fill="#000000" stroke="#000000" stroke-width="1.0" stroke-linecap="butt" d="m88.77165 383.43625l4.538101 -1.6517029l-4.538101 -1.6517334z" fill-rule="evenodd"/></g></svg>