<svg version="1.1" viewBox="0.0 0.0 960.5721784776903 334.24146981627297" fill="none" stroke="none" stroke-linecap="square" stroke-miterlimit="10" xmlns:xlink="http://www.w3.org/1999/xlink" xmlns="http://www.w3.org/2000/svg"><clipPath id="p.0"><path d="m0 0l960.5722 0l0 334.24146l-960.5722 0l0 -334.24146z" clip-rule="nonzero"/></clipPath><g clip-path="url(#p.0)"><path fill="#ffffff" d="m0 0l960.5722 0l0 334.24146l-960.5722 0z" fill-rule="evenodd"/><path fill="#93c47d" d="m452.33337 226.94078l0 0c0 -20.586746 16.688843 -37.27559 37.275604 -37.27559l0 0c9.886078 0 19.36728 3.9272308 26.357819 10.917755c6.9905396 6.9905396 10.917786 16.471725 10.917786 26.357834l0 0c0 20.586731 -16.688873 37.27559 -37.275604 37.27559l0 0c-20.586761 0 -37.275604 -16.688858 -37.275604 -37.27559z" fill-rule="evenodd"/><path stroke="#000000" stroke-width="1.0" stroke-linejoin="round" stroke-linecap="butt" d="m452.33337 226.94078l0 0c0 -20.586746 16.688843 -37.27559 37.275604 -37.27559l0 0c9.886078 0 19.36728 3.9272308 26.357819 10.917755c6.9905396 6.9905396 10.917786 16.471725 10.917786 26.357834l0 0c0 20.586731 -16.688873 37.27559 -37.275604 37.27559l0 0c-20.586761 0 -37.275604 -16.688858 -37.275604 -37.27559z" fill-rule="evenodd"/><path fill="#000000" d="m473.96625 237.54828l0.3125 -1.40625q0.921875 0.203125 1.390625 0.203125q0.484375 0 0.75 -0.265625q0.265625 -0.25 0.40625 -1.125l1.625 -9.5l-1.84375 0l0.21875 -1.265625l1.84375 0l0.21875 -1.21875q0.1875 -1.09375 0.40625 -1.5q0.28125 -0.5625 0.796875 -0.875q0.53125 -0.328125 1.375 -0.328125q0.734375 0 1.96875 0.34375l-0.328125 1.40625q-0.9375 -0.21875 -1.40625 -0.21875q-0.5 0 -0.765625 0.25q-0.25 0.25 -0.421875 1.203125l-0.171875 0.9375l1.859375 0l-0.234375 1.265625l-1.859375 0l-1.734375 9.953125q-0.234375 1.34375 -0.796875 1.859375q-0.546875 0.515625 -1.578125 0.515625q-0.84375 0 -2.03125 -0.234375zm14.313202 0.234375q-1.359375 -1.703125 -2.296875 -4.0q-0.9375 -2.296875 -0.9375 -4.765625q0 -2.15625 0.703125 -4.140625q0.828125 -2.3125 2.53125 -4.59375l1.171875 0q-1.09375 1.890625 -1.453125 2.703125q-0.546875 1.25 -0.875 2.625q-0.390625 1.703125 -0.390625 3.421875q0 4.375 2.71875 8.75l-1.171875 0z" fill-rule="nonzero"/><path fill="#000000" d="m490.914 230.54828l1.640625 -0.09375q0 0.703125 0.21875 1.21875q0.21875 0.5 0.796875 0.8125q0.59375 0.3125 1.375 0.3125q1.09375 0 1.640625 -0.4375q0.546875 -0.4375 0.546875 -1.015625q0 -0.4375 -0.328125 -0.8125q-0.328125 -0.390625 -1.640625 -0.953125q-1.3125 -0.5625 -1.671875 -0.78125q-0.609375 -0.375 -0.921875 -0.875q-0.3125 -0.515625 -0.3125 -1.171875q0 -1.140625 0.90625 -1.953125q0.921875 -0.828125 2.5625 -0.828125q1.828125 0 2.765625 0.84375q0.953125 0.84375 1.0 2.21875l-1.609375 0.109375q-0.046875 -0.875 -0.625 -1.390625q-0.578125 -0.515625 -1.65625 -0.515625q-0.84375 0 -1.328125 0.40625q-0.46875 0.390625 -0.46875 0.84375q0 0.453125 0.40625 0.796875q0.28125 0.234375 1.421875 0.734375q1.890625 0.8125 2.375 1.28125q0.78125 0.765625 0.78125 1.84375q0 0.71875 -0.4375 1.421875q-0.4375 0.6875 -1.34375 1.109375q-0.90625 0.40625 -2.140625 0.40625q-1.671875 0 -2.84375 -0.828125q-1.1875 -0.828125 -1.109375 -2.703125z" fill-rule="nonzero"/><path fill="#000000" d="m501.77338 237.78265l-1.1875 0q2.734375 -4.375 2.734375 -8.75q0 -1.71875 -0.390625 -3.390625q-0.3125 -1.375 -0.875 -2.625q-0.359375 -0.828125 -1.46875 -2.734375l1.1875 0q1.703125 2.28125 2.53125 4.59375q0.6875 1.984375 0.6875 4.140625q0 2.46875 -0.9375 4.765625q-0.9375 2.296875 -2.28125 4.0z" fill-rule="nonzero"/><path fill="#000000" fill-opacity="0.0" d="m526.8846 226.94078l101.543274 0" fill-rule="evenodd"/><path stroke="#000000" stroke-width="1.0" stroke-linejoin="round" stroke-linecap="butt" d="m526.8846 226.94078l95.543274 0" fill-rule="evenodd"/><path fill="#000000" stroke="#000000" stroke-width="1.0" stroke-linecap="butt" d="m622.42786 228.59251l4.538086 -1.6517334l-4.538086 -1.6517334z" fill-rule="evenodd"/><path fill="#000000" fill-opacity="0.0" d="m321.7822 184.13762l130.55118 42.80316" fill-rule="evenodd"/><path stroke="#000000" stroke-width="1.0" stroke-linejoin="round" stroke-linecap="butt" d="m321.7822 184.13763l124.84976 40.93387" fill-rule="evenodd"/><path fill="#000000" stroke="#000000" stroke-width="1.0" stroke-linecap="butt" d="m446.1174 226.64102l4.8268433 -0.15568542l-3.7976685 -2.983368z" fill-rule="evenodd"/><path fill="#000000" fill-opacity="0.0" d="m318.4436 276.3581l133.88977 -49.417313" fill-rule="evenodd"/><path stroke="#000000" stroke-width="1.0" stroke-linejoin="round" stroke-linecap="butt" d="m318.4436 276.3581l128.26093 -47.339767" fill-rule="evenodd"/><path fill="#000000" stroke="#000000" stroke-width="1.0" stroke-linecap="butt" d="m447.27646 230.56789l3.6854553 -3.1209106l-4.829315 0.02178955z" fill-rule="evenodd"/><path fill="#000000" fill-opacity="0.0" d="m262.36877 159.74803l59.40158 0l0 46.866135l-59.40158 0z" fill-rule="evenodd"/><path fill="#000000" d="m293.0223 179.14865q0 -0.25 0.5 -0.5625q0.515625 -0.3125 0.84375 -0.3125q0.5 0 0.6875 0.265625q0.203125 0.265625 0.203125 0.796875q0 0.234375 -0.046875 0.40625q-0.046875 0.171875 -0.34375 0.5625q-0.296875 0.375 -0.859375 0.828125q-0.546875 0.4375 -1.65625 1.1875q-1.09375 0.75 -2.65625 1.671875l0.3125 3.375q0.1875 2.15625 1.1875 2.15625q1.203125 -0.875 1.5625 -0.875q0.15625 0 0.171875 0.0625q-0.171875 0.765625 -1.078125 1.28125q-0.90625 0.515625 -1.859375 0.515625q-0.78125 0 -1.109375 -0.609375q-0.3125 -0.609375 -0.421875 -1.734375l-0.296875 -3.265625q-2.359375 1.390625 -3.4375 2.125q-1.0625 0.71875 -1.28125 1.015625q-0.21875 0.296875 -0.21875 0.703125q0 0.78125 0.53125 0.78125q0.171875 0 0.171875 0.109375q0 0.234375 -0.53125 0.5625q-0.53125 0.3125 -0.828125 0.3125q-0.875 0 -0.875 -0.984375q0 -0.359375 0.15625 -0.65625q0.15625 -0.296875 0.734375 -0.875q0.578125 -0.578125 1.953125 -1.484375q1.375 -0.921875 3.578125 -2.21875l-0.28125 -2.859375q-0.203125 -2.171875 -1.171875 -2.171875l-0.75 0.5625q-0.484375 0.3125 -0.84375 0.3125q-0.15625 0 -0.15625 -0.140625q0 -0.515625 0.90625 -1.109375q0.90625 -0.609375 2.03125 -0.609375q0.546875 0 0.859375 0.34375q0.328125 0.34375 0.453125 0.796875q0.125 0.453125 0.203125 1.203125l0.28125 2.765625q1.484375 -0.890625 2.3125 -1.4375q0.828125 -0.546875 1.21875 -0.90625q0.390625 -0.359375 0.46875 -0.53125q0.078125 -0.171875 0.078125 -0.46875q0 -0.78125 -0.5625 -0.78125q-0.140625 0 -0.140625 -0.109375z" fill-rule="nonzero"/><path fill="#000000" d="m300.27618 199.00803l-2.078125 0l0 -7.8125q-1.140625 1.0625 -2.6875 1.578125l0 -1.890625q0.8125 -0.265625 1.765625 -1.0q0.953125 -0.75 1.3125 -1.734375l1.6875 0l0 10.859375z" fill-rule="nonzero"/><path fill="#000000" fill-opacity="0.0" d="m262.36877 247.3622l59.40158 0l0 46.866135l-59.40158 0z" fill-rule="evenodd"/><path fill="#000000" d="m293.0223 266.76282q0 -0.25 0.5 -0.5625q0.515625 -0.3125 0.84375 -0.3125q0.5 0 0.6875 0.265625q0.203125 0.265625 0.203125 0.796875q0 0.234375 -0.046875 0.40625q-0.046875 0.171875 -0.34375 0.5625q-0.296875 0.375 -0.859375 0.828125q-0.546875 0.4375 -1.65625 1.1875q-1.09375 0.75 -2.65625 1.671875l0.3125 3.375q0.1875 2.15625 1.1875 2.15625q1.203125 -0.875 1.5625 -0.875q0.15625 0 0.171875 0.0625q-0.171875 0.765625 -1.078125 1.28125q-0.90625 0.515625 -1.859375 0.515625q-0.78125 0 -1.109375 -0.609375q-0.3125 -0.609375 -0.421875 -1.734375l-0.296875 -3.265625q-2.359375 1.390625 -3.4375 2.125q-1.0625 0.71875 -1.28125 1.015625q-0.21875 0.296875 -0.21875 0.703125q0 0.78125 0.53125 0.78125q0.171875 0 0.171875 0.109375q0 0.234375 -0.53125 0.5625q-0.53125 0.3125 -0.828125 0.3125q-0.875 0 -0.875 -0.984375q0 -0.359375 0.15625 -0.65625q0.15625 -0.296875 0.734375 -0.875q0.578125 -0.578125 1.953125 -1.484375q1.375 -0.921875 3.578125 -2.21875l-0.28125 -2.859375q-0.203125 -2.171875 -1.171875 -2.171875l-0.75 0.5625q-0.484375 0.3125 -0.84375 0.3125q-0.15625 0 -0.15625 -0.140625q0 -0.515625 0.90625 -1.109375q0.90625 -0.609375 2.03125 -0.609375q0.546875 0 0.859375 0.34375q0.328125 0.34375 0.453125 0.796875q0.125 0.453125 0.203125 1.203125l0.28125 2.765625q1.484375 -0.890625 2.3125 -1.4375q0.828125 -0.546875 1.21875 -0.90625q0.390625 -0.359375 0.46875 -0.53125q0.078125 -0.171875 0.078125 -0.46875q0 -0.78125 -0.5625 -0.78125q-0.140625 0 -0.140625 -0.109375z" fill-rule="nonzero"/><path fill="#000000" d="m301.96368 284.70032l0 1.921875l-7.265625 0q0.125 -1.09375 0.703125 -2.0625q0.59375 -0.984375 2.34375 -2.59375q1.390625 -1.3125 1.71875 -1.78125q0.421875 -0.640625 0.421875 -1.265625q0 -0.6875 -0.375 -1.0625q-0.375 -0.375 -1.03125 -0.375q-0.640625 0 -1.03125 0.390625q-0.375 0.390625 -0.4375 1.296875l-2.0625 -0.203125q0.171875 -1.71875 1.140625 -2.453125q0.984375 -0.75 2.453125 -0.75q1.59375 0 2.5 0.859375q0.921875 0.859375 0.921875 2.15625q0 0.71875 -0.265625 1.390625q-0.25 0.65625 -0.828125 1.375q-0.375 0.484375 -1.359375 1.390625q-0.96875 0.890625 -1.234375 1.1875q-0.265625 0.296875 -0.421875 0.578125l4.109375 0z" fill-rule="nonzero"/><path fill="#000000" fill-opacity="0.0" d="m390.1496 165.58005l59.40158 0l0 48.472443l-59.40158 0z" fill-rule="evenodd"/><path fill="#000000" d="m409.88397 193.7763q0 2.5 1.140625 2.5q1.15625 0 1.90625 -1.875q0.765625 -1.890625 0.765625 -4.15625q0 -1.671875 -0.859375 -2.03125q0.828125 -0.625 1.5 -0.625q1.078125 0 1.078125 1.65625q0 2.5 -1.71875 5.65625q-1.53125 2.8125 -3.3125 2.8125q-2.046875 0 -2.046875 -3.140625q0 -0.125 0.078125 -2.40625q-1.375 3.03125 -2.5 4.21875q-1.109375 1.1875 -2.640625 1.1875q0.25 -0.796875 0.25 -1.828125q0 -2.59375 -0.609375 -5.0q-0.59375 -2.40625 -1.53125 -3.4375q0.796875 -0.390625 1.359375 -0.390625q2.0 0 2.546875 8.328125l0 0.265625q1.078125 -1.375 2.109375 -3.328125q1.03125 -1.953125 1.03125 -3.46875l0 -0.171875q0.75 -0.28125 1.203125 -0.28125q0.796875 0 0.796875 0.578125q0 0.140625 -0.15625 0.796875q-0.140625 0.640625 -0.265625 1.75q-0.125 1.09375 -0.125 2.390625z" fill-rule="nonzero"/><path fill="#000000" d="m420.4867 206.12006l-2.078125 0l0 -7.8125q-1.140625 1.0625 -2.6875 1.578125l0 -1.890625q0.8125 -0.265625 1.765625 -1.0q0.953125 -0.75 1.3125 -1.734375l1.6875 0l0 10.859375z" fill-rule="nonzero"/><path fill="#000000" fill-opacity="0.0" d="m393.1496 234.21391l59.40158 0l0 48.472427l-59.40158 0z" fill-rule="evenodd"/><path fill="#000000" d="m412.88397 262.41016q0 2.5 1.140625 2.5q1.15625 0 1.90625 -1.875q0.765625 -1.890625 0.765625 -4.15625q0 -1.671875 -0.859375 -2.03125q0.828125 -0.625 1.5 -0.625q1.078125 0 1.078125 1.65625q0 2.5 -1.71875 5.65625q-1.53125 2.8125 -3.3125 2.8125q-2.046875 0 -2.046875 -3.140625q0 -0.125 0.078125 -2.40625q-1.375 3.03125 -2.5 4.21875q-1.109375 1.1875 -2.640625 1.1875q0.25 -0.796875 0.25 -1.828125q0 -2.59375 -0.609375 -5.0q-0.59375 -2.40625 -1.53125 -3.4375q0.796875 -0.390625 1.359375 -0.390625q2.0 0 2.546875 8.328125l0 0.265625q1.078125 -1.375 2.109375 -3.328125q1.03125 -1.953125 1.03125 -3.46875l0 -0.171875q0.75 -0.28125 1.203125 -0.28125q0.796875 0 0.796875 0.578125q0 0.140625 -0.15625 0.796875q-0.140625 0.640625 -0.265625 1.75q-0.125 1.09375 -0.125 2.390625z" fill-rule="nonzero"/><path fill="#000000" d="m425.1742 272.83203l0 1.921875l-7.265625 0q0.125 -1.09375 0.703125 -2.0625q0.59375 -0.984375 2.34375 -2.59375q1.390625 -1.3125 1.71875 -1.78125q0.421875 -0.640625 0.421875 -1.265625q0 -0.6875 -0.375 -1.0625q-0.375 -0.375 -1.03125 -0.375q-0.640625 0 -1.03125 0.390625q-0.375 0.390625 -0.4375 1.296875l-2.0625 -0.203125q0.171875 -1.71875 1.140625 -2.453125q0.984375 -0.75 2.453125 -0.75q1.59375 0 2.5 0.859375q0.921875 0.859375 0.921875 2.15625q0 0.71875 -0.265625 1.390625q-0.25 0.65625 -0.828125 1.375q-0.375 0.484375 -1.359375 1.390625q-0.96875 0.890625 -1.234375 1.1875q-0.265625 0.296875 -0.421875 0.578125l4.109375 0z" fill-rule="nonzero"/><path fill="#000000" fill-opacity="0.0" d="m638.22705 204.30971l59.40155 0l0 45.259842l-59.40155 0z" fill-rule="evenodd"/><path fill="#000000" d="m647.3677 222.7272l3.125 0l2.640625 7.859375l2.578125 -7.859375l3.03125 0l-3.90625 10.640625l-0.6875 1.9375q-0.390625 0.96875 -0.75 1.46875q-0.34375 0.515625 -0.796875 0.828125q-0.453125 0.328125 -1.109375 0.5q-0.65625 0.171875 -1.5 0.171875q-0.84375 0 -1.65625 -0.171875l-0.25 -2.296875q0.6875 0.140625 1.234375 0.140625q1.015625 0 1.5 -0.609375q0.5 -0.59375 0.765625 -1.515625l-4.21875 -11.09375z" fill-rule="nonzero"/><path fill="#000000" fill-opacity="0.0" d="m489.60898 165.85416l0 23.811035" fill-rule="evenodd"/><path stroke="#000000" stroke-width="1.0" stroke-linejoin="round" stroke-linecap="butt" d="m489.60898 165.85416l0 17.811035" fill-rule="evenodd"/><path fill="#000000" stroke="#000000" stroke-width="1.0" stroke-linecap="butt" d="m487.95724 183.66519l1.6517334 4.538101l1.6517334 -4.538101z" fill-rule="evenodd"/><path fill="#000000" fill-opacity="0.0" d="m459.90814 117.35433l59.40155 0l0 48.472435l-59.40155 0z" fill-rule="evenodd"/><path fill="#000000" d="m483.85696 149.39433l0 -17.1875l3.296875 0l0 6.1875q1.53125 -1.734375 3.609375 -1.734375q2.28125 0 3.765625 1.65625q1.484375 1.640625 1.484375 4.71875q0 3.1875 -1.515625 4.921875q-1.515625 1.71875 -3.6875 1.71875q-1.0625 0 -2.109375 -0.53125q-1.03125 -0.53125 -1.78125 -1.578125l0 1.828125l-3.0625 0zm3.28125 -6.5q0 1.9375 0.609375 2.859375q0.84375 1.3125 2.265625 1.3125q1.09375 0 1.859375 -0.921875q0.765625 -0.9375 0.765625 -2.9375q0 -2.140625 -0.78125 -3.078125q-0.765625 -0.9375 -1.96875 -0.9375q-1.1875 0 -1.96875 0.921875q-0.78125 0.90625 -0.78125 2.78125z" fill-rule="nonzero"/><path fill="#000000" fill-opacity="0.0" d="m0 23.614174l960.0 0l0 65.480316l-960.0 0z" fill-rule="evenodd"/><path fill="#000000" d="m245.85918 56.934174l-3.984375 0l-1.578125 -4.125l-7.25 0l-1.484375 4.125l-3.890625 0l7.0625 -18.125l3.875 0l7.25 18.125zm-6.734375 -7.171875l-2.5 -6.734375l-2.453125 6.734375l4.953125 0zm14.731781 7.171875l0 -18.125l5.4687347 0l3.296875 12.359375l3.25 -12.359375l5.5 0l0 18.125l-3.40625 0l0 -14.265625l-3.59375 14.265625l-3.53125 0l-3.59375 -14.265625l0 14.265625l-3.3906097 0zm37.48915 0l-3.984375 0l-1.578125 -4.125l-7.25 0l-1.484375 4.125l-3.890625 0l7.0625 -18.125l3.875 0l7.25 18.125zm-6.734375 -7.171875l-2.5 -6.734375l-2.453125 6.734375l4.953125 0zm10.87973 7.171875l0 -15.0625l-5.375 0l0 -3.0625l14.40625 0l0 3.0625l-5.375 0l0 15.0625l-3.65625 0zm11.408936 0l0 -18.125l3.65625 0l0 7.125l7.171875 0l0 -7.125l3.65625 0l0 18.125l-3.65625 0l0 -7.921875l-7.171875 0l0 7.921875l-3.65625 0zm18.275513 0l0 -18.125l13.4375 0l0 3.0625l-9.78125 0l0 4.015625l9.109375 0l0 3.0625l-9.109375 0l0 4.921875l10.125 0l0 3.0625l-13.78125 0zm16.846802 0l0 -18.125l5.46875 0l3.296875 12.359375l3.25 -12.359375l5.5 0l0 18.125l-3.40625 0l0 -14.265625l-3.59375 14.265625l-3.53125 0l-3.59375 -14.265625l0 14.265625l-3.390625 0zm37.489136 0l-3.984375 0l-1.578125 -4.125l-7.25 0l-1.484375 4.125l-3.890625 0l7.0625 -18.125l3.875 0l7.25 18.125zm-6.734375 -7.171875l-2.5 -6.734375l-2.453125 6.734375l4.953125 0zm10.87973 7.171875l0 -15.0625l-5.375 0l0 -3.0625l14.40625 0l0 3.0625l-5.375 0l0 15.0625l-3.65625 0zm11.283936 0l0 -18.125l3.65625 0l0 18.125l-3.65625 0zm18.740082 -6.671875l3.5625 1.125q-0.828125 2.96875 -2.734375 4.421875q-1.890625 1.4375 -4.796875 1.4375q-3.625 0 -5.953125 -2.46875q-2.3125 -2.46875 -2.3125 -6.75q0 -4.53125 2.328125 -7.03125q2.34375 -2.5 6.15625 -2.5q3.328125 0 5.40625 1.96875q1.234375 1.15625 1.84375 3.328125l-3.625 0.875q-0.3125 -1.40625 -1.34375 -2.21875q-1.015625 -0.828125 -2.46875 -0.828125q-2.015625 0 -3.28125 1.453125q-1.25 1.4375 -1.25 4.6875q0 3.4375 1.234375 4.90625q1.234375 1.453125 3.21875 1.453125q1.46875 0 2.515625 -0.921875q1.046875 -0.9375 1.5 -2.9375zm23.041199 6.671875l-3.984375 0l-1.578125 -4.125l-7.25 0l-1.484375 4.125l-3.890625 0l7.0625 -18.125l3.875 0l7.25 18.125zm-6.734375 -7.171875l-2.5 -6.734375l-2.453125 6.734375l4.953125 0zm8.775513 7.171875l0 -17.984375l3.671875 0l0 14.921875l9.09375 0l0 3.0625l-12.765625 0zm21.910095 0l0 -18.125l5.46875 0l3.296875 12.359375l3.25 -12.359375l5.5 0l0 18.125l-3.40625 0l0 -14.265625l-3.59375 14.265625l-3.53125 0l-3.59375 -14.265625l0 14.265625l-3.390625 0zm20.395416 -8.953125q0 -2.765625 0.828125 -4.65625q0.625 -1.375 1.6875 -2.46875q1.078125 -1.109375 2.359375 -1.640625q1.6875 -0.71875 3.90625 -0.71875q4.0 0 6.40625 2.484375q2.40625 2.484375 2.40625 6.90625q0 4.390625 -2.390625 6.875q-2.390625 2.484375 -6.375 2.484375q-4.046875 0 -6.4375 -2.46875q-2.390625 -2.46875 -2.390625 -6.796875zm3.78125 -0.125q0 3.078125 1.421875 4.671875q1.421875 1.59375 3.609375 1.59375q2.1875 0 3.59375 -1.578125q1.40625 -1.578125 1.40625 -4.734375q0 -3.125 -1.375 -4.65625q-1.359375 -1.53125 -3.625 -1.53125q-2.265625 0 -3.65625 1.5625q-1.375 1.546875 -1.375 4.671875zm16.654144 -9.046875l6.6875 0q2.265625 0 3.453125 0.34375q1.59375 0.46875 2.734375 1.671875q1.140625 1.1875 1.734375 2.9375q0.59375 1.734375 0.59375 4.28125q0 2.234375 -0.5625 3.859375q-0.671875 1.96875 -1.9375 3.203125q-0.953125 0.921875 -2.578125 1.4375q-1.203125 0.390625 -3.234375 0.390625l-6.890625 0l0 -18.125zm3.65625 3.0625l0 12.0l2.734375 0q1.53125 0 2.21875 -0.171875q0.890625 -0.21875 1.46875 -0.75q0.59375 -0.53125 0.96875 -1.75q0.375 -1.21875 0.375 -3.3125q0 -2.109375 -0.375 -3.234375q-0.375 -1.125 -1.046875 -1.75q-0.65625 -0.640625 -1.6875 -0.859375q-0.765625 -0.171875 -3.0 -0.171875l-1.65625 0zm14.650574 15.0625l0 -18.125l13.4375 0l0 3.0625l-9.78125 0l0 4.015625l9.109375 0l0 3.0625l-9.109375 0l0 4.921875l10.125 0l0 3.0625l-13.78125 0zm16.987427 0l0 -17.984375l3.671875 0l0 14.921875l9.09375 0l0 3.0625l-12.765625 0zm21.20697 -8.953125q0 -2.765625 0.828125 -4.65625q0.625 -1.375 1.6875 -2.46875q1.078125 -1.109375 2.359375 -1.640625q1.6875 -0.71875 3.90625 -0.71875q4.0 0 6.40625 2.484375q2.40625 2.484375 2.40625 6.90625q0 4.390625 -2.390625 6.875q-2.390625 2.484375 -6.375 2.484375q-4.046875 0 -6.4375 -2.46875q-2.390625 -2.46875 -2.390625 -6.796875zm3.78125 -0.125q0 3.078125 1.421875 4.671875q1.421875 1.59375 3.609375 1.59375q2.1875 0 3.59375 -1.578125q1.40625 -1.578125 1.40625 -4.734375q0 -3.125 -1.375 -4.65625q-1.359375 -1.53125 -3.625 -1.53125q-2.265625 0 -3.65625 1.5625q-1.375 1.546875 -1.375 4.671875zm16.70105 9.078125l0 -18.125l12.421875 0l0 3.0625l-8.765625 0l0 4.296875l7.5625 0l0 3.0625l-7.5625 0l0 7.703125l-3.65625 0zm37.8808 0l-3.984375 0l-1.578125 -4.125l-7.25 0l-1.484375 4.125l-3.890625 0l7.0625 -18.125l3.875 0l7.25 18.125zm-6.734375 -7.171875l-2.5 -6.734375l-2.453125 6.734375l4.953125 0zm14.809937 7.171875l0 -18.125l3.5625 0l7.421875 12.109375l0 -12.109375l3.40625 0l0 18.125l-3.671875 0l-7.3125 -11.828125l0 11.828125l-3.40625 0zm18.259888 0l0 -18.125l13.4375 0l0 3.0625l-9.78125 0l0 4.015625l9.109375 0l0 3.0625l-9.109375 0l0 4.921875l10.125 0l0 3.0625l-13.78125 0zm16.862427 -18.125l3.671875 0l0 9.8125q0 2.34375 0.125 3.03125q0.234375 1.109375 1.125 1.796875q0.890625 0.671875 2.421875 0.671875q1.546875 0 2.34375 -0.640625q0.796875 -0.640625 0.953125 -1.5625q0.15625 -0.9375 0.15625 -3.078125l0 -10.03125l3.671875 0l0 9.515625q0 3.265625 -0.296875 4.625q-0.296875 1.34375 -1.09375 2.265625q-0.796875 0.921875 -2.140625 1.484375q-1.328125 0.546875 -3.484375 0.546875q-2.59375 0 -3.9375 -0.59375q-1.34375 -0.609375 -2.125 -1.5625q-0.78125 -0.96875 -1.03125 -2.015625q-0.359375 -1.5625 -0.359375 -4.59375l0 -9.671875zm18.338013 18.125l0 -18.125l7.703125 0q2.90625 0 4.21875 0.484375q1.3125 0.484375 2.109375 1.734375q0.796875 1.25 0.796875 2.859375q0 2.046875 -1.203125 3.375q-1.203125 1.328125 -3.59375 1.671875q1.1875 0.6875 1.953125 1.515625q0.78125 0.828125 2.09375 2.953125l2.21875 3.53125l-4.375 0l-2.65625 -3.9375q-1.40625 -2.125 -1.921875 -2.671875q-0.515625 -0.546875 -1.109375 -0.75q-0.578125 -0.203125 -1.828125 -0.203125l-0.75 0l0 7.5625l-3.65625 0zm3.65625 -10.46875l2.703125 0q2.640625 0 3.296875 -0.21875q0.65625 -0.21875 1.015625 -0.765625q0.375 -0.546875 0.375 -1.359375q0 -0.921875 -0.484375 -1.484375q-0.484375 -0.5625 -1.375 -0.703125q-0.453125 -0.0625 -2.671875 -0.0625l-2.859375 0l0 4.59375zm13.869324 1.515625q0 -2.765625 0.828125 -4.65625q0.625 -1.375 1.6875 -2.46875q1.078125 -1.109375 2.359375 -1.640625q1.6875 -0.71875 3.90625 -0.71875q4.0 0 6.40625 2.484375q2.40625 2.484375 2.40625 6.90625q0 4.390625 -2.390625 6.875q-2.390625 2.484375 -6.375 2.484375q-4.046875 0 -6.4375 -2.46875q-2.390625 -2.46875 -2.390625 -6.796875zm3.78125 -0.125q0 3.078125 1.421875 4.671875q1.421875 1.59375 3.609375 1.59375q2.1875 0 3.59375 -1.578125q1.40625 -1.578125 1.40625 -4.734375q0 -3.125 -1.375 -4.65625q-1.359375 -1.53125 -3.625 -1.53125q-2.265625 0 -3.65625 1.5625q-1.375 1.546875 -1.375 4.671875zm16.70105 9.078125l0 -18.125l3.5625 0l7.421875 12.109375l0 -12.109375l3.40625 0l0 18.125l-3.671875 0l-7.3125 -11.828125l0 11.828125l-3.40625 0z" fill-rule="nonzero"/><path fill="#000000" d="m381.25012 80.93417l0 -1.421875q-1.125 1.640625 -3.0625 1.640625q-0.859375 0 -1.609375 -0.328125q-0.734375 -0.328125 -1.09375 -0.828125q-0.359375 -0.5 -0.5 -1.21875q-0.109375 -0.46875 -0.109375 -1.53125l0 -5.984375l1.640625 0l0 5.359375q0 1.28125 0.109375 1.734375q0.15625 0.640625 0.65625 1.015625q0.5 0.375 1.234375 0.375q0.734375 0 1.375 -0.375q0.65625 -0.390625 0.921875 -1.03125q0.265625 -0.65625 0.265625 -1.890625l0 -5.1875l1.640625 0l0 9.671875l-1.46875 0zm3.3913574 -2.890625l1.625 -0.25q0.125 0.96875 0.75 1.5q0.625 0.515625 1.75 0.515625q1.125 0 1.671875 -0.453125q0.546875 -0.46875 0.546875 -1.09375q0 -0.546875 -0.484375 -0.875q-0.328125 -0.21875 -1.671875 -0.546875q-1.8125 -0.46875 -2.515625 -0.796875q-0.6875 -0.328125 -1.046875 -0.90625q-0.359375 -0.59375 -0.359375 -1.3125q0 -0.640625 0.296875 -1.1875q0.296875 -0.5625 0.8125 -0.921875q0.375 -0.28125 1.03125 -0.46875q0.671875 -0.203125 1.421875 -0.203125q1.140625 0 2.0 0.328125q0.859375 0.328125 1.265625 0.890625q0.421875 0.5625 0.578125 1.5l-1.609375 0.21875q-0.109375 -0.75 -0.640625 -1.171875q-0.515625 -0.421875 -1.46875 -0.421875q-1.140625 0 -1.625 0.375q-0.46875 0.375 -0.46875 0.875q0 0.3125 0.1875 0.578125q0.203125 0.265625 0.640625 0.4375q0.234375 0.09375 1.4375 0.421875q1.75 0.453125 2.4375 0.75q0.6875 0.296875 1.078125 0.859375q0.390625 0.5625 0.390625 1.40625q0 0.828125 -0.484375 1.546875q-0.46875 0.71875 -1.375 1.125q-0.90625 0.390625 -2.046875 0.390625q-1.875 0 -2.875 -0.78125q-0.984375 -0.78125 -1.25 -2.328125zm9.984375 -8.578125l0 -1.890625l1.640625 0l0 1.890625l-1.640625 0zm0 11.46875l0 -9.671875l1.640625 0l0 9.671875l-1.640625 0zm4.144806 0l0 -9.671875l1.46875 0l0 1.375q1.0625 -1.59375 3.078125 -1.59375q0.875 0 1.609375 0.3125q0.734375 0.3125 1.09375 0.828125q0.375 0.5 0.515625 1.203125q0.09375 0.453125 0.09375 1.59375l0 5.953125l-1.640625 0l0 -5.890625q0 -1.0 -0.203125 -1.484375q-0.1875 -0.5 -0.671875 -0.796875q-0.484375 -0.296875 -1.140625 -0.296875q-1.046875 0 -1.8125 0.671875q-0.75 0.65625 -0.75 2.515625l0 5.28125l-1.640625 0zm10.063202 0.796875l1.59375 0.234375q0.109375 0.75 0.5625 1.078125q0.609375 0.453125 1.671875 0.453125q1.140625 0 1.75 -0.453125q0.625 -0.453125 0.84375 -1.265625q0.125 -0.5 0.109375 -2.109375q-1.0625 1.265625 -2.671875 1.265625q-2.0 0 -3.09375 -1.4375q-1.09375 -1.4375 -1.09375 -3.453125q0 -1.390625 0.5 -2.5625q0.515625 -1.171875 1.453125 -1.796875q0.953125 -0.640625 2.25 -0.640625q1.703125 0 2.8125 1.375l0 -1.15625l1.515625 0l0 8.359375q0 2.265625 -0.46875 3.203125q-0.453125 0.9375 -1.453125 1.484375q-0.984375 0.546875 -2.453125 0.546875q-1.71875 0 -2.796875 -0.78125q-1.0625 -0.765625 -1.03125 -2.34375zm1.359375 -5.8125q0 1.90625 0.75 2.78125q0.765625 0.875 1.90625 0.875q1.125 0 1.890625 -0.859375q0.765625 -0.875 0.765625 -2.734375q0 -1.78125 -0.796875 -2.671875q-0.78125 -0.90625 -1.890625 -0.90625q-1.09375 0 -1.859375 0.890625q-0.765625 0.875 -0.765625 2.625zm20.824646 3.828125q-0.921875 0.765625 -1.765625 1.09375q-0.828125 0.3125 -1.796875 0.3125q-1.59375 0 -2.453125 -0.78125q-0.859375 -0.78125 -0.859375 -1.984375q0 -0.71875 0.328125 -1.296875q0.328125 -0.59375 0.84375 -0.9375q0.53125 -0.359375 1.1875 -0.546875q0.46875 -0.125 1.453125 -0.25q1.984375 -0.234375 2.921875 -0.5625q0.015625 -0.34375 0.015625 -0.421875q0 -1.0 -0.46875 -1.421875q-0.625 -0.546875 -1.875 -0.546875q-1.15625 0 -1.703125 0.40625q-0.546875 0.40625 -0.8125 1.421875l-1.609375 -0.21875q0.21875 -1.015625 0.71875 -1.640625q0.5 -0.640625 1.453125 -0.984375q0.953125 -0.34375 2.1875 -0.34375q1.25 0 2.015625 0.296875q0.78125 0.28125 1.140625 0.734375q0.375 0.4375 0.515625 1.109375q0.078125 0.421875 0.078125 1.515625l0 2.1875q0 2.28125 0.109375 2.890625q0.109375 0.59375 0.40625 1.15625l-1.703125 0q-0.265625 -0.515625 -0.328125 -1.1875zm-0.140625 -3.671875q-0.890625 0.375 -2.671875 0.625q-1.015625 0.140625 -1.4375 0.328125q-0.421875 0.1875 -0.65625 0.53125q-0.21875 0.34375 -0.21875 0.78125q0 0.65625 0.5 1.09375q0.5 0.4375 1.453125 0.4375q0.9375 0 1.671875 -0.40625q0.75 -0.421875 1.09375 -1.140625q0.265625 -0.5625 0.265625 -1.640625l0 -0.609375zm9.387146 4.859375l0 -9.671875l1.46875 0l0 1.375q1.0625 -1.59375 3.078125 -1.59375q0.875 0 1.609375 0.3125q0.734375 0.3125 1.09375 0.828125q0.375 0.5 0.515625 1.203125q0.09375 0.453125 0.09375 1.59375l0 5.953125l-1.640625 0l0 -5.890625q0 -1.0 -0.203125 -1.484375q-0.1875 -0.5 -0.671875 -0.796875q-0.484375 -0.296875 -1.140625 -0.296875q-1.046875 0 -1.8125 0.671875q-0.75 0.65625 -0.75 2.515625l0 5.28125l-1.640625 0zm9.766357 -4.84375q0 -2.6875 1.484375 -3.96875q1.25 -1.078125 3.046875 -1.078125q2.0 0 3.265625 1.3125q1.265625 1.296875 1.265625 3.609375q0 1.859375 -0.5625 2.9375q-0.5625 1.0625 -1.640625 1.65625q-1.0625 0.59375 -2.328125 0.59375q-2.03125 0 -3.28125 -1.296875q-1.25 -1.3125 -1.25 -3.765625zm1.6875 0q0 1.859375 0.796875 2.796875q0.8125 0.921875 2.046875 0.921875q1.21875 0 2.03125 -0.921875q0.8125 -0.9375 0.8125 -2.84375q0 -1.796875 -0.8125 -2.71875q-0.8125 -0.921875 -2.03125 -0.921875q-1.234375 0 -2.046875 0.921875q-0.796875 0.90625 -0.796875 2.765625zm9.297607 4.84375l0 -9.671875l1.46875 0l0 1.375q1.0625 -1.59375 3.078125 -1.59375q0.875 0 1.609375 0.3125q0.734375 0.3125 1.09375 0.828125q0.375 0.5 0.515625 1.203125q0.09375 0.453125 0.09375 1.59375l0 5.953125l-1.640625 0l0 -5.890625q0 -1.0 -0.203125 -1.484375q-0.1875 -0.5 -0.671875 -0.796875q-0.484375 -0.296875 -1.140625 -0.296875q-1.046875 0 -1.8125 0.671875q-0.75 0.65625 -0.75 2.515625l0 5.28125l-1.640625 0zm10.328827 0l0 -13.359375l1.640625 0l0 13.359375l-1.640625 0zm4.191681 -11.46875l0 -1.890625l1.640625 0l0 1.890625l-1.640625 0zm0 11.46875l0 -9.671875l1.640625 0l0 9.671875l-1.640625 0zm4.1448364 0l0 -9.671875l1.46875 0l0 1.375q1.0625 -1.59375 3.078125 -1.59375q0.875 0 1.609375 0.3125q0.734375 0.3125 1.09375 0.828125q0.375 0.5 0.515625 1.203125q0.09375 0.453125 0.09375 1.59375l0 5.953125l-1.640625 0l0 -5.890625q0 -1.0 -0.203125 -1.484375q-0.1875 -0.5 -0.671875 -0.796875q-0.484375 -0.296875 -1.140625 -0.296875q-1.046875 0 -1.8125 0.671875q-0.75 0.65625 -0.75 2.515625l0 5.28125l-1.640625 0zm17.000732 -3.109375l1.6875 0.203125q-0.40625 1.484375 -1.484375 2.3125q-1.078125 0.8125 -2.765625 0.8125q-2.125 0 -3.375 -1.296875q-1.234375 -1.3125 -1.234375 -3.671875q0 -2.453125 1.25 -3.796875q1.265625 -1.34375 3.265625 -1.34375q1.9375 0 3.15625 1.328125q1.234375 1.3125 1.234375 3.703125q0 0.15625 0 0.4375l-7.21875 0q0.09375 1.59375 0.90625 2.453125q0.8125 0.84375 2.015625 0.84375q0.90625 0 1.546875 -0.46875q0.640625 -0.484375 1.015625 -1.515625zm-5.390625 -2.65625l5.40625 0q-0.109375 -1.21875 -0.625 -1.828125q-0.78125 -0.953125 -2.03125 -0.953125q-1.125 0 -1.90625 0.765625q-0.765625 0.75 -0.84375 2.015625zm15.453827 4.578125q-0.921875 0.765625 -1.765625 1.09375q-0.828125 0.3125 -1.796875 0.3125q-1.59375 0 -2.453125 -0.78125q-0.859375 -0.78125 -0.859375 -1.984375q0 -0.71875 0.328125 -1.296875q0.328125 -0.59375 0.84375 -0.9375q0.53125 -0.359375 1.1875 -0.546875q0.46875 -0.125 1.453125 -0.25q1.984375 -0.234375 2.921875 -0.5625q0.015625 -0.34375 0.015625 -0.421875q0 -1.0 -0.46875 -1.421875q-0.625 -0.546875 -1.875 -0.546875q-1.15625 0 -1.703125 0.40625q-0.546875 0.40625 -0.8125 1.421875l-1.609375 -0.21875q0.21875 -1.015625 0.71875 -1.640625q0.5 -0.640625 1.453125 -0.984375q0.953125 -0.34375 2.1875 -0.34375q1.25 0 2.015625 0.296875q0.78125 0.28125 1.140625 0.734375q0.375 0.4375 0.515625 1.109375q0.078125 0.421875 0.078125 1.515625l0 2.1875q0 2.28125 0.109375 2.890625q0.109375 0.59375 0.40625 1.15625l-1.703125 0q-0.265625 -0.515625 -0.328125 -1.1875zm-0.140625 -3.671875q-0.890625 0.375 -2.671875 0.625q-1.015625 0.140625 -1.4375 0.328125q-0.421875 0.1875 -0.65625 0.53125q-0.21875 0.34375 -0.21875 0.78125q0 0.65625 0.5 1.09375q0.5 0.4375 1.453125 0.4375q0.9375 0 1.671875 -0.40625q0.75 -0.421875 1.09375 -1.140625q0.265625 -0.5625 0.265625 -1.640625l0 -0.609375zm4.188202 4.859375l0 -9.671875l1.46875 0l0 1.46875q0.5625 -1.03125 1.03125 -1.359375q0.484375 -0.328125 1.0625 -0.328125q0.828125 0 1.6875 0.53125l-0.5625 1.515625q-0.609375 -0.359375 -1.203125 -0.359375q-0.546875 0 -0.96875 0.328125q-0.421875 0.328125 -0.609375 0.890625q-0.28125 0.875 -0.28125 1.921875l0 5.0625l-1.625 0zm11.802246 0l0 -8.40625l-1.453125 0l0 -1.265625l1.453125 0l0 -1.03125q0 -0.96875 0.171875 -1.453125q0.234375 -0.640625 0.828125 -1.03125q0.59375 -0.390625 1.671875 -0.390625q0.6875 0 1.53125 0.15625l-0.25 1.4375q-0.5 -0.09375 -0.953125 -0.09375q-0.75 0 -1.0625 0.328125q-0.3125 0.3125 -0.3125 1.1875l0 0.890625l1.890625 0l0 1.265625l-1.890625 0l0 8.40625l-1.625 0zm11.120789 0l0 -1.421875q-1.125 1.640625 -3.0625 1.640625q-0.859375 0 -1.609375 -0.328125q-0.734375 -0.328125 -1.09375 -0.828125q-0.359375 -0.5 -0.5 -1.21875q-0.109375 -0.46875 -0.109375 -1.53125l0 -5.984375l1.640625 0l0 5.359375q0 1.28125 0.109375 1.734375q0.15625 0.640625 0.65625 1.015625q0.5 0.375 1.234375 0.375q0.734375 0 1.375 -0.375q0.65625 -0.390625 0.921875 -1.03125q0.265625 -0.65625 0.265625 -1.890625l0 -5.1875l1.640625 0l0 9.671875l-1.46875 0zm4.0476074 0l0 -9.671875l1.46875 0l0 1.375q1.0625 -1.59375 3.078125 -1.59375q0.875 0 1.609375 0.3125q0.734375 0.3125 1.09375 0.828125q0.375 0.5 0.515625 1.203125q0.09375 0.453125 0.09375 1.59375l0 5.953125l-1.640625 0l0 -5.890625q0 -1.0 -0.203125 -1.484375q-0.1875 -0.5 -0.671875 -0.796875q-0.484375 -0.296875 -1.140625 -0.296875q-1.046875 0 -1.8125 0.671875q-0.75 0.65625 -0.75 2.515625l0 5.28125l-1.640625 0zm16.688232 -3.546875l1.609375 0.21875q-0.265625 1.65625 -1.359375 2.609375q-1.078125 0.9375 -2.671875 0.9375q-1.984375 0 -3.1875 -1.296875q-1.203125 -1.296875 -1.203125 -3.71875q0 -1.578125 0.515625 -2.75q0.515625 -1.171875 1.578125 -1.75q1.0625 -0.59375 2.3125 -0.59375q1.578125 0 2.578125 0.796875q1.0 0.796875 1.28125 2.265625l-1.59375 0.234375q-0.234375 -0.96875 -0.8125 -1.453125q-0.578125 -0.5 -1.390625 -0.5q-1.234375 0 -2.015625 0.890625q-0.78125 0.890625 -0.78125 2.8125q0 1.953125 0.75 2.84375q0.75 0.875 1.953125 0.875q0.96875 0 1.609375 -0.59375q0.65625 -0.59375 0.828125 -1.828125zm6.59375 2.078125l0.234375 1.453125q-0.6875 0.140625 -1.234375 0.140625q-0.890625 0 -1.390625 -0.28125q-0.484375 -0.28125 -0.6875 -0.734375q-0.203125 -0.46875 -0.203125 -1.9375l0 -5.578125l-1.203125 0l0 -1.265625l1.203125 0l0 -2.390625l1.625 -0.984375l0 3.375l1.65625 0l0 1.265625l-1.65625 0l0 5.671875q0 0.6875 0.078125 0.890625q0.09375 0.203125 0.28125 0.328125q0.203125 0.109375 0.578125 0.109375q0.265625 0 0.71875 -0.0625zm1.6051636 -10.0l0 -1.890625l1.640625 0l0 1.890625l-1.640625 0zm0 11.46875l0 -9.671875l1.640625 0l0 9.671875l-1.640625 0zm3.5354614 -4.84375q0 -2.6875 1.484375 -3.96875q1.25 -1.078125 3.046875 -1.078125q2.0 0 3.265625 1.3125q1.265625 1.296875 1.265625 3.609375q0 1.859375 -0.5625 2.9375q-0.5625 1.0625 -1.640625 1.65625q-1.0625 0.59375 -2.328125 0.59375q-2.03125 0 -3.28125 -1.296875q-1.25 -1.3125 -1.25 -3.765625zm1.6875 0q0 1.859375 0.796875 2.796875q0.8125 0.921875 2.046875 0.921875q1.21875 0 2.03125 -0.921875q0.8125 -0.9375 0.8125 -2.84375q0 -1.796875 -0.8125 -2.71875q-0.8125 -0.921875 -2.03125 -0.921875q-1.234375 0 -2.046875 0.921875q-0.796875 0.90625 -0.796875 2.765625zm9.297546 4.84375l0 -9.671875l1.46875 0l0 1.375q1.0625 -1.59375 3.078125 -1.59375q0.875 0 1.609375 0.3125q0.734375 0.3125 1.09375 0.828125q0.375 0.5 0.515625 1.203125q0.09375 0.453125 0.09375 1.59375l0 5.953125l-1.640625 0l0 -5.890625q0 -1.0 -0.203125 -1.484375q-0.1875 -0.5 -0.671875 -0.796875q-0.484375 -0.296875 -1.140625 -0.296875q-1.046875 0 -1.8125 0.671875q-0.75 0.65625 -0.75 2.515625l0 5.28125l-1.640625 0z" fill-rule="nonzero"/></g></svg>