<svg version="1.1" viewBox="0.0 0.0 957.0367454068241 586.1312335958005" fill="none" stroke="none" stroke-linecap="square" stroke-miterlimit="10" xmlns:xlink="http://www.w3.org/1999/xlink" xmlns="http://www.w3.org/2000/svg"><clipPath id="p.0"><path d="m0 0l957.03674 0l0 586.1312l-957.03674 0l0 -586.1312z" clip-rule="nonzero"/></clipPath><g clip-path="url(#p.0)"><path fill="#ffffff" d="m0 0l957.03674 0l0 586.1312l-957.03674 0z" fill-rule="evenodd"/><path fill="#000000" fill-opacity="0.0" d="m818.76117 189.89764l97.73224 0l0 230.11023l-97.73224 0z" fill-rule="evenodd"/><path stroke="#000000" stroke-width="1.0" stroke-linejoin="round" stroke-linecap="butt" d="m818.76117 189.89764l97.73224 0l0 230.11023l-97.73224 0z" fill-rule="evenodd"/><path fill="#000000" fill-opacity="0.0" d="m683.6417 188.67586l97.7323 0l0 230.11024l-97.7323 0z" fill-rule="evenodd"/><path stroke="#000000" stroke-width="1.0" stroke-linejoin="round" stroke-linecap="butt" d="m683.6417 188.67586l97.7323 0l0 230.11024l-97.7323 0z" fill-rule="evenodd"/><path fill="#000000" fill-opacity="0.0" d="m72.908134 113.784775l81.07087 0l0 31.244095l-81.07087 0z" fill-rule="evenodd"/><path fill="#000000" d="m99.96701 123.8137l1.515625 0l0 6.6093826q0 1.734375 -0.390625 2.75q-0.390625 1.015625 -1.40625 1.65625q-1.015625 0.640625 -2.671875 0.640625q-1.609375 0 -2.640625 -0.5625q-1.015625 -0.5625 -1.453125 -1.609375q-0.4375 -1.046875 -0.4375 -2.875l0 -6.6093826l1.515625 0l0 6.6093826q0 1.484375 0.265625 2.203125q0.28125 0.703125 0.953125 1.09375q0.6875 0.375 1.65625 0.375q1.671875 0 2.375 -0.75q0.71875 -0.765625 0.71875 -2.921875l0 -6.6093826zm3.5234375 7.7656326l1.4374924 -0.125q0.09375 0.859375 0.46875 1.421875q0.375 0.546875 1.15625 0.890625q0.78125 0.328125 1.75 0.328125q0.875 0 1.53125 -0.25q0.671875 -0.265625 0.984375 -0.703125q0.328125 -0.453125 0.328125 -0.984375q0 -0.546875 -0.3125 -0.9375q-0.3125 -0.40625 -1.03125 -0.6875q-0.453125 -0.171875 -2.03125 -0.546875q-1.578125 -0.390625 -2.21875 -0.71875q-0.8124924 -0.4375 -1.2187424 -1.0625q-0.40625 -0.6406326 -0.40625 -1.4375076q0 -0.859375 0.484375 -1.609375q0.49999237 -0.765625 1.4374924 -1.15625q0.953125 -0.390625 2.109375 -0.390625q1.28125 0 2.25 0.421875q0.96875 0.40625 1.484375 1.203125q0.53125 0.796875 0.578125 1.796875l-1.453125 0.109375q-0.125 -1.078125 -0.796875 -1.625q-0.671875 -0.5625 -2.0 -0.5625q-1.375 0 -2.0 0.5q-0.625 0.5 -0.625 1.21875q0 0.609375 0.4375 1.015625q0.4375 0.39063263 2.28125 0.8125076q1.859375 0.421875 2.546875 0.734375q1.0 0.453125 1.46875 1.171875q0.484375 0.703125 0.484375 1.625q0 0.90625 -0.53125 1.71875q-0.515625 0.8125 -1.5 1.265625q-0.984375 0.453125 -2.203125 0.453125q-1.5625 0 -2.609375 -0.453125q-1.0468674 -0.46875 -1.6562424 -1.375q-0.59375 -0.90625 -0.625 -2.0625zm11.218742 3.6875l0 -11.453133l8.28125 0l0 1.34375l-6.765625 0l0 3.5156326l6.34375 0l0 1.34375l-6.34375 0l0 3.890625l7.03125 0l0 1.359375l-8.546875 0zm10.671875 0l0 -11.453133l5.0781326 0q1.53125 0 2.328125 0.3125q0.796875 0.296875 1.265625 1.078125q0.484375 0.78125 0.484375 1.734375q0 1.2187576 -0.796875 2.0625076q-0.78125 0.828125 -2.4375 1.046875q0.609375 0.296875 0.921875 0.578125q0.65625 0.609375 1.25 1.515625l2.0 3.125l-1.90625 0l-1.515625 -2.390625q-0.671875 -1.03125 -1.109375 -1.578125q-0.421875 -0.546875 -0.765625 -0.765625q-0.328125 -0.21875 -0.6875 -0.296875q-0.25 -0.0625 -0.84375 -0.0625l-1.7500076 0l0 5.09375l-1.515625 0zm1.515625 -6.40625l3.2500076 0q1.046875 0 1.625 -0.203125q0.59375 -0.21875 0.890625 -0.6875076q0.3125 -0.484375 0.3125 -1.03125q0 -0.8125 -0.59375 -1.328125q-0.59375 -0.53125 -1.859375 -0.53125l-3.6250076 0l0 3.7812576z" fill-rule="nonzero"/><path fill="#000000" fill-opacity="0.0" d="m0 22.816273l960.0 0l0 47.464565l-960.0 0z" fill-rule="evenodd"/><path fill="#000000" d="m302.57617 54.856274l0 -17.1875l5.1875 0l3.125 11.71875l3.078125 -11.71875l5.203125 0l0 17.1875l-3.21875 0l0 -13.53125l-3.421875 13.53125l-3.328125 0l-3.40625 -13.53125l0 13.53125l-3.21875 0zm19.335938 -8.484375q0 -2.625 0.78125 -4.40625q0.59375 -1.3125 1.59375 -2.359375q1.015625 -1.046875 2.234375 -1.546875q1.59375 -0.671875 3.703125 -0.671875q3.796875 0 6.0625 2.359375q2.28125 2.34375 2.28125 6.546875q0 4.15625 -2.265625 6.515625q-2.25 2.34375 -6.03125 2.34375q-3.84375 0 -6.109375 -2.34375q-2.25 -2.34375 -2.25 -6.4375zm3.578125 -0.125q0 2.921875 1.34375 4.4375q1.34375 1.5 3.421875 1.5q2.078125 0 3.40625 -1.484375q1.328125 -1.5 1.328125 -4.5q0 -2.953125 -1.296875 -4.40625q-1.296875 -1.453125 -3.4375 -1.453125q-2.140625 0 -3.453125 1.484375q-1.3125 1.46875 -1.3125 4.421875zm15.824219 8.609375l0 -17.1875l3.375 0l7.03125 11.484375l0 -11.484375l3.21875 0l0 17.1875l-3.46875 0l-6.9375 -11.203125l0 11.203125l-3.21875 0zm16.597656 -8.484375q0 -2.625 0.78125 -4.40625q0.59375 -1.3125 1.59375 -2.359375q1.015625 -1.046875 2.234375 -1.546875q1.59375 -0.671875 3.703125 -0.671875q3.796875 0 6.0625 2.359375q2.28125 2.34375 2.28125 6.546875q0 4.15625 -2.265625 6.515625q-2.25 2.34375 -6.03125 2.34375q-3.84375 0 -6.109375 -2.34375q-2.25 -2.34375 -2.25 -6.4375zm3.578125 -0.125q0 2.921875 1.34375 4.4375q1.34375 1.5 3.421875 1.5q2.078125 0 3.40625 -1.484375q1.328125 -1.5 1.328125 -4.5q0 -2.953125 -1.296875 -4.40625q-1.296875 -1.453125 -3.4375 -1.453125q-2.140625 0 -3.453125 1.484375q-1.3125 1.46875 -1.3125 4.421875zm15.886719 8.609375l0 -17.046875l3.46875 0l0 14.15625l8.625 0l0 2.890625l-12.09375 0zm14.457031 0l0 -17.1875l3.46875 0l0 17.1875l-3.46875 0zm10.636719 0l0 -14.28125l-5.09375 0l0 -2.90625l13.65625 0l0 2.90625l-5.09375 0l0 14.28125l-3.46875 0zm10.816406 0l0 -17.1875l3.46875 0l0 6.765625l6.796875 0l0 -6.765625l3.46875 0l0 17.1875l-3.46875 0l0 -7.515625l-6.796875 0l0 7.515625l-3.46875 0zm28.359375 0l-6.140625 -17.1875l3.765625 0l4.34375 12.71875l4.21875 -12.71875l3.671875 0l-6.15625 17.1875l-3.703125 0zm10.7578125 -5.59375l3.375 -0.328125q0.296875 1.703125 1.21875 2.5q0.9375 0.796875 2.53125 0.796875q1.671875 0 2.515625 -0.703125q0.859375 -0.71875 0.859375 -1.671875q0 -0.609375 -0.359375 -1.03125q-0.359375 -0.421875 -1.25 -0.75q-0.609375 -0.203125 -2.78125 -0.75q-2.78125 -0.6875 -3.90625 -1.6875q-1.59375 -1.421875 -1.59375 -3.46875q0 -1.3125 0.75 -2.453125q0.75 -1.140625 2.140625 -1.734375q1.40625 -0.59375 3.390625 -0.59375q3.234375 0 4.859375 1.421875q1.640625 1.40625 1.71875 3.78125l-3.46875 0.140625q-0.21875 -1.3125 -0.953125 -1.890625q-0.734375 -0.59375 -2.203125 -0.59375q-1.5 0 -2.359375 0.625q-0.546875 0.40625 -0.546875 1.0625q0 0.609375 0.515625 1.046875q0.65625 0.546875 3.1875 1.15625q2.53125 0.59375 3.734375 1.234375q1.21875 0.640625 1.90625 1.75q0.6875 1.09375 0.6875 2.734375q0 1.46875 -0.828125 2.765625q-0.8125 1.28125 -2.3125 1.921875q-1.5 0.625 -3.75 0.625q-3.25 0 -5.0 -1.5q-1.75 -1.515625 -2.078125 -4.40625zm23.503906 5.59375l0 -17.1875l5.1875 0l3.125 11.71875l3.078125 -11.71875l5.203125 0l0 17.1875l-3.21875 0l0 -13.53125l-3.421875 13.53125l-3.328125 0l-3.40625 -13.53125l0 13.53125l-3.21875 0zm19.929688 0l0 -17.1875l3.46875 0l0 17.1875l-3.46875 0zm17.761719 -6.3125l3.375 1.0625q-0.78125 2.8125 -2.578125 4.1875q-1.796875 1.359375 -4.5625 1.359375q-3.421875 0 -5.625 -2.34375q-2.203125 -2.34375 -2.203125 -6.390625q0 -4.296875 2.203125 -6.65625q2.21875 -2.375 5.828125 -2.375q3.15625 0 5.125 1.859375q1.171875 1.09375 1.765625 3.15625l-3.4375 0.828125q-0.3125 -1.34375 -1.28125 -2.109375q-0.953125 -0.78125 -2.34375 -0.78125q-1.90625 0 -3.09375 1.375q-1.1875 1.375 -1.1875 4.4375q0 3.265625 1.171875 4.65625q1.171875 1.375 3.046875 1.375q1.375 0 2.375 -0.875q1.0 -0.890625 1.421875 -2.765625zm6.3632812 6.3125l0 -17.1875l7.296875 0q2.75 0 4.0 0.46875q1.25 0.46875 2.0 1.65625q0.75 1.171875 0.75 2.703125q0 1.921875 -1.140625 3.1875q-1.140625 1.265625 -3.390625 1.59375q1.125 0.65625 1.84375 1.4375q0.734375 0.78125 1.984375 2.78125l2.09375 3.359375l-4.140625 0l-2.515625 -3.734375q-1.328125 -2.015625 -1.828125 -2.53125q-0.484375 -0.515625 -1.046875 -0.703125q-0.546875 -0.203125 -1.734375 -0.203125l-0.703125 0l0 7.171875l-3.46875 0zm3.46875 -9.921875l2.5625 0q2.5 0 3.109375 -0.203125q0.625 -0.21875 0.96875 -0.734375q0.359375 -0.515625 0.359375 -1.28125q0 -0.875 -0.46875 -1.40625q-0.453125 -0.53125 -1.296875 -0.671875q-0.421875 -0.0625 -2.53125 -0.0625l-2.703125 0l0 4.359375zm13.144531 1.4375q0 -2.625 0.78125 -4.40625q0.59375 -1.3125 1.59375 -2.359375q1.015625 -1.046875 2.234375 -1.546875q1.59375 -0.671875 3.703125 -0.671875q3.796875 0 6.0625 2.359375q2.28125 2.34375 2.28125 6.546875q0 4.15625 -2.265625 6.515625q-2.25 2.34375 -6.03125 2.34375q-3.84375 0 -6.109375 -2.34375q-2.25 -2.34375 -2.25 -6.4375zm3.578125 -0.125q0 2.921875 1.34375 4.4375q1.34375 1.5 3.421875 1.5q2.078125 0 3.40625 -1.484375q1.328125 -1.5 1.328125 -4.5q0 -2.953125 -1.296875 -4.40625q-1.296875 -1.453125 -3.4375 -1.453125q-2.140625 0 -3.453125 1.484375q-1.3125 1.46875 -1.3125 4.421875zm14.917969 3.015625l3.375 -0.328125q0.296875 1.703125 1.21875 2.5q0.9375 0.796875 2.53125 0.796875q1.671875 0 2.515625 -0.703125q0.859375 -0.71875 0.859375 -1.671875q0 -0.609375 -0.359375 -1.03125q-0.359375 -0.421875 -1.25 -0.75q-0.609375 -0.203125 -2.78125 -0.75q-2.78125 -0.6875 -3.90625 -1.6875q-1.59375 -1.421875 -1.59375 -3.46875q0 -1.3125 0.75 -2.453125q0.75 -1.140625 2.140625 -1.734375q1.40625 -0.59375 3.390625 -0.59375q3.234375 0 4.859375 1.421875q1.640625 1.40625 1.71875 3.78125l-3.46875 0.140625q-0.21875 -1.3125 -0.953125 -1.890625q-0.734375 -0.59375 -2.203125 -0.59375q-1.5 0 -2.359375 0.625q-0.546875 0.40625 -0.546875 1.0625q0 0.609375 0.515625 1.046875q0.65625 0.546875 3.1875 1.15625q2.53125 0.59375 3.734375 1.234375q1.21875 0.640625 1.90625 1.75q0.6875 1.09375 0.6875 2.734375q0 1.46875 -0.828125 2.765625q-0.8125 1.28125 -2.3125 1.921875q-1.5 0.625 -3.75 0.625q-3.25 0 -5.0 -1.5q-1.75 -1.515625 -2.078125 -4.40625zm16.882812 5.59375l0 -17.1875l12.734375 0l0 2.90625l-9.265625 0l0 3.8125l8.625 0l0 2.890625l-8.625 0l0 4.6875l9.59375 0l0 2.890625l-13.0625 0zm16.023438 0l0 -17.1875l7.296875 0q2.75 0 4.0 0.46875q1.25 0.46875 2.0 1.65625q0.75 1.171875 0.75 2.703125q0 1.921875 -1.140625 3.1875q-1.140625 1.265625 -3.390625 1.59375q1.125 0.65625 1.84375 1.4375q0.734375 0.78125 1.984375 2.78125l2.09375 3.359375l-4.140625 0l-2.515625 -3.734375q-1.328125 -2.015625 -1.828125 -2.53125q-0.484375 -0.515625 -1.046875 -0.703125q-0.546875 -0.203125 -1.734375 -0.203125l-0.703125 0l0 7.171875l-3.46875 0zm3.46875 -9.921875l2.5625 0q2.5 0 3.109375 -0.203125q0.625 -0.21875 0.96875 -0.734375q0.359375 -0.515625 0.359375 -1.28125q0 -0.875 -0.46875 -1.40625q-0.453125 -0.53125 -1.296875 -0.671875q-0.421875 -0.0625 -2.53125 -0.0625l-2.703125 0l0 4.359375zm17.789062 9.921875l-6.140625 -17.1875l3.765625 0l4.34375 12.71875l4.21875 -12.71875l3.671875 0l-6.15625 17.1875l-3.703125 0zm11.5234375 0l0 -17.1875l3.46875 0l0 17.1875l-3.46875 0zm17.761719 -6.3125l3.375 1.0625q-0.78125 2.8125 -2.578125 4.1875q-1.796875 1.359375 -4.5625 1.359375q-3.421875 0 -5.625 -2.34375q-2.203125 -2.34375 -2.203125 -6.390625q0 -4.296875 2.203125 -6.65625q2.21875 -2.375 5.828125 -2.375q3.15625 0 5.125 1.859375q1.171875 1.09375 1.765625 3.15625l-3.4375 0.828125q-0.3125 -1.34375 -1.28125 -2.109375q-0.953125 -0.78125 -2.34375 -0.78125q-1.90625 0 -3.09375 1.375q-1.1875 1.375 -1.1875 4.4375q0 3.265625 1.171875 4.65625q1.171875 1.375 3.046875 1.375q1.375 0 2.375 -0.875q1.0 -0.890625 1.421875 -2.765625zm6.3476562 6.3125l0 -17.1875l12.734375 0l0 2.90625l-9.265625 0l0 3.8125l8.625 0l0 2.890625l-8.625 0l0 4.6875l9.59375 0l0 2.890625l-13.0625 0z" fill-rule="nonzero"/><path fill="#000000" fill-opacity="0.0" d="m51.989502 188.5328l309.44882 0l0 230.11023l-309.44882 0z" fill-rule="evenodd"/><path stroke="#000000" stroke-width="1.0" stroke-linejoin="round" stroke-linecap="butt" d="m51.989502 188.5328l309.44882 0l0 230.11023l-309.44882 0z" fill-rule="evenodd"/><path fill="#000000" fill-opacity="0.0" d="m72.908134 219.08661l269.35434 0l0 53.7323l-269.35434 0z" fill-rule="evenodd"/><path stroke="#000000" stroke-width="1.0" stroke-linejoin="round" stroke-linecap="butt" d="m72.908134 219.08661l269.35434 0l0 53.7323l-269.35434 0z" fill-rule="evenodd"/><path fill="#000000" d="m192.51883 252.87276l5.125 -13.359375l1.90625 0l5.46875 13.359375l-2.015625 0l-1.546875 -4.046875l-5.59375 0l-1.46875 4.046875l-1.875 0zm3.859375 -5.484375l4.53125 0l-1.40625 -3.703125q-0.625 -1.6875 -0.9375 -2.765625q-0.265625 1.28125 -0.71875 2.546875l-1.46875 3.921875zm10.052948 5.484375l0 -13.359375l5.046875 0q1.328125 0 2.03125 0.125q0.96875 0.171875 1.640625 0.640625q0.671875 0.453125 1.078125 1.28125q0.40625 0.828125 0.40625 1.828125q0 1.703125 -1.09375 2.890625q-1.078125 1.171875 -3.921875 1.171875l-3.421875 0l0 5.421875l-1.765625 0zm1.765625 -7.0l3.453125 0q1.71875 0 2.4375 -0.640625q0.71875 -0.640625 0.71875 -1.796875q0 -0.84375 -0.421875 -1.4375q-0.421875 -0.59375 -1.125 -0.78125q-0.4375 -0.125 -1.640625 -0.125l-3.421875 0l0 4.78125zm10.974823 7.0l0 -13.359375l1.765625 0l0 13.359375l-1.765625 0z" fill-rule="nonzero"/><path fill="#d9ead3" d="m268.33203 382.91077l16.559052 -66.23624l33.118103 0l16.559052 66.23624z" fill-rule="evenodd"/><path stroke="#000000" stroke-width="1.0" stroke-linejoin="round" stroke-linecap="butt" d="m268.33203 382.91077l16.559052 -66.23624l33.118103 0l16.559052 66.23624z" fill-rule="evenodd"/><path fill="#f4cccc" d="m173.5958 382.91077l33.11812 -66.23624l33.118103 66.23624z" fill-rule="evenodd"/><path stroke="#000000" stroke-width="1.0" stroke-linejoin="round" stroke-linecap="butt" d="m173.5958 382.91077l33.11812 -66.23624l33.118103 66.23624z" fill-rule="evenodd"/><path fill="#f4cccc" d="m78.85958 349.79266l0 0c0 -18.29065 14.827484 -33.118134 33.11811 -33.118134l0 0c8.78347 0 17.207184 3.4892273 23.418045 9.700073c6.210846 6.210846 9.700058 14.6345825 9.700058 23.41806l0 0c0 18.290619 -14.827484 33.118103 -33.118103 33.118103l0 0c-18.290627 0 -33.11811 -14.827484 -33.11811 -33.118103z" fill-rule="evenodd"/><path stroke="#000000" stroke-width="1.0" stroke-linejoin="round" stroke-linecap="butt" d="m78.85958 349.79266l0 0c0 -18.29065 14.827484 -33.118134 33.11811 -33.118134l0 0c8.78347 0 17.207184 3.4892273 23.418045 9.700073c6.210846 6.210846 9.700058 14.6345825 9.700058 23.41806l0 0c0 18.290619 -14.827484 33.118103 -33.118103 33.118103l0 0c-18.290627 0 -33.11811 -14.827484 -33.11811 -33.118103z" fill-rule="evenodd"/><path fill="#000000" fill-opacity="0.0" d="m72.908134 485.88846l0 0c0 5.3554077 60.29702 9.696838 134.67715 9.696838c74.38016 0 134.67719 -4.3414307 134.67719 -9.696838l0 58.18112c0 5.3554077 -60.297028 9.696838 -134.67719 9.696838c-74.38014 0 -134.67715 -4.3414307 -134.67715 -9.696838z" fill-rule="evenodd"/><path fill="#000000" fill-opacity="0.0" d="m72.908134 485.88846l0 0c0 -5.355438 60.29702 -9.696869 134.67715 -9.696869c74.38016 0 134.67719 4.3414307 134.67719 9.696869l0 0c0 5.3554077 -60.297028 9.696838 -134.67719 9.696838c-74.38014 0 -134.67715 -4.3414307 -134.67715 -9.696838z" fill-rule="evenodd"/><path fill="#000000" fill-opacity="0.0" d="m342.26248 485.88846l0 0c0 5.3554077 -60.297028 9.696838 -134.67719 9.696838c-74.38014 0 -134.67715 -4.3414307 -134.67715 -9.696838l0 0c0 -5.355438 60.29702 -9.696869 134.67715 -9.696869c74.38016 0 134.67719 4.3414307 134.67719 9.696869l0 58.18112c0 5.3554077 -60.297028 9.696838 -134.67719 9.696838c-74.38014 0 -134.67715 -4.3414307 -134.67715 -9.696838l0 -58.18112" fill-rule="evenodd"/><path fill="#ffffff" fill-opacity="0.4" d="m72.908134 485.88846l0 0c0 -5.355438 60.29702 -9.696869 134.67715 -9.696869c74.38016 0 134.67719 4.3414307 134.67719 9.696869l0 0c0 5.3554077 -60.297028 9.696838 -134.67719 9.696838c-74.38014 0 -134.67715 -4.3414307 -134.67715 -9.696838z" fill-rule="evenodd"/><path stroke="#000000" stroke-width="1.0" stroke-linejoin="round" stroke-linecap="butt" d="m342.26248 485.88846l0 0c0 5.3554077 -60.297028 9.696838 -134.67719 9.696838c-74.38014 0 -134.67715 -4.3414307 -134.67715 -9.696838l0 0c0 -5.355438 60.29702 -9.696869 134.67715 -9.696869c74.38016 0 134.67719 4.3414307 134.67719 9.696869l0 58.18112c0 5.3554077 -60.297028 9.696838 -134.67719 9.696838c-74.38014 0 -134.67715 -4.3414307 -134.67715 -9.696838l0 -58.18112" fill-rule="evenodd"/><path fill="#000000" d="m160.64304 526.74744l0 -13.359375l4.609375 0q1.546875 0 2.375 0.203125q1.140625 0.25 1.953125 0.953125q1.0625 0.890625 1.578125 2.28125q0.53125 1.390625 0.53125 3.171875q0 1.515625 -0.359375 2.703125q-0.359375 1.171875 -0.921875 1.9375q-0.546875 0.765625 -1.203125 1.21875q-0.65625 0.4375 -1.59375 0.671875q-0.9375 0.21875 -2.140625 0.21875l-4.828125 0zm1.765625 -1.578125l2.859375 0q1.3125 0 2.0625 -0.234375q0.75 -0.25 1.203125 -0.703125q0.625 -0.625 0.96875 -1.6875q0.359375 -1.0625 0.359375 -2.578125q0 -2.09375 -0.6875 -3.21875q-0.6875 -1.125 -1.671875 -1.5q-0.703125 -0.28125 -2.28125 -0.28125l-2.8125 0l0 10.203125zm10.238571 1.578125l5.125 -13.359375l1.90625 0l5.46875 13.359375l-2.015625 0l-1.546875 -4.046875l-5.59375 0l-1.46875 4.046875l-1.875 0zm3.859375 -5.484375l4.53125 0l-1.40625 -3.703125q-0.625 -1.6875 -0.9375 -2.765625q-0.265625 1.28125 -0.71875 2.546875l-1.46875 3.921875zm12.073776 5.484375l0 -11.78125l-4.40625 0l0 -1.578125l10.578125 0l0 1.578125l-4.40625 0l0 11.78125l-1.765625 0zm5.135559 0l5.125 -13.359375l1.90625 0l5.46875 13.359375l-2.015625 0l-1.546875 -4.046875l-5.59375 0l-1.46875 4.046875l-1.875 0zm3.859375 -5.484375l4.53125 0l-1.40625 -3.703125q-0.625 -1.6875 -0.9375 -2.765625q-0.265625 1.28125 -0.71875 2.546875l-1.46875 3.921875zm9.974823 5.484375l0 -13.359375l5.015625 0q1.53125 0 2.453125 0.40625q0.921875 0.40625 1.4375 1.25q0.53125 0.84375 0.53125 1.765625q0 0.859375 -0.46875 1.625q-0.453125 0.75 -1.390625 1.203125q1.203125 0.359375 1.859375 1.21875q0.65625 0.859375 0.65625 2.015625q0 0.9375 -0.40625 1.75q-0.390625 0.796875 -0.984375 1.234375q-0.578125 0.4375 -1.453125 0.671875q-0.875 0.21875 -2.15625 0.21875l-5.09375 0zm1.78125 -7.75l2.875 0q1.1875 0 1.6875 -0.140625q0.671875 -0.203125 1.015625 -0.671875q0.34375 -0.46875 0.34375 -1.171875q0 -0.65625 -0.328125 -1.15625q-0.3125 -0.515625 -0.90625 -0.703125q-0.59375 -0.1875 -2.03125 -0.1875l-2.65625 0l0 4.03125zm0 6.171875l3.3125 0q0.859375 0 1.203125 -0.0625q0.609375 -0.109375 1.015625 -0.359375q0.421875 -0.265625 0.6875 -0.75q0.265625 -0.484375 0.265625 -1.125q0 -0.75 -0.390625 -1.296875q-0.375 -0.546875 -1.0625 -0.765625q-0.671875 -0.234375 -1.953125 -0.234375l-3.078125 0l0 4.59375zm9.271698 1.578125l5.125 -13.359375l1.90625 0l5.46875 13.359375l-2.015625 0l-1.546875 -4.046875l-5.59375 0l-1.46875 4.046875l-1.875 0zm3.859375 -5.484375l4.53125 0l-1.40625 -3.703125q-0.625 -1.6875 -0.9375 -2.765625q-0.265625 1.28125 -0.71875 2.546875l-1.46875 3.921875zm9.459198 1.1875l1.65625 -0.140625q0.125 1.0 0.546875 1.640625q0.4375 0.640625 1.34375 1.046875q0.921875 0.390625 2.0625 0.390625q1.0 0 1.78125 -0.296875q0.78125 -0.296875 1.15625 -0.8125q0.375 -0.53125 0.375 -1.15625q0 -0.625 -0.375 -1.09375q-0.359375 -0.46875 -1.1875 -0.796875q-0.546875 -0.203125 -2.390625 -0.640625q-1.828125 -0.453125 -2.5625 -0.84375q-0.96875 -0.5 -1.4375 -1.234375q-0.46875 -0.75 -0.46875 -1.671875q0 -1.0 0.578125 -1.875q0.578125 -0.890625 1.671875 -1.34375q1.109375 -0.453125 2.453125 -0.453125q1.484375 0 2.609375 0.484375q1.140625 0.46875 1.75 1.40625q0.609375 0.921875 0.65625 2.09375l-1.6875 0.125q-0.140625 -1.265625 -0.9375 -1.90625q-0.78125 -0.65625 -2.3125 -0.65625q-1.609375 0 -2.34375 0.59375q-0.734375 0.59375 -0.734375 1.421875q0 0.71875 0.53125 1.171875q0.5 0.46875 2.65625 0.96875q2.15625 0.484375 2.953125 0.84375q1.171875 0.53125 1.71875 1.359375q0.5625 0.828125 0.5625 1.90625q0 1.0625 -0.609375 2.015625q-0.609375 0.9375 -1.75 1.46875q-1.140625 0.515625 -2.578125 0.515625q-1.8125 0 -3.046875 -0.53125q-1.21875 -0.53125 -1.921875 -1.59375q-0.6875 -1.0625 -0.71875 -2.40625zm13.068573 4.296875l0 -13.359375l9.65625 0l0 1.578125l-7.875 0l0 4.09375l7.375 0l0 1.5625l-7.375 0l0 4.546875l8.1875 0l0 1.578125l-9.96875 0z" fill-rule="nonzero"/><path fill="#000000" fill-opacity="0.0" d="m111.97769 382.91077l0 97.63779" fill-rule="evenodd"/><path stroke="#980000" stroke-width="2.0" stroke-linejoin="round" stroke-linecap="butt" d="m111.97769 382.91077l0 85.63779" fill-rule="evenodd"/><path fill="#980000" stroke="#980000" stroke-width="2.0" stroke-linecap="butt" d="m108.674225 468.54855l3.3034668 9.076202l3.3034668 -9.076202z" fill-rule="evenodd"/><path fill="#000000" fill-opacity="0.0" d="m206.71391 382.91077l0.8818817 93.29132" fill-rule="evenodd"/><path stroke="#980000" stroke-width="2.0" stroke-linejoin="round" stroke-linecap="butt" d="m206.71391 382.91077l0.7684479 81.29187" fill-rule="evenodd"/><path fill="#980000" stroke="#980000" stroke-width="2.0" stroke-linecap="butt" d="m204.17905 464.23386l3.3891144 9.044556l3.2175293 -9.106995z" fill-rule="evenodd"/><path fill="#000000" fill-opacity="0.0" d="m111.97769 273.08398l0 43.590546" fill-rule="evenodd"/><path stroke="#980000" stroke-width="2.0" stroke-linejoin="round" stroke-linecap="butt" d="m111.97769 273.08398l0 31.590546" fill-rule="evenodd"/><path fill="#980000" stroke="#980000" stroke-width="2.0" stroke-linecap="butt" d="m108.674225 304.67453l3.3034668 9.076202l3.3034668 -9.076202z" fill-rule="evenodd"/><path fill="#000000" fill-opacity="0.0" d="m301.45013 382.91077l2.551178 97.63779" fill-rule="evenodd"/><path stroke="#3c78d8" stroke-width="2.0" stroke-linejoin="round" stroke-linecap="butt" d="m301.45013 382.91077l2.237732 85.64188" fill-rule="evenodd"/><path fill="#3c78d8" stroke="#3c78d8" stroke-width="2.0" stroke-linecap="butt" d="m300.38553 468.63895l3.5394287 8.986816l3.0652466 -9.159393z" fill-rule="evenodd"/><path fill="#000000" fill-opacity="0.0" d="m301.45145 142.87138l0 74.897644" fill-rule="evenodd"/><path stroke="#3c78d8" stroke-width="2.0" stroke-linejoin="round" stroke-linecap="butt" d="m301.45145 142.87138l0 62.897644" fill-rule="evenodd"/><path fill="#3c78d8" stroke="#3c78d8" stroke-width="2.0" stroke-linecap="butt" d="m298.14798 205.76903l3.3034668 9.076202l3.3034668 -9.076202z" fill-rule="evenodd"/><path fill="#000000" fill-opacity="0.0" d="m207.5853 272.8189l-72.188965 53.543304" fill-rule="evenodd"/><path stroke="#980000" stroke-width="2.0" stroke-linejoin="round" stroke-linecap="butt" d="m207.5853 272.8189l-62.55075 46.39453" fill-rule="evenodd"/><path fill="#980000" stroke="#980000" stroke-width="2.0" stroke-linecap="butt" d="m143.06656 316.56015l-5.321884 8.060242l9.257843 -2.753662z" fill-rule="evenodd"/><path fill="#000000" fill-opacity="0.0" d="m301.45013 272.2021l0 44.472443" fill-rule="evenodd"/><path stroke="#3c78d8" stroke-width="2.0" stroke-linejoin="round" stroke-linecap="butt" d="m301.45013 272.2021l0 32.472443" fill-rule="evenodd"/><path fill="#3c78d8" stroke="#3c78d8" stroke-width="2.0" stroke-linecap="butt" d="m298.14667 304.67453l3.3034668 9.076202l3.3034668 -9.076202z" fill-rule="evenodd"/><path fill="#000000" fill-opacity="0.0" d="m206.28609 145.01312l0 74.897644" fill-rule="evenodd"/><path stroke="#980000" stroke-width="2.0" stroke-linejoin="round" stroke-linecap="butt" d="m206.28609 145.01312l0 62.897644" fill-rule="evenodd"/><path fill="#980000" stroke="#980000" stroke-width="2.0" stroke-linecap="butt" d="m202.98262 207.91077l3.3034668 9.076187l3.3034668 -9.076187z" fill-rule="evenodd"/><path fill="#000000" fill-opacity="0.0" d="m113.44357 145.02887l0 74.897644" fill-rule="evenodd"/><path stroke="#980000" stroke-width="2.0" stroke-linejoin="round" stroke-linecap="butt" d="m113.44357 145.02887l0 62.897644" fill-rule="evenodd"/><path fill="#980000" stroke="#980000" stroke-width="2.0" stroke-linecap="butt" d="m110.14011 207.92651l3.3034668 9.076187l3.3034592 -9.076187z" fill-rule="evenodd"/><path fill="#000000" fill-opacity="0.0" d="m165.75066 115.9042l81.07086 0l0 31.244102l-81.07086 0z" fill-rule="evenodd"/><path fill="#000000" d="m192.80952 125.93312l1.515625 0l0 6.609375q0 1.734375 -0.390625 2.75q-0.390625 1.015625 -1.40625 1.65625q-1.015625 0.640625 -2.671875 0.640625q-1.609375 0 -2.640625 -0.5625q-1.015625 -0.5625 -1.453125 -1.609375q-0.4375 -1.046875 -0.4375 -2.875l0 -6.609375l1.515625 0l0 6.609375q0 1.484375 0.265625 2.203125q0.28125 0.703125 0.953125 1.09375q0.6875 0.375 1.65625 0.375q1.671875 0 2.375 -0.75q0.71875 -0.765625 0.71875 -2.921875l0 -6.609375zm3.5234375 7.765625l1.4375 -0.125q0.09375 0.859375 0.46875 1.421875q0.375 0.546875 1.15625 0.890625q0.78125 0.328125 1.75 0.328125q0.875 0 1.53125 -0.25q0.671875 -0.265625 0.984375 -0.703125q0.328125 -0.453125 0.328125 -0.984375q0 -0.546875 -0.3125 -0.9375q-0.3125 -0.40625 -1.03125 -0.6875q-0.453125 -0.171875 -2.03125 -0.546875q-1.578125 -0.390625 -2.21875 -0.71875q-0.8125 -0.4375 -1.21875 -1.0625q-0.40625 -0.640625 -0.40625 -1.4375q0 -0.859375 0.484375 -1.609375q0.5 -0.765625 1.4375 -1.15625q0.953125 -0.390625 2.109375 -0.390625q1.28125 0 2.25 0.421875q0.96875 0.40625 1.484375 1.203125q0.53125 0.796875 0.578125 1.796875l-1.453125 0.109375q-0.125 -1.078125 -0.796875 -1.625q-0.671875 -0.5625 -2.0 -0.5625q-1.375 0 -2.0 0.5q-0.625 0.5 -0.625 1.21875q0 0.609375 0.4375 1.015625q0.4375 0.390625 2.28125 0.8125q1.859375 0.421875 2.546875 0.734375q1.0 0.453125 1.46875 1.171875q0.484375 0.703125 0.484375 1.625q0 0.90625 -0.53125 1.71875q-0.515625 0.8125 -1.5 1.265625q-0.984375 0.453125 -2.203125 0.453125q-1.5625 0 -2.609375 -0.453125q-1.046875 -0.46875 -1.65625 -1.375q-0.59375 -0.90625 -0.625 -2.0625zm11.21875 3.6875l0 -11.453125l8.28125 0l0 1.34375l-6.765625 0l0 3.515625l6.34375 0l0 1.34375l-6.34375 0l0 3.890625l7.03125 0l0 1.359375l-8.546875 0zm10.671875 0l0 -11.453125l5.078125 0q1.53125 0 2.328125 0.3125q0.796875 0.296875 1.265625 1.078125q0.484375 0.78125 0.484375 1.734375q0 1.21875 -0.796875 2.0625q-0.78125 0.828125 -2.4375 1.046875q0.609375 0.296875 0.921875 0.578125q0.65625 0.609375 1.25 1.515625l2.0 3.125l-1.90625 0l-1.515625 -2.390625q-0.671875 -1.03125 -1.109375 -1.578125q-0.421875 -0.546875 -0.765625 -0.765625q-0.328125 -0.21875 -0.6875 -0.296875q-0.25 -0.0625 -0.84375 -0.0625l-1.75 0l0 5.09375l-1.515625 0zm1.515625 -6.40625l3.25 0q1.046875 0 1.625 -0.203125q0.59375 -0.21875 0.890625 -0.6875q0.3125 -0.484375 0.3125 -1.03125q0 -0.8125 -0.59375 -1.328125q-0.59375 -0.53125 -1.859375 -0.53125l-3.625 0l0 3.78125z" fill-rule="nonzero"/><path fill="#000000" fill-opacity="0.0" d="m258.59317 115.902885l81.07086 0l0 31.244102l-81.07086 0z" fill-rule="evenodd"/><path fill="#000000" d="m285.65204 125.93181l1.515625 0l0 6.609375q0 1.734375 -0.390625 2.75q-0.390625 1.015625 -1.40625 1.65625q-1.015625 0.640625 -2.671875 0.640625q-1.609375 0 -2.640625 -0.5625q-1.015625 -0.5625 -1.453125 -1.609375q-0.4375 -1.046875 -0.4375 -2.875l0 -6.609375l1.515625 0l0 6.609375q0 1.484375 0.265625 2.203125q0.28125 0.703125 0.953125 1.09375q0.6875 0.375 1.65625 0.375q1.671875 0 2.375 -0.75q0.71875 -0.765625 0.71875 -2.921875l0 -6.609375zm3.5234375 7.765625l1.4375 -0.125q0.09375 0.859375 0.46875 1.421875q0.375 0.546875 1.15625 0.890625q0.78125 0.328125 1.75 0.328125q0.875 0 1.53125 -0.25q0.671875 -0.265625 0.984375 -0.703125q0.328125 -0.453125 0.328125 -0.984375q0 -0.546875 -0.3125 -0.9375q-0.3125 -0.40625 -1.03125 -0.6875q-0.453125 -0.171875 -2.03125 -0.546875q-1.578125 -0.390625 -2.21875 -0.71875q-0.8125 -0.4375 -1.21875 -1.0625q-0.40625 -0.640625 -0.40625 -1.4375q0 -0.859375 0.484375 -1.609375q0.5 -0.765625 1.4375 -1.15625q0.953125 -0.390625 2.109375 -0.390625q1.28125 0 2.25 0.421875q0.96875 0.40625 1.484375 1.203125q0.53125 0.796875 0.578125 1.796875l-1.453125 0.109375q-0.125 -1.078125 -0.796875 -1.625q-0.671875 -0.5625 -2.0 -0.5625q-1.375 0 -2.0 0.5q-0.625 0.5 -0.625 1.21875q0 0.609375 0.4375 1.015625q0.4375 0.390625 2.28125 0.8125q1.859375 0.421875 2.546875 0.734375q1.0 0.453125 1.46875 1.171875q0.484375 0.703125 0.484375 1.625q0 0.90625 -0.53125 1.71875q-0.515625 0.8125 -1.5 1.265625q-0.984375 0.453125 -2.203125 0.453125q-1.5625 0 -2.609375 -0.453125q-1.046875 -0.46875 -1.65625 -1.375q-0.59375 -0.90625 -0.625 -2.0625zm11.21875 3.6875l0 -11.453125l8.28125 0l0 1.34375l-6.765625 0l0 3.515625l6.34375 0l0 1.34375l-6.34375 0l0 3.890625l7.03125 0l0 1.359375l-8.546875 0zm10.671875 0l0 -11.453125l5.078125 0q1.53125 0 2.328125 0.3125q0.796875 0.296875 1.265625 1.078125q0.484375 0.78125 0.484375 1.734375q0 1.21875 -0.796875 2.0625q-0.78125 0.828125 -2.4375 1.046875q0.609375 0.296875 0.921875 0.578125q0.65625 0.609375 1.25 1.515625l2.0 3.125l-1.90625 0l-1.515625 -2.390625q-0.671875 -1.03125 -1.109375 -1.578125q-0.421875 -0.546875 -0.765625 -0.765625q-0.328125 -0.21875 -0.6875 -0.296875q-0.25 -0.0625 -0.84375 -0.0625l-1.75 0l0 5.09375l-1.515625 0zm1.515625 -6.40625l3.25 0q1.046875 0 1.625 -0.203125q0.59375 -0.21875 0.890625 -0.6875q0.3125 -0.484375 0.3125 -1.03125q0 -0.8125 -0.59375 -1.328125q-0.59375 -0.53125 -1.859375 -0.53125l-3.625 0l0 3.78125z" fill-rule="nonzero"/><path fill="#000000" fill-opacity="0.0" d="m420.4672 115.468506l81.07086 0l0 31.244095l-81.07086 0z" fill-rule="evenodd"/><path fill="#000000" d="m447.52606 125.49743l1.515625 0l0 6.6093674q0 1.734375 -0.390625 2.75q-0.390625 1.015625 -1.40625 1.65625q-1.015625 0.640625 -2.671875 0.640625q-1.609375 0 -2.640625 -0.5625q-1.015625 -0.5625 -1.453125 -1.609375q-0.4375 -1.046875 -0.4375 -2.875l0 -6.6093674l1.515625 0l0 6.6093674q0 1.484375 0.265625 2.203125q0.28125 0.703125 0.953125 1.09375q0.6875 0.375 1.65625 0.375q1.671875 0 2.375 -0.75q0.71875 -0.765625 0.71875 -2.921875l0 -6.6093674zm3.5234375 7.7656174l1.4375 -0.125q0.09375 0.859375 0.46875 1.421875q0.375 0.546875 1.15625 0.890625q0.78125 0.328125 1.75 0.328125q0.875 0 1.53125 -0.25q0.671875 -0.265625 0.984375 -0.703125q0.328125 -0.453125 0.328125 -0.984375q0 -0.546875 -0.3125 -0.9375q-0.3125 -0.40625 -1.03125 -0.6875q-0.453125 -0.171875 -2.03125 -0.546875q-1.578125 -0.390625 -2.21875 -0.71875q-0.8125 -0.4375 -1.21875 -1.0625q-0.40625 -0.640625 -0.40625 -1.4375q0 -0.8593674 0.484375 -1.6093674q0.5 -0.765625 1.4375 -1.15625q0.953125 -0.390625 2.109375 -0.390625q1.28125 0 2.25 0.421875q0.96875 0.40625 1.484375 1.203125q0.53125 0.796875 0.578125 1.7968674l-1.453125 0.109375q-0.125 -1.0781174 -0.796875 -1.6249924q-0.671875 -0.5625 -2.0 -0.5625q-1.375 0 -2.0 0.5q-0.625 0.5 -0.625 1.2187424q0 0.609375 0.4375 1.015625q0.4375 0.390625 2.28125 0.8125q1.859375 0.421875 2.546875 0.734375q1.0 0.453125 1.46875 1.171875q0.484375 0.703125 0.484375 1.625q0 0.90625 -0.53125 1.71875q-0.515625 0.8125 -1.5 1.265625q-0.984375 0.453125 -2.203125 0.453125q-1.5625 0 -2.609375 -0.453125q-1.046875 -0.46875 -1.65625 -1.375q-0.59375 -0.90625 -0.625 -2.0625zm11.21875 3.6875l0 -11.453117l8.28125 0l0 1.34375l-6.765625 0l0 3.5156174l6.34375 0l0 1.34375l-6.34375 0l0 3.890625l7.03125 0l0 1.359375l-8.546875 0zm10.671875 0l0 -11.453117l5.078125 0q1.53125 0 2.328125 0.3125q0.796875 0.296875 1.265625 1.078125q0.484375 0.78125 0.484375 1.7343674q0 1.21875 -0.796875 2.0625q-0.78125 0.828125 -2.4375 1.046875q0.609375 0.296875 0.921875 0.578125q0.65625 0.609375 1.25 1.515625l2.0 3.125l-1.90625 0l-1.515625 -2.390625q-0.671875 -1.03125 -1.109375 -1.578125q-0.421875 -0.546875 -0.765625 -0.765625q-0.328125 -0.21875 -0.6875 -0.296875q-0.25 -0.0625 -0.84375 -0.0625l-1.75 0l0 5.09375l-1.515625 0zm1.515625 -6.40625l3.25 0q1.046875 0 1.625 -0.203125q0.59375 -0.21875 0.890625 -0.6875q0.3125 -0.484375 0.3125 -1.03125q0 -0.8124924 -0.59375 -1.3281174q-0.59375 -0.53125 -1.859375 -0.53125l-3.625 0l0 3.7812424z" fill-rule="nonzero"/><path fill="#000000" fill-opacity="0.0" d="m412.52493 188.5328l97.7323 0l0 230.11023l-97.7323 0z" fill-rule="evenodd"/><path stroke="#000000" stroke-width="1.0" stroke-linejoin="round" stroke-linecap="butt" d="m412.52493 188.5328l97.7323 0l0 230.11023l-97.7323 0z" fill-rule="evenodd"/><path fill="#000000" fill-opacity="0.0" d="m430.8609 219.08661l60.283447 0l0 53.7323l-60.283447 0z" fill-rule="evenodd"/><path stroke="#000000" stroke-width="1.0" stroke-linejoin="round" stroke-linecap="butt" d="m430.8609 219.08661l60.283447 0l0 53.7323l-60.283447 0z" fill-rule="evenodd"/><path fill="#000000" d="m445.93616 252.87276l5.125 -13.359375l1.90625 0l5.46875 13.359375l-2.015625 0l-1.546875 -4.046875l-5.59375 0l-1.46875 4.046875l-1.875 0zm3.859375 -5.484375l4.53125 0l-1.40625 -3.703125q-0.625 -1.6875 -0.9375 -2.765625q-0.265625 1.28125 -0.71875 2.546875l-1.46875 3.921875zm10.052948 5.484375l0 -13.359375l5.046875 0q1.328125 0 2.03125 0.125q0.96875 0.171875 1.640625 0.640625q0.671875 0.453125 1.078125 1.28125q0.40625 0.828125 0.40625 1.828125q0 1.703125 -1.09375 2.890625q-1.078125 1.171875 -3.921875 1.171875l-3.421875 0l0 5.421875l-1.765625 0zm1.765625 -7.0l3.453125 0q1.71875 0 2.4375 -0.640625q0.71875 -0.640625 0.71875 -1.796875q0 -0.84375 -0.421875 -1.4375q-0.421875 -0.59375 -1.125 -0.78125q-0.4375 -0.125 -1.640625 -0.125l-3.421875 0l0 4.78125zm10.974823 7.0l0 -13.359375l1.765625 0l0 13.359375l-1.765625 0z" fill-rule="nonzero"/><path fill="#d9ead3" d="m834.56824 384.2756l16.559082 -66.23624l33.118103 0l16.559021 66.23624z" fill-rule="evenodd"/><path stroke="#000000" stroke-width="1.0" stroke-linejoin="round" stroke-linecap="butt" d="m834.56824 384.2756l16.559082 -66.23624l33.118103 0l16.559021 66.23624z" fill-rule="evenodd"/><path fill="#f4cccc" d="m700.7126 383.0538l33.118103 -66.236206l33.118103 66.236206z" fill-rule="evenodd"/><path stroke="#000000" stroke-width="1.0" stroke-linejoin="round" stroke-linecap="butt" d="m700.7126 383.0538l33.118103 -66.236206l33.118103 66.236206z" fill-rule="evenodd"/><path fill="#f4cccc" d="m430.8596 349.79266l0 0c0 -18.29065 14.827484 -33.118134 33.118103 -33.118134l0 0c8.783478 0 17.207184 3.4892273 23.41803 9.700073c6.210846 6.210846 9.700073 14.6345825 9.700073 23.41806l0 0c0 18.290619 -14.827484 33.118103 -33.118103 33.118103l0 0c-18.290619 0 -33.118103 -14.827484 -33.118103 -33.118103z" fill-rule="evenodd"/><path stroke="#000000" stroke-width="1.0" stroke-linejoin="round" stroke-linecap="butt" d="m430.8596 349.79266l0 0c0 -18.29065 14.827484 -33.118134 33.118103 -33.118134l0 0c8.783478 0 17.207184 3.4892273 23.41803 9.700073c6.210846 6.210846 9.700073 14.6345825 9.700073 23.41806l0 0c0 18.290619 -14.827484 33.118103 -33.118103 33.118103l0 0c-18.290619 0 -33.118103 -14.827484 -33.118103 -33.118103z" fill-rule="evenodd"/><path fill="#000000" fill-opacity="0.0" d="m430.8609 489.35565c0 5.3554077 44.588196 9.696838 99.590515 9.696838c55.00238 0 99.590576 -4.3414307 99.590576 -9.696838l0 58.18109c0 5.3554077 -44.588196 9.696838 -99.590576 9.696838c-55.00232 0 -99.590515 -4.3414307 -99.590515 -9.696838z" fill-rule="evenodd"/><path fill="#000000" fill-opacity="0.0" d="m430.8609 489.35565c0 -5.355438 44.588196 -9.696869 99.590515 -9.696869c55.00238 0 99.590576 4.3414307 99.590576 9.696869l0 0c0 5.3554077 -44.588196 9.696838 -99.590576 9.696838c-55.00232 0 -99.590515 -4.3414307 -99.590515 -9.696838z" fill-rule="evenodd"/><path fill="#000000" fill-opacity="0.0" d="m630.042 489.35565l0 0c0 5.3554077 -44.588196 9.696838 -99.590576 9.696838c-55.00232 0 -99.590515 -4.3414307 -99.590515 -9.696838c0 -5.355438 44.588196 -9.696869 99.590515 -9.696869c55.00238 0 99.590576 4.3414307 99.590576 9.696869l0 58.18109c0 5.3554077 -44.588196 9.696838 -99.590576 9.696838c-55.00232 0 -99.590515 -4.3414307 -99.590515 -9.696838l0 -58.18109" fill-rule="evenodd"/><path fill="#ffffff" fill-opacity="0.4" d="m430.8609 489.35565c0 -5.355438 44.588196 -9.696869 99.590515 -9.696869c55.00238 0 99.590576 4.3414307 99.590576 9.696869l0 0c0 5.3554077 -44.588196 9.696838 -99.590576 9.696838c-55.00232 0 -99.590515 -4.3414307 -99.590515 -9.696838z" fill-rule="evenodd"/><path stroke="#000000" stroke-width="1.0" stroke-linejoin="round" stroke-linecap="butt" d="m630.042 489.35565l0 0c0 5.3554077 -44.588196 9.696838 -99.590576 9.696838c-55.00232 0 -99.590515 -4.3414307 -99.590515 -9.696838c0 -5.355438 44.588196 -9.696869 99.590515 -9.696869c55.00238 0 99.590576 4.3414307 99.590576 9.696869l0 58.18109c0 5.3554077 -44.588196 9.696838 -99.590576 9.696838c-55.00232 0 -99.590515 -4.3414307 -99.590515 -9.696838l0 -58.18109" fill-rule="evenodd"/><path fill="#000000" d="m483.5092 530.2146l0 -13.359375l4.609375 0q1.546875 0 2.375 0.203125q1.140625 0.25 1.953125 0.953125q1.0625 0.890625 1.578125 2.28125q0.53125 1.390625 0.53125 3.171875q0 1.515625 -0.359375 2.703125q-0.359375 1.171875 -0.921875 1.9375q-0.546875 0.765625 -1.203125 1.21875q-0.65625 0.4375 -1.59375 0.671875q-0.9375 0.21875 -2.140625 0.21875l-4.828125 0zm1.765625 -1.578125l2.859375 0q1.3125 0 2.0625 -0.234375q0.75 -0.25 1.203125 -0.703125q0.625 -0.625 0.96875 -1.6875q0.359375 -1.0625 0.359375 -2.578125q0 -2.09375 -0.6875 -3.21875q-0.6875 -1.125 -1.671875 -1.5q-0.703125 -0.28125 -2.28125 -0.28125l-2.8125 0l0 10.203125zm10.238556 1.578125l5.125 -13.359375l1.90625 0l5.46875 13.359375l-2.015625 0l-1.546875 -4.046875l-5.59375 0l-1.46875 4.046875l-1.875 0zm3.859375 -5.484375l4.53125 0l-1.40625 -3.703125q-0.625 -1.6875 -0.9375 -2.765625q-0.265625 1.28125 -0.71875 2.546875l-1.46875 3.921875zm12.0737915 5.484375l0 -11.78125l-4.40625 0l0 -1.578125l10.578125 0l0 1.578125l-4.40625 0l0 11.78125l-1.765625 0zm5.135559 0l5.125 -13.359375l1.90625 0l5.46875 13.359375l-2.015625 0l-1.546875 -4.046875l-5.59375 0l-1.46875 4.046875l-1.875 0zm3.859375 -5.484375l4.53125 0l-1.40625 -3.703125q-0.625 -1.6875 -0.9375 -2.765625q-0.265625 1.28125 -0.71875 2.546875l-1.46875 3.921875zm9.9747925 5.484375l0 -13.359375l5.015625 0q1.53125 0 2.453125 0.40625q0.921875 0.40625 1.4375 1.25q0.53125 0.84375 0.53125 1.765625q0 0.859375 -0.46875 1.625q-0.453125 0.75 -1.390625 1.203125q1.203125 0.359375 1.859375 1.21875q0.65625 0.859375 0.65625 2.015625q0 0.9375 -0.40625 1.75q-0.390625 0.796875 -0.984375 1.234375q-0.578125 0.4375 -1.453125 0.671875q-0.875 0.21875 -2.15625 0.21875l-5.09375 0zm1.78125 -7.75l2.875 0q1.1875 0 1.6875 -0.140625q0.671875 -0.203125 1.015625 -0.671875q0.34375 -0.46875 0.34375 -1.171875q0 -0.65625 -0.328125 -1.15625q-0.3125 -0.515625 -0.90625 -0.703125q-0.59375 -0.1875 -2.03125 -0.1875l-2.65625 0l0 4.03125zm0 6.171875l3.3125 0q0.859375 0 1.203125 -0.0625q0.609375 -0.109375 1.015625 -0.359375q0.421875 -0.265625 0.6875 -0.75q0.265625 -0.484375 0.265625 -1.125q0 -0.75 -0.390625 -1.296875q-0.375 -0.546875 -1.0625 -0.765625q-0.671875 -0.234375 -1.953125 -0.234375l-3.078125 0l0 4.59375zm9.2717285 1.578125l5.125 -13.359375l1.90625 0l5.46875 13.359375l-2.015625 0l-1.546875 -4.046875l-5.59375 0l-1.46875 4.046875l-1.875 0zm3.859375 -5.484375l4.53125 0l-1.40625 -3.703125q-0.625 -1.6875 -0.9375 -2.765625q-0.265625 1.28125 -0.71875 2.546875l-1.46875 3.921875zm9.4591675 1.1875l1.65625 -0.140625q0.125 1.0 0.546875 1.640625q0.4375 0.640625 1.34375 1.046875q0.921875 0.390625 2.0625 0.390625q1.0 0 1.78125 -0.296875q0.78125 -0.296875 1.15625 -0.8125q0.375 -0.53125 0.375 -1.15625q0 -0.625 -0.375 -1.09375q-0.359375 -0.46875 -1.1875 -0.796875q-0.546875 -0.203125 -2.390625 -0.640625q-1.828125 -0.453125 -2.5625 -0.84375q-0.96875 -0.5 -1.4375 -1.234375q-0.46875 -0.75 -0.46875 -1.671875q0 -1.0 0.578125 -1.875q0.578125 -0.890625 1.671875 -1.34375q1.109375 -0.453125 2.453125 -0.453125q1.484375 0 2.609375 0.484375q1.140625 0.46875 1.75 1.40625q0.609375 0.921875 0.65625 2.09375l-1.6875 0.125q-0.140625 -1.265625 -0.9375 -1.90625q-0.78125 -0.65625 -2.3125 -0.65625q-1.609375 0 -2.34375 0.59375q-0.734375 0.59375 -0.734375 1.421875q0 0.71875 0.53125 1.171875q0.5 0.46875 2.65625 0.96875q2.15625 0.484375 2.953125 0.84375q1.171875 0.53125 1.71875 1.359375q0.5625 0.828125 0.5625 1.90625q0 1.0625 -0.609375 2.015625q-0.609375 0.9375 -1.75 1.46875q-1.140625 0.515625 -2.578125 0.515625q-1.8125 0 -3.046875 -0.53125q-1.21875 -0.53125 -1.921875 -1.59375q-0.6875 -1.0625 -0.71875 -2.40625zm13.0686035 4.296875l0 -13.359375l9.65625 0l0 1.578125l-7.875 0l0 4.09375l7.375 0l0 1.5625l-7.375 0l0 4.546875l8.1875 0l0 1.578125l-9.96875 0z" fill-rule="nonzero"/><path fill="#000000" fill-opacity="0.0" d="m463.9777 382.91077l0 99.37009" fill-rule="evenodd"/><path stroke="#980000" stroke-width="2.0" stroke-linejoin="round" stroke-linecap="butt" d="m463.9777 382.91077l0 87.37009" fill-rule="evenodd"/><path fill="#980000" stroke="#980000" stroke-width="2.0" stroke-linecap="butt" d="m460.67422 470.28085l3.3034668 9.076172l3.3034668 -9.076172z" fill-rule="evenodd"/><path fill="#000000" fill-opacity="0.0" d="m733.8307 383.0538l0 96.59842" fill-rule="evenodd"/><path stroke="#980000" stroke-width="2.0" stroke-linejoin="round" stroke-linecap="butt" d="m733.8307 383.0538l0 84.59842" fill-rule="evenodd"/><path fill="#980000" stroke="#980000" stroke-width="2.0" stroke-linecap="butt" d="m730.5272 467.65222l3.3034668 9.076202l3.3034668 -9.076202z" fill-rule="evenodd"/><path fill="#000000" fill-opacity="0.0" d="m463.9777 273.08398l0 43.590546" fill-rule="evenodd"/><path stroke="#980000" stroke-width="2.0" stroke-linejoin="round" stroke-linecap="butt" d="m463.9777 273.08398l0 31.590546" fill-rule="evenodd"/><path fill="#980000" stroke="#980000" stroke-width="2.0" stroke-linecap="butt" d="m460.67422 304.67453l3.3034668 9.076202l3.3034668 -9.076202z" fill-rule="evenodd"/><path fill="#000000" fill-opacity="0.0" d="m867.68634 384.2756l-0.44091797 95.370056" fill-rule="evenodd"/><path stroke="#3c78d8" stroke-width="2.0" stroke-linejoin="round" stroke-linecap="butt" d="m867.68634 384.2756l-0.38549805 83.37018" fill-rule="evenodd"/><path fill="#3c78d8" stroke="#3c78d8" stroke-width="2.0" stroke-linecap="butt" d="m863.99744 467.63052l3.2614746 9.09137l3.345398 -9.060822z" fill-rule="evenodd"/><path fill="#000000" fill-opacity="0.0" d="m867.6877 144.23622l0 74.897644" fill-rule="evenodd"/><path stroke="#3c78d8" stroke-width="2.0" stroke-linejoin="round" stroke-linecap="butt" d="m867.6877 144.23622l0 62.897644" fill-rule="evenodd"/><path fill="#3c78d8" stroke="#3c78d8" stroke-width="2.0" stroke-linecap="butt" d="m864.3842 207.13387l3.3034668 9.076187l3.3034668 -9.076187z" fill-rule="evenodd"/><path fill="#000000" fill-opacity="0.0" d="m732.5079 273.97507l1.322815 42.834656" fill-rule="evenodd"/><path stroke="#980000" stroke-width="2.0" stroke-linejoin="round" stroke-linecap="butt" d="m732.5079 273.97507l0.9524536 30.840363" fill-rule="evenodd"/><path fill="#980000" stroke="#980000" stroke-width="2.0" stroke-linecap="butt" d="m730.1584 304.9174l3.5820923 8.96991l3.0217285 -9.173828z" fill-rule="evenodd"/><path fill="#000000" fill-opacity="0.0" d="m867.68634 273.56693l0 44.472443" fill-rule="evenodd"/><path stroke="#3c78d8" stroke-width="2.0" stroke-linejoin="round" stroke-linecap="butt" d="m867.68634 273.56693l0 32.472443" fill-rule="evenodd"/><path fill="#3c78d8" stroke="#3c78d8" stroke-width="2.0" stroke-linecap="butt" d="m864.3829 306.03937l3.3034668 9.076202l3.3034668 -9.076202z" fill-rule="evenodd"/><path fill="#000000" fill-opacity="0.0" d="m461.00262 146.7126l0 72.377945" fill-rule="evenodd"/><path stroke="#980000" stroke-width="2.0" stroke-linejoin="round" stroke-linecap="butt" d="m461.00262 146.7126l0 60.377945" fill-rule="evenodd"/><path fill="#980000" stroke="#980000" stroke-width="2.0" stroke-linecap="butt" d="m457.69916 207.09055l3.3034668 9.076202l3.3034668 -9.076202z" fill-rule="evenodd"/><path fill="#000000" fill-opacity="0.0" d="m824.8294 117.267715l81.07086 0l0 31.244095l-81.07086 0z" fill-rule="evenodd"/><path fill="#000000" d="m851.88824 127.29664l1.515625 0l0 6.6093826q0 1.734375 -0.390625 2.75q-0.390625 1.015625 -1.40625 1.65625q-1.015625 0.640625 -2.671875 0.640625q-1.609375 0 -2.640625 -0.5625q-1.015625 -0.5625 -1.453125 -1.609375q-0.4375 -1.046875 -0.4375 -2.875l0 -6.6093826l1.515625 0l0 6.6093826q0 1.484375 0.265625 2.203125q0.28125 0.703125 0.953125 1.09375q0.6875 0.375 1.65625 0.375q1.671875 0 2.375 -0.75q0.71875 -0.765625 0.71875 -2.921875l0 -6.6093826zm3.5234375 7.7656326l1.4375 -0.125q0.09375 0.859375 0.46875 1.421875q0.375 0.546875 1.15625 0.890625q0.78125 0.328125 1.75 0.328125q0.875 0 1.53125 -0.25q0.671875 -0.265625 0.984375 -0.703125q0.328125 -0.453125 0.328125 -0.984375q0 -0.546875 -0.3125 -0.9375q-0.3125 -0.40625 -1.03125 -0.6875q-0.453125 -0.171875 -2.03125 -0.546875q-1.578125 -0.390625 -2.21875 -0.71875q-0.8125 -0.4375 -1.21875 -1.0625q-0.40625 -0.640625 -0.40625 -1.4375q0 -0.859375 0.484375 -1.609375q0.5 -0.7656326 1.4375 -1.1562576q0.953125 -0.390625 2.109375 -0.390625q1.28125 0 2.25 0.421875q0.96875 0.40625 1.484375 1.2031326q0.53125 0.796875 0.578125 1.796875l-1.453125 0.109375q-0.125 -1.078125 -0.796875 -1.625q-0.671875 -0.5625 -2.0 -0.5625q-1.375 0 -2.0 0.5q-0.625 0.5 -0.625 1.21875q0 0.609375 0.4375 1.015625q0.4375 0.390625 2.28125 0.8125q1.859375 0.421875 2.546875 0.734375q1.0 0.453125 1.46875 1.171875q0.484375 0.703125 0.484375 1.625q0 0.90625 -0.53125 1.71875q-0.515625 0.8125 -1.5 1.265625q-0.984375 0.453125 -2.203125 0.453125q-1.5625 0 -2.609375 -0.453125q-1.046875 -0.46875 -1.65625 -1.375q-0.59375 -0.90625 -0.625 -2.0625zm11.21875 3.6875l0 -11.453133l8.28125 0l0 1.3437576l-6.765625 0l0 3.515625l6.34375 0l0 1.34375l-6.34375 0l0 3.890625l7.03125 0l0 1.359375l-8.546875 0zm10.671875 0l0 -11.453133l5.078125 0q1.53125 0 2.328125 0.3125q0.796875 0.296875 1.265625 1.0781326q0.484375 0.78125 0.484375 1.734375q0 1.21875 -0.796875 2.0625q-0.78125 0.828125 -2.4375 1.046875q0.609375 0.296875 0.921875 0.578125q0.65625 0.609375 1.25 1.515625l2.0 3.125l-1.90625 0l-1.515625 -2.390625q-0.671875 -1.03125 -1.109375 -1.578125q-0.421875 -0.546875 -0.765625 -0.765625q-0.328125 -0.21875 -0.6875 -0.296875q-0.25 -0.0625 -0.84375 -0.0625l-1.75 0l0 5.09375l-1.515625 0zm1.515625 -6.40625l3.25 0q1.046875 0 1.625 -0.203125q0.59375 -0.21875 0.890625 -0.6875q0.3125 -0.484375 0.3125 -1.03125q0 -0.8125 -0.59375 -1.328125q-0.59375 -0.53125 -1.859375 -0.53125l-3.625 0l0 3.78125z" fill-rule="nonzero"/><path fill="#000000" fill-opacity="0.0" d="m837.0971 220.45145l60.283447 0l0 53.73227l-60.283447 0z" fill-rule="evenodd"/><path stroke="#000000" stroke-width="1.0" stroke-linejoin="round" stroke-linecap="butt" d="m837.0971 220.45145l60.283447 0l0 53.73227l-60.283447 0z" fill-rule="evenodd"/><path fill="#000000" d="m852.17236 254.23758l5.125 -13.359375l1.90625 0l5.46875 13.359375l-2.015625 0l-1.546875 -4.046875l-5.59375 0l-1.46875 4.046875l-1.875 0zm3.859375 -5.484375l4.53125 0l-1.40625 -3.703125q-0.625 -1.6875 -0.9375 -2.765625q-0.265625 1.28125 -0.71875 2.546875l-1.46875 3.921875zm10.0529785 5.484375l0 -13.359375l5.046875 0q1.328125 0 2.03125 0.125q0.96875 0.171875 1.640625 0.640625q0.671875 0.453125 1.078125 1.28125q0.40625 0.828125 0.40625 1.828125q0 1.703125 -1.09375 2.890625q-1.078125 1.171875 -3.921875 1.171875l-3.421875 0l0 5.421875l-1.765625 0zm1.765625 -7.0l3.453125 0q1.71875 0 2.4375 -0.640625q0.71875 -0.640625 0.71875 -1.796875q0 -0.84375 -0.421875 -1.4375q-0.421875 -0.59375 -1.125 -0.78125q-0.4375 -0.125 -1.640625 -0.125l-3.421875 0l0 4.78125zm10.9747925 7.0l0 -13.359375l1.765625 0l0 13.359375l-1.765625 0z" fill-rule="nonzero"/><path fill="#000000" fill-opacity="0.0" d="m702.36615 220.24278l60.283447 0l0 53.732285l-60.283447 0z" fill-rule="evenodd"/><path stroke="#000000" stroke-width="1.0" stroke-linejoin="round" stroke-linecap="butt" d="m702.36615 220.24278l60.283447 0l0 53.732285l-60.283447 0z" fill-rule="evenodd"/><path fill="#000000" d="m717.4414 254.02892l5.125 -13.359375l1.90625 0l5.46875 13.359375l-2.015625 0l-1.546875 -4.046875l-5.59375 0l-1.46875 4.046875l-1.875 0zm3.859375 -5.484375l4.53125 0l-1.40625 -3.703125q-0.625 -1.6875 -0.9375 -2.765625q-0.265625 1.28125 -0.71875 2.546875l-1.46875 3.921875zm10.0529175 5.484375l0 -13.359375l5.046875 0q1.328125 0 2.03125 0.125q0.96875 0.171875 1.640625 0.640625q0.671875 0.453125 1.078125 1.28125q0.40625 0.828125 0.40625 1.828125q0 1.703125 -1.09375 2.890625q-1.078125 1.171875 -3.921875 1.171875l-3.421875 0l0 5.421875l-1.765625 0zm1.765625 -7.0l3.453125 0q1.71875 0 2.4375 -0.640625q0.71875 -0.640625 0.71875 -1.796875q0 -0.84375 -0.421875 -1.4375q-0.421875 -0.59375 -1.125 -0.78125q-0.4375 -0.125 -1.640625 -0.125l-3.421875 0l0 4.78125zm10.9748535 7.0l0 -13.359375l1.765625 0l0 13.359375l-1.765625 0z" fill-rule="nonzero"/><path fill="#000000" fill-opacity="0.0" d="m548.52496 188.5328l97.73224 0l0 230.11023l-97.73224 0z" fill-rule="evenodd"/><path stroke="#000000" stroke-width="1.0" stroke-linejoin="round" stroke-linecap="butt" d="m548.52496 188.5328l97.73224 0l0 230.11023l-97.73224 0z" fill-rule="evenodd"/><path fill="#000000" fill-opacity="0.0" d="m566.8609 219.08661l60.283447 0l0 53.7323l-60.283447 0z" fill-rule="evenodd"/><path stroke="#000000" stroke-width="1.0" stroke-linejoin="round" stroke-linecap="butt" d="m566.8609 219.08661l60.283447 0l0 53.7323l-60.283447 0z" fill-rule="evenodd"/><path fill="#000000" d="m581.93616 252.87276l5.125 -13.359375l1.90625 0l5.46875 13.359375l-2.015625 0l-1.546875 -4.046875l-5.59375 0l-1.46875 4.046875l-1.875 0zm3.859375 -5.484375l4.53125 0l-1.40625 -3.703125q-0.625 -1.6875 -0.9375 -2.765625q-0.265625 1.28125 -0.71875 2.546875l-1.46875 3.921875zm10.0529175 5.484375l0 -13.359375l5.046875 0q1.328125 0 2.03125 0.125q0.96875 0.171875 1.640625 0.640625q0.671875 0.453125 1.078125 1.28125q0.40625 0.828125 0.40625 1.828125q0 1.703125 -1.09375 2.890625q-1.078125 1.171875 -3.921875 1.171875l-3.421875 0l0 5.421875l-1.765625 0zm1.765625 -7.0l3.453125 0q1.71875 0 2.4375 -0.640625q0.71875 -0.640625 0.71875 -1.796875q0 -0.84375 -0.421875 -1.4375q-0.421875 -0.59375 -1.125 -0.78125q-0.4375 -0.125 -1.640625 -0.125l-3.421875 0l0 4.78125zm10.9748535 7.0l0 -13.359375l1.765625 0l0 13.359375l-1.765625 0z" fill-rule="nonzero"/><path fill="#f4cccc" d="m563.8307 351.15747l0 0c0 -18.290619 14.827515 -33.118103 33.118103 -33.118103l0 0c8.783508 0 17.207214 3.4892273 23.41809 9.700073c6.2108154 6.210846 9.700073 14.6345825 9.700073 23.41803l0 0c0 18.29065 -14.827515 33.118134 -33.118164 33.118134l0 0c-18.290588 0 -33.118103 -14.827484 -33.118103 -33.118134z" fill-rule="evenodd"/><path stroke="#000000" stroke-width="1.0" stroke-linejoin="round" stroke-linecap="butt" d="m563.8307 351.15747l0 0c0 -18.290619 14.827515 -33.118103 33.118103 -33.118103l0 0c8.783508 0 17.207214 3.4892273 23.41809 9.700073c6.2108154 6.210846 9.700073 14.6345825 9.700073 23.41803l0 0c0 18.29065 -14.827515 33.118134 -33.118164 33.118134l0 0c-18.290588 0 -33.118103 -14.827484 -33.118103 -33.118134z" fill-rule="evenodd"/><path fill="#000000" fill-opacity="0.0" d="m596.9488 384.2756l0 96.75589" fill-rule="evenodd"/><path stroke="#980000" stroke-width="2.0" stroke-linejoin="round" stroke-linecap="butt" d="m596.9488 384.2756l0 84.75589" fill-rule="evenodd"/><path fill="#980000" stroke="#980000" stroke-width="2.0" stroke-linecap="butt" d="m593.6453 469.0315l3.3034668 9.076202l3.3034668 -9.076202z" fill-rule="evenodd"/><path fill="#000000" fill-opacity="0.0" d="m556.46716 115.468506l81.07092 0l0 31.244095l-81.07092 0z" fill-rule="evenodd"/><path fill="#000000" d="m583.52606 125.49743l1.515625 0l0 6.6093674q0 1.734375 -0.390625 2.75q-0.390625 1.015625 -1.40625 1.65625q-1.015625 0.640625 -2.671875 0.640625q-1.609375 0 -2.640625 -0.5625q-1.015625 -0.5625 -1.453125 -1.609375q-0.4375 -1.046875 -0.4375 -2.875l0 -6.6093674l1.515625 0l0 6.6093674q0 1.484375 0.265625 2.203125q0.28125 0.703125 0.953125 1.09375q0.6875 0.375 1.65625 0.375q1.671875 0 2.375 -0.75q0.71875 -0.765625 0.71875 -2.921875l0 -6.6093674zm3.5234375 7.7656174l1.4375 -0.125q0.09375 0.859375 0.46875 1.421875q0.375 0.546875 1.15625 0.890625q0.78125 0.328125 1.75 0.328125q0.875 0 1.53125 -0.25q0.671875 -0.265625 0.984375 -0.703125q0.328125 -0.453125 0.328125 -0.984375q0 -0.546875 -0.3125 -0.9375q-0.3125 -0.40625 -1.03125 -0.6875q-0.453125 -0.171875 -2.03125 -0.546875q-1.578125 -0.390625 -2.21875 -0.71875q-0.8125 -0.4375 -1.21875 -1.0625q-0.40625 -0.640625 -0.40625 -1.4375q0 -0.8593674 0.484375 -1.6093674q0.5 -0.765625 1.4375 -1.15625q0.953125 -0.390625 2.109375 -0.390625q1.28125 0 2.25 0.421875q0.96875 0.40625 1.484375 1.203125q0.53125 0.796875 0.578125 1.7968674l-1.453125 0.109375q-0.125 -1.0781174 -0.796875 -1.6249924q-0.671875 -0.5625 -2.0 -0.5625q-1.375 0 -2.0 0.5q-0.625 0.5 -0.625 1.2187424q0 0.609375 0.4375 1.015625q0.4375 0.390625 2.28125 0.8125q1.859375 0.421875 2.546875 0.734375q1.0 0.453125 1.46875 1.171875q0.484375 0.703125 0.484375 1.625q0 0.90625 -0.53125 1.71875q-0.515625 0.8125 -1.5 1.265625q-0.984375 0.453125 -2.203125 0.453125q-1.5625 0 -2.609375 -0.453125q-1.046875 -0.46875 -1.65625 -1.375q-0.59375 -0.90625 -0.625 -2.0625zm11.21875 3.6875l0 -11.453117l8.28125 0l0 1.34375l-6.765625 0l0 3.5156174l6.34375 0l0 1.34375l-6.34375 0l0 3.890625l7.03125 0l0 1.359375l-8.546875 0zm10.671875 0l0 -11.453117l5.078125 0q1.53125 0 2.328125 0.3125q0.796875 0.296875 1.265625 1.078125q0.484375 0.78125 0.484375 1.7343674q0 1.21875 -0.796875 2.0625q-0.78125 0.828125 -2.4375 1.046875q0.609375 0.296875 0.921875 0.578125q0.65625 0.609375 1.25 1.515625l2.0 3.125l-1.90625 0l-1.515625 -2.390625q-0.671875 -1.03125 -1.109375 -1.578125q-0.421875 -0.546875 -0.765625 -0.765625q-0.328125 -0.21875 -0.6875 -0.296875q-0.25 -0.0625 -0.84375 -0.0625l-1.75 0l0 5.09375l-1.515625 0zm1.515625 -6.40625l3.25 0q1.046875 0 1.625 -0.203125q0.59375 -0.21875 0.890625 -0.6875q0.3125 -0.484375 0.3125 -1.03125q0 -0.8124924 -0.59375 -1.3281174q-0.59375 -0.53125 -1.859375 -0.53125l-3.625 0l0 3.7812424z" fill-rule="nonzero"/><path fill="#000000" fill-opacity="0.0" d="m599.97766 273.08398l0 43.590546" fill-rule="evenodd"/><path stroke="#980000" stroke-width="2.0" stroke-linejoin="round" stroke-linecap="butt" d="m599.97766 273.08398l0 31.590546" fill-rule="evenodd"/><path fill="#980000" stroke="#980000" stroke-width="2.0" stroke-linecap="butt" d="m596.67426 304.67453l3.3034058 9.076202l3.3034668 -9.076202z" fill-rule="evenodd"/><path fill="#000000" fill-opacity="0.0" d="m597.0026 146.7126l0 72.377945" fill-rule="evenodd"/><path stroke="#980000" stroke-width="2.0" stroke-linejoin="round" stroke-linecap="butt" d="m597.0026 146.7126l0 60.377945" fill-rule="evenodd"/><path fill="#980000" stroke="#980000" stroke-width="2.0" stroke-linecap="butt" d="m593.69916 207.09055l3.3034668 9.076202l3.3034668 -9.076202z" fill-rule="evenodd"/><path fill="#000000" fill-opacity="0.0" d="m693.2966 489.35565c0 5.3554077 18.148376 9.696838 40.53546 9.696838c22.387085 0 40.5354 -4.3414307 40.5354 -9.696838l0 58.18109c0 5.3554077 -18.148315 9.696838 -40.5354 9.696838c-22.387085 0 -40.53546 -4.3414307 -40.53546 -9.696838z" fill-rule="evenodd"/><path fill="#000000" fill-opacity="0.0" d="m693.2966 489.35565c0 -5.355438 18.148376 -9.696869 40.53546 -9.696869c22.387085 0 40.5354 4.3414307 40.5354 9.696869l0 0c0 5.3554077 -18.148315 9.696838 -40.5354 9.696838c-22.387085 0 -40.53546 -4.3414307 -40.53546 -9.696838z" fill-rule="evenodd"/><path fill="#000000" fill-opacity="0.0" d="m774.36743 489.35565l0 0c0 5.3554077 -18.148315 9.696838 -40.5354 9.696838c-22.387085 0 -40.53546 -4.3414307 -40.53546 -9.696838c0 -5.355438 18.148376 -9.696869 40.53546 -9.696869c22.387085 0 40.5354 4.3414307 40.5354 9.696869l0 58.18109c0 5.3554077 -18.148315 9.696838 -40.5354 9.696838c-22.387085 0 -40.53546 -4.3414307 -40.53546 -9.696838l0 -58.18109" fill-rule="evenodd"/><path fill="#ffffff" fill-opacity="0.4" d="m693.2966 489.35565c0 -5.355438 18.148376 -9.696869 40.53546 -9.696869c22.387085 0 40.5354 4.3414307 40.5354 9.696869l0 0c0 5.3554077 -18.148315 9.696838 -40.5354 9.696838c-22.387085 0 -40.53546 -4.3414307 -40.53546 -9.696838z" fill-rule="evenodd"/><path stroke="#000000" stroke-width="1.0" stroke-linejoin="round" stroke-linecap="butt" d="m774.36743 489.35565l0 0c0 5.3554077 -18.148315 9.696838 -40.5354 9.696838c-22.387085 0 -40.53546 -4.3414307 -40.53546 -9.696838c0 -5.355438 18.148376 -9.696869 40.53546 -9.696869c22.387085 0 40.5354 4.3414307 40.5354 9.696869l0 58.18109c0 5.3554077 -18.148315 9.696838 -40.5354 9.696838c-22.387085 0 -40.53546 -4.3414307 -40.53546 -9.696838l0 -58.18109" fill-rule="evenodd"/><path fill="#000000" d="m705.5551 519.2146l0 -13.3593445l4.609375 0q1.546875 0 2.375 0.203125q1.140625 0.25 1.953125 0.953125q1.0625 0.890625 1.578125 2.28125q0.53125 1.390625 0.53125 3.1718445q0 1.515625 -0.359375 2.703125q-0.359375 1.171875 -0.921875 1.9375q-0.546875 0.765625 -1.203125 1.21875q-0.65625 0.4375 -1.59375 0.671875q-0.9375 0.21875 -2.140625 0.21875l-4.828125 0zm1.765625 -1.578125l2.859375 0q1.3125 0 2.0625 -0.234375q0.75 -0.25 1.203125 -0.703125q0.625 -0.625 0.96875 -1.6875q0.359375 -1.0625 0.359375 -2.578125q0 -2.0937195 -0.6875 -3.2187195q-0.6875 -1.125 -1.671875 -1.5q-0.703125 -0.28125 -2.28125 -0.28125l-2.8125 0l0 10.2030945zm10.238586 1.578125l5.125 -13.3593445l1.90625 0l5.46875 13.3593445l-2.015625 0l-1.546875 -4.046875l-5.59375 0l-1.46875 4.046875l-1.875 0zm3.859375 -5.484375l4.53125 0l-1.40625 -3.7030945q-0.625 -1.6875 -0.9375 -2.765625q-0.265625 1.28125 -0.71875 2.546875l-1.46875 3.9218445zm12.0737915 5.484375l0 -11.7812195l-4.40625 0l0 -1.578125l10.578125 0l0 1.578125l-4.40625 0l0 11.7812195l-1.765625 0zm5.135559 0l5.125 -13.3593445l1.90625 0l5.46875 13.3593445l-2.015625 0l-1.546875 -4.046875l-5.59375 0l-1.46875 4.046875l-1.875 0zm3.859375 -5.484375l4.53125 0l-1.40625 -3.7030945q-0.625 -1.6875 -0.9375 -2.765625q-0.265625 1.28125 -0.71875 2.546875l-1.46875 3.9218445zm9.9747925 5.484375l0 -13.3593445l5.015625 0q1.53125 0 2.453125 0.40625q0.921875 0.40625 1.4375 1.25q0.53125 0.84375 0.53125 1.765625q0 0.859375 -0.46875 1.625q-0.453125 0.75 -1.390625 1.2030945q1.203125 0.359375 1.859375 1.21875q0.65625 0.859375 0.65625 2.015625q0 0.9375 -0.40625 1.75q-0.390625 0.796875 -0.984375 1.234375q-0.578125 0.4375 -1.453125 0.671875q-0.875 0.21875 -2.15625 0.21875l-5.09375 0zm1.78125 -7.7499695l2.875 0q1.1875 0 1.6875 -0.140625q0.671875 -0.203125 1.015625 -0.671875q0.34375 -0.46875 0.34375 -1.171875q0 -0.65625 -0.328125 -1.15625q-0.3125 -0.515625 -0.90625 -0.703125q-0.59375 -0.1875 -2.03125 -0.1875l-2.65625 0l0 4.03125zm0 6.1718445l3.3125 0q0.859375 0 1.203125 -0.0625q0.609375 -0.109375 1.015625 -0.359375q0.421875 -0.265625 0.6875 -0.75q0.265625 -0.484375 0.265625 -1.125q0 -0.75 -0.390625 -1.296875q-0.375 -0.546875 -1.0625 -0.765625q-0.671875 -0.234375 -1.953125 -0.234375l-3.078125 0l0 4.59375z" fill-rule="nonzero"/><path fill="#000000" d="m715.13544 541.2146l5.125 -13.359375l1.90625 0l5.46875 13.359375l-2.015625 0l-1.546875 -4.046875l-5.59375 0l-1.46875 4.046875l-1.875 0zm3.859375 -5.484375l4.53125 0l-1.40625 -3.703125q-0.625 -1.6875 -0.9375 -2.765625q-0.265625 1.28125 -0.71875 2.546875l-1.46875 3.921875zm9.4591675 1.1875l1.65625 -0.140625q0.125 1.0 0.546875 1.640625q0.4375 0.640625 1.34375 1.046875q0.921875 0.390625 2.0625 0.390625q1.0 0 1.78125 -0.296875q0.78125 -0.296875 1.15625 -0.8125q0.375 -0.53125 0.375 -1.15625q0 -0.625 -0.375 -1.09375q-0.359375 -0.46875 -1.1875 -0.796875q-0.546875 -0.203125 -2.390625 -0.640625q-1.828125 -0.453125 -2.5625 -0.84375q-0.96875 -0.5 -1.4375 -1.234375q-0.46875 -0.75 -0.46875 -1.671875q0 -1.0 0.578125 -1.875q0.578125 -0.890625 1.671875 -1.34375q1.109375 -0.453125 2.453125 -0.453125q1.484375 0 2.609375 0.484375q1.140625 0.46875 1.75 1.40625q0.609375 0.921875 0.65625 2.09375l-1.6875 0.125q-0.140625 -1.265625 -0.9375 -1.90625q-0.78125 -0.65625 -2.3125 -0.65625q-1.609375 0 -2.34375 0.59375q-0.734375 0.59375 -0.734375 1.421875q0 0.71875 0.53125 1.171875q0.5 0.46875 2.65625 0.96875q2.15625 0.484375 2.953125 0.84375q1.171875 0.53125 1.71875 1.359375q0.5625 0.828125 0.5625 1.90625q0 1.0625 -0.609375 2.015625q-0.609375 0.9375 -1.75 1.46875q-1.140625 0.515625 -2.578125 0.515625q-1.8125 0 -3.046875 -0.53125q-1.21875 -0.53125 -1.921875 -1.59375q-0.6875 -1.0625 -0.71875 -2.40625zm13.0686035 4.296875l0 -13.359375l9.65625 0l0 1.578125l-7.875 0l0 4.09375l7.375 0l0 1.5625l-7.375 0l0 4.546875l8.1875 0l0 1.578125l-9.96875 0z" fill-rule="nonzero"/><path fill="#000000" fill-opacity="0.0" d="m826.7034 489.35565c0 5.3554077 18.148315 9.696838 40.5354 9.696838c22.387146 0 40.53546 -4.3414307 40.53546 -9.696838l0 58.18109c0 5.3554077 -18.148315 9.696838 -40.53546 9.696838c-22.387085 0 -40.5354 -4.3414307 -40.5354 -9.696838z" fill-rule="evenodd"/><path fill="#000000" fill-opacity="0.0" d="m826.7034 489.35565c0 -5.355438 18.148315 -9.696869 40.5354 -9.696869c22.387146 0 40.53546 4.3414307 40.53546 9.696869l0 0c0 5.3554077 -18.148315 9.696838 -40.53546 9.696838c-22.387085 0 -40.5354 -4.3414307 -40.5354 -9.696838z" fill-rule="evenodd"/><path fill="#000000" fill-opacity="0.0" d="m907.7743 489.35565l0 0c0 5.3554077 -18.148315 9.696838 -40.53546 9.696838c-22.387085 0 -40.5354 -4.3414307 -40.5354 -9.696838c0 -5.355438 18.148315 -9.696869 40.5354 -9.696869c22.387146 0 40.53546 4.3414307 40.53546 9.696869l0 58.18109c0 5.3554077 -18.148315 9.696838 -40.53546 9.696838c-22.387085 0 -40.5354 -4.3414307 -40.5354 -9.696838l0 -58.18109" fill-rule="evenodd"/><path fill="#ffffff" fill-opacity="0.4" d="m826.7034 489.35565c0 -5.355438 18.148315 -9.696869 40.5354 -9.696869c22.387146 0 40.53546 4.3414307 40.53546 9.696869l0 0c0 5.3554077 -18.148315 9.696838 -40.53546 9.696838c-22.387085 0 -40.5354 -4.3414307 -40.5354 -9.696838z" fill-rule="evenodd"/><path stroke="#000000" stroke-width="1.0" stroke-linejoin="round" stroke-linecap="butt" d="m907.7743 489.35565l0 0c0 5.3554077 -18.148315 9.696838 -40.53546 9.696838c-22.387085 0 -40.5354 -4.3414307 -40.5354 -9.696838c0 -5.355438 18.148315 -9.696869 40.5354 -9.696869c22.387146 0 40.53546 4.3414307 40.53546 9.696869l0 58.18109c0 5.3554077 -18.148315 9.696838 -40.53546 9.696838c-22.387085 0 -40.5354 -4.3414307 -40.5354 -9.696838l0 -58.18109" fill-rule="evenodd"/><path fill="#000000" d="m838.9619 519.2146l0 -13.3593445l4.609375 0q1.546875 0 2.375 0.203125q1.140625 0.25 1.953125 0.953125q1.0625 0.890625 1.578125 2.28125q0.53125 1.390625 0.53125 3.1718445q0 1.515625 -0.359375 2.703125q-0.359375 1.171875 -0.921875 1.9375q-0.546875 0.765625 -1.203125 1.21875q-0.65625 0.4375 -1.59375 0.671875q-0.9375 0.21875 -2.140625 0.21875l-4.828125 0zm1.765625 -1.578125l2.859375 0q1.3125 0 2.0625 -0.234375q0.75 -0.25 1.203125 -0.703125q0.625 -0.625 0.96875 -1.6875q0.359375 -1.0625 0.359375 -2.578125q0 -2.0937195 -0.6875 -3.2187195q-0.6875 -1.125 -1.671875 -1.5q-0.703125 -0.28125 -2.28125 -0.28125l-2.8125 0l0 10.2030945zm10.238586 1.578125l5.125 -13.3593445l1.90625 0l5.46875 13.3593445l-2.015625 0l-1.546875 -4.046875l-5.59375 0l-1.46875 4.046875l-1.875 0zm3.859375 -5.484375l4.53125 0l-1.40625 -3.7030945q-0.625 -1.6875 -0.9375 -2.765625q-0.265625 1.28125 -0.71875 2.546875l-1.46875 3.9218445zm12.0737915 5.484375l0 -11.7812195l-4.40625 0l0 -1.578125l10.578125 0l0 1.578125l-4.40625 0l0 11.7812195l-1.765625 0zm5.135559 0l5.125 -13.3593445l1.90625 0l5.46875 13.3593445l-2.015625 0l-1.546875 -4.046875l-5.59375 0l-1.46875 4.046875l-1.875 0zm3.859375 -5.484375l4.53125 0l-1.40625 -3.7030945q-0.625 -1.6875 -0.9375 -2.765625q-0.265625 1.28125 -0.71875 2.546875l-1.46875 3.9218445zm9.9747925 5.484375l0 -13.3593445l5.015625 0q1.53125 0 2.453125 0.40625q0.921875 0.40625 1.4375 1.25q0.53125 0.84375 0.53125 1.765625q0 0.859375 -0.46875 1.625q-0.453125 0.75 -1.390625 1.2030945q1.203125 0.359375 1.859375 1.21875q0.65625 0.859375 0.65625 2.015625q0 0.9375 -0.40625 1.75q-0.390625 0.796875 -0.984375 1.234375q-0.578125 0.4375 -1.453125 0.671875q-0.875 0.21875 -2.15625 0.21875l-5.09375 0zm1.78125 -7.7499695l2.875 0q1.1875 0 1.6875 -0.140625q0.671875 -0.203125 1.015625 -0.671875q0.34375 -0.46875 0.34375 -1.171875q0 -0.65625 -0.328125 -1.15625q-0.3125 -0.515625 -0.90625 -0.703125q-0.59375 -0.1875 -2.03125 -0.1875l-2.65625 0l0 4.03125zm0 6.1718445l3.3125 0q0.859375 0 1.203125 -0.0625q0.609375 -0.109375 1.015625 -0.359375q0.421875 -0.265625 0.6875 -0.75q0.265625 -0.484375 0.265625 -1.125q0 -0.75 -0.390625 -1.296875q-0.375 -0.546875 -1.0625 -0.765625q-0.671875 -0.234375 -1.953125 -0.234375l-3.078125 0l0 4.59375z" fill-rule="nonzero"/><path fill="#000000" d="m848.54224 541.2146l5.125 -13.359375l1.90625 0l5.46875 13.359375l-2.015625 0l-1.546875 -4.046875l-5.59375 0l-1.46875 4.046875l-1.875 0zm3.859375 -5.484375l4.53125 0l-1.40625 -3.703125q-0.625 -1.6875 -0.9375 -2.765625q-0.265625 1.28125 -0.71875 2.546875l-1.46875 3.921875zm9.4591675 1.1875l1.65625 -0.140625q0.125 1.0 0.546875 1.640625q0.4375 0.640625 1.34375 1.046875q0.921875 0.390625 2.0625 0.390625q1.0 0 1.78125 -0.296875q0.78125 -0.296875 1.15625 -0.8125q0.375 -0.53125 0.375 -1.15625q0 -0.625 -0.375 -1.09375q-0.359375 -0.46875 -1.1875 -0.796875q-0.546875 -0.203125 -2.390625 -0.640625q-1.828125 -0.453125 -2.5625 -0.84375q-0.96875 -0.5 -1.4375 -1.234375q-0.46875 -0.75 -0.46875 -1.671875q0 -1.0 0.578125 -1.875q0.578125 -0.890625 1.671875 -1.34375q1.109375 -0.453125 2.453125 -0.453125q1.484375 0 2.609375 0.484375q1.140625 0.46875 1.75 1.40625q0.609375 0.921875 0.65625 2.09375l-1.6875 0.125q-0.140625 -1.265625 -0.9375 -1.90625q-0.78125 -0.65625 -2.3125 -0.65625q-1.609375 0 -2.34375 0.59375q-0.734375 0.59375 -0.734375 1.421875q0 0.71875 0.53125 1.171875q0.5 0.46875 2.65625 0.96875q2.15625 0.484375 2.953125 0.84375q1.171875 0.53125 1.71875 1.359375q0.5625 0.828125 0.5625 1.90625q0 1.0625 -0.609375 2.015625q-0.609375 0.9375 -1.75 1.46875q-1.140625 0.515625 -2.578125 0.515625q-1.8125 0 -3.046875 -0.53125q-1.21875 -0.53125 -1.921875 -1.59375q-0.6875 -1.0625 -0.71875 -2.40625zm13.0686035 4.296875l0 -13.359375l9.65625 0l0 1.578125l-7.875 0l0 4.09375l7.375 0l0 1.5625l-7.375 0l0 4.546875l8.1875 0l0 1.578125l-9.96875 0z" fill-rule="nonzero"/><path fill="#000000" fill-opacity="0.0" d="m548.52496 303.58792l-38.26773 0" fill-rule="evenodd"/><path stroke="#38761d" stroke-width="2.0" stroke-linejoin="round" stroke-linecap="butt" d="m536.52496 303.58792l-14.267761 0" fill-rule="evenodd"/><path fill="#38761d" stroke="#38761d" stroke-width="2.0" stroke-linecap="butt" d="m536.52496 306.8914l9.076172 -3.3034668l-9.076172 -3.3034668z" fill-rule="evenodd"/><path fill="#38761d" stroke="#38761d" stroke-width="2.0" stroke-linecap="butt" d="m522.2572 300.28445l-9.076172 3.3034668l9.076172 3.3034668z" fill-rule="evenodd"/><path fill="#000000" fill-opacity="0.0" d="m684.52496 303.58792l-38.26776 0" fill-rule="evenodd"/><path stroke="#38761d" stroke-width="2.0" stroke-linejoin="round" stroke-linecap="butt" d="m672.52496 303.58792l-14.267761 0" fill-rule="evenodd"/><path fill="#38761d" stroke="#38761d" stroke-width="2.0" stroke-linecap="butt" d="m672.52496 306.8914l9.076172 -3.3034668l-9.076172 -3.3034668z" fill-rule="evenodd"/><path fill="#38761d" stroke="#38761d" stroke-width="2.0" stroke-linecap="butt" d="m658.2572 300.28445l-9.076172 3.3034668l9.076172 3.3034668z" fill-rule="evenodd"/><path fill="#000000" fill-opacity="0.0" d="m820.52496 303.58792l-38.26776 0" fill-rule="evenodd"/><path stroke="#38761d" stroke-width="2.0" stroke-linejoin="round" stroke-linecap="butt" d="m808.52496 303.58792l-14.267761 0" fill-rule="evenodd"/><path fill="#38761d" stroke="#38761d" stroke-width="2.0" stroke-linecap="butt" d="m808.52496 306.8914l9.076172 -3.3034668l-9.076172 -3.3034668z" fill-rule="evenodd"/><path fill="#38761d" stroke="#38761d" stroke-width="2.0" stroke-linecap="butt" d="m794.2572 300.28445l-9.076172 3.3034668l9.076172 3.3034668z" fill-rule="evenodd"/></g></svg>