<svg version="1.1" viewBox="0.0 0.0 842.4698162729659 305.33858267716533" fill="none" stroke="none" stroke-linecap="square" stroke-miterlimit="10" xmlns:xlink="http://www.w3.org/1999/xlink" xmlns="http://www.w3.org/2000/svg"><clipPath id="p.0"><path d="m0 0l842.4698 0l0 305.3386l-842.4698 0l0 -305.3386z" clip-rule="nonzero"/></clipPath><g clip-path="url(#p.0)"><path fill="#ffffff" d="m0 0l842.4698 0l0 305.3386l-842.4698 0z" fill-rule="evenodd"/><path fill="#ffd966" d="m341.49063 83.11811l0 0c0 -10.97612 8.897919 -19.874016 19.874023 -19.874016l0 0c5.2709045 0 10.325958 2.0938644 14.05304 5.820961c3.7271118 3.7271042 5.820984 8.782135 5.820984 14.053055l0 0c0 10.976112 -8.897919 19.874016 -19.874023 19.874016l0 0c-10.976105 0 -19.874023 -8.897903 -19.874023 -19.874016z" fill-rule="evenodd"/><path stroke="#000000" stroke-width="1.0" stroke-linejoin="round" stroke-linecap="butt" d="m341.49063 83.11811l0 0c0 -10.97612 8.897919 -19.874016 19.874023 -19.874016l0 0c5.2709045 0 10.325958 2.0938644 14.05304 5.820961c3.7271118 3.7271042 5.820984 8.782135 5.820984 14.053055l0 0c0 10.976112 -8.897919 19.874016 -19.874023 19.874016l0 0c-10.976105 0 -19.874023 -8.897903 -19.874023 -19.874016z" fill-rule="evenodd"/><path fill="#93c47d" d="m400.34518 142.33l0 0c0 -10.97612 8.897888 -19.874023 19.874023 -19.874023l0 0c5.2709045 0 10.325958 2.0938644 14.05304 5.8209686c3.7271118 3.7270966 5.820984 8.782135 5.820984 14.053055l0 0c0 10.976105 -8.897919 19.874008 -19.874023 19.874008l0 0c-10.976135 0 -19.874023 -8.897903 -19.874023 -19.874008z" fill-rule="evenodd"/><path stroke="#000000" stroke-width="1.0" stroke-linejoin="round" stroke-linecap="butt" d="m400.34518 142.33l0 0c0 -10.97612 8.897888 -19.874023 19.874023 -19.874023l0 0c5.2709045 0 10.325958 2.0938644 14.05304 5.8209686c3.7271118 3.7270966 5.820984 8.782135 5.820984 14.053055l0 0c0 10.976105 -8.897919 19.874008 -19.874023 19.874008l0 0c-10.976135 0 -19.874023 -8.897903 -19.874023 -19.874008z" fill-rule="evenodd"/><path fill="#000000" fill-opacity="0.0" d="m375.4177 97.17116l30.740173 31.118118" fill-rule="evenodd"/><path stroke="#000000" stroke-width="1.0" stroke-linejoin="round" stroke-linecap="butt" d="m375.4177 97.17116l30.740173 31.118118" fill-rule="evenodd"/><path fill="#000000" fill-opacity="0.0" d="m375.4177 187.48883l30.740173 -31.118103" fill-rule="evenodd"/><path stroke="#000000" stroke-width="1.0" stroke-linejoin="round" stroke-linecap="butt" d="m375.4177 187.48883l30.740173 -31.118103" fill-rule="evenodd"/><path fill="#ffd966" d="m341.49063 201.54189l0 0c0 -10.97612 8.897919 -19.874023 19.874023 -19.874023l0 0c5.2709045 0 10.325958 2.093872 14.05304 5.8209686c3.7271118 3.7270966 5.820984 8.782135 5.820984 14.053055l0 0c0 10.97612 -8.897919 19.874008 -19.874023 19.874008l0 0c-10.976105 0 -19.874023 -8.897888 -19.874023 -19.874008z" fill-rule="evenodd"/><path stroke="#000000" stroke-width="1.0" stroke-linejoin="round" stroke-linecap="butt" d="m341.49063 201.54189l0 0c0 -10.97612 8.897919 -19.874023 19.874023 -19.874023l0 0c5.2709045 0 10.325958 2.093872 14.05304 5.8209686c3.7271118 3.7270966 5.820984 8.782135 5.820984 14.053055l0 0c0 10.97612 -8.897919 19.874008 -19.874023 19.874008l0 0c-10.976105 0 -19.874023 -8.897888 -19.874023 -19.874008z" fill-rule="evenodd"/><path fill="#ffd966" d="m341.49063 142.33l0 0c0 -10.97612 8.897919 -19.874023 19.874023 -19.874023l0 0c5.2709045 0 10.325958 2.0938644 14.05304 5.8209686c3.7271118 3.7270966 5.820984 8.782135 5.820984 14.053055l0 0c0 10.976105 -8.897919 19.874008 -19.874023 19.874008l0 0c-10.976105 0 -19.874023 -8.897903 -19.874023 -19.874008z" fill-rule="evenodd"/><path stroke="#000000" stroke-width="1.0" stroke-linejoin="round" stroke-linecap="butt" d="m341.49063 142.33l0 0c0 -10.97612 8.897919 -19.874023 19.874023 -19.874023l0 0c5.2709045 0 10.325958 2.0938644 14.05304 5.8209686c3.7271118 3.7270966 5.820984 8.782135 5.820984 14.053055l0 0c0 10.976105 -8.897919 19.874008 -19.874023 19.874008l0 0c-10.976105 0 -19.874023 -8.897903 -19.874023 -19.874008z" fill-rule="evenodd"/><path fill="#e06666" d="m459.20294 142.33l0 0c0 -10.97612 8.897888 -19.874023 19.874023 -19.874023l0 0c5.2709045 0 10.325958 2.0938644 14.05304 5.8209686c3.7271118 3.7270966 5.820984 8.782135 5.820984 14.053055l0 0c0 10.976105 -8.897919 19.874008 -19.874023 19.874008l0 0c-10.976135 0 -19.874023 -8.897903 -19.874023 -19.874008z" fill-rule="evenodd"/><path stroke="#000000" stroke-width="1.0" stroke-linejoin="round" stroke-linecap="butt" d="m459.20294 142.33l0 0c0 -10.97612 8.897888 -19.874023 19.874023 -19.874023l0 0c5.2709045 0 10.325958 2.0938644 14.05304 5.8209686c3.7271118 3.7270966 5.820984 8.782135 5.820984 14.053055l0 0c0 10.976105 -8.897919 19.874008 -19.874023 19.874008l0 0c-10.976135 0 -19.874023 -8.897903 -19.874023 -19.874008z" fill-rule="evenodd"/><path fill="#e06666" d="m459.20294 83.11811l0 0c0 -10.97612 8.897888 -19.874016 19.874023 -19.874016l0 0c5.2709045 0 10.325958 2.0938644 14.05304 5.820961c3.7271118 3.7271042 5.820984 8.782135 5.820984 14.053055l0 0c0 10.976112 -8.897919 19.874016 -19.874023 19.874016l0 0c-10.976135 0 -19.874023 -8.897903 -19.874023 -19.874016z" fill-rule="evenodd"/><path stroke="#000000" stroke-width="1.0" stroke-linejoin="round" stroke-linecap="butt" d="m459.20294 83.11811l0 0c0 -10.97612 8.897888 -19.874016 19.874023 -19.874016l0 0c5.2709045 0 10.325958 2.0938644 14.05304 5.820961c3.7271118 3.7271042 5.820984 8.782135 5.820984 14.053055l0 0c0 10.976112 -8.897919 19.874016 -19.874023 19.874016l0 0c-10.976135 0 -19.874023 -8.897903 -19.874023 -19.874016z" fill-rule="evenodd"/><path fill="#93c47d" d="m400.3468 201.54189l0 0c0 -10.97612 8.897888 -19.874023 19.873993 -19.874023l0 0c5.270935 0 10.325958 2.093872 14.05307 5.8209686c3.7270813 3.7270966 5.8209534 8.782135 5.8209534 14.053055l0 0c0 10.97612 -8.897888 19.874008 -19.874023 19.874008l0 0c-10.976105 0 -19.873993 -8.897888 -19.873993 -19.874008z" fill-rule="evenodd"/><path stroke="#000000" stroke-width="1.0" stroke-linejoin="round" stroke-linecap="butt" d="m400.3468 201.54189l0 0c0 -10.97612 8.897888 -19.874023 19.873993 -19.874023l0 0c5.270935 0 10.325958 2.093872 14.05307 5.8209686c3.7270813 3.7270966 5.8209534 8.782135 5.8209534 14.053055l0 0c0 10.97612 -8.897888 19.874008 -19.874023 19.874008l0 0c-10.976105 0 -19.873993 -8.897888 -19.873993 -19.874008z" fill-rule="evenodd"/><path fill="#e06666" d="m459.20294 201.54189l0 0c0 -10.97612 8.897888 -19.874023 19.874023 -19.874023l0 0c5.2709045 0 10.325958 2.093872 14.05304 5.8209686c3.7271118 3.7270966 5.820984 8.782135 5.820984 14.053055l0 0c0 10.97612 -8.897919 19.874008 -19.874023 19.874008l0 0c-10.976135 0 -19.874023 -8.897888 -19.874023 -19.874008z" fill-rule="evenodd"/><path stroke="#000000" stroke-width="1.0" stroke-linejoin="round" stroke-linecap="butt" d="m459.20294 201.54189l0 0c0 -10.97612 8.897888 -19.874023 19.874023 -19.874023l0 0c5.2709045 0 10.325958 2.093872 14.05304 5.8209686c3.7271118 3.7270966 5.820984 8.782135 5.820984 14.053055l0 0c0 10.97612 -8.897919 19.874008 -19.874023 19.874008l0 0c-10.976135 0 -19.874023 -8.897888 -19.874023 -19.874008z" fill-rule="evenodd"/><path fill="#000000" fill-opacity="0.0" d="m420.2208 181.66786l0 -19.464554" fill-rule="evenodd"/><path stroke="#000000" stroke-width="1.0" stroke-linejoin="round" stroke-linecap="butt" d="m420.2208 181.66786l0 -19.464554" fill-rule="evenodd"/><path fill="#000000" fill-opacity="0.0" d="m440.09323 142.33l19.118103 0" fill-rule="evenodd"/><path stroke="#000000" stroke-width="1.0" stroke-linejoin="round" stroke-linecap="butt" d="m440.09323 142.33l19.118103 0" fill-rule="evenodd"/><path fill="#000000" fill-opacity="0.0" d="m440.09482 201.54189l19.118103 0" fill-rule="evenodd"/><path stroke="#000000" stroke-width="1.0" stroke-linejoin="round" stroke-linecap="butt" d="m440.09482 201.54189l19.118103 0" fill-rule="evenodd"/><path fill="#000000" fill-opacity="0.0" d="m465.0239 187.48883l-30.740143 -31.118103" fill-rule="evenodd"/><path stroke="#000000" stroke-width="1.0" stroke-linejoin="round" stroke-linecap="butt" d="m465.0239 187.48883l-30.740143 -31.118103" fill-rule="evenodd"/><path fill="#000000" fill-opacity="0.0" d="m400.3468 201.54189l-19.118134 0" fill-rule="evenodd"/><path stroke="#000000" stroke-width="1.0" stroke-linejoin="round" stroke-linecap="butt" d="m400.3468 201.54189l-19.118134 0" fill-rule="evenodd"/><path fill="#000000" fill-opacity="0.0" d="m381.23868 142.33l19.118103 0" fill-rule="evenodd"/><path stroke="#000000" stroke-width="1.0" stroke-linejoin="round" stroke-linecap="butt" d="m381.23868 142.33l19.118103 0" fill-rule="evenodd"/><path fill="#000000" fill-opacity="0.0" d="m465.0239 97.17116l-30.740143 31.118118" fill-rule="evenodd"/><path stroke="#000000" stroke-width="1.0" stroke-linejoin="round" stroke-linecap="butt" d="m465.0239 97.17116l-30.740143 31.118118" fill-rule="evenodd"/><path fill="#000000" fill-opacity="0.0" d="m0 4.1889763l840.4409 0l0 42.015747l-840.4409 0z" fill-rule="evenodd"/><path fill="#000000" d="m350.71207 31.108974l-2.9375 0l-1.171875 -3.03125l-5.328125 0l-1.109375 3.03125l-2.859375 0l5.203125 -13.359375l2.84375 0l5.359375 13.359375zm-4.96875 -5.28125l-1.84375 -4.953125l-1.796875 4.953125l3.640625 0zm12.738556 5.28125l0 -1.453125q-0.53125 0.78125 -1.390625 1.234375q-0.859375 0.4375 -1.8125 0.4375q-0.96875 0 -1.75 -0.421875q-0.765625 -0.4375 -1.125 -1.203125q-0.34375 -0.78125 -0.34375 -2.140625l0 -6.125l2.5625 0l0 4.4375q0 2.046875 0.140625 2.515625q0.140625 0.453125 0.515625 0.71875q0.375 0.265625 0.953125 0.265625q0.65625 0 1.171875 -0.359375q0.515625 -0.359375 0.703125 -0.890625q0.203125 -0.53125 0.203125 -2.609375l0 -4.078125l2.546875 0l0 9.671875l-2.375 0zm9.474121 -9.671875l0 2.03125l-1.75 0l0 3.90625q0 1.1875 0.046875 1.390625q0.046875 0.1875 0.21875 0.3125q0.1875 0.125 0.4375 0.125q0.359375 0 1.03125 -0.25l0.21875 2.0q-0.890625 0.375 -2.015625 0.375q-0.703125 0 -1.265625 -0.234375q-0.546875 -0.234375 -0.8125 -0.59375q-0.25 -0.375 -0.34375 -1.0q-0.09375 -0.453125 -0.09375 -1.8125l0 -4.21875l-1.171875 0l0 -2.03125l1.171875 0l0 -1.921875l2.578125 -1.5l0 3.421875l1.75 0zm1.181427 4.703125q0 -1.28125 0.625 -2.46875q0.625 -1.203125 1.78125 -1.828125q1.15625 -0.625 2.578125 -0.625q2.1875 0 3.59375 1.421875q1.40625 1.421875 1.40625 3.609375q0 2.1875 -1.421875 3.640625q-1.421875 1.4375 -3.5625 1.4375q-1.328125 0 -2.546875 -0.59375q-1.203125 -0.609375 -1.828125 -1.765625q-0.625 -1.171875 -0.625 -2.828125zm2.625 0.125q0 1.453125 0.671875 2.21875q0.6875 0.75 1.6875 0.75q1.0 0 1.671875 -0.75q0.6875 -0.765625 0.6875 -2.234375q0 -1.421875 -0.6875 -2.1875q-0.671875 -0.765625 -1.671875 -0.765625q-1.0 0 -1.6875 0.765625q-0.671875 0.765625 -0.671875 2.203125zm14.56366 4.84375l0 -13.359375l9.90625 0l0 2.265625l-7.21875 0l0 2.953125l6.71875 0l0 2.25l-6.71875 0l0 3.640625l7.46875 0l0 2.25l-10.15625 0zm21.224823 0l-2.5625 0l0 -4.9375q0 -1.5625 -0.171875 -2.015625q-0.15625 -0.46875 -0.53125 -0.71875q-0.359375 -0.265625 -0.875 -0.265625q-0.671875 0 -1.203125 0.375q-0.53125 0.359375 -0.734375 0.96875q-0.1875 0.59375 -0.1875 2.21875l0 4.375l-2.546875 0l0 -9.671875l2.375 0l0 1.421875q1.265625 -1.640625 3.1875 -1.640625q0.84375 0 1.546875 0.3125q0.703125 0.296875 1.0625 0.78125q0.359375 0.46875 0.5 1.078125q0.140625 0.59375 0.140625 1.703125l0 6.015625zm11.036621 -6.8125l-2.53125 0.453125q-0.125 -0.75 -0.578125 -1.125q-0.453125 -0.390625 -1.171875 -0.390625q-0.953125 0 -1.53125 0.65625q-0.5625 0.65625 -0.5625 2.203125q0 1.734375 0.578125 2.4375q0.578125 0.703125 1.546875 0.703125q0.734375 0 1.203125 -0.40625q0.46875 -0.421875 0.65625 -1.421875l2.515625 0.421875q-0.390625 1.734375 -1.515625 2.625q-1.109375 0.875 -2.96875 0.875q-2.125 0 -3.390625 -1.328125q-1.25 -1.34375 -1.25 -3.71875q0 -2.390625 1.265625 -3.71875q1.265625 -1.34375 3.421875 -1.34375q1.765625 0 2.796875 0.765625q1.046875 0.75 1.515625 2.3125zm1.3444519 1.84375q0 -1.28125 0.625 -2.46875q0.625 -1.203125 1.78125 -1.828125q1.15625 -0.625 2.578125 -0.625q2.1875 0 3.59375 1.421875q1.40625 1.421875 1.40625 3.609375q0 2.1875 -1.421875 3.640625q-1.421875 1.4375 -3.5625 1.4375q-1.328125 0 -2.546875 -0.59375q-1.203125 -0.609375 -1.828125 -1.765625q-0.625 -1.171875 -0.625 -2.828125zm2.625 0.125q0 1.453125 0.671875 2.21875q0.6875 0.75 1.6875 0.75q1.0 0 1.671875 -0.75q0.6875 -0.765625 0.6875 -2.234375q0 -1.421875 -0.6875 -2.1875q-0.671875 -0.765625 -1.671875 -0.765625q-1.0 0 -1.6875 0.765625q-0.671875 0.765625 -0.671875 2.203125zm18.239716 4.84375l-2.390625 0l0 -1.421875q-0.59375 0.828125 -1.40625 1.234375q-0.796875 0.40625 -1.609375 0.40625q-1.671875 0 -2.859375 -1.34375q-1.1875 -1.34375 -1.1875 -3.75q0 -2.453125 1.15625 -3.734375q1.15625 -1.28125 2.921875 -1.28125q1.625 0 2.8125 1.34375l0 -4.8125l2.5625 0l0 13.359375zm-6.84375 -5.046875q0 1.546875 0.4375 2.234375q0.609375 1.015625 1.71875 1.015625q0.890625 0 1.5 -0.75q0.625 -0.765625 0.625 -2.25q0 -1.671875 -0.609375 -2.40625q-0.59375 -0.734375 -1.53125 -0.734375q-0.90625 0 -1.53125 0.734375q-0.609375 0.71875 -0.609375 2.15625zm14.958496 1.96875l2.546875 0.421875q-0.484375 1.40625 -1.546875 2.140625q-1.0625 0.734375 -2.65625 0.734375q-2.515625 0 -3.734375 -1.65625q-0.953125 -1.3125 -0.953125 -3.328125q0 -2.40625 1.25 -3.765625q1.265625 -1.359375 3.1875 -1.359375q2.15625 0 3.40625 1.421875q1.25 1.421875 1.1875 4.375l-6.40625 0q0.03125 1.140625 0.609375 1.78125q0.59375 0.625 1.484375 0.625q0.59375 0 1.0 -0.328125q0.421875 -0.328125 0.625 -1.0625zm0.15625 -2.59375q-0.03125 -1.109375 -0.578125 -1.6875q-0.546875 -0.578125 -1.328125 -0.578125q-0.84375 0 -1.390625 0.609375q-0.546875 0.609375 -0.53125 1.65625l3.828125 0zm7.0788574 5.671875l-2.5625 0l0 -9.671875l2.375 0l0 1.375q0.609375 -0.984375 1.09375 -1.28125q0.484375 -0.3125 1.109375 -0.3125q0.875 0 1.6875 0.484375l-0.796875 2.234375q-0.640625 -0.421875 -1.203125 -0.421875q-0.53125 0 -0.90625 0.296875q-0.375 0.296875 -0.59375 1.078125q-0.203125 0.765625 -0.203125 3.234375l0 2.984375zm14.2247925 3.921875l-1.75 0q-1.390625 -2.09375 -2.125 -4.359375q-0.734375 -2.28125 -0.734375 -4.40625q0 -2.625 0.90625 -4.96875q0.78125 -2.046875 1.984375 -3.765625l1.75 0q-1.25 2.75 -1.71875 4.6875q-0.46875 1.9375 -0.46875 4.109375q0 1.5 0.28125 3.0625q0.28125 1.5625 0.765625 2.96875q0.3125 0.9375 1.109375 2.671875zm14.0408325 -3.921875l-2.9375 0l-1.171875 -3.03125l-5.328125 0l-1.109375 3.03125l-2.859375 0l5.203125 -13.359375l2.84375 0l5.359375 13.359375zm-4.96875 -5.28125l-1.84375 -4.953125l-1.796875 4.953125l3.640625 0zm6.394806 5.28125l0 -13.359375l9.90625 0l0 2.265625l-7.21875 0l0 2.953125l6.71875 0l0 2.25l-6.71875 0l0 3.640625l7.46875 0l0 2.25l-10.15625 0zm11.709198 3.921875q0.765625 -1.609375 1.0625 -2.484375q0.3125 -0.859375 0.578125 -1.984375q0.265625 -1.140625 0.390625 -2.15625q0.125 -1.015625 0.125 -2.078125q0 -2.171875 -0.46875 -4.109375q-0.453125 -1.9375 -1.703125 -4.6875l1.734375 0q1.375 1.953125 2.140625 4.15625q0.765625 2.1875 0.765625 4.453125q0 1.90625 -0.609375 4.078125q-0.671875 2.4375 -2.25 4.8125l-1.765625 0z" fill-rule="nonzero"/><path fill="#ffd966" d="m341.49063 261.88834l0 0c0 -10.976105 8.897919 -19.874008 19.874023 -19.874008l0 0c5.2709045 0 10.325958 2.0938568 14.05304 5.8209686c3.7271118 3.7270966 5.820984 8.782135 5.820984 14.05304l0 0c0 10.976135 -8.897919 19.874023 -19.874023 19.874023l0 0c-10.976105 0 -19.874023 -8.897888 -19.874023 -19.874023z" fill-rule="evenodd"/><path stroke="#000000" stroke-width="1.0" stroke-linejoin="round" stroke-linecap="butt" d="m341.49063 261.88834l0 0c0 -10.976105 8.897919 -19.874008 19.874023 -19.874008l0 0c5.2709045 0 10.325958 2.0938568 14.05304 5.8209686c3.7271118 3.7270966 5.820984 8.782135 5.820984 14.05304l0 0c0 10.976135 -8.897919 19.874023 -19.874023 19.874023l0 0c-10.976105 0 -19.874023 -8.897888 -19.874023 -19.874023z" fill-rule="evenodd"/><path fill="#e06666" d="m459.20193 260.89227l0 0c0 -10.976105 8.897888 -19.874008 19.873993 -19.874008l0 0c5.270935 0 10.325958 2.0938568 14.05307 5.8209686c3.7270813 3.7270966 5.8209534 8.782135 5.8209534 14.05304l0 0c0 10.976135 -8.897888 19.874023 -19.874023 19.874023l0 0c-10.976105 0 -19.873993 -8.897888 -19.873993 -19.874023z" fill-rule="evenodd"/><path stroke="#000000" stroke-width="1.0" stroke-linejoin="round" stroke-linecap="butt" d="m459.20193 260.89227l0 0c0 -10.976105 8.897888 -19.874008 19.873993 -19.874008l0 0c5.270935 0 10.325958 2.0938568 14.05307 5.8209686c3.7270813 3.7270966 5.8209534 8.782135 5.8209534 14.05304l0 0c0 10.976135 -8.897888 19.874023 -19.874023 19.874023l0 0c-10.976105 0 -19.873993 -8.897888 -19.873993 -19.874023z" fill-rule="evenodd"/><path fill="#000000" fill-opacity="0.0" d="m375.4177 156.38304l30.740173 31.118118" fill-rule="evenodd"/><path stroke="#000000" stroke-width="1.0" stroke-linejoin="round" stroke-linecap="butt" d="m375.4177 156.38304l30.740173 31.118118" fill-rule="evenodd"/><path fill="#000000" fill-opacity="0.0" d="m434.27386 187.48883l30.740143 -31.118103" fill-rule="evenodd"/><path stroke="#000000" stroke-width="1.0" stroke-linejoin="round" stroke-linecap="butt" d="m434.27386 187.48883l30.740143 -31.118103" fill-rule="evenodd"/><path fill="#000000" fill-opacity="0.0" d="m406.16776 215.59494l-30.740143 32.25197" fill-rule="evenodd"/><path stroke="#000000" stroke-width="1.0" stroke-linejoin="round" stroke-linecap="butt" d="m406.16776 215.59494l-30.740143 32.25197" fill-rule="evenodd"/><path fill="#000000" fill-opacity="0.0" d="m434.27386 215.59494l30.740143 31.244095" fill-rule="evenodd"/><path stroke="#000000" stroke-width="1.0" stroke-linejoin="round" stroke-linecap="butt" d="m434.27386 215.59494l30.740143 31.244095" fill-rule="evenodd"/><path fill="#000000" fill-opacity="0.0" d="m375.4177 97.17116l30.740173 90.33072" fill-rule="evenodd"/><path stroke="#000000" stroke-width="1.0" stroke-linejoin="round" stroke-linecap="butt" d="m375.4177 97.17116l30.740173 90.33072" fill-rule="evenodd"/><path fill="#000000" fill-opacity="0.0" d="m465.0239 97.17116l-30.740143 90.33072" fill-rule="evenodd"/><path stroke="#000000" stroke-width="1.0" stroke-linejoin="round" stroke-linecap="butt" d="m465.0239 97.17116l-30.740143 90.33072" fill-rule="evenodd"/><path fill="#000000" fill-opacity="0.0" d="m406.16614 156.38304l-30.740143 91.46457" fill-rule="evenodd"/><path stroke="#000000" stroke-width="1.0" stroke-linejoin="round" stroke-linecap="butt" d="m406.16614 156.38304l-30.740143 91.46457" fill-rule="evenodd"/><path fill="#000000" fill-opacity="0.0" d="m465.0229 246.83923l-30.740143 -90.456696" fill-rule="evenodd"/><path stroke="#000000" stroke-width="1.0" stroke-linejoin="round" stroke-linecap="butt" d="m465.0229 246.83923l-30.740143 -90.456696" fill-rule="evenodd"/><path fill="#ffd966" d="m469.51706 83.11811l0 0c0 -5.27932 4.279724 -9.559059 9.5590515 -9.559059l0 0c2.5352173 0 4.966614 1.0071182 6.7592773 2.7997894c1.7926636 1.7926636 2.7997742 4.2240524 2.7997742 6.7592697l0 0c0 5.27932 -4.279724 9.5590515 -9.5590515 9.5590515l0 0c-5.2793274 0 -9.5590515 -4.2797318 -9.5590515 -9.5590515z" fill-rule="evenodd"/><path stroke="#ffd966" stroke-width="2.0" stroke-linejoin="round" stroke-linecap="butt" d="m469.51706 83.11811l0 0c0 -5.27932 4.279724 -9.559059 9.5590515 -9.559059l0 0c2.5352173 0 4.966614 1.0071182 6.7592773 2.7997894c1.7926636 1.7926636 2.7997742 4.2240524 2.7997742 6.7592697l0 0c0 5.27932 -4.279724 9.5590515 -9.5590515 9.5590515l0 0c-5.2793274 0 -9.5590515 -4.2797318 -9.5590515 -9.5590515z" fill-rule="evenodd"/><path fill="#ffd966" d="m469.51706 142.32939l0 0c0 -5.279312 4.279724 -9.5590515 9.5590515 -9.5590515l0 0c2.5352173 0 4.966614 1.0071106 6.7592773 2.7997894c1.7926636 1.7926636 2.7997742 4.224045 2.7997742 6.759262l0 0c0 5.2793274 -4.279724 9.559067 -9.5590515 9.559067l0 0c-5.2793274 0 -9.5590515 -4.2797394 -9.5590515 -9.559067z" fill-rule="evenodd"/><path stroke="#ffd966" stroke-width="2.0" stroke-linejoin="round" stroke-linecap="butt" d="m469.51706 142.32939l0 0c0 -5.279312 4.279724 -9.5590515 9.5590515 -9.5590515l0 0c2.5352173 0 4.966614 1.0071106 6.7592773 2.7997894c1.7926636 1.7926636 2.7997742 4.224045 2.7997742 6.759262l0 0c0 5.2793274 -4.279724 9.559067 -9.5590515 9.559067l0 0c-5.2793274 0 -9.5590515 -4.2797394 -9.5590515 -9.559067z" fill-rule="evenodd"/><path fill="#ffd966" d="m469.51706 202.11417l0 0c0 -5.279312 4.279724 -9.5590515 9.5590515 -9.5590515l0 0c2.5352173 0 4.966614 1.0071106 6.7592773 2.7997894c1.7926636 1.7926636 2.7997742 4.224045 2.7997742 6.759262l0 0c0 5.2793274 -4.279724 9.559067 -9.5590515 9.559067l0 0c-5.2793274 0 -9.5590515 -4.2797394 -9.5590515 -9.559067z" fill-rule="evenodd"/><path stroke="#ffd966" stroke-width="2.0" stroke-linejoin="round" stroke-linecap="butt" d="m469.51706 202.11417l0 0c0 -5.279312 4.279724 -9.5590515 9.5590515 -9.5590515l0 0c2.5352173 0 4.966614 1.0071106 6.7592773 2.7997894c1.7926636 1.7926636 2.7997742 4.224045 2.7997742 6.759262l0 0c0 5.2793274 -4.279724 9.559067 -9.5590515 9.559067l0 0c-5.2793274 0 -9.5590515 -4.2797394 -9.5590515 -9.559067z" fill-rule="evenodd"/><path fill="#ffd966" d="m469.51706 260.74933l0 0c0 -5.279312 4.279724 -9.559036 9.5590515 -9.559036l0 0c2.5352173 0 4.966614 1.0071106 6.7592773 2.7997742c1.7926636 1.7926788 2.7997742 4.224045 2.7997742 6.759262l0 0c0 5.2793274 -4.279724 9.559082 -9.5590515 9.559082l0 0c-5.2793274 0 -9.5590515 -4.2797546 -9.5590515 -9.559082z" fill-rule="evenodd"/><path stroke="#ffd966" stroke-width="2.0" stroke-linejoin="round" stroke-linecap="butt" d="m469.51706 260.74933l0 0c0 -5.279312 4.279724 -9.559036 9.5590515 -9.559036l0 0c2.5352173 0 4.966614 1.0071106 6.7592773 2.7997742c1.7926636 1.7926788 2.7997742 4.224045 2.7997742 6.759262l0 0c0 5.2793274 -4.279724 9.559082 -9.5590515 9.559082l0 0c-5.2793274 0 -9.5590515 -4.2797546 -9.5590515 -9.559082z" fill-rule="evenodd"/></g></svg>